<?xml version="1.0" encoding="UTF-8" standalone="no"?>
<!-- Created with Inkscape (http://www.inkscape.org/) -->

<svg
   width="158.51372mm"
   height="74.898529mm"
   viewBox="0 0 158.51372 74.898529"
   version="1.1"
   id="svg8"
   inkscape:version="1.3.2 (1:1.3.2+202311252150+091e20ef0f)"
   sodipodi:docname="logo-hoteldada.svg"
   xml:space="preserve"
   xmlns:inkscape="http://www.inkscape.org/namespaces/inkscape"
   xmlns:sodipodi="http://sodipodi.sourceforge.net/DTD/sodipodi-0.dtd"
   xmlns="http://www.w3.org/2000/svg"
   xmlns:svg="http://www.w3.org/2000/svg"
   xmlns:rdf="http://www.w3.org/1999/02/22-rdf-syntax-ns#"
   xmlns:cc="http://creativecommons.org/ns#"
   xmlns:dc="http://purl.org/dc/elements/1.1/"><defs
     id="defs2"><clipPath
       clipPathUnits="userSpaceOnUse"
       id="clipPath88"><path
         d="M 0,595.276 H 841.89 V 0 H 0 Z"
         transform="translate(-605.41742,-400.92681)"
         id="path88" /></clipPath><clipPath
       clipPathUnits="userSpaceOnUse"
       id="clipPath86"><path
         d="M 0,595.276 H 841.89 V 0 H 0 Z"
         transform="translate(-128.2012,-265.9649)"
         id="path86" /></clipPath><clipPath
       clipPathUnits="userSpaceOnUse"
       id="clipPath84"><path
         d="M 0,595.276 H 841.89 V 0 H 0 Z"
         transform="translate(-488.17351,-265.9649)"
         id="path84" /></clipPath><clipPath
       clipPathUnits="userSpaceOnUse"
       id="clipPath82"><path
         d="M 0,595.276 H 841.89 V 0 H 0 Z"
         transform="translate(-323.99551,-230.48551)"
         id="path82" /></clipPath><clipPath
       clipPathUnits="userSpaceOnUse"
       id="clipPath80"><path
         d="M 0,595.276 H 841.89 V 0 H 0 Z"
         transform="translate(-325.93601,-405.45401)"
         id="path80" /></clipPath><clipPath
       clipPathUnits="userSpaceOnUse"
       id="clipPath78"><path
         d="M 0,595.276 H 841.89 V 0 H 0 Z"
         transform="translate(-675.87962,-217.8719)"
         id="path78" /></clipPath><clipPath
       clipPathUnits="userSpaceOnUse"
       id="clipPath76"><path
         d="M 0,595.276 H 841.89 V 0 H 0 Z"
         id="path76" /></clipPath><clipPath
       clipPathUnits="userSpaceOnUse"
       id="clipPath74"><path
         d="M 0,595.276 H 841.89 V 0 H 0 Z"
         transform="translate(-485.70991,-444.26501)"
         id="path74" /></clipPath><clipPath
       clipPathUnits="userSpaceOnUse"
       id="clipPath72"><path
         d="M 0,595.276 H 841.89 V 0 H 0 Z"
         transform="translate(-65.255702,-487.60421)"
         id="path72" /></clipPath><clipPath
       clipPathUnits="userSpaceOnUse"
       id="clipPath70"><path
         d="M 0,595.276 H 841.89 V 0 H 0 Z"
         id="path70" /></clipPath><clipPath
       clipPathUnits="userSpaceOnUse"
       id="clipPath68"><path
         d="M 0,595.276 H 841.89 V 0 H 0 Z"
         transform="translate(-764.41494,-110.6182)"
         id="path68" /></clipPath><clipPath
       clipPathUnits="userSpaceOnUse"
       id="clipPath66"><path
         d="M 0,595.276 H 841.89 V 0 H 0 Z"
         transform="translate(-753.30204,-110.0723)"
         id="path66" /></clipPath><clipPath
       clipPathUnits="userSpaceOnUse"
       id="clipPath64"><path
         d="M 0,595.276 H 841.89 V 0 H 0 Z"
         transform="translate(-725.70032,-96.169902)"
         id="path64" /></clipPath><clipPath
       clipPathUnits="userSpaceOnUse"
       id="clipPath62"><path
         d="M 0,595.276 H 841.89 V 0 H 0 Z"
         transform="translate(-708.49392,-107.38381)"
         id="path62" /></clipPath><clipPath
       clipPathUnits="userSpaceOnUse"
       id="clipPath60"><path
         d="M 0,595.276 H 841.89 V 0 H 0 Z"
         transform="translate(-675.64222,-96.169902)"
         id="path60" /></clipPath><clipPath
       clipPathUnits="userSpaceOnUse"
       id="clipPath58"><path
         d="M 0,595.276 H 841.89 V 0 H 0 Z"
         id="path58" /></clipPath><clipPath
       clipPathUnits="userSpaceOnUse"
       id="clipPath56"><path
         d="M 0,595.276 H 841.89 V 0 H 0 Z"
         transform="translate(-651.79031,-96.169902)"
         id="path56" /></clipPath><clipPath
       clipPathUnits="userSpaceOnUse"
       id="clipPath54"><path
         d="M 0,595.276 H 841.89 V 0 H 0 Z"
         transform="translate(-634.76062,-107.38381)"
         id="path54" /></clipPath><clipPath
       clipPathUnits="userSpaceOnUse"
       id="clipPath52"><path
         d="M 0,595.276 H 841.89 V 0 H 0 Z"
         transform="translate(-617.84681,-110.6182)"
         id="path52" /></clipPath><clipPath
       clipPathUnits="userSpaceOnUse"
       id="clipPath50"><path
         d="M 0,595.276 H 841.89 V 0 H 0 Z"
         transform="translate(-585.79211,-96.169902)"
         id="path50" /></clipPath><clipPath
       clipPathUnits="userSpaceOnUse"
       id="clipPath48"><path
         d="M 0,595.276 H 841.89 V 0 H 0 Z"
         transform="translate(-570.64781,-107.38381)"
         id="path48" /></clipPath><clipPath
       clipPathUnits="userSpaceOnUse"
       id="clipPath46"><path
         d="M 0,595.276 H 841.89 V 0 H 0 Z"
         transform="translate(-541.57981,-110.6182)"
         id="path46" /></clipPath><clipPath
       clipPathUnits="userSpaceOnUse"
       id="clipPath44"><path
         d="M 0,595.276 H 841.89 V 0 H 0 Z"
         transform="translate(-529.00462,-124.41901)"
         id="path44" /></clipPath><clipPath
       clipPathUnits="userSpaceOnUse"
       id="clipPath42"><path
         d="M 0,595.276 H 841.89 V 0 H 0 Z"
         transform="translate(-519.36851,-111.20611)"
         id="path42" /></clipPath><clipPath
       clipPathUnits="userSpaceOnUse"
       id="clipPath40"><path
         d="M 0,595.276 H 841.89 V 0 H 0 Z"
         transform="translate(-492.10171,-107.38381)"
         id="path40" /></clipPath><clipPath
       clipPathUnits="userSpaceOnUse"
       id="clipPath38"><path
         d="M 0,595.276 H 841.89 V 0 H 0 Z"
         transform="translate(-470.75421,-100.85251)"
         id="path38" /></clipPath><clipPath
       clipPathUnits="userSpaceOnUse"
       id="clipPath36"><path
         d="M 0,595.276 H 841.89 V 0 H 0 Z"
         transform="translate(-452.57221,-110.6182)"
         id="path36" /></clipPath><clipPath
       clipPathUnits="userSpaceOnUse"
       id="clipPath34"><path
         d="M 0,595.276 H 841.89 V 0 H 0 Z"
         transform="translate(-410.02981,-86.622305)"
         id="path34" /></clipPath><clipPath
       clipPathUnits="userSpaceOnUse"
       id="clipPath32"><path
         d="M 0,595.276 H 841.89 V 0 H 0 Z"
         transform="translate(-382.91241,-100.85251)"
         id="path32" /></clipPath><clipPath
       clipPathUnits="userSpaceOnUse"
       id="clipPath30"><path
         d="M 0,595.276 H 841.89 V 0 H 0 Z"
         transform="translate(-361.02961,-107.38381)"
         id="path30" /></clipPath><clipPath
       clipPathUnits="userSpaceOnUse"
       id="clipPath28"><path
         d="M 0,595.276 H 841.89 V 0 H 0 Z"
         transform="translate(-343.60891,-96.169902)"
         id="path28" /></clipPath><clipPath
       clipPathUnits="userSpaceOnUse"
       id="clipPath26"><path
         d="M 0,595.276 H 841.89 V 0 H 0 Z"
         transform="translate(-329.16161,-95.956505)"
         id="path26" /></clipPath><clipPath
       clipPathUnits="userSpaceOnUse"
       id="clipPath24"><path
         d="M 0,595.276 H 841.89 V 0 H 0 Z"
         transform="translate(-311.80691,-100.85251)"
         id="path24" /></clipPath><clipPath
       clipPathUnits="userSpaceOnUse"
       id="clipPath22"><path
         d="M 0,595.276 H 841.89 V 0 H 0 Z"
         transform="translate(-302.65071,-113.0537)"
         id="path22" /></clipPath><clipPath
       clipPathUnits="userSpaceOnUse"
       id="clipPath20"><path
         d="M 0,595.276 H 841.89 V 0 H 0 Z"
         transform="translate(-260.36211,-107.38381)"
         id="path20" /></clipPath><clipPath
       clipPathUnits="userSpaceOnUse"
       id="clipPath18"><path
         d="M 0,595.276 H 841.89 V 0 H 0 Z"
         transform="translate(-253.79971,-110.0723)"
         id="path18" /></clipPath><clipPath
       clipPathUnits="userSpaceOnUse"
       id="clipPath16"><path
         d="M 0,595.276 H 841.89 V 0 H 0 Z"
         transform="translate(-230.9671,-96.169902)"
         id="path16" /></clipPath><clipPath
       clipPathUnits="userSpaceOnUse"
       id="clipPath14"><path
         d="M 0,595.276 H 841.89 V 0 H 0 Z"
         transform="translate(-218.52331,-110.6182)"
         id="path14" /></clipPath><clipPath
       clipPathUnits="userSpaceOnUse"
       id="clipPath12"><path
         d="M 0,595.276 H 841.89 V 0 H 0 Z"
         transform="translate(-181.73661,-107.38381)"
         id="path12" /></clipPath><clipPath
       clipPathUnits="userSpaceOnUse"
       id="clipPath10"><path
         d="M 0,595.276 H 841.89 V 0 H 0 Z"
         transform="translate(-163.5921,-110.6182)"
         id="path10" /></clipPath><clipPath
       clipPathUnits="userSpaceOnUse"
       id="clipPath8"><path
         d="M 0,595.276 H 841.89 V 0 H 0 Z"
         transform="translate(-127.0878,-107.38381)"
         id="path8-3" /></clipPath><clipPath
       clipPathUnits="userSpaceOnUse"
       id="clipPath6"><path
         d="M 0,595.276 H 841.89 V 0 H 0 Z"
         transform="translate(-118.6884,-111.20611)"
         id="path6-6" /></clipPath><clipPath
       clipPathUnits="userSpaceOnUse"
       id="clipPath4"><path
         d="M 0,595.276 H 841.89 V 0 H 0 Z"
         transform="translate(-94.1683,-110.6182)"
         id="path4-7" /></clipPath><clipPath
       clipPathUnits="userSpaceOnUse"
       id="clipPath2"><path
         d="M 0,595.276 H 841.89 V 0 H 0 Z"
         transform="translate(-72.075502,-110.6182)"
         id="path2-5" /></clipPath></defs><sodipodi:namedview
     id="base"
     pagecolor="#d2d2d2"
     bordercolor="#666666"
     borderopacity="1.0"
     inkscape:pageopacity="0"
     inkscape:pageshadow="2"
     inkscape:zoom="0.39375"
     inkscape:cx="-81.051971"
     inkscape:cy="558.86667"
     inkscape:document-units="mm"
     inkscape:current-layer="layer1"
     showgrid="false"
     inkscape:window-width="1366"
     inkscape:window-height="741"
     inkscape:window-x="0"
     inkscape:window-y="0"
     inkscape:window-maximized="1"
     inkscape:showpageshadow="2"
     inkscape:pagecheckerboard="0"
     inkscape:deskcolor="#d1d1d1" /><metadata
     id="metadata5"><rdf:RDF><cc:Work
         rdf:about=""><dc:format>image/svg+xml</dc:format><dc:type
           rdf:resource="http://purl.org/dc/dcmitype/StillImage" /></cc:Work></rdf:RDF></metadata><g
     inkscape:label="Capa 1"
     inkscape:groupmode="layer"
     id="layer1"
     transform="translate(488.50789,-77.229339)"><path
       id="path71"
       d="m -488.29414,79.653609 h 13.83357 v 10.553156 h 8.12884 V 79.653609 h 14.54658 V 112.59711 H -465.191 v -10.41073 h -8.41391 v 10.41073 h -14.68923 z"
       style="fill:#000000;fill-opacity:1;fill-rule:nonzero;stroke:none;stroke-width:0.220473"
       clip-path="none" /><path
       id="path73"
       d="m -395.59538,89.208725 v -7.986411 h -13.26298 v 7.986411 h -3.851 v 8.414125 h 3.851 v 14.9743 h 13.26298 V 98.050569 h 3.42262 V 89.35115 Z"
       style="fill:#000000;fill-opacity:1;fill-rule:nonzero;stroke:none;stroke-width:0.220473"
       clip-path="none" /><path
       id="path75"
       d="m -340.26217,112.59716 h -12.26447 V 77.229339 h 12.26447 z"
       style="fill:#000000;fill-opacity:1;fill-rule:nonzero;stroke:none;stroke-width:0.220473"
       clip-path="none" /><path
       id="path77"
       d="m -353.66811,139.12228 h 5.13416 l -2.56719,-9.26956 z m -18.53913,12.5502 13.69093,-32.94328 h 14.9743 l 13.54784,32.23049 h -14.54636 l -1.85351,-3.42284 h -9.27045 l -2.13903,4.13563 z"
       style="fill:#000000;fill-opacity:1;fill-rule:nonzero;stroke:none;stroke-width:0.220473"
       clip-path="none" /><path
       id="path79"
       d="m -430.82119,97.765504 c -1.89034,0 -3.42262,1.53229 -3.42262,3.422616 0,1.89034 1.53228,3.42285 3.42262,3.42285 1.89033,0 3.42262,-1.53251 3.42262,-3.42285 0,-1.890326 -1.53229,-3.422616 -3.42262,-3.422616 m 16.11546,3.208316 c 0,7.12833 -7.68789,12.479 -16.11546,12.479 -8.42736,0 -15.68731,-5.7786 -15.68731,-12.90671 0,-7.128108 7.25995,-12.05105 15.68731,-12.05105 8.42757,0 16.11546,5.350654 16.11546,12.47876"
       style="fill:#000000;fill-opacity:1;fill-rule:nonzero;stroke:none;stroke-width:0.220473"
       clip-path="none" /><path
       id="path81"
       d="m -431.24902,136.34132 c -1.89034,0 -3.42262,1.53251 -3.42262,3.42262 0,1.89034 1.53228,3.42285 3.42262,3.42285 1.89033,0 3.42262,-1.53251 3.42262,-3.42285 0,-1.89011 -1.53229,-3.42262 -3.42262,-3.42262 m 3.42262,-8.05718 h 12.54998 v 23.38821 h -11.9794 c 0,0 -0.12478,-1.70801 -0.14265,-3.13689 -1.92538,2.13925 -19.29843,10.29079 -19.9658,-8.55678 -0.27757,-7.83935 7.98641,-18.11185 19.53787,-8.98449 z"
       style="fill:#000000;fill-opacity:1;fill-rule:nonzero;stroke:none;stroke-width:0.220473"
       clip-path="none" /><path
       id="path83"
       d="m -395.05222,128.51908 v 12.59958 c 0,0 8.93268,0.85632 8.93268,-6.30993 6.2e-4,-4.95601 -4.55563,-6.28965 -8.93268,-6.28965 m 22.84496,6.68165 c 0,18.18306 -22.81828,16.47175 -36.9367,16.47175 0.28485,-9.41243 0,-32.94328 0,-32.94328 4.13607,0.28529 36.50899,-6.13201 36.9367,16.47153"
       style="fill:#000000;fill-opacity:1;fill-rule:nonzero;stroke:none;stroke-width:0.220473"
       clip-path="none" /><path
       id="path85"
       d="m -474.41636,128.51908 v 12.59958 c 0,0 8.93267,0.85632 8.93267,-6.30993 6.3e-4,-4.95601 -4.55562,-6.28965 -8.93267,-6.28965 m 22.84496,6.68165 c 0,18.18306 -22.81785,16.47175 -36.93649,16.47175 0.28507,-9.41243 0,-32.94328 0,-32.94328 4.13585,0.28529 36.50877,-6.13201 36.93649,16.47153"
       style="fill:#000000;fill-opacity:1;fill-rule:nonzero;stroke:none;stroke-width:0.220473"
       clip-path="none" /><path
       id="path87"
       d="m -369.20312,98.763632 c 0,-1.890337 -1.53251,-3.42262 -3.42262,-3.42262 -1.89033,0 -3.42284,1.532283 -3.42284,3.42262 m -0.009,3.565048 c -0.35673,5.20558 5.58876,5.17891 6.74514,2.55837 4.56335,0.0392 11.32856,0.041 11.32856,0.041 -1.81581,4.88811 -8.50562,8.52459 -15.2834,8.52481 -8.42801,0 -15.68797,-5.77859 -15.68797,-12.90692 0,-7.127897 7.25996,-12.050836 15.68797,-12.050836 8.42714,0 16.1148,5.350658 16.1148,12.478766 0,0.50687 0.0511,0.86712 -0.0249,1.35481 z"
       style="fill:#000000;fill-opacity:1;fill-rule:nonzero;stroke:none;stroke-width:0.220473"
       clip-path="none" /></g></svg>
