<?xml version="1.0" encoding="UTF-8" standalone="no"?>
<!-- Created with Inkscape (http://www.inkscape.org/) -->

<svg
   width="508mm"
   height="285.75mm"
   viewBox="0 0 508 285.75"
   version="1.1"
   id="svg8"
   inkscape:version="1.3.2 (1:1.3.2+202311252150+091e20ef0f)"
   sodipodi:docname="maqueta.svg"
   xml:space="preserve"
   inkscape:export-filename="portada_2026_miniatura.jpg"
   inkscape:export-xdpi="96"
   inkscape:export-ydpi="96"
   xmlns:inkscape="http://www.inkscape.org/namespaces/inkscape"
   xmlns:sodipodi="http://sodipodi.sourceforge.net/DTD/sodipodi-0.dtd"
   xmlns:xlink="http://www.w3.org/1999/xlink"
   xmlns="http://www.w3.org/2000/svg"
   xmlns:svg="http://www.w3.org/2000/svg"
   xmlns:rdf="http://www.w3.org/1999/02/22-rdf-syntax-ns#"
   xmlns:cc="http://creativecommons.org/ns#"
   xmlns:dc="http://purl.org/dc/elements/1.1/"><defs
     id="defs2" /><sodipodi:namedview
     id="base"
     pagecolor="#d2d2d2"
     bordercolor="#666666"
     borderopacity="1.0"
     inkscape:pageopacity="0"
     inkscape:pageshadow="2"
     inkscape:zoom="0.39375"
     inkscape:cx="-81.051971"
     inkscape:cy="558.86667"
     inkscape:document-units="mm"
     inkscape:current-layer="layer1"
     showgrid="false"
     inkscape:window-width="1366"
     inkscape:window-height="741"
     inkscape:window-x="0"
     inkscape:window-y="0"
     inkscape:window-maximized="1"
     inkscape:showpageshadow="2"
     inkscape:pagecheckerboard="0"
     inkscape:deskcolor="#d1d1d1" /><metadata
     id="metadata5"><rdf:RDF><cc:Work
         rdf:about=""><dc:format>image/svg+xml</dc:format><dc:type
           rdf:resource="http://purl.org/dc/dcmitype/StillImage" /><dc:title /></cc:Work></rdf:RDF></metadata><g
     inkscape:label="Capa 1"
     inkscape:groupmode="layer"
     id="layer1"
     transform="translate(430.72485,132.79564)"><image
       width="508"
       height="285.75"
       preserveAspectRatio="none"
       xlink:href="portada_2026.jpg"
       id="image1"
       x="-430.72485"
       y="-132.79564" /><g
       id="g4"
       transform="translate(-11.337029)"><g
         id="g3"
         transform="matrix(0.6808695,0,0,0.6808695,-226.45189,-138.18881)"
         style="fill:#ffffff;fill-opacity:1;stroke-width:1.46871"><path
           style="-inkscape-font-specification:'Arial Black, ';fill:#ffffff;fill-opacity:1;stroke-width:1.96478;paint-order:stroke markers fill"
           d="m 109.78738,340.14577 h 10.92259 l 7.60434,24.31082 7.48912,-24.31082 h 10.59997 l -12.53562,33.78167 h -11.31434 z"
           id="path6" /><path
           style="-inkscape-font-specification:'Arial Black, ';fill:#ffffff;fill-opacity:1;stroke-width:1.96478;paint-order:stroke markers fill"
           d="M 107.18845,340.14577 H 79.213713 v 7.21259 h 17.51301 v 5.36913 H 80.48111 v 6.88998 h 16.245613 v 6.65956 H 78.706764 v 7.65041 h 28.481686 z"
           id="path5" /><path
           style="-inkscape-font-specification:'Arial Black, ';fill:#ffffff;fill-opacity:1;stroke-width:1.96478;paint-order:stroke markers fill"
           d="M 73.482627,373.92744 V 340.14577 H 56.084835 q -4.83912,0 -7.396944,0.82956 -2.557815,0.82956 -4.124771,3.08782 -1.566957,2.23521 -1.566957,5.4613 0,2.8113 1.198258,4.86217 1.198257,2.02781 3.295212,3.29521 1.336518,0.80652 3.663912,1.33652 -1.866525,0.62216 -2.719134,1.24434 -0.576079,0.41478 -1.659126,1.77434 -1.106078,1.35957 -1.474777,2.09695 l -5.046509,9.79346 h 11.798235 l 5.576517,-10.32345 q 1.059998,-2.00478 1.889556,-2.60391 1.129128,-0.78348 2.557825,-0.78348 h 0.921738 v 13.71084 z M 62.99787,353.83357 h -4.401301 q -0.714348,0 -2.765214,-0.46087 -1.036948,-0.20739 -1.682166,-1.06 -0.668259,-0.85261 -0.668259,-1.95869 0,-1.63608 1.036958,-2.51173 1.036948,-0.87566 3.894332,-0.87566 h 4.58565 z"
           id="path4" /><path
           style="-inkscape-font-specification:'Arial Black, ';fill:#ffffff;fill-opacity:1;stroke-width:1.96478;paint-order:stroke markers fill"
           d="m 6.4375773,362.75138 9.9317277,-0.62217 q 0.3226,2.41955 1.313468,3.68695 1.613046,2.05087 4.60869,2.05087 2.235215,0 3.433472,-1.03696 1.221307,-1.06 1.221307,-2.44261 0,-1.31347 -1.152177,-2.35043 -1.152167,-1.03695 -5.346078,-1.95869 -6.866945,-1.54391 -9.793459,-4.10173 -2.9495634,-2.55782 -2.9495634,-6.52129 0,-2.60391 1.4978266,-4.90825 1.5208668,-2.32739 4.5395598,-3.64087 3.041734,-1.33651 8.318682,-1.33651 6.475206,0 9.862589,2.41955 3.410432,2.39652 4.055641,7.65043 l -9.839548,0.57608 q -0.391739,-2.2813 -1.659127,-3.31826 -1.244347,-1.03695 -3.456512,-1.03695 -1.820436,0 -2.742165,0.78348 -0.921738,0.76043 -0.921738,1.86652 0,0.80652 0.760429,1.45173 0.737388,0.66826 3.502602,1.24435 6.843905,1.47478 9.793459,2.99565 2.972604,1.49782 4.309121,3.73303 1.359567,2.23521 1.359567,5.00043 0,3.24912 -1.797386,5.99129 -1.797387,2.74217 -5.02347,4.17086 -3.226082,1.40565 -8.134332,1.40565 -8.618251,0 -11.936504,-3.31825 -3.3182529,-3.31825 -3.7560817,-8.4339 z"
           id="path3" /><path
           style="-inkscape-font-specification:'Arial Black, ';fill:#ffffff;fill-opacity:1;stroke-width:1.96478;paint-order:stroke markers fill"
           d="m -32.367569,357.0596 q 0,-8.27259 4.60869,-12.88128 4.60869,-4.60868 12.835192,-4.60868 8.4339023,0 12.9965025,4.53955 4.5626001,4.51652 4.5626001,12.67389 0,5.92217 -2.0047853,9.72433 -1.9817357,3.77912 -5.7608576,5.89912 -3.7560818,2.09695 -9.3786797,2.09695 -5.714768,0 -9.47085,-1.82042 -3.733032,-1.82044 -6.060427,-5.76087 -2.327385,-3.94042 -2.327385,-9.86259 z m 10.438678,0.0461 q 0,5.11564 1.889565,7.35085 1.912606,2.23522 5.184769,2.23522 3.364343,0 5.2078193,-2.18913 1.8434759,-2.18912 1.8434759,-7.85781 0,-4.76999 -1.9356554,-6.95911 -1.9125968,-2.21218 -5.2078098,-2.21218 -3.156953,0 -5.069559,2.23522 -1.912605,2.23521 -1.912605,7.39694 z"
           id="path2" /><path
           style="-inkscape-font-specification:'Arial Black, ';fill:#ffffff;fill-opacity:1;stroke-width:1.96478;paint-order:stroke markers fill"
           d="m -65.181418,340.14572 h 17.351703 q 5.668687,0 8.479991,2.69608 2.834334,2.69609 2.834334,7.67347 0,5.11565 -3.087813,7.99607 -3.064783,2.88043 -9.37868,2.88043 h -5.714777 v 12.53563 h -10.484758 z m 10.484758,14.40215 h 2.557824 q 3.018693,0 4.239991,-1.03696 1.221307,-1.06 1.221307,-2.69607 0,-1.59 -1.059998,-2.69609 -1.059998,-1.10609 -3.986521,-1.10609 h -2.972603 z"
           id="text1" /></g><text
         xml:space="preserve"
         style="font-style:normal;font-variant:normal;font-weight:normal;font-stretch:normal;font-size:24.8871px;line-height:1;font-family:Archivo;-inkscape-font-specification:Archivo;text-align:center;text-decoration:none;text-decoration-line:none;text-decoration-color:#000000;letter-spacing:0.622178px;word-spacing:0px;text-anchor:middle;fill:#ffffff;fill-opacity:1;stroke-width:0.999998;-inkscape-stroke:none;paint-order:fill markers stroke"
         x="-87.605728"
         y="113.22"
         id="text3"><tspan
           sodipodi:role="line"
           id="tspan1"
           style="font-style:normal;font-variant:normal;font-weight:normal;font-stretch:normal;font-family:Archivo;-inkscape-font-specification:Archivo;fill:#ffffff;fill-opacity:1;stroke-width:0.999998"
           x="-87.29464"
           y="113.22">2026</tspan></text></g></g></svg>
