<?xml version="1.0" encoding="UTF-8" standalone="no"?>
<!-- Created with Inkscape (http://www.inkscape.org/) -->

<svg
   width="67.733002mm"
   height="67.73333mm"
   viewBox="0 0 67.733002 67.73333"
   version="1.1"
   id="svg8"
   xml:space="preserve"
   sodipodi:docname="icon-filtrar.svg"
   inkscape:version="1.3.2 (1:1.3.2+202311252150+091e20ef0f)"
   inkscape:export-filename="icon-cronograma.png"
   inkscape:export-xdpi="96"
   inkscape:export-ydpi="96"
   xmlns:inkscape="http://www.inkscape.org/namespaces/inkscape"
   xmlns:sodipodi="http://sodipodi.sourceforge.net/DTD/sodipodi-0.dtd"
   xmlns="http://www.w3.org/2000/svg"
   xmlns:svg="http://www.w3.org/2000/svg"
   xmlns:rdf="http://www.w3.org/1999/02/22-rdf-syntax-ns#"
   xmlns:cc="http://creativecommons.org/ns#"
   xmlns:dc="http://purl.org/dc/elements/1.1/"><sodipodi:namedview
     id="namedview1"
     pagecolor="#ffffff"
     bordercolor="#666666"
     borderopacity="1.0"
     inkscape:showpageshadow="2"
     inkscape:pageopacity="0.0"
     inkscape:pagecheckerboard="0"
     inkscape:deskcolor="#d1d1d1"
     inkscape:document-units="mm"
     inkscape:current-layer="svg8"
     showguides="true" /><defs
     id="defs2" /><metadata
     id="metadata5"><rdf:RDF><cc:Work
         rdf:about=""><dc:format>image/svg+xml</dc:format><dc:type
           rdf:resource="http://purl.org/dc/dcmitype/StillImage" /></cc:Work></rdf:RDF></metadata><path
     id="path1"
     style="fill:#000000;stroke-width:0.422954"
     d="M 34.266125 1.6169556 C 12.963422 1.5959749 4.1040161 1.6228795 3.6850464 1.7094564 C 2.0435665 2.0486552 0.9464718 4.1458864 1.5937012 5.7071452 C 1.6570028 5.8598424 2.7635291 7.0263747 4.8503499 9.1534465 L 63.056099 9.1534465 L 66.307064 5.8993815 L 66.444523 5.2653117 C 66.736062 3.9235121 65.969366 2.4178363 64.704578 1.848466 C 64.277588 1.6562478 62.874345 1.6451335 34.266125 1.6169556 z M 8.7426188 13.072587 C 10.277328 14.618477 11.292296 15.653737 13.456026 17.818551 L 25.145235 29.513961 L 25.145235 41.087931 C 25.145235 52.392998 25.150599 52.672236 25.366927 53.116654 C 25.513278 53.417311 27.747393 55.729391 31.953605 59.933809 C 37.843855 65.821553 38.36394 66.312257 38.922172 66.510152 C 40.23707 66.97629 41.864511 66.34469 42.524019 65.111788 L 42.770516 64.650317 L 42.799972 47.025037 L 42.829427 29.399756 L 54.568245 17.649569 L 59.140576 13.072587 L 8.7426188 13.072587 z " /></svg>
