<?xml version="1.0" encoding="UTF-8" standalone="no"?>
<!-- Created with Inkscape (http://www.inkscape.org/) -->

<svg
   width="67.733002mm"
   height="67.73333mm"
   viewBox="0 0 67.733002 67.73333"
   version="1.1"
   id="svg8"
   xml:space="preserve"
   sodipodi:docname="icon-buscar.svg"
   inkscape:version="1.3.2 (1:1.3.2+202311252150+091e20ef0f)"
   inkscape:export-filename="icon-cronograma.png"
   inkscape:export-xdpi="96"
   inkscape:export-ydpi="96"
   xmlns:inkscape="http://www.inkscape.org/namespaces/inkscape"
   xmlns:sodipodi="http://sodipodi.sourceforge.net/DTD/sodipodi-0.dtd"
   xmlns="http://www.w3.org/2000/svg"
   xmlns:svg="http://www.w3.org/2000/svg"
   xmlns:rdf="http://www.w3.org/1999/02/22-rdf-syntax-ns#"
   xmlns:cc="http://creativecommons.org/ns#"
   xmlns:dc="http://purl.org/dc/elements/1.1/"><sodipodi:namedview
     id="namedview1"
     pagecolor="#ffffff"
     bordercolor="#666666"
     borderopacity="1.0"
     inkscape:showpageshadow="2"
     inkscape:pageopacity="0.0"
     inkscape:pagecheckerboard="0"
     inkscape:deskcolor="#d1d1d1"
     inkscape:document-units="mm"
     inkscape:current-layer="svg8"
     showguides="true" /><defs
     id="defs2" /><metadata
     id="metadata5"><rdf:RDF><cc:Work
         rdf:about=""><dc:format>image/svg+xml</dc:format><dc:type
           rdf:resource="http://purl.org/dc/dcmitype/StillImage" /></cc:Work></rdf:RDF></metadata><path
     style="fill:#000000;stroke-width:0.297029"
     d="m 57.596418,65.146125 c -0.719612,-0.15186 -1.636772,-0.539078 -2.250403,-0.950101 -0.20857,-0.139704 -3.544392,-3.412204 -7.412936,-7.272223 l -7.033716,-7.018213 -0.895376,0.499782 c -2.107744,1.176502 -4.833372,2.140271 -7.435058,2.628997 -2.156554,0.405108 -5.152307,0.517335 -7.371114,0.276135 C 14.841255,52.184675 6.2152496,44.875373 3.3817459,34.824512 2.8118474,32.802999 2.5276409,30.877131 2.4570432,28.558453 2.2848815,22.904262 4.0768649,17.276527 7.5078475,12.696371 13.49531,4.7034665 23.322432,0.98427624 33.197641,2.9737655 c 2.555417,0.5148223 5.603918,1.7135147 7.898195,3.105628 6.863942,4.1648775 11.355858,11.1933365 12.217103,19.1159845 0.15477,1.42374 0.156247,4.054194 0.0031,5.445684 -0.377303,3.427201 -1.39536,6.638573 -3.053994,9.633553 l -0.351729,0.635114 6.915397,6.909432 c 3.803469,3.800186 7.072757,7.12727 7.265086,7.393517 0.492683,0.682044 0.889716,1.586773 1.061408,2.418657 0.927432,4.493624 -3.063399,8.462825 -7.555746,7.51479 z M 31.075738,46.836807 c 4.097863,-0.723508 7.421133,-2.441784 10.343275,-5.347929 2.815869,-2.800454 4.602967,-6.154136 5.331459,-10.005061 0.487264,-2.575755 0.39841,-5.673798 -0.234915,-8.190827 C 46.047221,21.431682 45.035865,19.109034 44.000371,17.516697 41.160952,13.150364 36.611485,10.099496 31.507977,9.1393136 25.322029,7.9754773 18.964836,9.9192276 14.490706,14.342445 9.9647197,18.816929 7.9608471,25.246187 9.1413092,31.50554 c 1.4405718,7.638576 7.4075088,13.672241 15.0325628,15.200674 1.498645,0.3004 2.160317,0.351913 4.151251,0.323182 1.401517,-0.02023 2.019388,-0.06349 2.750615,-0.192589 z"
     id="path2" /></svg>
