<?xml version="1.0" encoding="UTF-8" standalone="no"?>
<!-- Created with Inkscape (http://www.inkscape.org/) -->

<svg
   width="67.733337mm"
   height="67.73333mm"
   viewBox="0 0 67.733338 67.73333"
   version="1.1"
   id="svg8"
   xml:space="preserve"
   xmlns="http://www.w3.org/2000/svg"
   xmlns:svg="http://www.w3.org/2000/svg"
   xmlns:rdf="http://www.w3.org/1999/02/22-rdf-syntax-ns#"
   xmlns:cc="http://creativecommons.org/ns#"
   xmlns:dc="http://purl.org/dc/elements/1.1/"><defs
     id="defs2" /><metadata
     id="metadata5"><rdf:RDF><cc:Work
         rdf:about=""><dc:format>image/svg+xml</dc:format><dc:type
           rdf:resource="http://purl.org/dc/dcmitype/StillImage" /></cc:Work></rdf:RDF></metadata><g
     id="layer1"
     transform="translate(-1213.6058,-569.2831)"><path
       style="fill:#000000;stroke-width:0.765612"
       d="m 1244.0435,636.85716 c -3.9164,-0.37907 -7.9107,-1.54839 -11.6927,-3.42298 -10.0567,-4.98468 -17.0063,-14.64006 -18.524,-25.73607 -0.2943,-2.15149 -0.2947,-6.97552 0,-9.17824 1.9109,-14.32202 12.8227,-25.87932 27.1645,-28.77158 1.9499,-0.39323 2.9303,-0.4629 6.5452,-0.46514 4.676,-0.003 6.6736,0.29068 10.515,1.54526 5.8643,1.91526 11.8502,6.05569 15.7347,10.88357 13.6385,16.95108 8.1719,42.0306 -11.2857,51.77707 -5.5894,2.79975 -12.0837,3.98492 -18.4562,3.36811 z m 18.8422,-20.57557 c 1.2904,-0.44013 2.8139,-1.85511 3.3564,-3.11738 0.4312,-1.00337 0.4374,-1.17038 0.3818,-10.29153 -0.064,-10.48077 0,-10.05934 -1.7208,-11.73475 -1.6841,-1.64175 -1.0094,-1.57537 -16.7222,-1.64539 -8.8214,-0.0393 -14.3392,0.0132 -15.042,0.14332 -2.1745,0.40238 -3.5779,1.45375 -4.4537,3.33649 l -0.481,1.03406 v 9.13108 9.13108 l 0.5232,1.05089 c 0.6504,1.3066 2.0817,2.59263 3.3053,2.96994 0.7624,0.23511 3.5335,0.28916 15.4203,0.30074 12.7465,0.0124 14.6046,-0.0247 15.4367,-0.30855 z m -19.2981,-13.95679 v -7.20609 l 1.6703,1.07955 c 0.9187,0.59375 3.3825,2.22355 5.4752,3.62178 l 3.8048,2.54223 -5.2006,3.42224 c -2.8604,1.88224 -5.3242,3.49517 -5.4752,3.58431 -0.229,0.13517 -0.2745,-1.03433 -0.2745,-7.04402 z"
       id="path1" /></g></svg>
