<?xml version="1.0" encoding="UTF-8" standalone="no"?>
<!-- Created with Inkscape (http://www.inkscape.org/) -->

<svg
   width="67.733368mm"
   height="67.733337mm"
   viewBox="0 0 67.733369 67.733337"
   version="1.1"
   id="svg8"
   xml:space="preserve"
   sodipodi:docname="icon-instagram_linea.svg"
   inkscape:version="1.3.2 (1:1.3.2+202311252150+091e20ef0f)"
   xmlns:inkscape="http://www.inkscape.org/namespaces/inkscape"
   xmlns:sodipodi="http://sodipodi.sourceforge.net/DTD/sodipodi-0.dtd"
   xmlns="http://www.w3.org/2000/svg"
   xmlns:svg="http://www.w3.org/2000/svg"
   xmlns:rdf="http://www.w3.org/1999/02/22-rdf-syntax-ns#"
   xmlns:cc="http://creativecommons.org/ns#"
   xmlns:dc="http://purl.org/dc/elements/1.1/"><sodipodi:namedview
     id="namedview1"
     pagecolor="#ffffff"
     bordercolor="#666666"
     borderopacity="1.0"
     inkscape:showpageshadow="2"
     inkscape:pageopacity="0.0"
     inkscape:pagecheckerboard="0"
     inkscape:deskcolor="#d1d1d1"
     inkscape:document-units="mm"
     inkscape:current-layer="layer1" /><defs
     id="defs2" /><metadata
     id="metadata5"><rdf:RDF><cc:Work
         rdf:about=""><dc:format>image/svg+xml</dc:format><dc:type
           rdf:resource="http://purl.org/dc/dcmitype/StillImage" /></cc:Work></rdf:RDF></metadata><g
     id="layer1"
     transform="translate(-1338.4041,-447.72591)"><path
       style="fill:#000000;stroke-width:1.16302"
       d="m 1385.3257,511.80653 c 8.9729,-0.74214 14.1663,-4.84289 16.1974,-12.78946 0.4793,-1.87546 0.5425,-3.79326 0.5452,-16.569 0,-12.75916 -0.061,-14.71911 -0.5426,-16.76688 -0.8275,-3.5149 -2.1018,-5.91377 -4.315,-8.12242 -2.1879,-2.18358 -4.0429,-3.22792 -7.5189,-4.23328 -2.3517,-0.68014 -2.7403,-0.69571 -17.3448,-0.69571 -16.4509,0 -16.622,0.0164 -20.8922,2.00317 -2.5156,1.17049 -5.4553,4.0835 -6.7551,6.69388 -1.9691,3.95477 -2.0782,5.06771 -2.0701,21.12124 0.015,15.9153 0.076,16.60742 1.991,20.56525 2.4777,5.11842 7.4826,8.21552 14.1731,8.77056 4.2588,0.35331 22.3475,0.36874 26.532,0.0226 z m -27.0288,-5.52303 c -5.8203,-0.89253 -9.0989,-4.03161 -9.9653,-9.54109 -0.4185,-2.66115 -0.4105,-26.30431 0.015,-28.89608 0.8785,-5.41791 4.0904,-8.66773 9.4294,-9.54035 2.3767,-0.38847 26.8346,-0.37695 29.2467,0.0137 5.3194,0.86166 8.4476,4.05406 9.3349,9.52659 0.4266,2.63058 0.4283,26.2506 0,28.89607 -0.5876,3.64813 -2.2558,6.39291 -4.7839,7.87157 -2.8981,1.69489 -3.4742,1.75318 -18.1456,1.83523 -7.4543,0.0416 -14.262,-0.033 -15.128,-0.16568 z m 17.1678,-9.06103 c 7.4375,-1.57328 12.7549,-8.49242 12.1811,-15.85031 -0.3318,-4.25529 -1.9653,-7.64861 -5.0255,-10.43989 -5.7405,-5.23582 -14.6681,-5.28467 -20.4331,-0.11181 -2.959,2.65493 -4.7592,6.2311 -5.1191,10.16917 -0.6773,7.40885 4.6501,14.62213 11.9715,16.20954 2.5082,0.54384 3.9398,0.54904 6.4251,0.0234 z m -6.076,-5.52709 c -0.6953,-0.21717 -1.8842,-0.82062 -2.6421,-1.34104 -6.0886,-4.18057 -5.5394,-13.20308 1.0245,-16.8314 1.5039,-0.83134 1.9079,-0.91184 4.5759,-0.91184 2.6678,0 3.0719,0.0805 4.5758,0.91184 4.8326,2.67135 6.6656,8.49092 4.1715,13.24375 -2.2054,4.20226 -7.242,6.32294 -11.7056,4.92869 z m 20.8553,-22.39952 c 1.8807,-1.262 2.1499,-3.83642 0.5662,-5.41685 -2.8727,-2.86702 -7.437,0.38269 -5.692,4.05267 0.9382,1.97305 3.2869,2.59812 5.1258,1.36418 z"
       id="path5"
       sodipodi:nodetypes="ccscccccsccccssscccsccccccccccccccccccsccccccc" /></g></svg>
