<?xml version="1.0" encoding="UTF-8" standalone="no"?>
<!-- Created with Inkscape (http://www.inkscape.org/) -->

<svg
   width="67.73336mm"
   height="67.733345mm"
   viewBox="0 0 67.733361 67.733345"
   version="1.1"
   id="svg8"
   xml:space="preserve"
   sodipodi:docname="icon-contacto.svg"
   inkscape:version="1.3.2 (1:1.3.2+202311252150+091e20ef0f)"
   xmlns:inkscape="http://www.inkscape.org/namespaces/inkscape"
   xmlns:sodipodi="http://sodipodi.sourceforge.net/DTD/sodipodi-0.dtd"
   xmlns="http://www.w3.org/2000/svg"
   xmlns:svg="http://www.w3.org/2000/svg"
   xmlns:rdf="http://www.w3.org/1999/02/22-rdf-syntax-ns#"
   xmlns:cc="http://creativecommons.org/ns#"
   xmlns:dc="http://purl.org/dc/elements/1.1/"><sodipodi:namedview
     id="namedview1"
     pagecolor="#ffffff"
     bordercolor="#666666"
     borderopacity="1.0"
     inkscape:showpageshadow="2"
     inkscape:pageopacity="0.0"
     inkscape:pagecheckerboard="0"
     inkscape:deskcolor="#d1d1d1"
     inkscape:document-units="mm"
     inkscape:current-layer="svg8" /><defs
     id="defs2" /><metadata
     id="metadata5"><rdf:RDF><cc:Work
         rdf:about=""><dc:format>image/svg+xml</dc:format><dc:type
           rdf:resource="http://purl.org/dc/dcmitype/StillImage" /></cc:Work></rdf:RDF></metadata><path
     id="path1"
     style="fill:#ffffff;fill-opacity:1;stroke-width:0.764987"
     d="m 9.9508138,7.0598723 c -3.2438242,0 -5.8554565,2.6111162 -5.8554565,5.8549397 v 33.419665 c 0,3.243824 2.6116323,5.855457 5.8554565,5.855457 h 8.9668942 c 1.613605,0.989321 3.510275,2.151936 4.305681,2.639115 1.937618,1.186973 3.995427,2.448086 6.583577,4.035929 1.108255,0.679878 2.491082,1.527508 3.073714,1.883606 l 1.060401,0.648023 V 52.189934 H 58.5587 c 3.243823,0 5.855456,-2.611633 5.855456,-5.855457 V 12.914812 c 0,-3.2438235 -2.611633,-5.8549397 -5.855456,-5.8549397 z M 16.568498,20.451302 h 34.474381 a 2.7,2.7 0 0 1 2.701127,2.699061 2.7,2.7 0 0 1 -2.701127,2.701127 H 16.568498 a 2.7,2.7 0 0 1 -2.699577,-2.701127 2.7,2.7 0 0 1 2.699577,-2.699061 z m 0,13.530958 h 34.474381 a 2.7,2.7 0 0 1 2.701127,2.701127 2.7,2.7 0 0 1 -2.701127,2.699576 H 16.568498 a 2.7,2.7 0 0 1 -2.699577,-2.699576 2.7,2.7 0 0 1 2.699577,-2.701127 z" /></svg>
