<?xml version="1.0" encoding="UTF-8" standalone="no"?>
<!-- Created with Inkscape (http://www.inkscape.org/) -->

<svg
   width="67.73336mm"
   height="67.733345mm"
   viewBox="0 0 67.733361 67.733345"
   version="1.1"
   id="svg8"
   xml:space="preserve"
   sodipodi:docname="icon-traducir.svg"
   inkscape:version="1.3.2 (1:1.3.2+202311252150+091e20ef0f)"
   xmlns:inkscape="http://www.inkscape.org/namespaces/inkscape"
   xmlns:sodipodi="http://sodipodi.sourceforge.net/DTD/sodipodi-0.dtd"
   xmlns="http://www.w3.org/2000/svg"
   xmlns:svg="http://www.w3.org/2000/svg"
   xmlns:rdf="http://www.w3.org/1999/02/22-rdf-syntax-ns#"
   xmlns:cc="http://creativecommons.org/ns#"
   xmlns:dc="http://purl.org/dc/elements/1.1/"><sodipodi:namedview
     id="namedview1"
     pagecolor="#ffffff"
     bordercolor="#666666"
     borderopacity="1.0"
     inkscape:showpageshadow="2"
     inkscape:pageopacity="0.0"
     inkscape:pagecheckerboard="0"
     inkscape:deskcolor="#d1d1d1"
     inkscape:document-units="mm"
     inkscape:current-layer="svg8" /><defs
     id="defs2" /><metadata
     id="metadata5"><rdf:RDF><cc:Work
         rdf:about=""><dc:format>image/svg+xml</dc:format><dc:type
           rdf:resource="http://purl.org/dc/dcmitype/StillImage" /></cc:Work></rdf:RDF></metadata><path
     id="path3"
     style="fill:#ffffff;stroke-width:0.999999;fill-opacity:1"
     d="m 17.922849,2.9423564 c -1.070081,0.07437 -1.72169,0.693648 -2.283674,2.107816 -0.216944,0.545911 -1.652426,4.3039742 -3.190004,8.3513846 l -2.7955575,7.358985 -1.4795175,0.04396 c -1.6949848,0.05024 -2.0821901,0.182596 -2.7239375,0.932335 -1.2995114,1.518186 -0.3483218,3.879294 1.654963,4.108094 l 0.5740138,0.06564 -1.4169768,3.727688 c -0.9841817,2.589181 -1.4169728,3.860559 -1.4169728,4.162172 0,1.177058 0.7310536,2.150621 1.9016165,2.532393 0.3903447,0.12731 1.3336658,0.01256 1.7785952,-0.216313 0.4495667,-0.231264 0.8774811,-0.664436 1.1040671,-1.117481 0.08721,-0.174372 0.8799375,-2.215194 1.7614645,-4.535148 0.881527,-2.319954 1.649563,-4.305885 1.706976,-4.413162 0.09956,-0.186025 0.337625,-0.193774 5.14549,-0.167601 l 5.04105,0.02745 1.765179,4.638763 c 1.896048,4.982689 1.954547,5.095883 2.886585,5.59112 0.553955,0.29434 1.634181,0.310152 2.166435,0.03179 0.942283,-0.492802 1.415244,-1.253177 1.420073,-2.282848 0.0028,-0.630132 -0.109206,-0.979593 -1.356912,-4.22719 -0.748081,-1.947148 -1.382587,-3.599716 -1.409959,-3.672372 -0.03515,-0.09323 0.08754,-0.132099 0.41653,-0.132099 0.602848,0 1.460514,-0.425299 1.827101,-0.905915 1.016299,-1.332436 0.603675,-3.132532 -0.896833,-3.912009 -0.291153,-0.151248 -0.685639,-0.201268 -1.853314,-0.234683 l -1.483441,-0.04252 -3.113631,-8.194309 C 21.867476,7.8712494 20.414955,4.2009804 20.248832,3.9686104 c -0.464708,-0.650043 -1.048056,-0.97495 -1.840725,-1.025423 -0.170907,-0.01089 -0.332392,-0.01145 -0.485258,-8.39e-4 z m 0.23819,9.8267726 c 0.119082,0.04227 1.096358,2.503125 2.900209,7.302636 l 0.268118,0.713339 h -3.12787 c -2.935862,0 -3.123553,-0.01135 -3.056251,-0.18494 0.03942,-0.101716 0.714582,-1.873175 1.500364,-3.93657 0.785782,-2.063395 1.463721,-3.814375 1.506554,-3.890956 0.002,-0.0037 0.005,-0.0049 0.0089,-0.0035 z" /><path
     style="fill:#ffffff;stroke-width:0.999999;fill-opacity:1"
     d="m 34.861514,63.900186 c 3.13476,-0.762917 6.433291,-2.311831 9.277773,-4.356629 l 1.246113,-0.895786 1.078844,0.734294 c 1.503204,1.023127 3.41304,2.100206 4.958586,2.796462 2.272829,1.02389 5.209605,1.908518 6.374013,1.920005 2.187605,0.02159 3.344468,-2.554648 1.876713,-4.179277 -0.506816,-0.560981 -0.709505,-0.655008 -2.144057,-0.994606 -2.493356,-0.590248 -5.106602,-1.735177 -7.536651,-3.301995 -0.836348,-0.539251 -0.881503,-0.34966 0.437093,-1.83529 2.396497,-2.700082 4.880407,-6.436572 6.717614,-10.10516 l 0.59539,-1.188897 h 1.209235 c 1.501646,0 2.159841,-0.13628 2.730113,-0.565276 1.561742,-1.174843 1.257744,-3.561389 -0.55936,-4.391266 -0.323014,-0.147522 -1.163221,-0.172868 -6.631407,-0.20004 l -6.261524,-0.03111 v -1.75318 c 0,-1.979814 -0.08149,-2.380531 -0.609562,-2.997464 -0.532163,-0.621714 -1.095884,-0.879011 -1.926752,-0.879421 -1.014514,-5.2e-4 -1.766401,0.452747 -2.255131,1.359426 -0.204982,0.380276 -0.23138,0.616364 -0.262914,2.351374 l -0.03507,1.928655 h -5.895248 c -3.538813,0 -6.122786,0.04283 -6.464494,0.107136 -2.376366,0.447253 -2.831393,3.639406 -0.67686,4.748362 l 0.524514,0.26997 10.703513,0.05284 10.703509,0.05284 -0.880097,1.487542 c -1.612641,2.725678 -3.487975,5.291886 -5.170998,7.075985 l -0.768427,0.814575 -1.323664,-1.366215 c -1.35964,-1.403341 -2.720559,-3.004708 -3.670798,-4.319354 -0.396264,-0.548231 -0.687392,-0.82666 -1.098096,-1.050193 -1.285907,-0.699877 -2.870588,-0.171005 -3.482135,1.16213 -0.236101,0.514685 -0.258512,1.501325 -0.04568,2.010716 0.361371,0.864879 2.5817,3.61813 4.525224,5.611365 l 1.24934,1.281295 -0.506668,0.363284 c -2.040997,1.463412 -4.70497,2.703877 -7.132614,3.32127 -0.59877,0.152278 -1.231342,0.36309 -1.405713,0.468471 -1.867179,1.128429 -1.560552,3.952193 0.498999,4.595317 0.636383,0.19872 0.843798,0.18832 2.037315,-0.10215 z"
     id="path2" /><path
     id="path4"
     style="color:#000000;fill:#ffffff;stroke-linecap:round;stroke-linejoin:round;-inkscape-stroke:none;fill-opacity:1"
     d="M 40.595455 6.2481974 A 2 2 0 0 0 38.46897 8.1131999 A 2 2 0 0 0 40.331905 10.240202 C 40.331905 10.240202 42.540705 10.408479 44.660323 11.349695 C 45.720132 11.820303 46.704295 12.467425 47.37902 13.277226 C 47.946086 13.957814 48.338149 14.732046 48.449239 15.82384 A 2 2 0 0 0 45.796688 16.009875 A 2 2 0 0 0 45.847847 18.838127 L 49.667769 22.52369 A 2.0002 2.0002 0 0 0 52.677922 22.256006 L 55.722697 18.050578 A 2 2 0 0 0 55.275179 15.257983 A 2 2 0 0 0 52.482585 15.704985 L 52.452612 15.746326 C 52.299768 13.729517 51.52844 12.007093 50.453251 10.716659 C 49.249638 9.2720905 47.729673 8.3350807 46.28503 7.6935872 C 43.395747 6.4106002 40.595455 6.2481974 40.595455 6.2481974 z " /></svg>
