<?xml version="1.0" encoding="UTF-8" standalone="no"?>
<!-- Created with Inkscape (http://www.inkscape.org/) -->

<svg
   width="67.733131mm"
   height="67.7332mm"
   viewBox="0 0 67.733132 67.7332"
   version="1.1"
   id="svg8"
   xml:space="preserve"
   sodipodi:docname="icon-socios_neg.svg"
   inkscape:version="1.3.2 (1:1.3.2+202311252150+091e20ef0f)"
   xmlns:inkscape="http://www.inkscape.org/namespaces/inkscape"
   xmlns:sodipodi="http://sodipodi.sourceforge.net/DTD/sodipodi-0.dtd"
   xmlns="http://www.w3.org/2000/svg"
   xmlns:svg="http://www.w3.org/2000/svg"
   xmlns:rdf="http://www.w3.org/1999/02/22-rdf-syntax-ns#"
   xmlns:cc="http://creativecommons.org/ns#"
   xmlns:dc="http://purl.org/dc/elements/1.1/"><sodipodi:namedview
     id="namedview1"
     pagecolor="#ffffff"
     bordercolor="#666666"
     borderopacity="1.0"
     inkscape:showpageshadow="2"
     inkscape:pageopacity="0.0"
     inkscape:pagecheckerboard="0"
     inkscape:deskcolor="#d1d1d1"
     inkscape:document-units="mm"
     inkscape:current-layer="g4" /><defs
     id="defs2" /><metadata
     id="metadata5"><rdf:RDF><cc:Work
         rdf:about=""><dc:format>image/svg+xml</dc:format><dc:type
           rdf:resource="http://purl.org/dc/dcmitype/StillImage" /></cc:Work></rdf:RDF></metadata><g
     id="g4"
     transform="translate(-86.304071,-2.3260972)"><path
       id="path5"
       style="fill:#000000;stroke-width:0.765571"
       d="m 116.86591,2.4894281 c -3.28319,0.3245527 -6.51558,1.0968874 -9.42439,2.2899796 C 95.601148,9.635854 87.744696,20.2465 86.365222,33.244884 c -0.309647,2.917503 0.11207,8.108246 0.909476,11.19448 2.201701,8.520852 7.411801,15.695386 14.759082,20.323638 2.33163,1.468825 2.92559,1.778572 5.12815,2.674886 4.23028,1.721511 7.9365,2.49223 12.66278,2.633337 1.54553,0.04613 4.44765,-0.193873 6.16394,-0.510296 7.0795,-1.305169 13.07246,-4.396067 18.1344,-9.352748 5.40657,-5.294176 8.86374,-12.342582 9.87685,-20.135639 0.37116,-2.855053 -0.20594,-10.176474 -1.0201,-12.94391 -0.9121,-3.100246 -1.93837,-5.46016 -3.58015,-8.231191 -1.95701,-3.303187 -3.95568,-5.692766 -6.8896,-8.237466 -4.6802,-4.0593414 -9.93082,-6.6243465 -15.91518,-7.7742832 -3.11168,-0.5979466 -6.44574,-0.7208187 -9.72896,-0.3962637 z m -12.0073,10.6236709 c 0.30358,-0.02532 0.8125,0.371868 3.8464,3.000737 3.46664,3.00386 3.49644,3.033419 3.5314,3.522182 0.0273,0.381749 -0.0389,0.590794 -0.29332,0.926073 l -0.32859,0.432789 0.53005,0.261541 c 0.70858,0.349908 1.36985,0.522812 2.66819,0.69612 0.59612,0.07957 1.39374,0.237021 1.77256,0.350374 0.91467,0.273698 2.33705,1.08555 3.10196,1.770169 l 0.61831,0.553645 0.64041,-0.383078 c 0.74828,-0.4474 1.56214,-0.752454 2.74475,-1.029397 0.8801,-0.206099 2.42854,-1.017412 2.41097,-1.263011 -0.005,-0.07277 -0.15928,-0.26785 -0.34237,-0.433498 -0.25064,-0.226763 -0.34153,-0.421661 -0.36785,-0.789673 -0.0346,-0.483084 3e-5,-0.528873 2.94841,-3.93332 1.91668,-2.213091 3.09131,-3.476662 3.28573,-3.534172 0.16643,-0.04923 0.46137,-0.04286 0.65537,0.01426 0.36557,0.107581 16.50036,13.970291 17.1801,14.760844 0.25055,0.291397 0.38297,0.573648 0.40343,0.859659 0.0287,0.400794 -0.14206,0.624533 -2.89328,3.791567 -2.41769,2.783084 -2.97957,3.369282 -3.249,3.388553 -0.37714,0.02698 -0.73772,-0.108949 -1.15013,-0.434267 -0.29099,-0.22954 -0.2917,-0.229782 -0.45466,0.01749 -0.31691,0.480904 -0.6474,1.514418 -0.7604,2.377995 -0.14574,1.113791 -0.4313,2.27138 -0.74939,3.038803 l -0.24964,0.602255 0.33758,0.808415 c 0.48571,1.164051 0.55202,2.345525 0.18337,3.259107 -0.33067,0.819289 -1.13167,1.715583 -1.96915,2.203336 l -0.61522,0.35848 0.14588,0.475012 c 0.0804,0.261167 0.15006,0.846367 0.15468,1.300726 0.0266,2.68486 -2.6295,4.822354 -5.17959,4.168026 -0.20951,-0.05376 -0.2669,-0.0085 -0.31186,0.246637 -0.22925,1.300325 -1.89961,2.874806 -3.3815,3.187688 -0.64304,0.135782 -1.83513,-0.03615 -2.48237,-0.35815 -0.53722,-0.26727 -0.57797,-0.255781 -0.72883,0.204447 -0.21683,0.661436 -1.10926,1.642126 -1.88241,2.068647 -0.6133,0.338325 -0.84752,0.399963 -1.76703,0.465731 -0.96298,0.06888 -1.13531,0.04516 -1.88042,-0.257693 -0.52854,-0.214829 -1.11277,-0.587072 -1.64366,-1.047092 l -0.82405,-0.714043 -0.78675,0.879509 c -1.29999,1.453242 -2.58817,2.024899 -4.08549,1.812789 -1.41199,-0.200026 -2.82041,-1.178514 -3.31195,-2.30121 -0.19017,-0.434389 -0.30397,-0.569421 -0.43075,-0.510071 -0.96315,0.450851 -2.15459,0.486072 -3.14541,0.09234 -0.84677,-0.336481 -1.93439,-1.366564 -2.31072,-2.188384 -0.34015,-0.742811 -0.37933,-1.109559 -0.23379,-2.167524 0.0587,-0.426409 0.0987,-0.778439 0.0891,-0.782464 -0.0103,-0.004 -0.27826,-0.08355 -0.59702,-0.176448 -0.79441,-0.231519 -1.96532,-1.19294 -2.43445,-1.998724 -0.31535,-0.541648 -0.38579,-0.793343 -0.44318,-1.589387 -0.062,-0.861126 -0.0333,-1.031003 0.31848,-1.892546 0.24715,-0.605358 0.63986,-1.256976 1.08975,-1.807828 l 0.70358,-0.861644 -0.8178,-0.829504 c -1.31302,-1.333173 -1.95293,-2.498704 -2.540001,-4.62615 -0.315933,-1.144923 -0.737217,-2.047475 -1.066318,-2.28309 -0.14721,-0.105381 -0.249633,-0.05338 -0.546351,0.278433 -0.250637,0.280286 -0.517544,0.440142 -0.852066,0.509605 l -0.487533,0.101185 -3.34025,-2.877887 c -1.837235,-1.5828 -3.4255,-3.041372 -3.529419,-3.241003 -0.403646,-0.77538 -0.386613,-0.800566 4.061803,-6.055245 2.282823,-2.696588 5.512858,-6.514834 7.177845,-8.485157 1.66498,-1.970318 3.13685,-3.65497 3.27077,-3.743443 0.13392,-0.08847 0.40066,-0.17401 0.59308,-0.190074 z m 27.09956,3.195936 -1.82727,2.108223 -1.82721,2.108737 7.36463,6.382423 c 4.05054,3.510169 7.39217,6.379936 7.42542,6.377557 0.0333,-0.0024 0.86927,-0.939105 1.85816,-2.081937 l 1.7978,-2.078138 -7.39553,-6.408708 z m -21.60043,6.563642 c -0.0413,0.003 -2.3817,2.667744 -5.20078,5.921704 l -5.12552,5.916321 0.23504,0.309064 c 0.66164,0.869623 1.34001,2.277602 1.74611,3.62397 0.74585,2.472767 0.0455,1.754083 10.44026,10.710704 5.08131,4.378316 9.356,8.016875 9.49921,8.085527 0.36997,0.177319 1.09919,0.105902 1.5558,-0.152207 0.46224,-0.261276 0.67223,-0.57899 0.79335,-1.200156 0.17771,-0.911191 0.0859,-1.013027 -4.5877,-5.078596 -4.05365,-3.526271 -4.346,-3.806782 -4.43921,-4.25562 -0.0902,-0.434536 -0.063,-0.522764 0.28513,-0.924452 0.32117,-0.370642 0.46863,-0.450058 0.89044,-0.480227 l 0.50565,-0.03617 5.54491,4.793056 c 3.04972,2.636412 5.6974,4.838551 5.88419,4.893647 0.5281,0.155763 1.16946,0.06334 1.57837,-0.227906 0.51167,-0.364454 0.80773,-1.201852 0.65447,-1.852336 -0.10664,-0.45238 -0.49459,-0.815747 -5.63618,-5.286996 -3.1249,-2.717508 -5.58812,-4.94684 -5.67513,-5.136039 -0.20658,-0.449131 -0.1227,-0.90868 0.23603,-1.292406 0.36535,-0.390823 0.74196,-0.519782 1.15958,-0.396898 0.17534,0.05159 3.12321,2.517311 6.5504,5.479614 4.6326,4.004217 6.32268,5.399304 6.58883,5.437491 0.19687,0.02825 0.43174,0.06889 0.52142,0.09015 0.30265,0.07178 1.08374,-0.279612 1.34468,-0.604936 0.32957,-0.410902 0.47027,-1.126545 0.33036,-1.683053 -0.0954,-0.379397 -0.75763,-0.99725 -5.32052,-4.966084 -5.11923,-4.452763 -5.21246,-4.541695 -5.24538,-5.002026 -0.0392,-0.548772 0.16199,-0.936691 0.63654,-1.226761 0.704,-0.430329 0.78819,-0.374062 5.50416,3.694522 2.42292,2.090351 4.55808,3.845695 4.74487,3.900629 0.86526,0.254489 1.71726,-0.160008 2.0577,-1.001497 0.16297,-0.402846 0.16281,-0.529661 -8e-4,-1.061498 -0.18172,-0.590867 -0.31492,-0.716101 -6.18266,-5.814176 -3.29834,-2.865715 -6.04063,-5.207297 -6.0939,-5.203488 -0.0533,0.0038 -2.51536,1.256041 -5.47139,2.782817 l -5.37449,2.775886 -0.99905,0.0699 c -0.86177,0.06023 -1.08719,0.03104 -1.64294,-0.211473 -0.87082,-0.379977 -1.59864,-1.052718 -2.0987,-1.940362 -0.35486,-0.629915 -0.42598,-0.876053 -0.48594,-1.680103 -0.0615,-0.832019 -0.0316,-1.037037 0.26216,-1.760033 0.21715,-0.53451 0.51224,-0.995204 0.85007,-1.326999 0.28456,-0.279454 2.00719,-1.601981 3.82776,-2.938805 1.82055,-1.336819 3.35888,-2.487194 3.41885,-2.556742 0.16106,-0.186756 -0.85179,-0.908557 -1.87029,-1.332926 -0.59632,-0.248457 -1.19093,-0.38627 -1.96185,-0.454441 -1.3605,-0.120301 -2.45521,-0.435521 -3.42199,-0.985694 -0.40517,-0.230572 -0.77056,-0.416862 -0.81192,-0.413904 z" /></g></svg>
