<?xml version="1.0" encoding="UTF-8" standalone="no"?>
<!-- Created with Inkscape (http://www.inkscape.org/) -->

<svg
   width="67.73336mm"
   height="67.733345mm"
   viewBox="0 0 67.733361 67.733345"
   version="1.1"
   id="svg8"
   xml:space="preserve"
   sodipodi:docname="icon-geopos.svg"
   inkscape:version="1.3.2 (1:1.3.2+202311252150+091e20ef0f)"
   xmlns:inkscape="http://www.inkscape.org/namespaces/inkscape"
   xmlns:sodipodi="http://sodipodi.sourceforge.net/DTD/sodipodi-0.dtd"
   xmlns="http://www.w3.org/2000/svg"
   xmlns:svg="http://www.w3.org/2000/svg"
   xmlns:rdf="http://www.w3.org/1999/02/22-rdf-syntax-ns#"
   xmlns:cc="http://creativecommons.org/ns#"
   xmlns:dc="http://purl.org/dc/elements/1.1/"><sodipodi:namedview
     id="namedview1"
     pagecolor="#ffffff"
     bordercolor="#666666"
     borderopacity="1.0"
     inkscape:showpageshadow="2"
     inkscape:pageopacity="0.0"
     inkscape:pagecheckerboard="0"
     inkscape:deskcolor="#d1d1d1"
     inkscape:document-units="mm"
     inkscape:current-layer="svg8" /><defs
     id="defs2" /><metadata
     id="metadata5"><rdf:RDF><cc:Work
         rdf:about=""><dc:format>image/svg+xml</dc:format><dc:type
           rdf:resource="http://purl.org/dc/dcmitype/StillImage" /></cc:Work></rdf:RDF></metadata><path
     id="path3"
     style="fill:#000000;stroke-width:0.764989"
     d="M 33.694067 0.0036173503 C 30.182875 0.052217253 26.599669 0.59739855 23.417175 1.6216064 C 20.635281 2.5169048 16.189968 4.8092162 13.876672 6.5412028 C 7.1490866 11.578123 2.6893346 18.378072 0.90743815 26.315706 C -1.3707573 36.464606 0.97544796 46.777186 7.4176351 54.92533 C 12.963123 61.939676 21.496689 66.617097 30.448271 67.549365 C 48.704733 69.450691 65.212751 56.38746 67.619645 38.134106 C 67.972645 35.456832 67.752748 29.573668 67.20365 27.006104 C 66.255052 22.569542 64.1602 17.780678 61.582804 14.158826 C 59.825408 11.68936 56.09163 7.9618124 53.633936 6.222876 C 50.335442 3.8890506 46.14638 1.9769174 42.005188 0.91518962 C 39.901392 0.3757907 37.57978 0.07702898 35.192684 0.012919108 C 34.695384 -0.00048086856 34.195667 -0.0032658706 33.694067 0.0041341146 L 33.694067 0.0036173503 z M 33.924028 15.0797 C 42.470646 15.0797 54.323299 17.461562 54.323299 30.554724 C 54.323299 40.285852 47.77596 44.097978 40.904997 45.415316 L 33.790186 56.929342 L 26.784412 45.383793 C 19.971853 44.03815 13.525273 40.21069 13.525273 30.554724 C 13.525273 17.461562 25.377409 15.0797 33.924028 15.0797 z M 33.924028 23.101432 C 29.959983 23.101342 26.746464 26.314213 26.746171 30.278255 C 26.746081 34.24257 29.959712 37.456202 33.924028 37.456112 C 37.888342 37.456202 41.101974 34.24257 41.101884 30.278255 C 41.101591 26.314213 37.888072 23.101342 33.924028 23.101432 z " /></svg>
