<?xml version="1.0" encoding="UTF-8" standalone="no"?>
<!-- Created with Inkscape (http://www.inkscape.org/) -->

<svg
   width="67.73336mm"
   height="67.733345mm"
   viewBox="0 0 67.733361 67.733345"
   version="1.1"
   id="svg8"
   xml:space="preserve"
   sodipodi:docname="icon-www_linea.svg"
   inkscape:version="1.3.2 (1:1.3.2+202311252150+091e20ef0f)"
   xmlns:inkscape="http://www.inkscape.org/namespaces/inkscape"
   xmlns:sodipodi="http://sodipodi.sourceforge.net/DTD/sodipodi-0.dtd"
   xmlns="http://www.w3.org/2000/svg"
   xmlns:svg="http://www.w3.org/2000/svg"
   xmlns:rdf="http://www.w3.org/1999/02/22-rdf-syntax-ns#"
   xmlns:cc="http://creativecommons.org/ns#"
   xmlns:dc="http://purl.org/dc/elements/1.1/"><sodipodi:namedview
     id="namedview1"
     pagecolor="#ffffff"
     bordercolor="#666666"
     borderopacity="1.0"
     inkscape:showpageshadow="2"
     inkscape:pageopacity="0.0"
     inkscape:pagecheckerboard="0"
     inkscape:deskcolor="#d1d1d1"
     inkscape:document-units="mm"
     inkscape:current-layer="layer1" /><defs
     id="defs2" /><metadata
     id="metadata5"><rdf:RDF><cc:Work
         rdf:about=""><dc:format>image/svg+xml</dc:format><dc:type
           rdf:resource="http://purl.org/dc/dcmitype/StillImage" /></cc:Work></rdf:RDF></metadata><g
     id="layer1"
     transform="translate(-1474.3076,-447.91506)"><path
       id="path13"
       style="fill:#000000;stroke-width:1.1278"
       d="m 1507.6549,451.28952 c 2.8167,0.0451 6.1884,0.37045 8.0277,0.82663 3.9037,0.9682 8.9275,3.57262 12.0606,6.2507 9.7914,8.3693 13.4022,21.10253 9.3927,33.12997 -2.6323,7.89599 -8.1366,14.18141 -15.6443,17.8626 -1.3537,0.66376 -3.0823,1.33302 -4.6524,1.82485 -1.5896,0.49799 -5.1383,0.95488 -7.7401,1.03454 -2.6664,0.0817 -5.6662,-0.0598 -7.9824,-0.57293 -2.186,-0.4843 -4.2719,-1.27825 -6.6643,-2.49869 -3.1033,-1.58317 -5.6996,-3.49454 -8.2532,-6.07421 -2.7478,-2.77581 -4.2104,-4.84789 -5.8394,-8.27214 -1.4081,-2.95958 -2.316,-6.31357 -2.6577,-9.81532 -0.2006,-2.05644 -0.083,-6.59642 0.2182,-8.391 0.95,-5.65532 3.4844,-10.83486 7.4592,-15.24696 5.0513,-5.60713 12.7285,-9.50311 19.721,-10.00464 h 6e-4 c 0.7381,-0.0531 1.6155,-0.0693 2.5543,-0.0543 z m 0.7259,4.29453 c -0.7445,-0.0261 -1.5002,0.0547 -2.2313,0.24641 -2.0118,0.52757 -4.2304,2.33185 -5.8552,4.77804 -0.3143,0.4729 -1.0905,1.91369 -1.7824,3.26517 -0.346,0.67574 -0.6734,1.33104 -0.9125,1.83385 -0.1195,0.25141 -0.2169,0.46485 -0.2846,0.62331 -0.032,0.0793 -0.059,0.14536 -0.077,0.19401 10e-4,0.0103 0,0.006 0,0.0152 0.037,0.003 0.082,0.004 0.1475,0.007 0.1548,0.006 0.383,0.0103 0.6741,0.0152 0.5819,0.009 1.4135,0.0152 2.4132,0.0175 1.9995,0.004 4.6678,-0.001 7.3448,-0.0152 2.6771,-0.0147 5.3622,-0.0379 7.3939,-0.0641 1.0158,-0.0133 1.8685,-0.0265 2.4745,-0.0414 0.3033,-0.007 0.5448,-0.0147 0.7137,-0.0221 0.084,-0.004 0.1526,-0.007 0.1989,-0.0118 0.024,-0.003 0.041,-0.006 0.053,-0.007 0.015,-10e-4 0.019,-0.007 0,0.003 0.066,-0.032 0.093,-0.0581 0.1076,-0.10777 0.015,-0.0498 0.015,-0.13872 -0.029,-0.28661 -0.085,-0.29574 -0.3193,-0.81244 -0.7493,-1.70629 -1.896,-3.94073 -3.7973,-6.33532 -6.1262,-7.73679 -0.8172,-0.4918 -1.7551,-0.80868 -2.7329,-0.9379 v 0 c -0.2445,-0.0323 -0.4911,-0.0531 -0.7394,-0.0618 z m 10.6049,2.07386 c 0.026,0.0441 0.046,0.0786 0.08,0.1346 0.1209,0.20343 0.2875,0.47806 0.4717,0.77478 0.6496,1.04656 1.4944,2.67665 2.208,4.19432 0.7136,1.51767 1.2958,2.91202 1.4233,3.52965 l 0.066,0.3233 3.1228,-0.0438 c 0.8755,-0.0118 1.682,-0.0357 2.2763,-0.0618 0.2971,-0.0133 0.5402,-0.0255 0.7119,-0.0397 0.085,-0.007 0.1544,-0.0153 0.2007,-0.0221 0.019,-0.003 0.031,-0.004 0.041,-0.006 0,-0.001 0.015,-0.003 0,-0.0332 -0.015,-0.0367 -0.03,-0.0945 -0.069,-0.16718 -0.08,-0.14522 -0.2266,-0.3503 -0.4369,-0.60761 -0.4201,-0.51462 -1.0956,-1.24161 -2.0225,-2.17348 -2.1893,-2.20105 -3.5408,-3.23493 -6.2609,-4.79085 -0.5591,-0.31986 -1.0686,-0.60563 -1.4367,-0.80799 -0.1588,-0.0871 -0.2757,-0.15054 -0.3749,-0.20273 z m -21.8703,0.0227 c 0,10e-4 0,10e-4 -0.015,0.003 -0.077,0.0296 -0.1881,0.0811 -0.3236,0.14797 -0.2708,0.13386 -0.6397,0.33491 -1.0559,0.57031 -0.832,0.47079 -1.8499,1.08417 -2.629,1.60258 -1.6363,1.08869 -3.6556,2.88989 -5.2692,4.7029 -0.3475,0.39056 -0.6851,0.77914 -0.9515,1.08994 -0.2665,0.31079 -0.4639,0.55008 -0.5136,0.62099 l -0.1239,0.1736 h 3.3124 3.4051 l 0.4252,-1.30082 c 0.4973,-1.51723 2.3899,-5.44606 3.2814,-6.8123 0.1544,-0.23656 0.2863,-0.46053 0.3743,-0.62739 0.037,-0.0713 0.062,-0.12531 0.081,-0.17128 z m -13.105,13.01406 -0.3382,0.75499 c -0.6582,1.4656 -1.1948,3.23056 -1.7054,5.61399 -0.1918,0.89842 -0.2823,1.52795 -0.2823,1.9422 0,0.20715 0.026,0.35828 0.072,0.46254 0.044,0.10423 0.1047,0.16038 0.1873,0.19342 0,-10e-4 0.053,0.0118 0.1282,0.0198 0.075,0.007 0.1791,0.0165 0.3061,0.0245 0.254,0.015 0.6028,0.0277 1.0203,0.0397 0.8352,0.0239 1.9458,0.042 3.1294,0.0444 l 4.2306,0.009 0.075,-2.00337 c 0.05,-1.35855 0.2242,-2.94744 0.4979,-4.57298 0.1149,-0.68394 0.2201,-1.31256 0.2957,-1.77502 0.038,-0.23124 0.069,-0.42077 0.09,-0.55459 0.015,-0.0622 0.021,-0.10909 0.021,-0.14566 -0.05,-0.004 -0.1268,-0.009 -0.2268,-0.0133 -0.1986,-0.007 -0.4859,-0.0147 -0.8419,-0.0198 -0.7121,-0.0118 -1.6957,-0.0199 -2.7767,-0.0199 z m 44.3299,0.13637 c -1.1272,0 -2.115,0.0133 -2.8208,0.0355 -0.3528,0.0103 -0.636,0.0251 -0.8286,0.0397 -0.096,0.007 -0.1694,0.0133 -0.2157,0.0215 -0.015,0.001 -0.015,0.001 -0.015,0.003 0,0.0273 0,0.0625 0.016,0.106 0.015,0.0924 0.034,0.219 0.058,0.36991 0.047,0.30183 0.1135,0.70032 0.1855,1.1249 0.1459,0.85457 0.4013,2.8557 0.5708,4.45415 l 0.2996,2.8335 4.394,-0.0444 c 1.3662,-0.0133 2.4939,-0.0392 3.2902,-0.0705 0.3982,-0.0156 0.7148,-0.0315 0.9342,-0.0501 0.1091,-0.009 0.1949,-0.0202 0.2536,-0.0292 0.03,-0.004 0.053,-0.009 0.066,-0.0133 10e-4,-10e-4 0.015,-0.0258 0.025,-0.0775 0.015,-0.0544 0.015,-0.13239 0.015,-0.22661 0,-0.18824 -0.035,-0.44529 -0.084,-0.75265 -0.096,-0.61471 -0.2663,-1.42709 -0.4781,-2.29873 -0.4234,-1.74328 -1.014,-3.72377 -1.4943,-4.82405 l -0.2625,-0.6012 h -3.9047 z m -20.2505,0.0683 c -4.9634,0 -7.9818,0.009 -9.7691,0.0355 l -2.3925,0.0698 c -0.367,1.01597 -0.3691,2.08102 -0.5416,3.12245 -0.2439,1.57319 -0.4786,3.37866 -0.562,4.49376 l -0.089,1.17557 h 13.3676 13.3696 l -0.088,-1.03868 c -0.096,-1.15207 -0.3509,-3.05996 -0.6081,-4.70347 -0.1283,-0.82175 -0.2585,-1.5779 -0.3679,-2.13968 -0.054,-0.28091 -0.1046,-0.51356 -0.1459,-0.68042 -0.021,-0.0833 -0.04,-0.15095 -0.055,-0.19807 -0.015,-0.0361 -0.021,-0.0461 -0.021,-0.0507 -0.015,-0.001 -0.018,-0.001 -0.031,-0.003 -0.043,-0.003 -0.1061,-0.006 -0.1894,-0.009 -0.1665,-0.006 -0.4093,-0.0118 -0.7208,-0.0175 -0.6226,-0.0118 -1.5173,-0.0218 -2.6178,-0.031 -2.2008,-0.0174 -5.2251,-0.0262 -8.5391,-0.0262 z m -12.3475,13.06354 c -0.3404,0.006 -0.6038,0.0103 -0.7824,0.0175 -0.087,0.003 -0.1524,0.007 -0.1965,0.0118 0,0.11647 0.028,0.41193 0.066,0.85457 0.043,0.47686 0.1003,1.08265 0.1628,1.69755 0.1238,1.2298 0.2635,2.50255 0.3177,2.84924 0.081,0.52353 0.2152,1.30551 0.3394,1.9859 0.062,0.34019 0.1209,0.65367 0.1697,0.89827 0.046,0.23218 0.082,0.39043 0.099,0.44915 0.018,0.004 0.044,0.0118 0.084,0.0175 0.088,0.0133 0.2283,0.0237 0.4255,0.0349 0.3946,0.0223 1.0207,0.0403 1.9457,0.0531 l 21.8433,0.0347 0.1297,-0.65363 c 0.2471,-1.23044 0.5223,-2.96378 0.7358,-4.53803 0.2133,-1.57421 0.3662,-2.99445 0.3662,-3.57566 0,-0.0341 0.015,-0.0317 0,-0.0373 0,-0.006 -0.047,-0.0277 -0.1481,-0.046 -0.2001,-0.0367 -0.6211,-0.0644 -1.4606,-0.0815 -1.679,-0.0345 -5.0346,-0.0355 -11.7307,-0.0355 z m -4.9467,-0.0931 -4.3299,0.0484 c -2.4045,0.0271 -3.6224,0.0457 -4.2201,0.14797 -0.2988,0.0511 -0.433,0.12221 -0.4939,0.20681 -0.058,0.0845 -0.069,0.20931 -0.069,0.40079 0,0.23496 0.086,0.75161 0.2228,1.40044 0.1371,0.64882 0.3277,1.43523 0.5377,2.23465 0.4195,1.59884 0.9215,3.25375 1.2341,3.94965 l 0.333,0.74449 h 3.9269 3.8804 l -0.284,-1.37188 c -0.4495,-2.15287 -0.7381,-4.6259 -0.7381,-6.33869 z m 34.9046,0.031 -0.062,0.31107 c -0.037,0.1905 -0.1386,1.07294 -0.2222,1.93288 -0.078,0.80914 -0.2715,2.33301 -0.4605,3.72306 -0.094,0.69503 -0.1882,1.35594 -0.2672,1.87814 -0.08,0.52218 -0.1415,0.8987 -0.1784,1.04565 l -0.053,0.21147 h 3.9094 3.9537 l 0.6216,-1.82044 c 0.3502,-1.02659 0.7894,-2.51349 0.9737,-3.29431 0.1927,-0.81658 0.3823,-1.74447 0.5138,-2.47697 0.065,-0.36625 0.115,-0.68417 0.1445,-0.91344 0.015,-0.11455 0.028,-0.20696 0.028,-0.27088 0,-0.0301 9e-4,-0.0512 0,-0.0659 0,-0.003 0,-0.001 -0.015,-0.004 -0.021,-0.007 -0.053,-0.0155 -0.094,-0.0245 -0.083,-0.0172 -0.2002,-0.0342 -0.3465,-0.0507 -0.2923,-0.0329 -0.7029,-0.0628 -1.2028,-0.0879 -1.0002,-0.0506 -2.3625,-0.0821 -3.8809,-0.0857 z m -28.4218,13.27041 0.8729,1.86473 c 0.9294,1.98747 3.115,6.04778 6.3448,8.30244 1.2689,0.75709 2.809,1.09591 4.3094,0.98616 0.5712,-0.0418 1.1367,-0.14858 1.6792,-0.32205 v -0.0209 l 0.021,0.0152 c 0.018,-0.006 0.037,-0.009 0.056,-0.0152 0.016,-0.006 0.032,-0.0147 0.049,-0.0199 l -0.074,-0.0531 c 0.099,-0.1133 0.091,0.0369 0.1018,0.0412 2.1737,-0.70171 4.0076,-2.43386 5.6141,-5.30347 0.4243,-0.75798 1.1472,-2.00092 1.6681,-3.11778 0.2605,-0.55844 0.484,-1.07674 0.6302,-1.46626 0.074,-0.19477 0.1254,-0.35736 0.154,-0.47361 0.015,-0.0582 0.025,-0.10644 0.025,-0.13637 0.015,-0.0299 0,-0.0364 0.015,-0.0175 -0.015,-0.007 -0.075,-0.0457 -0.1983,-0.0728 -0.1224,-0.0271 -0.3006,-0.052 -0.5334,-0.0746 -0.4653,-0.0453 -1.1557,-0.0808 -2.1177,-0.106 z m 26.0086,-0.0927 -0.2766,0.87614 c -0.5587,1.78407 -2.6304,6.01234 -3.8825,7.92846 -0.065,0.0988 -0.1091,0.17959 -0.1459,0.25107 0.093,-0.0489 0.2177,-0.11883 0.3725,-0.20506 0.3167,-0.17619 0.7444,-0.41915 1.2052,-0.68682 2.9929,-1.73794 3.9925,-2.49497 6.2412,-4.72911 1.2247,-1.21687 1.9656,-1.98334 2.3666,-2.47056 0.2007,-0.24362 0.3154,-0.41804 0.3615,-0.53477 0.027,-0.0584 0.027,-0.10129 0.027,-0.12989 0,-0.0286 -0.015,-0.0442 -0.031,-0.0641 0,0.003 -0.018,-0.0103 -0.053,-0.0221 -0.035,-0.0103 -0.087,-0.0237 -0.1561,-0.0349 -0.1371,-0.0218 -0.3344,-0.0401 -0.5971,-0.0572 -0.5255,-0.0341 -1.3116,-0.0587 -2.3976,-0.0752 z m -36.1088,0.0483 c -0.2891,0.004 -0.5229,0.0103 -0.6833,0.0198 -0.065,0.004 -0.1091,0.009 -0.1476,0.0133 0.015,0.0133 0.015,0.0215 0.022,0.0373 0.04,0.063 0.1017,0.14809 0.1784,0.24876 0.1538,0.2014 0.3715,0.46793 0.6257,0.76429 0.5083,0.5927 1.1595,1.30835 1.7299,1.88454 1.3675,1.38134 3.154,2.88138 4.5397,3.81567 0.5048,0.34036 1.4803,0.9172 2.3382,1.39812 0.4289,0.24045 0.8291,0.45801 1.1257,0.60992 0.1386,0.0709 0.2485,0.1228 0.3331,0.16078 -0.015,-0.0177 -0.015,-0.0282 -0.027,-0.0484 -0.077,-0.12383 -0.1885,-0.29099 -0.3172,-0.47129 -0.2887,-0.40424 -0.7804,-1.29957 -1.3463,-2.41989 -0.566,-1.1203 -1.2026,-2.46431 -1.7694,-3.74984 -0.2249,-0.50964 -0.4531,-0.99505 -0.6369,-1.36724 -0.091,-0.1861 -0.1741,-0.34315 -0.2384,-0.46021 -0.065,-0.11705 -0.1165,-0.20011 -0.1283,-0.20915 -0.05,-0.0518 -0.2301,-0.11514 -0.7271,-0.15145 -0.497,-0.0363 -1.305,-0.0551 -2.6156,-0.0728 -0.8787,-0.0118 -1.6783,-0.0118 -2.2565,-0.003 z"
       sodipodi:nodetypes="csscsssscscccccccccccccccccccccccccccccccccccccccccccccccccccccccccccccccccscccccccccccscccccccccccccccscsccccsccccscccccccccccccccccccccscccccccccccccccccccscccccccccscccccccccccccccccccccssccccccccccscccccccsccccccccccccccccccscccccccccccscscccccscccccccc" /></g></svg>
