<?xml version="1.0" encoding="UTF-8" standalone="no"?>
<!-- Created with Inkscape (http://www.inkscape.org/) -->

<svg
   width="67.73336mm"
   height="67.733345mm"
   viewBox="0 0 67.733361 67.733345"
   version="1.1"
   id="svg8"
   xml:space="preserve"
   xmlns="http://www.w3.org/2000/svg"
   xmlns:svg="http://www.w3.org/2000/svg"
   xmlns:rdf="http://www.w3.org/1999/02/22-rdf-syntax-ns#"
   xmlns:cc="http://creativecommons.org/ns#"
   xmlns:dc="http://purl.org/dc/elements/1.1/"><defs
     id="defs2" /><metadata
     id="metadata5"><rdf:RDF><cc:Work
         rdf:about=""><dc:format>image/svg+xml</dc:format><dc:type
           rdf:resource="http://purl.org/dc/dcmitype/StillImage" /></cc:Work></rdf:RDF></metadata><g
     id="layer1"
     transform="translate(-1349.2889,-569.15114)"><path
       id="path7"
       style="fill:#000000;stroke-width:0.764989"
       d="m 1382.9254,569.15461 c -3.5112,0.0486 -7.0944,0.59389 -10.2769,1.6181 -2.7819,0.8953 -7.2272,3.18754 -9.5405,4.91953 -6.7276,5.03693 -11.1872,11.83689 -12.9691,19.77454 -2.2782,10.14892 0.068,20.46136 6.5102,28.60952 5.5455,7.01436 14.0793,11.69215 23.0309,12.62442 18.2565,1.90133 34.7645,-11.16223 37.1714,-29.41562 0.353,-2.67728 0.133,-8.56045 -0.4161,-11.12802 -0.9486,-4.43657 -3.0437,-9.22502 -5.6211,-12.84688 -1.7574,-2.46947 -5.491,-6.1975 -7.9487,-7.93644 -3.2985,-2.33383 -7.4876,-4.24584 -11.6288,-5.30757 -2.1038,-0.5394 -4.4252,-0.83799 -6.8123,-0.9021 -0.4973,-0.0134 -0.9974,-0.0164 -1.499,-0.009 z m 0.4493,21.10734 c 15.3418,0.0155 15.8801,0.0191 16.1516,0.12052 0.9295,0.34716 1.5182,1.13204 1.5848,2.11243 l 0.028,0.42083 -0.7783,0.47259 c -0.4282,0.25983 -1.6127,0.98212 -2.6324,1.60507 -4.902,2.99481 -8.2557,5.04387 -11.231,6.86205 -1.7893,1.09346 -3.2808,1.99779 -3.3146,2.0097 -0.033,0.012 -0.3518,-0.15886 -0.7071,-0.37934 -0.3553,-0.22048 -1.0251,-0.63269 -1.4886,-0.91594 -0.4635,-0.28323 -3.08,-1.88672 -5.8146,-3.5634 -2.7345,-1.67666 -5.3511,-3.28019 -5.8146,-3.5634 -0.4635,-0.28322 -1.595,-0.97687 -2.5142,-1.54145 l -1.6713,-1.02658 v -0.21536 c 0,-1.14379 0.8518,-2.16211 1.9668,-2.35188 0.2624,-0.0447 4.8284,-0.0571 16.2355,-0.0458 z m -18.2026,6.78144 0.857,0.52357 c 0.4711,0.28793 1.5896,0.97355 2.4857,1.52328 2.0927,1.28388 3.7562,2.30373 5.3229,3.26348 0.6876,0.42115 2.3625,1.44754 3.7221,2.28116 2.353,1.44277 3.836,2.35087 4.5287,2.7731 0.3552,0.21647 0.7617,0.35406 1.0454,0.35406 0.4962,0 0.7173,-0.11659 3.6955,-1.94569 0.6528,-0.40095 2.0028,-1.22564 6.4608,-3.94866 0.7416,-0.45295 2.1448,-1.31057 3.118,-1.90577 0.9733,-0.59521 2.0095,-1.22837 2.3031,-1.4071 0.2935,-0.17874 0.951,-0.5803 1.4609,-0.89224 l 0.9267,-0.56742 0.014,8.26638 c 0.01,5.73347 0,8.35599 -0.046,8.55919 -0.1492,0.72348 -0.6372,1.33214 -1.3324,1.66119 l -0.3781,0.1786 -16.1235,0.0126 c -15.1742,0.0117 -16.1385,0.006 -16.4044,-0.0853 -0.8487,-0.2938 -1.4411,-0.96097 -1.5994,-1.80106 -0.037,-0.19572 -0.057,-3.21957 -0.057,-8.57302 z" /></g></svg>
