<?xml version="1.0" encoding="UTF-8" standalone="no"?>
<!-- Created with Inkscape (http://www.inkscape.org/) -->

<svg
   width="67.73336mm"
   height="67.733345mm"
   viewBox="0 0 67.733361 67.733345"
   version="1.1"
   id="svg8"
   xml:space="preserve"
   sodipodi:docname="icon-subir.svg"
   inkscape:version="1.3.2 (1:1.3.2+202311252150+091e20ef0f)"
   xmlns:inkscape="http://www.inkscape.org/namespaces/inkscape"
   xmlns:sodipodi="http://sodipodi.sourceforge.net/DTD/sodipodi-0.dtd"
   xmlns="http://www.w3.org/2000/svg"
   xmlns:svg="http://www.w3.org/2000/svg"
   xmlns:rdf="http://www.w3.org/1999/02/22-rdf-syntax-ns#"
   xmlns:cc="http://creativecommons.org/ns#"
   xmlns:dc="http://purl.org/dc/elements/1.1/"><sodipodi:namedview
     id="namedview1"
     pagecolor="#ffffff"
     bordercolor="#666666"
     borderopacity="1.0"
     inkscape:showpageshadow="2"
     inkscape:pageopacity="0.0"
     inkscape:pagecheckerboard="0"
     inkscape:deskcolor="#d1d1d1"
     inkscape:document-units="mm"
     inkscape:current-layer="svg8" /><defs
     id="defs2" /><metadata
     id="metadata5"><rdf:RDF><cc:Work
         rdf:about=""><dc:format>image/svg+xml</dc:format><dc:type
           rdf:resource="http://purl.org/dc/dcmitype/StillImage" /></cc:Work></rdf:RDF></metadata><path
     id="rect4"
     style="fill:#ffffff;fill-opacity:1;stroke:none;stroke-width:5.39999;stroke-linecap:round;stroke-linejoin:round"
     d="M 10.98951 10.352856 C 9.5199248 10.352856 8.3369588 11.536339 8.3369588 13.005924 L 8.3369588 17.688843 C 8.3369588 19.158428 9.5199248 20.341394 10.98951 20.341394 L 56.740723 20.341394 C 58.210308 20.341394 59.393274 19.158428 59.393274 17.688843 L 59.393274 13.005924 C 59.393274 11.536339 58.210308 10.352856 56.740723 10.352856 L 10.98951 10.352856 z M 33.866667 25.936918 C 33.195305 25.936918 32.523848 26.194015 32.009416 26.708447 L 28.731063 29.987317 L 9.1022868 49.615576 C 8.0734229 50.64444 8.0734229 52.301214 9.1022868 53.330078 L 12.381156 56.608431 C 13.41002 57.637295 15.066794 57.637295 16.095658 56.608431 L 33.866667 38.837423 L 51.637675 56.608431 C 52.666539 57.637295 54.323313 57.637295 55.352177 56.608431 L 58.631047 53.330078 C 59.65991 52.301214 59.65991 50.64444 58.631047 49.615576 L 39.002787 29.987317 L 35.723918 26.708447 C 35.209486 26.194015 34.538028 25.936918 33.866667 25.936918 z " /></svg>
