<?xml version="1.0" encoding="UTF-8" standalone="no"?>
<!-- Created with Inkscape (http://www.inkscape.org/) -->

<svg
   width="67.73336mm"
   height="67.733345mm"
   viewBox="0 0 67.733361 67.733345"
   version="1.1"
   id="svg8"
   xml:space="preserve"
   xmlns="http://www.w3.org/2000/svg"
   xmlns:svg="http://www.w3.org/2000/svg"
   xmlns:rdf="http://www.w3.org/1999/02/22-rdf-syntax-ns#"
   xmlns:cc="http://creativecommons.org/ns#"
   xmlns:dc="http://purl.org/dc/elements/1.1/"><defs
     id="defs2" /><metadata
     id="metadata5"><rdf:RDF><cc:Work
         rdf:about=""><dc:format>image/svg+xml</dc:format><dc:type
           rdf:resource="http://purl.org/dc/dcmitype/StillImage" /></cc:Work></rdf:RDF></metadata><g
     id="layer1"
     transform="translate(-1474.3076,-447.91506)"><path
       id="path13"
       style="fill:#000000;stroke-width:0.764989"
       d="m 1507.9441,447.9186 c -3.5112,0.0486 -7.0944,0.59389 -10.2769,1.6181 -2.7819,0.89529 -7.2272,3.18754 -9.5405,4.91952 -6.7276,5.03693 -11.1872,11.83689 -12.9691,19.77453 -2.2782,10.14889 0.068,20.46136 6.5102,28.6095 5.5455,7.01435 14.0793,11.69215 23.0309,12.62442 18.2564,1.90131 34.7645,-11.16225 37.1714,-29.4156 0.353,-2.67728 0.133,-8.56045 -0.4161,-11.12801 -0.9486,-4.43655 -3.0437,-9.22502 -5.6211,-12.84688 -1.7574,-2.46946 -5.491,-6.19749 -7.9487,-7.93643 -3.2985,-2.33383 -7.4876,-4.24584 -11.6288,-5.30757 -2.1038,-0.53941 -4.4252,-0.83799 -6.8123,-0.9021 -0.4973,-0.0134 -0.9974,-0.0165 -1.499,-0.009 z m -0.1222,13.17168 c 1.9106,0.0306 4.1976,0.25128 5.4452,0.56071 2.6479,0.65673 6.0556,2.42332 8.1808,4.23987 6.6415,5.67692 9.0907,14.31391 6.3711,22.47216 -1.7855,5.35588 -5.5191,9.61934 -10.6116,12.11626 -1.4994,0.73519 -3.6769,1.48032 -4.9567,1.69517 -0.01,9.9e-4 -0.024,-0.0238 -0.038,-0.0475 -1.7519,0.29111 -3.9444,0.37294 -6.1163,0.22682 -0.01,-3.9e-4 -0.011,-10e-4 -0.017,-0.002 l 0.013,0.0537 c -2.6152,-0.17595 -4.6608,-0.76169 -7.2257,-2.07015 -2.105,-1.07387 -3.8661,-2.37036 -5.5982,-4.12016 -1.8638,-1.88284 -2.8559,-3.28834 -3.9609,-5.61102 -0.9551,-2.00749 -1.5709,-4.28251 -1.8027,-6.65776 -0.1361,-1.39489 -0.056,-4.47437 0.148,-5.69164 0.6444,-3.83602 2.3635,-7.34932 5.0596,-10.34206 3.4263,-3.80334 8.6338,-6.44599 13.3768,-6.78618 h 4e-4 c 0.5007,-0.036 1.0958,-0.047 1.7326,-0.0368 z m 0.4924,2.913 c -0.505,-0.0177 -1.0176,0.0371 -1.5135,0.16714 -1.3646,0.35785 -2.8695,1.5817 -3.9716,3.24096 -0.2132,0.32077 -0.7397,1.29806 -1.209,2.21477 -0.2347,0.45836 -0.4568,0.90285 -0.619,1.24391 -0.081,0.17053 -0.1471,0.31531 -0.193,0.42279 -0.022,0.0538 -0.04,0.0986 -0.052,0.1316 7e-4,0.007 0,0.004 0,0.0103 0.025,0.002 0.056,0.003 0.1001,0.005 0.105,0.004 0.2598,0.007 0.4572,0.0103 0.3947,0.006 0.9588,0.0103 1.6369,0.0119 1.3563,0.003 3.1662,-7.1e-4 4.982,-0.0103 1.8159,-0.01 3.6372,-0.0257 5.0153,-0.0435 0.689,-0.009 1.2674,-0.018 1.6785,-0.0281 0.2057,-0.005 0.3695,-0.01 0.4841,-0.015 0.057,-0.003 0.1035,-0.005 0.1349,-0.008 0.016,-0.002 0.028,-0.004 0.036,-0.005 0.01,-7.7e-4 0.013,-0.005 0,0.002 0.045,-0.0217 0.063,-0.0394 0.073,-0.0731 0.01,-0.0338 0.01,-0.0941 -0.02,-0.19441 -0.058,-0.2006 -0.2166,-0.55108 -0.5083,-1.15738 -1.286,-2.67301 -2.5757,-4.29727 -4.1554,-5.24789 -0.5543,-0.33359 -1.1905,-0.54853 -1.8537,-0.63618 h -8e-4 c -0.1658,-0.0219 -0.3331,-0.036 -0.5015,-0.0419 z m 7.1933,1.4067 c 0.018,0.0299 0.031,0.0533 0.054,0.0913 0.082,0.13799 0.195,0.32427 0.32,0.52554 0.4406,0.70988 1.0136,1.81558 1.4977,2.84502 0.484,1.02944 0.8789,1.97523 0.9654,2.39417 l 0.045,0.2193 2.1182,-0.0297 c 0.5938,-0.008 1.1409,-0.0242 1.544,-0.0419 0.2015,-0.009 0.3664,-0.0173 0.4829,-0.0269 0.058,-0.005 0.1047,-0.0104 0.1361,-0.015 0.013,-0.002 0.021,-0.003 0.028,-0.004 0,-9.9e-4 0.01,-0.002 0,-0.0225 -0.01,-0.0249 -0.02,-0.0641 -0.047,-0.1134 -0.054,-0.0985 -0.1537,-0.23761 -0.2963,-0.41214 -0.285,-0.34907 -0.7432,-0.84219 -1.3719,-1.47428 -1.485,-1.49298 -2.4017,-2.19426 -4.2468,-3.24965 -0.3792,-0.21696 -0.7248,-0.4108 -0.9745,-0.54806 -0.1077,-0.0591 -0.187,-0.10211 -0.2543,-0.13751 z m -14.8347,0.0154 c 0,10e-4 0,9.8e-4 -0.01,0.002 -0.052,0.0201 -0.1276,0.055 -0.2195,0.10037 -0.1837,0.0908 -0.4339,0.22717 -0.7162,0.38684 -0.5644,0.31934 -1.2548,0.7354 -1.7833,1.08704 -1.1099,0.73846 -2.4796,1.96022 -3.5741,3.18999 -0.2357,0.26492 -0.4647,0.52849 -0.6454,0.73931 -0.1808,0.21081 -0.3147,0.37312 -0.3484,0.42122 l -0.084,0.11775 h 2.2468 2.3097 l 0.2884,-0.88235 c 0.3373,-1.02914 1.6211,-3.69408 2.2258,-4.6208 0.1047,-0.16046 0.1942,-0.31238 0.2539,-0.42556 0.025,-0.0484 0.042,-0.085 0.055,-0.11618 z m -8.8891,8.82748 -0.2294,0.51211 c -0.4465,0.99412 -0.8105,2.1913 -1.1568,3.80799 -0.1301,0.6094 -0.1915,1.03641 -0.1915,1.3174 8e-4,0.14051 0.018,0.24302 0.049,0.31374 0.03,0.0707 0.071,0.10879 0.127,0.1312 0,-6.9e-4 0.036,0.008 0.087,0.0134 0.051,0.005 0.1215,0.0112 0.2076,0.0166 0.1723,0.0102 0.4089,0.0188 0.6921,0.0269 0.5665,0.0162 1.3198,0.0285 2.1227,0.0301 l 2.8696,0.006 0.051,-1.35889 c 0.034,-0.92151 0.1521,-1.99926 0.3377,-3.10187 0.078,-0.46392 0.1493,-0.89031 0.2006,-1.204 0.026,-0.15685 0.047,-0.28541 0.061,-0.37618 0.01,-0.0422 0.014,-0.074 0.014,-0.0988 -0.034,-0.003 -0.086,-0.006 -0.1538,-0.009 -0.1347,-0.005 -0.3296,-0.01 -0.5711,-0.0134 -0.483,-0.008 -1.1502,-0.0135 -1.8834,-0.0135 z m 30.0691,0.0925 c -0.7646,0 -1.4346,0.009 -1.9134,0.0241 -0.2393,0.007 -0.4314,0.017 -0.562,0.0269 -0.065,0.005 -0.1149,0.009 -0.1463,0.0146 -0.01,7.6e-4 -0.01,0.001 -0.01,0.002 0,0.0185 0,0.0424 0.011,0.0719 0.01,0.0627 0.023,0.14855 0.039,0.25091 0.032,0.20473 0.077,0.47503 0.1258,0.76302 0.099,0.57966 0.2722,1.93703 0.3872,3.02127 l 0.2032,1.92197 2.9805,-0.0301 c 0.9267,-0.009 1.6916,-0.0266 2.2317,-0.0478 0.2701,-0.0106 0.4849,-0.0214 0.6337,-0.034 0.074,-0.006 0.1322,-0.0137 0.172,-0.0198 0.02,-0.003 0.036,-0.006 0.045,-0.009 7e-4,-0.001 0.01,-0.0175 0.017,-0.0526 0.01,-0.0369 0.01,-0.0898 0.01,-0.15371 0,-0.12768 -0.024,-0.30204 -0.057,-0.51052 -0.065,-0.41696 -0.1806,-0.968 -0.3243,-1.55924 -0.2872,-1.18247 -0.6878,-2.52584 -1.0136,-3.27217 l -0.178,-0.40779 h -2.6486 z m -13.736,0.0463 c -3.3667,0 -5.4141,0.006 -6.6264,0.0241 -0.4643,0.007 -0.712,0.017 -0.9584,0.0281 -0.01,-0.0188 -0.016,-0.035 -0.024,-0.0514 -0.3858,0.0178 -0.6215,0.0398 -0.6407,0.0707 -0.063,0.10184 -0.1841,0.73409 -0.3116,1.48851 l 0.031,0.12447 c -0.029,0.17788 -0.057,0.31332 -0.087,0.50499 -0.1654,1.0671 -0.3246,2.29175 -0.3812,3.04813 l -0.06,0.79739 h 1.6025 l 0.013,0.0529 h 2.3307 c -0.01,-0.0176 -0.014,-0.0353 -0.021,-0.0529 h 5.1421 9.0687 l -0.06,-0.70454 c -0.065,-0.78145 -0.238,-2.07558 -0.4125,-3.19038 -0.087,-0.55739 -0.1753,-1.07029 -0.2495,-1.45135 -0.037,-0.19054 -0.071,-0.34835 -0.099,-0.46153 -0.014,-0.0565 -0.027,-0.10239 -0.037,-0.13435 -0.01,-0.0245 -0.014,-0.0313 -0.014,-0.0344 -0.01,-7.6e-4 -0.012,-9.2e-4 -0.021,-0.002 -0.029,-0.002 -0.072,-0.004 -0.1285,-0.006 -0.1129,-0.004 -0.2776,-0.008 -0.4889,-0.0119 -0.4223,-0.008 -1.0292,-0.0148 -1.7757,-0.021 -1.4928,-0.0118 -3.5442,-0.0178 -5.7921,-0.0178 z m -4.0518,8.77849 c -1.033,0.004 -1.9839,0.007 -2.7246,0.0142 l 0.011,0.0506 c -0.6324,0.006 -1.2295,0.0109 -1.6098,0.0178 -0.2309,0.004 -0.4096,0.007 -0.5307,0.0119 -0.059,0.002 -0.1034,0.005 -0.1333,0.008 0,0.079 0.019,0.27941 0.045,0.57966 0.029,0.32345 0.068,0.73436 0.1104,1.15145 0.084,0.83418 0.1787,1.69749 0.2155,1.93265 0.055,0.35511 0.146,0.88553 0.2302,1.34704 0.042,0.23075 0.082,0.44339 0.1151,0.6093 0.031,0.15749 0.056,0.26483 0.067,0.30466 0.012,0.003 0.03,0.008 0.057,0.0119 0.06,0.009 0.1549,0.0161 0.2886,0.0237 0.2677,0.0151 0.6924,0.0273 1.3198,0.036 0.2508,0.004 0.9981,0.002 1.317,0.005 l 0.014,0.0522 c 0.8794,0.007 2.1429,0.0108 3.6255,0.0127 -0.01,-0.0168 -0.014,-0.0334 -0.021,-0.0522 0.6754,7.6e-4 0.8342,0.006 1.6547,0.006 h 8.2259 l 0.088,-0.44336 c 0.1676,-0.83461 0.3543,-2.01034 0.4991,-3.07816 0.1447,-1.06779 0.2484,-2.03114 0.2484,-2.42538 0,-0.0231 0.01,-0.0215 0,-0.0253 0,-0.004 -0.032,-0.0188 -0.1005,-0.0312 -0.1357,-0.0249 -0.4213,-0.0437 -0.9907,-0.0553 -1.1389,-0.0234 -3.415,-0.0241 -7.957,-0.0241 -1.5743,0 -2.7479,0.008 -4.0431,0.0134 -0.01,-0.0186 -0.014,-0.0353 -0.021,-0.0521 z m -7.6789,0.0194 -2.937,0.0328 c -1.631,0.0184 -2.4571,0.031 -2.8625,0.10037 -0.2027,0.0347 -0.2937,0.0829 -0.335,0.14028 -0.039,0.0573 -0.047,0.14198 -0.047,0.27186 0,0.15937 0.058,0.50982 0.1511,0.94992 0.093,0.4401 0.2223,0.97352 0.3647,1.51577 0.2846,1.0845 0.6251,2.20703 0.8371,2.67906 l 0.2259,0.50499 h 2.6636 2.6321 l -0.1926,-0.93055 c -0.3049,-1.4603 -0.5007,-3.13776 -0.5007,-4.29955 z m 23.6759,0.021 -0.042,0.211 c -0.025,0.12922 -0.094,0.72778 -0.1507,1.31108 -0.053,0.54884 -0.1842,1.58249 -0.3124,2.52536 -0.064,0.47144 -0.1276,0.91974 -0.1812,1.27395 -0.054,0.3542 -0.096,0.60959 -0.121,0.70927 l -0.036,0.14344 h 2.6518 2.6818 l 0.4216,-1.23481 c 0.2376,-0.69634 0.5355,-1.70491 0.6605,-2.23454 0.1307,-0.55389 0.2593,-1.18328 0.3485,-1.68014 0.044,-0.24843 0.078,-0.46407 0.098,-0.61959 0.01,-0.0777 0.019,-0.14038 0.019,-0.18374 0,-0.0204 6e-4,-0.0347 0,-0.0447 0,-0.002 0,-8.7e-4 -0.01,-0.003 -0.014,-0.005 -0.036,-0.0105 -0.064,-0.0166 -0.056,-0.0117 -0.1358,-0.0232 -0.235,-0.0344 -0.1983,-0.0223 -0.4768,-0.0426 -0.8159,-0.0596 -0.6784,-0.0343 -1.6025,-0.0557 -2.6324,-0.0581 z m -12.4866,8.92548 c -0.1983,5.9e-4 -0.3181,-3.8e-4 -0.5256,3.9e-4 l -3.493,0.0131 0.013,0.0517 -2.7863,0.0107 0.5921,1.26485 c 1.1818,2.52727 2.3856,4.04123 3.7623,5.06731 l 0.043,0.18058 c -0.5347,-0.3833 -1.0411,-0.84055 -1.529,-1.39525 0.6338,0.75597 1.2989,1.34405 2.0277,1.77893 1.1883,0.70903 2.7274,0.87723 4.0621,0.45047 v -0.0142 l 0.014,0.0103 c 0.012,-0.004 0.025,-0.006 0.038,-0.0103 0.011,-0.004 0.022,-0.01 0.033,-0.0135 l -0.05,-0.036 0.069,-0.0222 v 0.0501 c 0.6847,-0.23899 1.3851,-0.70957 2.0818,-1.38498 -0.4931,0.44576 -0.9891,0.79619 -1.4822,1.05542 -0.015,-0.0315 -0.029,-0.0621 -0.044,-0.094 1.0811,-0.57012 2.1894,-1.56623 3.2526,-3.1738 0.325,-0.4915 0.7782,-1.35723 1.1315,-2.1148 0.1767,-0.37879 0.3283,-0.73036 0.4275,-0.99457 0.05,-0.13211 0.085,-0.2424 0.1044,-0.32125 0.01,-0.0395 0.017,-0.0722 0.017,-0.0925 0.01,-0.0203 0,-0.0247 0.01,-0.0119 -0.01,-0.005 -0.051,-0.031 -0.1345,-0.0494 -0.083,-0.0184 -0.2039,-0.0353 -0.3618,-0.0506 -0.3156,-0.0307 -0.7839,-0.0548 -1.4364,-0.0719 -1.1928,-0.0315 -3.208,-0.035 -5.813,-0.0281 -0.01,-0.0186 -0.015,-0.0368 -0.022,-0.055 z m 10.8497,0.013 -0.1876,0.59429 c -0.379,1.21014 -1.7842,4.07819 -2.6335,5.3779 -0.044,0.067 -0.074,0.12182 -0.099,0.1703 0.063,-0.0332 0.1477,-0.0806 0.2527,-0.13909 0.2148,-0.11951 0.5049,-0.28431 0.8175,-0.46587 2.0301,-1.17885 2.7081,-1.69235 4.2334,-3.20777 0.8307,-0.82541 1.3333,-1.34531 1.6053,-1.67579 0.1361,-0.16525 0.2139,-0.28356 0.2452,-0.36274 0.018,-0.0396 0.018,-0.0687 0.018,-0.0881 0,-0.0194 -0.01,-0.03 -0.021,-0.0435 0,0.002 -0.012,-0.007 -0.036,-0.015 -0.024,-0.007 -0.059,-0.0161 -0.1059,-0.0237 -0.093,-0.0148 -0.2268,-0.0272 -0.405,-0.0388 -0.3565,-0.0231 -0.8897,-0.0398 -1.6263,-0.051 z m -24.4927,0.0328 c -0.1961,0.003 -0.3547,0.007 -0.4635,0.0134 -0.044,0.003 -0.074,0.006 -0.1001,0.009 0.01,0.009 0.01,0.0146 0.015,0.0253 0.027,0.0427 0.069,0.10045 0.121,0.16873 0.1043,0.13661 0.252,0.3174 0.4244,0.51842 0.3448,0.40203 0.7865,0.88746 1.1734,1.27829 0.9276,0.93697 2.1394,1.95445 3.0793,2.58818 0.3424,0.23087 1.0041,0.62214 1.586,0.94835 0.2909,0.1631 0.5624,0.31067 0.7636,0.41371 0.094,0.0481 0.1685,0.0833 0.2259,0.10906 -0.01,-0.012 -0.01,-0.0191 -0.018,-0.0328 -0.052,-0.084 -0.1279,-0.19738 -0.2152,-0.31968 -0.1958,-0.2742 -0.5293,-0.8815 -0.9132,-1.64142 -0.3839,-0.7599 -0.8157,-1.67155 -1.2002,-2.54353 -0.1525,-0.34569 -0.3073,-0.67494 -0.432,-0.9274 -0.062,-0.12623 -0.1181,-0.23276 -0.1617,-0.31216 -0.044,-0.0794 -0.079,-0.13574 -0.087,-0.14187 -0.034,-0.0351 -0.1561,-0.0781 -0.4932,-0.10273 -0.3371,-0.0246 -0.8852,-0.0374 -1.7742,-0.0494 -0.596,-0.008 -1.1384,-0.008 -1.5306,-0.002 z" /></g></svg>
