<?xml version="1.0" encoding="UTF-8" standalone="no"?>
<!-- Created with Inkscape (http://www.inkscape.org/) -->

<svg
   width="67.73336mm"
   height="67.733345mm"
   viewBox="0 0 67.733361 67.733345"
   version="1.1"
   id="svg8"
   xml:space="preserve"
   sodipodi:docname="icon-traducir.svg"
   inkscape:version="1.3.2 (1:1.3.2+202311252150+091e20ef0f)"
   xmlns:inkscape="http://www.inkscape.org/namespaces/inkscape"
   xmlns:sodipodi="http://sodipodi.sourceforge.net/DTD/sodipodi-0.dtd"
   xmlns="http://www.w3.org/2000/svg"
   xmlns:svg="http://www.w3.org/2000/svg"
   xmlns:rdf="http://www.w3.org/1999/02/22-rdf-syntax-ns#"
   xmlns:cc="http://creativecommons.org/ns#"
   xmlns:dc="http://purl.org/dc/elements/1.1/"><sodipodi:namedview
     id="namedview1"
     pagecolor="#ffffff"
     bordercolor="#666666"
     borderopacity="1.0"
     inkscape:showpageshadow="2"
     inkscape:pageopacity="0.0"
     inkscape:pagecheckerboard="0"
     inkscape:deskcolor="#d1d1d1"
     inkscape:document-units="mm"
     inkscape:current-layer="svg8" /><defs
     id="defs2" /><metadata
     id="metadata5"><rdf:RDF><cc:Work
         rdf:about=""><dc:format>image/svg+xml</dc:format><dc:type
           rdf:resource="http://purl.org/dc/dcmitype/StillImage" /></cc:Work></rdf:RDF></metadata><path
     id="path9"
     style="fill:#ffffff;fill-opacity:1;stroke-width:0.765571;stroke:none;stroke-opacity:1"
     d="M 33.030542 0.013435872 C 29.732536 0.10293194 26.453329 0.64269074 23.466785 1.6252238 C 11.310109 5.6245858 2.7167069 15.647663 0.41341146 28.514539 C -0.1035875 31.402523 -0.053266888 36.610114 0.52193197 39.745378 C 2.1101288 48.40161 6.7950881 55.929534 13.793473 61.070174 C 16.014369 62.701602 16.584725 63.052931 18.717721 64.104097 C 22.814411 66.123023 26.456182 67.156185 31.160372 67.634115 C 32.698668 67.790383 35.609993 67.758038 37.344491 67.564868 C 44.499075 66.76809 50.697762 64.11263 56.100452 59.5297 C 61.87094 54.63472 65.822154 47.850938 67.388652 40.150004 C 67.96255 37.3287 67.9093 29.984776 67.2946 27.1663 C 66.606002 24.008878 65.750701 21.581771 64.310803 18.700667 C 62.594407 15.266275 60.771328 12.740206 58.026432 9.9926717 C 53.647742 5.6097705 48.593525 2.6767219 42.706437 1.1027751 C 39.645343 0.28435665 36.328548 -0.076060198 33.030542 0.013435872 z M 21.400244 9.6567749 C 21.51956 9.6484898 21.645637 9.6487917 21.779032 9.6572917 C 22.397731 9.696687 22.852922 9.9503849 23.215637 10.45776 C 23.3453 10.639129 24.479256 13.503851 25.872323 17.170011 L 28.302665 23.566003 L 29.460217 23.599076 C 30.371616 23.625157 30.679907 23.664475 30.907157 23.782528 C 32.078341 24.390928 32.400102 25.795572 31.606856 26.835571 C 31.320727 27.210705 30.65164 27.543022 30.181104 27.543022 C 29.924321 27.543022 29.828619 27.573088 29.856059 27.645858 C 29.877424 27.702568 30.372355 28.992553 30.95625 30.512349 C 31.930113 33.047179 32.017817 33.320055 32.015617 33.81189 C 32.011848 34.615573 31.642634 35.209048 30.907157 35.593693 C 30.491721 35.810965 29.64868 35.798628 29.216305 35.568888 C 28.488825 35.182345 28.443125 35.093925 26.963212 31.204814 L 25.585002 27.584363 L 21.650358 27.562659 C 17.897702 27.54223 17.712291 27.548203 17.634583 27.6934 C 17.58977 27.777133 16.989902 29.327371 16.301847 31.138151 C 15.613795 32.948932 14.995324 34.541885 14.927254 34.677987 C 14.750398 35.031598 14.41619 35.369777 14.065291 35.550285 C 13.718014 35.728923 12.981936 35.81812 12.677262 35.71875 C 11.763609 35.420767 11.193115 34.66085 11.193115 33.742126 C 11.193115 33.506711 11.530814 32.514665 12.298991 30.493746 L 13.404867 27.584363 L 12.956832 27.532686 C 11.393218 27.354104 10.65062 25.511661 11.664921 24.326681 C 12.165822 23.74149 12.46843 23.63777 13.791406 23.59856 L 14.945858 23.564453 L 17.128153 17.820618 C 18.328271 14.661515 19.448594 11.728248 19.617924 11.302153 C 20.056567 10.19836 20.56502 9.7148227 21.400244 9.6567749 z M 39.096838 12.236979 C 39.096838 12.236979 41.282754 12.363673 43.537911 13.365076 C 44.665491 13.865776 45.85201 14.597617 46.791459 15.725138 C 47.63067 16.732354 48.232269 18.07631 48.351571 19.65048 L 48.375342 19.618441 A 1.5610522 1.5610522 0 0 1 50.555054 19.269625 A 1.5610522 1.5610522 0 0 1 50.904386 21.449337 L 48.527787 24.731824 A 1.5612083 1.5612083 0 0 1 46.17806 24.940597 L 43.19633 22.06377 A 1.5610522 1.5610522 0 0 1 43.156539 19.856152 A 1.5610522 1.5610522 0 0 1 45.227214 19.710942 C 45.140505 18.858769 44.834214 18.25468 44.391606 17.723466 C 43.864965 17.091397 43.096977 16.586487 42.269771 16.219165 C 40.615358 15.484524 38.891166 15.353068 38.891166 15.353068 A 1.5610522 1.5610522 0 0 1 37.436991 13.692704 A 1.5610522 1.5610522 0 0 1 39.096838 12.236979 z M 21.586279 17.327108 C 21.583279 17.326008 21.581161 17.326792 21.579561 17.329692 C 21.546129 17.389465 21.016728 18.756186 20.403406 20.366715 C 19.790083 21.977247 19.263188 23.360006 19.232418 23.439396 C 19.179887 23.574846 19.326289 23.583573 21.617802 23.583573 L 24.059513 23.583573 L 23.850224 23.027018 C 22.442273 19.280882 21.679229 17.360098 21.586279 17.327108 z M 43.07644 32.08383 C 43.724954 32.08415 44.164858 32.284829 44.580225 32.770093 C 44.992402 33.251623 45.056165 33.564707 45.056165 35.110002 L 45.056165 36.478394 L 49.943205 36.502681 C 54.211257 36.523889 54.866995 36.543599 55.119116 36.658744 C 56.537411 37.306485 56.77476 39.168931 55.555782 40.085925 C 55.110671 40.420767 54.596718 40.527242 53.424646 40.527242 L 52.481034 40.527242 L 52.016463 41.455351 C 50.582479 44.318773 48.643381 47.235244 46.772856 49.342725 C 45.74366 50.502294 45.779001 50.354298 46.431791 50.775195 C 48.328503 51.998136 50.368511 52.891595 52.314636 53.352299 C 53.43434 53.617364 53.592338 53.691135 53.987919 54.128996 C 55.133538 55.397059 54.230373 57.407662 52.522892 57.390812 C 51.614044 57.381846 49.322 56.691367 47.548002 55.892196 C 46.341665 55.34875 44.850725 54.507958 43.677437 53.709383 L 42.835628 53.136292 L 41.863078 53.835474 C 39.642889 55.431488 37.068417 56.640307 34.621659 57.235783 C 33.69009 57.462501 33.527771 57.470987 33.031059 57.315881 C 31.423528 56.813908 31.184558 54.609786 32.641935 53.72902 C 32.778037 53.646767 33.271671 53.482008 33.739026 53.363151 C 35.633862 52.881262 37.71308 51.91329 39.306128 50.771061 L 39.701453 50.487358 L 38.726318 49.487419 C 37.20935 47.931649 35.476294 45.782384 35.194234 45.107324 C 35.028108 44.709733 35.045608 43.939636 35.229891 43.537911 C 35.707217 42.497367 36.944389 42.084718 37.948071 42.63099 C 38.268636 42.805462 38.495573 43.02267 38.804867 43.450578 C 39.546552 44.476692 40.609093 45.726606 41.670325 46.821948 L 42.703337 47.88855 L 43.3033 47.25293 C 44.616941 45.860397 46.080524 43.85721 47.339229 41.729753 L 48.026009 40.568583 L 39.671997 40.527242 L 31.317468 40.485901 L 30.908191 40.275578 C 29.226526 39.410011 29.581512 36.918437 31.436324 36.569344 C 31.703036 36.519154 33.719881 36.485628 36.482011 36.485628 L 41.08328 36.485628 L 41.110669 34.980294 C 41.135282 33.626075 41.155833 33.441563 41.315824 33.144747 C 41.697291 32.437063 42.284587 32.083424 43.07644 32.08383 z " /></svg>
