<?xml version="1.0" encoding="UTF-8" standalone="no"?>
<!-- Created with Inkscape (http://www.inkscape.org/) -->

<svg
   width="67.733368mm"
   height="67.733337mm"
   viewBox="0 0 67.733369 67.733337"
   version="1.1"
   id="svg8"
   xml:space="preserve"
   sodipodi:docname="icon-instagram_bla.svg"
   inkscape:version="1.3.2 (1:1.3.2+202311252150+091e20ef0f)"
   xmlns:inkscape="http://www.inkscape.org/namespaces/inkscape"
   xmlns:sodipodi="http://sodipodi.sourceforge.net/DTD/sodipodi-0.dtd"
   xmlns="http://www.w3.org/2000/svg"
   xmlns:svg="http://www.w3.org/2000/svg"
   xmlns:rdf="http://www.w3.org/1999/02/22-rdf-syntax-ns#"
   xmlns:cc="http://creativecommons.org/ns#"
   xmlns:dc="http://purl.org/dc/elements/1.1/"><sodipodi:namedview
     id="namedview1"
     pagecolor="#ffffff"
     bordercolor="#666666"
     borderopacity="1.0"
     inkscape:showpageshadow="2"
     inkscape:pageopacity="0.0"
     inkscape:pagecheckerboard="0"
     inkscape:deskcolor="#d1d1d1"
     inkscape:document-units="mm"
     inkscape:current-layer="svg8" /><defs
     id="defs2" /><metadata
     id="metadata5"><rdf:RDF><cc:Work
         rdf:about=""><dc:format>image/svg+xml</dc:format><dc:type
           rdf:resource="http://purl.org/dc/dcmitype/StillImage" /></cc:Work></rdf:RDF></metadata><g
     id="layer1"
     transform="translate(-1338.4041,-447.72591)"
     style="fill:#ffffff;fill-opacity:1"><path
       style="fill:#ffffff;stroke-width:0.765571;fill-opacity:1"
       d="m 1369.5089,515.36022 c -4.7042,-0.47793 -8.3463,-1.51119 -12.443,-3.53012 -2.133,-1.05117 -2.7031,-1.40239 -4.924,-3.03382 -6.9984,-5.14065 -11.6835,-12.6688 -13.2717,-21.32505 -0.5752,-3.13527 -0.6256,-8.34259 -0.1086,-11.23058 2.3033,-12.8669 10.8967,-22.89028 23.0534,-26.88965 5.9731,-1.96507 13.1175,-2.15894 19.2397,-0.5221 5.8871,1.57395 10.9415,4.50689 15.3202,8.8898 2.7449,2.74754 4.5677,5.27344 6.2841,8.70784 1.4399,2.88111 2.2955,5.30813 2.9841,8.46556 0.6147,2.81848 0.6679,10.16253 0.094,12.98384 -1.5665,7.70095 -5.5179,14.48445 -11.2884,19.37944 -5.4027,4.58294 -11.601,7.23838 -18.7556,8.03516 -1.7345,0.19317 -4.6459,0.22597 -6.1842,0.0697 z m 11.3821,-13.62229 c 5.9065,-0.48852 9.3251,-3.18788 10.6621,-8.4188 0.3155,-1.23454 0.3571,-2.49695 0.3589,-10.90672 0,-8.39885 -0.04,-9.68901 -0.3572,-11.03698 -0.5447,-2.31372 -1.3835,-3.8928 -2.8404,-5.34667 -1.4402,-1.43736 -2.6613,-2.12481 -4.9494,-2.7866 -1.548,-0.44771 -1.8038,-0.45796 -11.4174,-0.45796 -10.829,0 -10.9416,0.0108 -13.7525,1.31861 -1.6559,0.77049 -3.591,2.68801 -4.4466,4.40632 -1.2962,2.60327 -1.368,3.33587 -1.3627,13.90328 0.01,10.47642 0.05,10.93201 1.3106,13.5373 1.631,3.36925 4.9255,5.40795 9.3296,5.77331 2.8034,0.23257 14.7105,0.24273 17.465,0.0149 z m -17.792,-3.63559 c -3.8313,-0.58752 -5.9895,-2.65385 -6.5598,-6.28053 -0.2755,-1.75173 -0.2702,-17.31509 0.01,-19.02115 0.5783,-3.5664 2.6926,-5.70563 6.207,-6.28004 1.5645,-0.25571 17.6642,-0.24813 19.252,0.009 3.5015,0.5672 5.5607,2.66863 6.1448,6.27098 0.2808,1.73161 0.2819,17.27974 0,19.02115 -0.3868,2.40142 -1.4849,4.2082 -3.1491,5.18154 -1.9077,1.11568 -2.2869,1.15405 -11.9445,1.20806 -4.9069,0.0274 -9.3881,-0.0217 -9.9582,-0.10906 z m 11.3009,-5.96452 c 4.8958,-1.03563 8.396,-5.59023 8.0183,-10.43364 -0.2184,-2.80109 -1.2937,-5.03478 -3.3081,-6.87217 -3.7787,-3.44653 -9.6554,-3.47869 -13.4503,-0.0736 -1.9478,1.74764 -3.1328,4.10169 -3.3697,6.69397 -0.4458,4.87695 3.061,9.62517 7.8804,10.6701 1.651,0.35799 2.5934,0.36141 4.2294,0.0154 z m -3.9996,-3.63827 c -0.4577,-0.14295 -1.2403,-0.54018 -1.7392,-0.88275 -4.0079,-2.75191 -3.6464,-8.69107 0.6744,-11.07945 0.9899,-0.54724 1.2559,-0.60023 3.0121,-0.60023 1.7561,0 2.0221,0.053 3.0121,0.60023 3.1811,1.75844 4.3877,5.58924 2.7459,8.71784 -1.4517,2.76618 -4.7671,4.16214 -7.7053,3.24436 z m 13.7282,-14.74472 c 1.238,-0.83073 1.4152,-2.52537 0.3727,-3.5657 -1.891,-1.88725 -4.8955,0.25191 -3.7468,2.66771 0.6176,1.29878 2.1636,1.71024 3.3741,0.89799 z"
       id="path5" /></g></svg>
