<?xml version="1.0" encoding="UTF-8" standalone="no"?>
<!-- Created with Inkscape (http://www.inkscape.org/) -->

<svg
   width="67.73336mm"
   height="67.733345mm"
   viewBox="0 0 67.733361 67.733345"
   version="1.1"
   id="svg8"
   xml:space="preserve"
   sodipodi:docname="icon-contacto_neg.svg"
   inkscape:version="1.3.2 (1:1.3.2+202311252150+091e20ef0f)"
   xmlns:inkscape="http://www.inkscape.org/namespaces/inkscape"
   xmlns:sodipodi="http://sodipodi.sourceforge.net/DTD/sodipodi-0.dtd"
   xmlns="http://www.w3.org/2000/svg"
   xmlns:svg="http://www.w3.org/2000/svg"
   xmlns:rdf="http://www.w3.org/1999/02/22-rdf-syntax-ns#"
   xmlns:cc="http://creativecommons.org/ns#"
   xmlns:dc="http://purl.org/dc/elements/1.1/"><sodipodi:namedview
     id="namedview1"
     pagecolor="#ffffff"
     bordercolor="#666666"
     borderopacity="1.0"
     inkscape:showpageshadow="2"
     inkscape:pageopacity="0.0"
     inkscape:pagecheckerboard="0"
     inkscape:deskcolor="#d1d1d1"
     inkscape:document-units="mm"
     inkscape:current-layer="g4" /><defs
     id="defs2" /><metadata
     id="metadata5"><rdf:RDF><cc:Work
         rdf:about=""><dc:format>image/svg+xml</dc:format><dc:type
           rdf:resource="http://purl.org/dc/dcmitype/StillImage" /></cc:Work></rdf:RDF></metadata><g
     id="g4"
     transform="translate(-0.15778465,-0.00935078)"><path
       id="path2"
       style="stroke-width:1.65164;paint-order:fill markers stroke;fill:#000000;fill-opacity:1.0"
       d="M 34.024451 4.769267 C 21.110433 4.769267 3.2015265 8.368448 3.2015265 28.152336 C 3.2015265 47.936224 21.110433 51.535405 34.024451 51.535405 C 37.431072 51.535405 41.184331 51.237316 44.86565 50.454334 L 63.407154 62.982768 L 55.910971 46.013778 C 61.150244 42.471584 64.847376 36.858515 64.847376 28.152336 C 64.847376 8.9756398 46.93847 4.769267 34.024451 4.769267 z M 18.760267 25.682719 A 5.3349533 5.3349533 0 0 1 24.095342 31.017277 A 5.3349533 5.3349533 0 0 1 18.760267 36.352352 A 5.3349533 5.3349533 0 0 1 13.425192 31.017277 A 5.3349533 5.3349533 0 0 1 18.760267 25.682719 z M 34.024451 25.682719 A 5.3349533 5.3349533 0 0 1 39.359526 31.017277 A 5.3349533 5.3349533 0 0 1 34.024451 36.352352 A 5.3349533 5.3349533 0 0 1 28.689376 31.017277 A 5.3349533 5.3349533 0 0 1 34.024451 25.682719 z M 49.288636 25.682719 A 5.3349533 5.3349533 0 0 1 54.623711 31.017277 A 5.3349533 5.3349533 0 0 1 49.288636 36.352352 A 5.3349533 5.3349533 0 0 1 43.953561 31.017277 A 5.3349533 5.3349533 0 0 1 49.288636 25.682719 z " /></g></svg>
