<?xml version="1.0" encoding="UTF-8" standalone="no"?>
<!-- Created with Inkscape (http://www.inkscape.org/) -->

<svg
   width="67.733643mm"
   height="67.7332mm"
   viewBox="0 0 67.733643 67.7332"
   version="1.1"
   id="svg8"
   xml:space="preserve"
   sodipodi:docname="icon-contacto_bla.svg"
   inkscape:version="1.3.2 (1:1.3.2+202311252150+091e20ef0f)"
   xmlns:inkscape="http://www.inkscape.org/namespaces/inkscape"
   xmlns:sodipodi="http://sodipodi.sourceforge.net/DTD/sodipodi-0.dtd"
   xmlns="http://www.w3.org/2000/svg"
   xmlns:svg="http://www.w3.org/2000/svg"
   xmlns:rdf="http://www.w3.org/1999/02/22-rdf-syntax-ns#"
   xmlns:cc="http://creativecommons.org/ns#"
   xmlns:dc="http://purl.org/dc/elements/1.1/"><sodipodi:namedview
     id="namedview1"
     pagecolor="#ffffff"
     bordercolor="#666666"
     borderopacity="1.0"
     inkscape:showpageshadow="2"
     inkscape:pageopacity="0.0"
     inkscape:pagecheckerboard="0"
     inkscape:deskcolor="#d1d1d1"
     inkscape:document-units="mm"
     inkscape:current-layer="g4" /><defs
     id="defs2" /><metadata
     id="metadata5"><rdf:RDF><cc:Work
         rdf:about=""><dc:format>image/svg+xml</dc:format><dc:type
           rdf:resource="http://purl.org/dc/dcmitype/StillImage" /></cc:Work></rdf:RDF></metadata><g
     id="g4"
     transform="translate(-86.95261,1.442665)"><path
       id="path7"
       style="fill:#ffffff;fill-opacity:1;stroke-width:0.765571"
       d="M 119.92786 -1.4292291 C 116.62985 -1.3397332 113.35013 -0.79997472 110.36358 0.1825588 C 98.206911 4.1819204 89.613506 14.204998 87.310211 27.071874 C 86.793211 29.959858 86.843533 35.167449 87.418731 38.302713 C 89.006929 46.958945 93.692402 54.486869 100.69079 59.627509 C 102.91168 61.258937 103.48152 61.610265 105.61452 62.661432 C 109.71121 64.680358 113.3535 65.71352 118.05769 66.19145 C 119.59599 66.347718 122.50732 66.315376 124.24181 66.122203 C 130.41373 65.434861 135.87018 63.356346 140.72194 59.858503 L 129.53657 50.356757 C 126.57644 50.986351 123.55853 51.225955 120.81928 51.225955 C 110.43516 51.225955 96.034743 48.332162 96.034743 32.424002 C 96.034743 16.515842 110.43516 13.621532 120.81928 13.621532 C 131.2034 13.621532 145.60433 17.004081 145.60433 32.424002 C 145.60433 39.424612 142.63109 43.938166 138.4182 46.786432 L 140.72711 59.854885 C 141.4978 59.299049 142.25685 58.715094 142.99725 58.087035 C 148.76774 53.192055 152.71948 46.408273 154.28597 38.707339 C 154.85987 35.886035 154.80667 28.542111 154.19192 25.723635 C 153.50332 22.566213 152.6475 20.139106 151.2076 17.258002 C 149.4912 13.82361 147.66864 11.297541 144.92375 8.5500067 C 140.54505 4.1671055 135.49033 1.2340565 129.60324 -0.33988993 C 126.54215 -1.1583088 123.22585 -1.5187252 119.92786 -1.4292291 z M 108.54561 30.438076 C 106.17649 30.438022 104.25561 32.358621 104.25543 34.727737 C 104.25538 37.097015 106.17633 39.017452 108.54561 39.017398 C 110.91488 39.017452 112.83532 37.097015 112.83527 34.727737 C 112.83509 32.358621 110.91472 30.438022 108.54561 30.438076 z M 120.81928 30.438076 C 118.45016 30.438017 116.5298 32.358618 116.52962 34.727737 C 116.52957 37.097019 118.45 39.017457 120.81928 39.017398 C 123.18855 39.017452 125.1095 37.097015 125.10945 34.727737 C 125.10927 32.358621 123.18839 30.438022 120.81928 30.438076 z M 133.09346 30.438076 C 130.72435 30.438022 128.80347 32.358621 128.80329 34.727737 C 128.80324 37.097015 130.72419 39.017452 133.09346 39.017398 C 135.46274 39.017457 137.38317 37.097019 137.38312 34.727737 C 137.38294 32.358618 135.46258 30.438017 133.09346 30.438076 z " /></g></svg>
