<?xml version="1.0" encoding="UTF-8" standalone="no"?>
<!-- Created with Inkscape (http://www.inkscape.org/) -->

<svg
   width="67.733337mm"
   height="67.73333mm"
   viewBox="0 0 67.733338 67.73333"
   version="1.1"
   id="svg8"
   xml:space="preserve"
   xmlns="http://www.w3.org/2000/svg"
   xmlns:svg="http://www.w3.org/2000/svg"
   xmlns:rdf="http://www.w3.org/1999/02/22-rdf-syntax-ns#"
   xmlns:cc="http://creativecommons.org/ns#"
   xmlns:dc="http://purl.org/dc/elements/1.1/"><defs
     id="defs2" /><metadata
     id="metadata5"><rdf:RDF><cc:Work
         rdf:about=""><dc:format>image/svg+xml</dc:format><dc:type
           rdf:resource="http://purl.org/dc/dcmitype/StillImage" /></cc:Work></rdf:RDF></metadata><g
     id="layer1"
     transform="translate(-1213.5386,-447.71334)"><path
       style="fill:#000000;stroke-width:0.765148"
       d="m 1244.6825,515.4068 c -0.3341,-0.0478 -1.3362,-0.18234 -2.2269,-0.29893 -3.2623,-0.42701 -6.8524,-1.55431 -10.0943,-3.16958 -10.7592,-5.36083 -17.8402,-15.84672 -18.7255,-27.72986 -1.4729,-19.77058 14.0072,-36.49505 33.7797,-36.49505 8.8074,0 17.029,3.29818 23.4476,9.40626 6.7048,6.38042 10.3689,14.93264 10.4083,24.29337 0.015,3.61086 -0.2037,5.41241 -1.0624,8.74633 -3.7409,14.52499 -16.8201,24.89401 -31.8622,25.26002 -1.6814,0.0409 -3.3303,0.0353 -3.6643,-0.0126 z m 5.9721,-22.35322 v -10.93202 h 3.0243 3.0243 l 0.1111,-0.86038 c 0.1784,-1.38024 0.521,-5.23158 0.521,-5.85545 v -0.57218 h -3.3556 -3.3557 l 0.066,-2.81362 c 0.089,-3.81436 -0.064,-3.66461 3.7414,-3.66461 h 2.904 v -3.84645 -3.84645 l -3.897,0.004 c -5.6723,0.005 -7.932,0.60423 -9.6529,2.55926 -1.4804,1.68182 -1.7036,2.60412 -1.7931,7.40764 l -0.078,4.20072 -2.2599,-2.5e-4 -2.2597,-2.4e-4 0.057,3.49242 c 0.031,1.92083 0.099,3.61216 0.1505,3.75852 0.07,0.20271 0.5997,0.25094 2.2203,0.20245 l 2.1274,-0.0637 -4e-4,10.88141 -4e-4,10.8814 h 4.3525 4.3527 z"
       id="path4" /></g></svg>
