<?xml version="1.0" encoding="UTF-8" standalone="no"?>
<!-- Created with Inkscape (http://www.inkscape.org/) -->

<svg
   width="67.733002mm"
   height="67.73333mm"
   viewBox="0 0 67.733002 67.73333"
   version="1.1"
   id="svg8"
   xml:space="preserve"
   sodipodi:docname="icon-cronograma_neg.svg"
   inkscape:version="1.3.2 (1:1.3.2+202311252150+091e20ef0f)"
   inkscape:export-filename="icon-cronograma.png"
   inkscape:export-xdpi="96"
   inkscape:export-ydpi="96"
   xmlns:inkscape="http://www.inkscape.org/namespaces/inkscape"
   xmlns:sodipodi="http://sodipodi.sourceforge.net/DTD/sodipodi-0.dtd"
   xmlns="http://www.w3.org/2000/svg"
   xmlns:svg="http://www.w3.org/2000/svg"
   xmlns:rdf="http://www.w3.org/1999/02/22-rdf-syntax-ns#"
   xmlns:cc="http://creativecommons.org/ns#"
   xmlns:dc="http://purl.org/dc/elements/1.1/"><sodipodi:namedview
     id="namedview1"
     pagecolor="#ffffff"
     bordercolor="#666666"
     borderopacity="1.0"
     inkscape:showpageshadow="2"
     inkscape:pageopacity="0.0"
     inkscape:pagecheckerboard="0"
     inkscape:deskcolor="#d1d1d1"
     inkscape:document-units="mm"
     inkscape:current-layer="svg8"
     showguides="true" /><defs
     id="defs2" /><metadata
     id="metadata5"><rdf:RDF><cc:Work
         rdf:about=""><dc:format>image/svg+xml</dc:format><dc:type
           rdf:resource="http://purl.org/dc/dcmitype/StillImage" /></cc:Work></rdf:RDF></metadata><path
     id="path2"
     style="fill:#000000;fill-opacity:1;stroke-width:99.5497;-inkscape-stroke:none;paint-order:fill markers stroke"
     d="M 4.959904 2.7223145 C 2.2215725 2.7223145 0.017053223 4.9268356 0.017053223 7.6651652 L 0.017053223 62.730538 C 0.017053223 65.468866 2.2215725 67.673389 4.959904 67.673389 L 29.464351 67.673389 L 38.32996 67.673389 L 62.733639 67.673389 C 65.47197 67.673389 67.676489 65.468866 67.676489 62.730538 L 67.676489 7.6651652 C 67.676489 4.9268356 65.47197 2.7223145 62.733639 2.7223145 L 53.189518 2.7223145 L 53.189518 8.2516927 C 53.189518 10.780978 50.638576 12.817306 47.469971 12.817306 L 46.911865 12.817306 C 43.743259 12.817306 41.192318 10.780978 41.192318 8.2516927 L 41.192318 2.7223145 L 40.616642 2.7223145 L 26.487272 2.7223145 L 25.911597 2.7223145 L 25.911597 8.2516927 C 25.911597 10.780978 23.360655 12.817306 20.192049 12.817306 L 19.633944 12.817306 C 16.465338 12.817306 13.914396 10.780978 13.914396 8.2516927 L 13.914396 2.7223145 L 4.959904 2.7223145 z M 23.230107 20.184298 L 30.386776 20.184298 C 31.405382 20.184298 32.225423 21.00434 32.225423 22.022945 L 32.225423 29.180131 C 32.225423 30.198736 31.405382 31.018778 30.386776 31.018778 L 23.230107 31.018778 C 22.211501 31.018778 21.391459 30.198736 21.391459 29.180131 L 21.391459 22.022945 C 21.391459 21.00434 22.211501 20.184298 23.230107 20.184298 z M 37.720178 20.184298 L 44.876847 20.184298 C 45.895452 20.184298 46.715495 21.00434 46.715495 22.022945 L 46.715495 29.180131 C 46.715495 30.198736 45.895452 31.018778 44.876847 31.018778 L 37.720178 31.018778 C 36.701573 31.018778 35.881531 30.198736 35.881531 29.180131 L 35.881531 22.022945 C 35.881531 21.00434 36.701573 20.184298 37.720178 20.184298 z M 52.209733 20.184298 L 59.366919 20.184298 C 60.385524 20.184298 61.205566 21.00434 61.205566 22.022945 L 61.205566 29.180131 C 61.205566 30.198736 60.385524 31.018778 59.366919 31.018778 L 52.209733 31.018778 C 51.191127 31.018778 50.371086 30.198736 50.371086 29.180131 L 50.371086 22.022945 C 50.371086 21.00434 51.191127 20.184298 52.209733 20.184298 z M 8.740035 35.045406 L 15.897221 35.045406 C 16.915826 35.045406 17.735868 35.865449 17.735868 36.884054 L 17.735868 44.041239 C 17.735868 45.059844 16.915826 45.879887 15.897221 45.879887 L 8.740035 45.879887 C 7.7214301 45.879887 6.9013875 45.059844 6.9013875 44.041239 L 6.9013875 36.884054 C 6.9013875 35.865449 7.7214301 35.045406 8.740035 35.045406 z M 23.230107 35.045406 L 30.386776 35.045406 C 31.405382 35.045406 32.225423 35.865449 32.225423 36.884054 L 32.225423 44.041239 C 32.225423 45.059844 31.405382 45.879887 30.386776 45.879887 L 23.230107 45.879887 C 22.211501 45.879887 21.391459 45.059844 21.391459 44.041239 L 21.391459 36.884054 C 21.391459 35.865449 22.211501 35.045406 23.230107 35.045406 z M 37.720178 35.045406 L 44.876847 35.045406 C 45.895452 35.045406 46.715495 35.865449 46.715495 36.884054 L 46.715495 44.041239 C 46.715495 45.059844 45.895452 45.879887 44.876847 45.879887 L 37.720178 45.879887 C 36.701573 45.879887 35.881531 45.059844 35.881531 44.041239 L 35.881531 36.884054 C 35.881531 35.865449 36.701573 35.045406 37.720178 35.045406 z M 52.209733 35.045406 L 59.366919 35.045406 C 60.385524 35.045406 61.205566 35.865449 61.205566 36.884054 L 61.205566 44.041239 C 61.205566 45.059844 60.385524 45.879887 59.366919 45.879887 L 52.209733 45.879887 C 51.191127 45.879887 50.371086 45.059844 50.371086 44.041239 L 50.371086 36.884054 C 50.371086 35.865449 51.191127 35.045406 52.209733 35.045406 z M 8.740035 49.906514 L 15.897221 49.906514 C 16.915826 49.906514 17.735868 50.726557 17.735868 51.745162 L 17.735868 58.901831 C 17.735868 59.920436 16.915826 60.740479 15.897221 60.740479 L 8.740035 60.740479 C 7.7214301 60.740479 6.9013875 59.920436 6.9013875 58.901831 L 6.9013875 51.745162 C 6.9013875 50.726557 7.7214301 49.906514 8.740035 49.906514 z M 23.230107 49.906514 L 30.386776 49.906514 C 31.405382 49.906514 32.225423 50.726557 32.225423 51.745162 L 32.225423 58.901831 C 32.225423 59.920436 31.405382 60.740479 30.386776 60.740479 L 23.230107 60.740479 C 22.211501 60.740479 21.391459 59.920436 21.391459 58.901831 L 21.391459 51.745162 C 21.391459 50.726557 22.211501 49.906514 23.230107 49.906514 z M 37.720178 49.906514 L 44.876847 49.906514 C 45.895452 49.906514 46.715495 50.726557 46.715495 51.745162 L 46.715495 58.901831 C 46.715495 59.920436 45.895452 60.740479 44.876847 60.740479 L 37.720178 60.740479 C 36.701573 60.740479 35.881531 59.920436 35.881531 58.901831 L 35.881531 51.745162 C 35.881531 50.726557 36.701573 49.906514 37.720178 49.906514 z M 52.209733 49.906514 L 59.366919 49.906514 C 60.385524 49.906514 61.205566 50.726557 61.205566 51.745162 L 61.205566 58.901831 C 61.205566 59.920436 60.385524 60.740479 59.366919 60.740479 L 52.209733 60.740479 C 51.191127 60.740479 50.371086 59.920436 50.371086 58.901831 L 50.371086 51.745162 C 50.371086 50.726557 51.191127 49.906514 52.209733 49.906514 z " /><path
     style="fill:#000000;fill-opacity:1;stroke-width:99.5497;-inkscape-stroke:none;paint-order:fill markers stroke"
     d="m 19.834139,0.01808675 c -1.40193,0 -2.530595,0.9009621 -2.530595,2.02003175 v 6.2755859 c 0,1.1190692 1.128665,2.0200316 2.530595,2.0200316 h 0.247013 c 1.401932,0 2.530595,-0.9009624 2.530595,-2.0200316 V 2.0381185 c 0,-1.11906965 -1.128663,-2.02003175 -2.530595,-2.02003175 z"
     id="rect24"
     sodipodi:nodetypes="sssssssss" /><path
     id="rect23"
     style="fill:#000000;fill-opacity:1;stroke-width:10.7915;paint-order:fill markers stroke"
     d="m 47.023263,0.018143 h 0.247044 c 1.401931,0 2.530564,0.90091254 2.530564,2.0199833 v 6.2753874 c 0,1.1190703 -1.128633,2.0199833 -2.530564,2.0199833 h -0.247044 c -1.401933,0 -2.530564,-0.900913 -2.530564,-2.0199833 V 2.0381263 c 0,-1.11907076 1.128631,-2.0199833 2.530564,-2.0199833 z"
     sodipodi:nodetypes="sssssssss" /></svg>
