<?xml version="1.0" encoding="UTF-8" standalone="no"?>
<!-- Created with Inkscape (http://www.inkscape.org/) -->

<svg
   width="67.733002mm"
   height="67.73333mm"
   viewBox="0 0 67.733002 67.73333"
   version="1.1"
   id="svg8"
   xml:space="preserve"
   sodipodi:docname="icon-btn-sonido-silencio.svg"
   inkscape:version="1.3.2 (1:1.3.2+202311252150+091e20ef0f)"
   inkscape:export-filename="icon-cronograma.png"
   inkscape:export-xdpi="96"
   inkscape:export-ydpi="96"
   xmlns:inkscape="http://www.inkscape.org/namespaces/inkscape"
   xmlns:sodipodi="http://sodipodi.sourceforge.net/DTD/sodipodi-0.dtd"
   xmlns="http://www.w3.org/2000/svg"
   xmlns:svg="http://www.w3.org/2000/svg"
   xmlns:rdf="http://www.w3.org/1999/02/22-rdf-syntax-ns#"
   xmlns:cc="http://creativecommons.org/ns#"
   xmlns:dc="http://purl.org/dc/elements/1.1/"><sodipodi:namedview
     id="namedview1"
     pagecolor="#ffffff"
     bordercolor="#666666"
     borderopacity="1.0"
     inkscape:showpageshadow="2"
     inkscape:pageopacity="0.0"
     inkscape:pagecheckerboard="0"
     inkscape:deskcolor="#d1d1d1"
     inkscape:document-units="mm"
     inkscape:current-layer="svg8"
     showguides="true" /><defs
     id="defs2"><inkscape:path-effect
       effect="fillet_chamfer"
       id="path-effect5"
       is_visible="true"
       lpeversion="1"
       nodesatellites_param="F,0,0,1,0,9.74291,0,1 @ F,0,1,1,0,9.74291,0,1 @ F,0,1,1,0,9.74291,0,1 @ F,0,1,1,0,9.74291,0,1 @ F,0,1,1,0,9.74291,0,1 @ F,0,1,1,0,9.74291,0,1"
       radius="0"
       unit="px"
       method="auto"
       mode="F"
       chamfer_steps="1"
       flexible="false"
       use_knot_distance="true"
       apply_no_radius="true"
       apply_with_radius="true"
       only_selected="false"
       hide_knots="false" /><inkscape:path-effect
       effect="fillet_chamfer"
       id="path-effect1"
       is_visible="true"
       lpeversion="1"
       nodesatellites_param="F,0,0,1,0,9.74291,0,1 @ F,0,1,1,0,9.74291,0,1 @ F,0,1,1,0,9.74291,0,1 @ F,0,1,1,0,9.74291,0,1 @ F,0,1,1,0,9.74291,0,1 @ F,0,1,1,0,9.74291,0,1"
       radius="0"
       unit="px"
       method="auto"
       mode="F"
       chamfer_steps="1"
       flexible="false"
       use_knot_distance="true"
       apply_no_radius="true"
       apply_with_radius="true"
       only_selected="false"
       hide_knots="false" /></defs><metadata
     id="metadata5"><rdf:RDF><cc:Work
         rdf:about=""><dc:format>image/svg+xml</dc:format><dc:type
           rdf:resource="http://purl.org/dc/dcmitype/StillImage" /></cc:Work></rdf:RDF></metadata><g
     id="g8"
     transform="translate(0.0466107,53.958664)"><path
       id="path1"
       style="fill:none;fill-opacity:1;stroke:#000000;stroke-width:3;stroke-opacity:1"
       d="m 31.170438,-36.056545 a 1.8004134,1.8004134 0 0 0 -1.128526,0.449254 l -6.295888,5.555245 a 10.551765,10.551765 0 0 1 -6.9813,2.639653 h -3.577518 a 3.9896706,3.9896706 0 0 0 -3.9897394,3.989737 v 5.744427 a 3.9896706,3.9896706 0 0 0 3.9897394,3.989527 h 3.577518 a 10.551765,10.551765 0 0 1 6.9813,2.639651 l 6.295888,5.5552471 a 1.8004134,1.8004134 0 0 0 2.991565,-1.3498754 V -34.257204 a 1.8004134,1.8004134 0 0 0 -1.863039,-1.799341 z" /><path
       id="path2"
       style="color:#000000;fill:#000000;stroke-width:0.999997;stroke-linecap:round;-inkscape-stroke:none"
       d="m 56.396037,-32.29831 a 1.8678481,1.8678481 0 0 0 -1.559097,0.668667 l -6.801787,8.161807 -6.801065,-8.161807 a 1.8678481,1.8678481 0 0 0 -1.265906,-0.664805 1.8678481,1.8678481 0 0 0 -1.365327,0.424945 1.8678481,1.8678481 0 0 0 -0.238897,2.631238 l 7.23976,8.6881 -7.23976,8.688101 a 1.8678481,1.8678481 0 0 0 0.238897,2.6312367 1.8678481,1.8678481 0 0 0 2.631233,-0.239861 l 6.801065,-8.1618057 6.801787,8.1618057 a 1.8678481,1.8678481 0 0 0 2.631233,0.239861 1.8678481,1.8678481 0 0 0 0.23914,-2.6312367 l -7.239765,-8.688101 7.239765,-8.6881 a 1.8678481,1.8678481 0 0 0 -0.23914,-2.631238 1.8678481,1.8678481 0 0 0 -1.072136,-0.428807 z" /></g><path
     style="color:#000000;fill:#000000;stroke-linecap:round;-inkscape-stroke:none;paint-order:fill markers stroke"
     d="m 33.867187,0.45898438 c -18.482345,0 -33.41015575,14.92585862 -33.41015575,33.40820262 0,18.482345 14.92781075,33.408204 33.41015575,33.408204 18.482345,0 33.408204,-14.925859 33.408204,-33.408204 0,-18.482344 -14.925859,-33.40820262 -33.408204,-33.40820262 z m 0,3.00000002 c 16.872238,0 30.408204,13.5359656 30.408204,30.4082026 0,16.872238 -13.535966,30.408204 -30.408204,30.408204 -16.872238,0 -30.4101557,-13.535966 -30.4101557,-30.408204 0,-16.872237 13.5379177,-30.4082026 30.4101557,-30.4082026 z"
     id="rect7" /></svg>
