<?xml version="1.0" encoding="UTF-8" standalone="no"?>
<!-- Created with Inkscape (http://www.inkscape.org/) -->

<svg
   width="67.73336mm"
   height="48.919476mm"
   viewBox="0 0 67.733361 48.919476"
   version="1.1"
   id="svg8"
   xml:space="preserve"
   sodipodi:docname="icon-eng.svg"
   inkscape:version="1.3.2 (1:1.3.2+202311252150+091e20ef0f)"
   xmlns:inkscape="http://www.inkscape.org/namespaces/inkscape"
   xmlns:sodipodi="http://sodipodi.sourceforge.net/DTD/sodipodi-0.dtd"
   xmlns="http://www.w3.org/2000/svg"
   xmlns:svg="http://www.w3.org/2000/svg"
   xmlns:rdf="http://www.w3.org/1999/02/22-rdf-syntax-ns#"
   xmlns:cc="http://creativecommons.org/ns#"
   xmlns:dc="http://purl.org/dc/elements/1.1/"><sodipodi:namedview
     id="namedview1"
     pagecolor="#ffffff"
     bordercolor="#666666"
     borderopacity="1.0"
     inkscape:showpageshadow="2"
     inkscape:pageopacity="0.0"
     inkscape:pagecheckerboard="0"
     inkscape:deskcolor="#d1d1d1"
     inkscape:document-units="mm"
     inkscape:current-layer="svg8" /><defs
     id="defs2" /><metadata
     id="metadata5"><rdf:RDF><cc:Work
         rdf:about=""><dc:format>image/svg+xml</dc:format><dc:type
           rdf:resource="http://purl.org/dc/dcmitype/StillImage" /></cc:Work></rdf:RDF></metadata><path
     style="color:#000000;-inkscape-font-specification:'Archivo Heavy';fill:#000000;stroke-width:0.966406;stroke-linecap:round;stroke-linejoin:round;-inkscape-stroke:none"
     d="m 65.511758,0.38500387 c -1.357022,-0.65094704 -2.967104,-0.4660151 -4.1412,0.47565296 C 60.649928,1.4392489 59.439609,2.2123407 57.816373,3.0539453 56.382259,3.784986 54.636435,4.4558438 52.578528,5.0301702 50.669146,5.5630456 48.663979,5.83425 46.527165,5.83425 44.473653,5.83425 42.549972,5.6179838 40.730616,5.2038218 38.769561,4.6927302 36.839751,4.1381533 34.94728,3.5371483 32.879181,2.8803672 30.777499,2.3023143 28.642991,1.7968627 26.256164,1.179841 23.767603,0.87386944 21.206195,0.87386944 c -2.804001,0 -5.534629,0.36183286 -8.154051,1.09286936 -0.01008,0.0031 -0.02015,0.00625 -0.0302,0.00944 C 10.623676,2.6664097 8.4058167,3.5295089 6.3722398,4.5790548 4.4377493,5.5302854 2.8168995,6.4835831 1.4628216,7.5707608 0.53827222,8.3133637 2.9872583e-4,9.4351253 0,10.62098 v 26.269143 8.110638 c 0.00184585,3.283181 3.8020604,5.104942 6.3628022,3.050219 0.7267922,-0.583537 1.8926273,-1.325143 3.4465965,-2.117789 0.00693,-0.0031 0.013851,-0.0063 0.020762,-0.0095 1.5074613,-0.780421 3.2811163,-1.469551 5.3265593,-2.0404 1.910293,-0.533131 3.913321,-0.80408 6.049475,-0.804081 2.034117,0 3.893418,0.23138 5.604022,0.675729 0.03698,0.01 0.0741,0.01942 0.111364,0.02832 2.026292,0.463068 3.981655,0.995111 5.864498,1.59306 2.057622,0.653451 4.147472,1.254425 6.272202,1.806349 0.02824,0.0072 0.05654,0.01416 0.08494,0.02076 2.371081,0.559923 4.839592,0.83428 7.383946,0.83428 2.74097,0 5.410124,-0.363758 7.967188,-1.098532 2.450239,-0.684962 4.693221,-1.5119 6.725204,-2.508503 0.0075,-0.0038 0.01511,-0.0075 0.02265,-0.01133 2.010868,-1.002485 3.659935,-1.97796 5.028332,-3.076645 0.925065,-0.743017 1.463094,-1.86559 1.462821,-3.052106 V 14.903745 13.391848 3.9127633 C 67.732915,2.4074448 66.869125,1.0358026 65.511758,0.38500387 Z"
     id="path8"
     sodipodi:nodetypes="cccsscscsccccccccccssccsccsccccccccc" /><path
     id="path7"
     style="color:#000000;-inkscape-font-specification:'Archivo Heavy';fill:#ffffff;stroke-width:0.966406;stroke-linecap:round;stroke-linejoin:round;-inkscape-stroke:none"
     d="m 63.820911,4.2161268 c -1.029335,0.8264522 -2.436752,1.7019975 -4.220931,2.6256795 -1.715554,0.8750662 -3.705128,1.6288516 -5.969662,2.260844 -2.264535,0.6319923 -4.632525,0.9477457 -7.102925,0.9477457 -2.333157,0 -4.56274,-0.2435227 -6.690031,-0.7296712 C 37.778695,8.7859633 35.753359,8.2024364 33.763314,7.570444 31.773269,6.9384507 29.748966,6.3796903 27.690299,5.8935438 25.631634,5.3587813 23.470471,5.0915256 21.205941,5.0915256 c -2.470414,0 -4.837362,0.3157534 -7.101892,0.9477458 C 11.90814,6.6712647 9.9175325,7.449298 8.1333537,8.372979 6.3491746,9.2480452 4.942281,10.098828 3.9129395,10.925278 v 25.350391 0.19017 7.919413 C 4.942281,43.5588 6.3154769,42.70802 8.0310343,41.832953 c 1.7841792,-0.923679 3.8084837,-1.701198 6.0730147,-2.333191 2.26453,-0.631992 4.631478,-0.948779 7.101892,-0.948779 2.333152,0 4.529042,0.267771 6.587711,0.802535 2.127289,0.486149 4.186324,1.045423 6.176368,1.677417 1.990046,0.631991 4.014345,1.215517 6.073014,1.75028 2.058667,0.486148 4.219826,0.728638 6.484359,0.728638 2.401777,0 4.700306,-0.315752 6.896219,-0.947746 2.264534,-0.63199 4.288836,-1.385262 6.073015,-2.260327 1.852799,-0.923682 3.294949,-1.79871 4.324284,-2.625163 V 15.207704 13.696169 12.13554 Z"
     sodipodi:nodetypes="ccsscscscccccccsscscsccccccc" /><path
     style="font-weight:900;font-size:23.9128px;line-height:120%;font-family:Archivo;-inkscape-font-specification:'Archivo Heavy';text-align:center;letter-spacing:-0.264583px;word-spacing:0px;text-anchor:middle;stroke-width:0.933274;paint-order:stroke markers fill"
     d="M 7.2891861,32.526691 V 16.074685 H 21.517302 v 3.945612 h -8.943387 v 2.271716 h 7.652096 v 3.778222 h -7.652096 v 2.510844 h 9.110777 v 3.945612 z m 16.9286769,0 V 16.074685 h 4.495607 l 5.117339,5.906462 q 0.215215,0.239128 0.573907,0.693471 0.358692,0.454343 0.717384,0.932599 0.382605,0.454343 0.573907,0.741297 l 0.119564,-0.04783 q -0.02391,-0.669558 -0.02391,-1.315204 0,-0.669558 0,-1.004337 v -5.906462 h 4.806472 v 16.452006 h -4.471693 l -5.762985,-6.57602 q -0.406518,-0.478256 -0.693471,-0.86086 -0.286954,-0.406518 -0.549995,-0.76521 l -0.119564,0.04783 q 0.02391,0.454343 0.02391,0.908686 0,0.454343 0,0.669558 v 6.57602 z m 27.163359,0.286954 q -4.113002,0 -6.169502,-2.152152 -2.032588,-2.152152 -2.032588,-6.360805 0,-2.82171 1.052163,-4.710821 1.052163,-1.889111 3.060838,-2.845623 2.008675,-0.956512 4.854299,-0.956512 1.721721,0 3.228228,0.406517 1.530419,0.382605 2.678233,1.171727 1.171727,0.76521 1.817373,1.936937 0.645646,1.171727 0.645646,2.726059 h -5.045601 q 0,-0.526081 -0.263041,-0.956512 -0.239128,-0.43043 -0.669558,-0.717384 -0.430431,-0.310866 -1.004338,-0.454343 -0.549994,-0.167389 -1.171727,-0.167389 -0.932599,0 -1.649983,0.26304 -0.717384,0.239128 -1.19564,0.741297 -0.454344,0.502169 -0.693472,1.19564 -0.239128,0.693471 -0.239128,1.602158 v 1.530419 q 0,1.19564 0.406518,2.056501 0.43043,0.836948 1.267378,1.291291 0.860861,0.454343 2.104327,0.454343 0.836948,0 1.530419,-0.239128 0.717384,-0.263041 1.147814,-0.741297 0.430431,-0.478256 0.430431,-1.099989 v -0.09565 h -3.730397 v -3.347792 h 8.775998 v 9.182515 h -2.72606 l -0.526081,-1.62607 q -0.741297,0.621733 -1.626071,1.052163 -0.884773,0.430431 -1.936936,0.645646 -1.052164,0.215215 -2.319542,0.215215 z"
     id="text14"
     aria-label="ENG" /></svg>
