<?xml version="1.0" encoding="UTF-8" standalone="no"?>
<!-- Created with Inkscape (http://www.inkscape.org/) -->

<svg
   width="67.733002mm"
   height="67.73333mm"
   viewBox="0 0 67.733002 67.73333"
   version="1.1"
   id="svg8"
   xml:space="preserve"
   sodipodi:docname="icon-btn-sonido.svg"
   inkscape:version="1.3.2 (1:1.3.2+202311252150+091e20ef0f)"
   inkscape:export-filename="icon-cronograma.png"
   inkscape:export-xdpi="96"
   inkscape:export-ydpi="96"
   xmlns:inkscape="http://www.inkscape.org/namespaces/inkscape"
   xmlns:sodipodi="http://sodipodi.sourceforge.net/DTD/sodipodi-0.dtd"
   xmlns="http://www.w3.org/2000/svg"
   xmlns:svg="http://www.w3.org/2000/svg"
   xmlns:rdf="http://www.w3.org/1999/02/22-rdf-syntax-ns#"
   xmlns:cc="http://creativecommons.org/ns#"
   xmlns:dc="http://purl.org/dc/elements/1.1/"><sodipodi:namedview
     id="namedview1"
     pagecolor="#ffffff"
     bordercolor="#666666"
     borderopacity="1.0"
     inkscape:showpageshadow="2"
     inkscape:pageopacity="0.0"
     inkscape:pagecheckerboard="0"
     inkscape:deskcolor="#d1d1d1"
     inkscape:document-units="mm"
     inkscape:current-layer="svg8"
     showguides="true" /><defs
     id="defs2"><inkscape:path-effect
       effect="fillet_chamfer"
       id="path-effect5"
       is_visible="true"
       lpeversion="1"
       nodesatellites_param="F,0,0,1,0,9.74291,0,1 @ F,0,1,1,0,9.74291,0,1 @ F,0,1,1,0,9.74291,0,1 @ F,0,1,1,0,9.74291,0,1 @ F,0,1,1,0,9.74291,0,1 @ F,0,1,1,0,9.74291,0,1"
       radius="0"
       unit="px"
       method="auto"
       mode="F"
       chamfer_steps="1"
       flexible="false"
       use_knot_distance="true"
       apply_no_radius="true"
       apply_with_radius="true"
       only_selected="false"
       hide_knots="false" /><inkscape:path-effect
       effect="fillet_chamfer"
       id="path-effect1"
       is_visible="true"
       lpeversion="1"
       nodesatellites_param="F,0,0,1,0,9.74291,0,1 @ F,0,1,1,0,9.74291,0,1 @ F,0,1,1,0,9.74291,0,1 @ F,0,1,1,0,9.74291,0,1 @ F,0,1,1,0,9.74291,0,1 @ F,0,1,1,0,9.74291,0,1"
       radius="0"
       unit="px"
       method="auto"
       mode="F"
       chamfer_steps="1"
       flexible="false"
       use_knot_distance="true"
       apply_no_radius="true"
       apply_with_radius="true"
       only_selected="false"
       hide_knots="false" /></defs><metadata
     id="metadata5"><rdf:RDF><cc:Work
         rdf:about=""><dc:format>image/svg+xml</dc:format><dc:type
           rdf:resource="http://purl.org/dc/dcmitype/StillImage" /></cc:Work></rdf:RDF></metadata><g
     id="g7"
     transform="translate(2.7998304,0.37777703)"><path
       id="path1"
       style="fill:none;fill-opacity:1;stroke:#000000;stroke-width:3;stroke-opacity:1"
       d="m 28.417219,17.524343 a 1.8004134,1.8004134 0 0 0 -1.128526,0.449254 l -6.295888,5.555245 a 10.551765,10.551765 0 0 1 -6.9813,2.639653 h -3.577519 a 3.9896706,3.9896706 0 0 0 -3.989739,3.989737 v 5.744427 a 3.9896706,3.9896706 0 0 0 3.989739,3.989527 h 3.577519 a 10.551765,10.551765 0 0 1 6.9813,2.639651 l 6.295888,5.555247 a 1.8004134,1.8004134 0 0 0 2.991565,-1.349875 V 19.323684 a 1.8004134,1.8004134 0 0 0 -1.863039,-1.799341 z" /><path
       style="color:#000000;fill:#000000;stroke-width:0.999997;stroke-linecap:round;-inkscape-stroke:none"
       d="m 37.024776,25.626688 a 1.8678459,1.8678459 0 0 0 -1.14825,2.3795 c 0,0 0.883763,2.595769 0.883763,5.483154 0,2.887385 -0.883763,5.482247 -0.883763,5.482247 a 1.8678459,1.8678459 0 0 0 1.14825,2.379498 1.8678459,1.8678459 0 0 0 2.378588,-1.149166 c 0,0 1.092622,-3.07113 1.092622,-6.712579 0,-3.641449 -1.092622,-6.713489 -1.092622,-6.713489 a 1.8678459,1.8678459 0 0 0 -2.378588,-1.149165 z"
       id="path4" /><path
       style="color:#000000;fill:#000000;stroke-width:0.999997;stroke-linecap:round;-inkscape-stroke:none"
       d="m 43.315998,21.850861 a 1.8678481,1.8678481 0 0 0 -1.110862,2.396829 c 0,0 1.616129,4.493187 1.616129,9.241652 0,4.748467 -1.616129,9.24074 -1.616129,9.24074 a 1.8678481,1.8678481 0 0 0 1.110862,2.396833 1.8678481,1.8678481 0 0 0 2.396827,-1.110862 c 0,0 1.844135,-4.944287 1.844135,-10.526711 0,-5.582422 -1.844135,-10.527622 -1.844135,-10.527622 a 1.8678481,1.8678481 0 0 0 -2.396827,-1.110859 z"
       id="path5" /><path
       style="color:#000000;fill:#000000;stroke-width:0.999997;stroke-linecap:round;-inkscape-stroke:none"
       d="m 49.565261,17.116488 a 1.8678481,1.8678481 0 0 0 -1.155548,2.375851 c 0,0 2.121394,6.163958 2.121394,13.997003 0,7.833046 -2.121394,13.997006 -2.121394,13.997006 a 1.8678481,1.8678481 0 0 0 1.155548,2.37494 1.8678481,1.8678481 0 0 0 2.37494,-1.155549 c 0,0 2.326601,-6.705598 2.326601,-15.216397 0,-8.510799 -2.326601,-15.217305 -2.326601,-15.217305 a 1.8678481,1.8678481 0 0 0 -2.37494,-1.155549 z"
       id="path6" /></g><path
     style="color:#000000;fill:#000000;stroke-linecap:round;-inkscape-stroke:none;paint-order:fill markers stroke"
     d="m 33.867187,0.45898438 c -18.482345,0 -33.41015575,14.92585862 -33.41015575,33.40820262 0,18.482345 14.92781075,33.408204 33.41015575,33.408204 18.482345,0 33.408204,-14.925859 33.408204,-33.408204 0,-18.482344 -14.925859,-33.40820262 -33.408204,-33.40820262 z m 0,3.00000002 c 16.872238,0 30.408204,13.5359656 30.408204,30.4082026 0,16.872238 -13.535966,30.408204 -30.408204,30.408204 -16.872238,0 -30.4101557,-13.535966 -30.4101557,-30.408204 0,-16.872237 13.5379177,-30.4082026 30.4101557,-30.4082026 z"
     id="rect7" /></svg>
