<?xml version="1.0" encoding="UTF-8" standalone="no"?>
<!-- Created with Inkscape (http://www.inkscape.org/) -->

<svg
   width="67.73336mm"
   height="67.733345mm"
   viewBox="0 0 67.733361 67.733345"
   version="1.1"
   id="svg8"
   xml:space="preserve"
   sodipodi:docname="icon-www.svg"
   inkscape:version="1.3.2 (1:1.3.2+202311252150+091e20ef0f)"
   xmlns:inkscape="http://www.inkscape.org/namespaces/inkscape"
   xmlns:sodipodi="http://sodipodi.sourceforge.net/DTD/sodipodi-0.dtd"
   xmlns="http://www.w3.org/2000/svg"
   xmlns:svg="http://www.w3.org/2000/svg"
   xmlns:rdf="http://www.w3.org/1999/02/22-rdf-syntax-ns#"
   xmlns:cc="http://creativecommons.org/ns#"
   xmlns:dc="http://purl.org/dc/elements/1.1/"><sodipodi:namedview
     id="namedview1"
     pagecolor="#ffffff"
     bordercolor="#666666"
     borderopacity="1.0"
     inkscape:showpageshadow="2"
     inkscape:pageopacity="0.0"
     inkscape:pagecheckerboard="0"
     inkscape:deskcolor="#d1d1d1"
     inkscape:document-units="mm"
     inkscape:current-layer="svg8" /><defs
     id="defs2" /><metadata
     id="metadata5"><rdf:RDF><cc:Work
         rdf:about=""><dc:format>image/svg+xml</dc:format><dc:type
           rdf:resource="http://purl.org/dc/dcmitype/StillImage" /></cc:Work></rdf:RDF></metadata><path
     id="path14"
     style="fill:#000000;stroke-width:0.764989"
     d="M 33.636707 0.0036173503 C 30.125513 0.052217253 26.542308 0.59739854 23.359814 1.6216064 C 20.57792 2.5168948 16.132606 4.8092262 13.819312 6.5412028 C 7.0917246 11.578123 2.6319737 18.378082 0.85007731 26.315706 C -1.4281181 36.464576 0.91808708 46.777206 7.3602743 54.92533 C 12.905763 61.939666 21.439328 66.617097 30.39091 67.549365 C 48.647274 69.450671 65.15539 56.38742 67.562284 38.134106 C 67.915284 35.456832 67.695389 29.573658 67.146289 27.006104 C 66.197691 22.569562 64.102838 17.781196 61.525444 14.159342 C 59.768046 11.689888 56.034269 7.9618124 53.576575 6.222876 C 50.278081 3.8890506 46.089019 1.9769175 41.947827 0.91518962 C 39.844031 0.3757807 37.522419 0.07702898 35.135323 0.012919108 C 34.638025 -0.00048086506 34.138305 -0.0033658704 33.636707 0.0041341146 L 33.636707 0.0036173503 z M 33.720939 13.227616 L 33.720939 13.22865 C 35.628626 13.25919 37.912101 13.479346 39.157817 13.788306 C 41.801705 14.444046 45.204332 16.207836 47.32631 18.021639 C 53.957805 23.689977 56.403223 32.314148 53.687679 40.460063 C 51.904882 45.807837 48.176739 50.064846 43.091943 52.558032 C 42.175113 53.007582 41.004624 53.46051 39.941231 53.793616 C 38.864631 54.130893 36.460797 54.440397 34.698657 54.494348 C 32.892764 54.549678 30.861495 54.45379 29.292786 54.106258 C 27.812256 53.778252 26.399168 53.240948 24.778849 52.414372 C 22.677054 51.342127 20.919022 50.047563 19.189526 48.300411 C 17.328502 46.420417 16.337498 45.01682 15.234212 42.697652 C 14.280538 40.693196 13.665748 38.421652 13.434322 36.049996 C 13.29846 34.657215 13.378125 31.582566 13.582117 30.367139 C 14.22553 26.536919 15.941961 23.028853 18.634005 20.040637 C 22.055136 16.243054 27.25495 13.604499 31.990812 13.264823 L 31.991329 13.264823 C 32.491226 13.228863 33.085111 13.217466 33.720939 13.227616 z M 34.212382 16.137 C 33.708149 16.11932 33.196521 16.174068 32.701363 16.303914 C 31.338816 16.661227 29.836154 17.883143 28.735714 19.539893 C 28.522845 19.860178 27.997161 20.836317 27.528552 21.751644 C 27.294213 22.209307 27.072439 22.652887 26.910502 22.993429 C 26.829572 23.163703 26.763601 23.308303 26.717749 23.415625 C 26.696079 23.469335 26.677746 23.513935 26.665556 23.546883 C 26.666233 23.553883 26.665556 23.551028 26.665556 23.557218 C 26.690616 23.559218 26.720921 23.559869 26.765291 23.561869 C 26.870133 23.565969 27.024956 23.568915 27.222111 23.572205 C 27.61622 23.578305 28.179045 23.58253 28.85612 23.58409 C 30.210336 23.58679 32.017939 23.583367 33.83101 23.573755 C 35.644149 23.563755 37.462432 23.548087 38.838456 23.530347 C 39.526436 23.521347 40.103892 23.512531 40.514323 23.502441 C 40.719742 23.497741 40.883622 23.492425 40.998014 23.487455 C 41.054904 23.484755 41.101015 23.482487 41.132373 23.479187 C 41.148633 23.477187 41.160427 23.475136 41.168547 23.474536 C 41.178707 23.473858 41.181407 23.469903 41.168547 23.476603 C 41.213247 23.454933 41.23153 23.437379 41.24141 23.403739 C 41.25157 23.370009 41.251573 23.309601 41.221773 23.209436 C 41.164216 23.009148 41.005539 22.659335 40.714311 22.053951 C 39.430192 19.384984 38.142521 17.763144 36.56521 16.813961 C 36.011739 16.480875 35.376402 16.266375 34.71416 16.178857 C 34.548566 16.156977 34.381583 16.1429 34.213416 16.137 L 34.212382 16.137 z M 41.394889 17.541565 C 41.412499 17.571425 41.42613 17.595102 41.44915 17.633032 C 41.531029 17.77081 41.643756 17.956586 41.76851 18.157548 C 42.208469 18.866359 42.78072 19.970319 43.264026 20.998201 C 43.74733 22.026085 44.141438 22.970446 44.227791 23.388753 L 44.27275 23.607861 L 46.387866 23.577889 C 46.980823 23.569889 47.526869 23.553711 47.929374 23.536031 C 48.130594 23.527031 48.295227 23.518779 48.411515 23.509159 C 48.469085 23.504459 48.516066 23.498783 48.547424 23.494173 C 48.560284 23.492173 48.56855 23.491439 48.57533 23.490039 C 48.57533 23.489361 48.58549 23.488308 48.57533 23.467818 C 48.56517 23.442958 48.554714 23.403875 48.528304 23.354647 C 48.474124 23.256297 48.375146 23.117573 48.232715 22.943302 C 47.94819 22.594763 47.490542 22.102175 46.862773 21.471041 C 45.38001 19.980319 44.464467 19.280067 42.622205 18.226278 C 42.243538 18.009643 41.898443 17.816078 41.649137 17.679024 C 41.541585 17.620034 41.462592 17.576912 41.395406 17.541565 L 41.394889 17.541565 z M 26.58029 17.557585 C 26.579929 17.557963 26.580542 17.558093 26.572538 17.559135 C 26.520388 17.579175 26.445201 17.6141 26.35343 17.659387 C 26.170023 17.750037 25.920112 17.885979 25.638228 18.04541 C 25.074735 18.364266 24.385125 18.780025 23.857458 19.131132 C 22.749229 19.868478 21.381539 21.088041 20.288684 22.315951 C 20.053331 22.580468 19.824706 22.843909 19.644279 23.054407 C 19.463784 23.264898 19.330158 23.427027 19.296497 23.475053 L 19.212781 23.592358 L 21.456055 23.592358 L 23.762374 23.592358 L 24.050212 22.711275 C 24.387022 21.683689 25.669022 19.022926 26.272815 18.097603 C 26.377386 17.937387 26.466429 17.785834 26.526029 17.672823 C 26.550864 17.624967 26.567463 17.588536 26.58029 17.557585 z M 17.70693 26.371 L 17.478003 26.882597 C 17.032219 27.875215 16.668852 29.070704 16.323035 30.684949 C 16.193133 31.293428 16.131832 31.719552 16.131832 32.000114 C 16.131832 32.140413 16.149258 32.24266 16.180408 32.313273 C 16.210208 32.383863 16.251071 32.422154 16.307015 32.444531 C 16.307015 32.443854 16.342901 32.452547 16.393831 32.457967 C 16.444631 32.462667 16.515557 32.469074 16.601571 32.474504 C 16.773598 32.484664 17.009721 32.493245 17.292485 32.501375 C 17.858147 32.517565 18.61011 32.529718 19.411735 32.531348 L 22.277193 32.537549 L 22.327836 31.180526 C 22.361706 30.26041 22.479912 29.184499 22.665283 28.083557 C 22.743103 27.62034 22.814069 27.19426 22.865271 26.881047 C 22.891011 26.724432 22.912019 26.59651 22.926249 26.505876 C 22.936409 26.463746 22.940719 26.431934 22.940719 26.407174 C 22.906849 26.404474 22.854967 26.400772 22.78724 26.397872 C 22.652732 26.393172 22.457842 26.387846 22.216732 26.384436 C 21.734441 26.376436 21.068364 26.371 20.336226 26.371 L 17.70693 26.371 z M 47.73042 26.463501 C 46.966993 26.463501 46.297966 26.472739 45.819942 26.487789 C 45.580999 26.494789 45.389179 26.504771 45.258736 26.514661 C 45.193716 26.519361 45.144367 26.52356 45.113009 26.52913 C 45.102849 26.529807 45.102673 26.529874 45.102673 26.531197 C 45.102673 26.549687 45.102695 26.573567 45.113525 26.603027 C 45.123685 26.665607 45.136549 26.750933 45.152799 26.853141 C 45.184639 27.057564 45.229607 27.32781 45.278373 27.615369 C 45.377193 28.194149 45.550114 29.549128 45.664913 30.631722 L 45.868001 32.550985 L 48.844047 32.521012 C 49.769343 32.512012 50.533018 32.494153 51.072335 32.472953 C 51.342027 32.462393 51.556259 32.451964 51.704854 32.439364 C 51.778744 32.433264 51.83718 32.42529 51.876937 32.41921 C 51.897257 32.41651 51.912569 32.413325 51.921379 32.410425 C 51.922056 32.409748 51.931662 32.392735 51.938432 32.357715 C 51.948592 32.320875 51.94825 32.268054 51.94825 32.204236 C 51.94825 32.076745 51.924586 31.902874 51.891406 31.694706 C 51.826396 31.278377 51.711359 30.728038 51.567912 30.137695 C 51.281153 28.957011 50.880867 27.615907 50.55557 26.870711 L 50.377804 26.463501 L 47.733521 26.463501 L 47.73042 26.463501 z M 34.014461 26.509493 L 34.015495 26.51001 C 30.653897 26.51001 28.609342 26.515831 27.398844 26.533781 L 25.778788 26.581323 C 25.530227 27.269417 25.528715 27.990586 25.411886 28.695923 C 25.246697 29.761409 25.087515 30.983916 25.03103 31.739148 L 24.970569 32.535482 L 34.02428 32.535482 L 43.079541 32.535482 L 43.019596 31.832166 C 42.954576 31.051895 42.781931 29.759426 42.607735 28.646313 C 42.520835 28.089761 42.432749 27.577788 42.358655 27.197306 C 42.322085 27.007053 42.287923 26.849363 42.259953 26.736353 C 42.245723 26.679943 42.232906 26.634426 42.222746 26.602511 C 42.212586 26.578061 42.208276 26.570997 42.208276 26.567887 C 42.198116 26.56721 42.196406 26.567143 42.187606 26.56582 C 42.158486 26.56382 42.115346 26.562136 42.058931 26.560136 C 41.946164 26.556036 41.782078 26.5521 41.571106 26.54825 C 41.149433 26.54025 40.543431 26.533283 39.798088 26.527063 C 38.307535 26.515283 36.258958 26.509493 34.014461 26.509493 z M 22.302515 35.294486 L 19.369877 35.327043 C 17.741364 35.345393 16.916462 35.358039 16.511654 35.427295 C 16.309283 35.461905 16.218553 35.51004 16.177307 35.567338 C 16.138027 35.624568 16.130282 35.708953 16.130282 35.838639 C 16.130282 35.997772 16.188529 36.347982 16.281177 36.787419 C 16.374037 37.22685 16.503267 37.759593 16.645496 38.301021 C 16.929613 39.38388 17.269388 40.504477 17.481104 40.975793 L 17.70693 41.480155 L 20.366199 41.480155 L 22.994462 41.480155 L 22.802226 40.551013 C 22.497789 39.092924 22.302515 37.417769 22.302515 36.257735 L 22.302515 35.294486 z M 34.028414 35.31464 L 25.652698 35.357532 C 25.422153 35.361632 25.243459 35.364567 25.122498 35.369417 C 25.063568 35.371417 25.019557 35.373869 24.989689 35.377169 C 24.989689 35.456049 25.008391 35.656154 25.034131 35.955945 C 25.063251 36.278911 25.102387 36.689288 25.144718 37.105745 C 25.228568 37.938661 25.322984 38.800539 25.359692 39.035343 C 25.414552 39.389918 25.505536 39.919668 25.589653 40.380481 C 25.631642 40.610885 25.671319 40.823051 25.704374 40.988713 C 25.735534 41.145963 25.760034 41.253317 25.771554 41.293087 C 25.783744 41.295787 25.801308 41.301122 25.828398 41.304972 C 25.887998 41.313972 25.983192 41.321153 26.116752 41.328743 C 26.384005 41.343853 26.80802 41.35573 27.434501 41.3644 L 42.22843 41.388171 L 42.31628 40.945304 C 42.483635 40.111955 42.669841 38.937794 42.814441 37.87159 C 42.958904 36.805413 43.062488 35.843672 43.062488 35.450033 C 43.062488 35.426933 43.072648 35.428501 43.062488 35.424711 C 43.062488 35.420611 43.0307 35.406105 42.962236 35.393705 C 42.826713 35.368845 42.541723 35.349991 41.973149 35.338411 C 40.836001 35.315041 38.563531 35.31464 34.028414 35.31464 z M 45.942415 35.315157 L 45.900557 35.525997 C 45.875497 35.655019 45.8068 36.252542 45.750179 36.834961 C 45.697349 37.382972 45.566058 38.415321 45.438053 39.356771 C 45.374393 39.827498 45.310691 40.274853 45.257186 40.628528 C 45.203006 40.982189 45.161249 41.237486 45.136263 41.337012 L 45.100606 41.480155 L 47.74799 41.480155 L 50.425863 41.480155 L 50.847026 40.247156 C 51.084207 39.551869 51.381595 38.5446 51.506417 38.015767 C 51.636929 37.462718 51.765137 36.834456 51.854199 36.33835 C 51.898219 36.090298 51.932404 35.875063 51.952384 35.719784 C 51.962544 35.642204 51.970988 35.579623 51.970988 35.536332 C 51.970988 35.515952 51.971598 35.50184 51.970988 35.49189 C 51.970988 35.48989 51.971329 35.490812 51.961169 35.48879 C 51.946939 35.48409 51.925367 35.478353 51.897607 35.472253 C 51.841397 35.460603 51.761566 35.449317 51.66248 35.438147 C 51.464511 35.415867 51.18663 35.395729 50.848059 35.378719 C 50.170647 35.344449 49.248174 35.322775 48.219796 35.320325 L 45.942415 35.315157 z M 44.30789 44.240194 L 44.120821 44.833956 C 43.742427 46.042267 42.339027 48.905909 41.491007 50.203654 C 41.446988 50.270574 41.417225 50.325258 41.392306 50.373669 C 41.455285 50.340549 41.539645 50.293062 41.644486 50.23466 C 41.85898 50.11533 42.148886 49.950859 42.460974 49.769572 C 44.487998 48.592504 45.165112 48.079799 46.688106 46.566667 C 47.517567 45.742508 48.019005 45.223366 48.290592 44.893384 C 48.426522 44.728385 48.504317 44.610191 48.535539 44.531132 C 48.553829 44.491572 48.554142 44.462652 48.554142 44.443282 C 48.554142 44.423912 48.543785 44.413354 48.532955 44.399874 C 48.532955 44.401874 48.520491 44.392858 48.496781 44.384888 C 48.473071 44.377888 48.438154 44.368707 48.391361 44.361117 C 48.298512 44.346347 48.164657 44.333939 47.986735 44.322359 C 47.630826 44.299259 47.098584 44.282886 46.363062 44.271716 L 44.30789 44.240194 z M 19.851501 44.27275 L 19.852535 44.273267 C 19.656733 44.275967 19.498149 44.280302 19.389514 44.286702 C 19.345494 44.289402 19.315859 44.292587 19.289779 44.295487 C 19.299939 44.304487 19.300025 44.310109 19.304765 44.320809 C 19.331855 44.363479 19.373225 44.421093 19.425171 44.489274 C 19.529336 44.625679 19.676754 44.806354 19.848918 45.007072 C 20.193178 45.408496 20.63462 45.892723 21.020939 46.282963 C 21.947115 47.218513 23.156667 48.234528 24.09517 48.867301 C 24.43706 49.097819 25.098015 49.488815 25.679053 49.81453 C 25.969536 49.977381 26.240399 50.124539 26.44128 50.227425 C 26.53515 50.275435 26.609809 50.310739 26.667106 50.336462 C 26.656946 50.324472 26.656623 50.317069 26.648503 50.303389 C 26.596353 50.21952 26.521211 50.10666 26.434045 49.984546 C 26.238516 49.710764 25.905227 49.104137 25.521956 48.345369 C 25.138617 47.586616 24.707461 46.67665 24.32358 45.80599 C 24.17126 45.460821 24.016566 45.132024 23.892082 44.879948 C 23.830452 44.753906 23.774401 44.647104 23.730851 44.567822 C 23.686831 44.488552 23.652035 44.432352 23.644035 44.426229 C 23.610175 44.391149 23.488165 44.348493 23.151558 44.32391 C 22.814952 44.29932 22.26773 44.28629 21.38009 44.2743 C 20.784967 44.2663 20.243104 44.26675 19.851501 44.27275 z M 26.692944 44.303239 L 27.284123 45.566211 C 27.913585 46.91228 29.394063 49.662094 31.581535 51.189124 C 32.440931 51.701884 33.484032 51.931114 34.50022 51.856783 C 34.88708 51.828473 35.269678 51.756195 35.637101 51.638708 L 35.637101 51.624756 L 35.651571 51.635091 C 35.663761 51.630991 35.676434 51.628946 35.689294 51.624756 C 35.700124 51.620656 35.711374 51.6148 35.722884 51.61132 L 35.672758 51.575146 C 35.739818 51.498407 35.734168 51.600142 35.741488 51.603052 C 37.213686 51.1278 38.455794 49.955062 39.54384 48.01154 C 39.831208 47.498176 40.320693 46.655949 40.673486 45.899524 C 40.849917 45.521305 41.001317 45.170633 41.100334 44.90682 C 41.150454 44.774907 41.185349 44.664644 41.20472 44.585909 C 41.21488 44.546499 41.221773 44.513678 41.221773 44.493408 C 41.231933 44.473158 41.221432 44.468723 41.231592 44.481523 C 41.221432 44.476823 41.181255 44.45078 41.09775 44.43243 C 41.01486 44.41408 40.893685 44.397097 40.736015 44.381787 C 40.420878 44.351097 39.953535 44.327027 39.301994 44.309957 L 26.692944 44.303239 z " /></svg>
