<?xml version="1.0" encoding="UTF-8" standalone="no"?>
<!-- Created with Inkscape (http://www.inkscape.org/) -->

<svg
   width="211.66689mm"
   height="46.004467mm"
   viewBox="0 0 211.66689 46.004466"
   version="1.1"
   id="svg8"
   inkscape:version="1.3.2 (1:1.3.2+202311252150+091e20ef0f)"
   sodipodi:docname="logo-posverso_completo.svg"
   xmlns:inkscape="http://www.inkscape.org/namespaces/inkscape"
   xmlns:sodipodi="http://sodipodi.sourceforge.net/DTD/sodipodi-0.dtd"
   xmlns="http://www.w3.org/2000/svg"
   xmlns:svg="http://www.w3.org/2000/svg"
   xmlns:rdf="http://www.w3.org/1999/02/22-rdf-syntax-ns#"
   xmlns:cc="http://creativecommons.org/ns#"
   xmlns:dc="http://purl.org/dc/elements/1.1/">
  <defs
     id="defs2" />
  <sodipodi:namedview
     id="base"
     pagecolor="#ffffff"
     bordercolor="#666666"
     borderopacity="1.0"
     inkscape:pageopacity="0"
     inkscape:pageshadow="2"
     inkscape:zoom="0.39375"
     inkscape:cx="-81.051971"
     inkscape:cy="558.86667"
     inkscape:document-units="mm"
     inkscape:current-layer="g3"
     showgrid="false"
     inkscape:window-width="1366"
     inkscape:window-height="741"
     inkscape:window-x="0"
     inkscape:window-y="0"
     inkscape:window-maximized="1"
     inkscape:showpageshadow="2"
     inkscape:pagecheckerboard="0"
     inkscape:deskcolor="#d1d1d1"
     showguides="true">
    <sodipodi:guide
       position="-242.45059,-401.494"
       orientation="0,-1"
       id="guide239"
       inkscape:locked="false" />
    <sodipodi:guide
       position="-458.18258,-476.53423"
       orientation="0,-1"
       id="guide314"
       inkscape:locked="false" />
    <sodipodi:guide
       position="85.414188,456.95939"
       orientation="0,-1"
       id="guide450"
       inkscape:locked="false" />
    <sodipodi:guide
       position="309.99748,272.37607"
       orientation="0,-1"
       id="guide451"
       inkscape:locked="false" />
    <sodipodi:guide
       position="654.58087,476.95939"
       orientation="1,0"
       id="guide452"
       inkscape:locked="false" />
    <sodipodi:guide
       position="839.16416,252.37607"
       orientation="1,0"
       id="guide453"
       inkscape:locked="false" />
    <sodipodi:guide
       position="1203.7473,476.95939"
       orientation="1,0"
       id="guide454"
       inkscape:locked="false" />
    <sodipodi:guide
       position="1388.3307,272.37606"
       orientation="1,0"
       id="guide455"
       inkscape:locked="false" />
    <sodipodi:guide
       position="2302.0809,456.95939"
       orientation="1,0"
       id="guide456"
       inkscape:locked="false" />
    <sodipodi:guide
       position="2486.6641,272.37606"
       orientation="1,0"
       id="guide457"
       inkscape:locked="false" />
    <sodipodi:guide
       position="105.41419,456.95939"
       orientation="1,0"
       id="guide459"
       inkscape:locked="false" />
    <sodipodi:guide
       position="289.99748,252.37607"
       orientation="1,0"
       id="guide460"
       inkscape:locked="false" />
    <sodipodi:guide
       position="433.47897,371.35005"
       orientation="0,-1"
       id="guide538"
       inkscape:locked="false" />
    <sodipodi:guide
       position="420.09317,285.74074"
       orientation="0,-1"
       id="guide539"
       inkscape:locked="false" />
    <sodipodi:guide
       position="3330.414,252.37607"
       orientation="1,0"
       id="guide566"
       inkscape:locked="false" />
    <sodipodi:guide
       position="3125.8307,476.95939"
       orientation="1,0"
       id="guide567"
       inkscape:locked="false" />
    <inkscape:page
       x="0"
       y="0"
       width="211.66689"
       height="46.004467"
       id="page1"
       margin="0"
       bleed="0"
       inkscape:export-filename="logo-posverso_compartir.png"
       inkscape:export-xdpi="96"
       inkscape:export-ydpi="96" />
    <sodipodi:guide
       position="65.414189,232.37607"
       orientation="1,0"
       id="guide1"
       inkscape:locked="false" />
    <sodipodi:guide
       position="188.22889,43.313949"
       orientation="1,0"
       id="guide6"
       inkscape:locked="false" />
    <sodipodi:guide
       position="123.15619,-6.4485197"
       orientation="1,0"
       id="guide9"
       inkscape:locked="false" />
    <sodipodi:guide
       position="176.27599,-11.684179"
       orientation="1,0"
       id="guide10"
       inkscape:locked="false" />
    <sodipodi:guide
       position="267.56919,-12.515679"
       orientation="1,0"
       id="guide12"
       inkscape:locked="false" />
    <sodipodi:guide
       position="320.62668,24.909169"
       orientation="1,0"
       id="guide18"
       inkscape:locked="false" />
    <sodipodi:guide
       position="304.71508,-16.836199"
       orientation="0,-1"
       id="guide21"
       inkscape:locked="false" />
    <sodipodi:guide
       position="407.35058,-103.98124"
       orientation="1,0"
       id="guide27"
       inkscape:locked="false" />
    <sodipodi:guide
       position="132.52859,-28.908209"
       orientation="1,0"
       id="guide80"
       inkscape:locked="false" />
  </sodipodi:namedview>
  <metadata
     id="metadata5">
    <rdf:RDF>
      <cc:Work
         rdf:about="">
        <dc:format>image/svg+xml</dc:format>
        <dc:type
           rdf:resource="http://purl.org/dc/dcmitype/StillImage" />
      </cc:Work>
    </rdf:RDF>
  </metadata>
  <g
     inkscape:label="Capa 1"
     inkscape:groupmode="layer"
     id="layer1"
     transform="translate(65.414099,-338.49673)">
    <g
       id="g3"
       transform="translate(-0.23268138,-1.0729066)">
      <path
         style="-inkscape-font-specification:'Arial Black, ';fill:#000000;fill-opacity:1;stroke-width:1.33776;paint-order:stroke markers fill"
         d="m 109.78738,340.14577 h 10.92259 l 7.60434,24.31082 7.48912,-24.31082 h 10.59997 l -12.53562,33.78167 h -11.31434 z"
         id="path6" />
      <path
         style="-inkscape-font-specification:'Arial Black, ';fill:#000000;fill-opacity:1;stroke-width:1.33776;paint-order:stroke markers fill"
         d="M 107.18845,340.14577 H 79.213713 v 7.21259 h 17.51301 v 5.36913 H 80.48111 v 6.88998 h 16.245613 v 6.65956 H 78.706764 v 7.65041 h 28.481686 z"
         id="path5" />
      <path
         style="-inkscape-font-specification:'Arial Black, ';fill:#000000;fill-opacity:1;stroke-width:1.33776;paint-order:stroke markers fill"
         d="M 73.482627,373.92744 V 340.14577 H 56.084835 q -4.83912,0 -7.396944,0.82956 -2.557815,0.82956 -4.124771,3.08782 -1.566957,2.23521 -1.566957,5.4613 0,2.8113 1.198258,4.86217 1.198257,2.02781 3.295212,3.29521 1.336518,0.80652 3.663912,1.33652 -1.866525,0.62216 -2.719134,1.24434 -0.576079,0.41478 -1.659126,1.77434 -1.106078,1.35957 -1.474777,2.09695 l -5.046509,9.79346 h 11.798235 l 5.576517,-10.32345 q 1.059998,-2.00478 1.889556,-2.60391 1.129128,-0.78348 2.557825,-0.78348 h 0.921738 v 13.71084 z M 62.99787,353.83357 h -4.401301 q -0.714348,0 -2.765214,-0.46087 -1.036948,-0.20739 -1.682166,-1.06 -0.668259,-0.85261 -0.668259,-1.95869 0,-1.63608 1.036958,-2.51173 1.036948,-0.87566 3.894332,-0.87566 h 4.58565 z"
         id="path4" />
      <path
         style="-inkscape-font-specification:'Arial Black, ';fill:#000000;fill-opacity:1;stroke-width:1.33776;paint-order:stroke markers fill"
         d="m 6.4375773,362.75138 9.9317277,-0.62217 q 0.3226,2.41955 1.313468,3.68695 1.613046,2.05087 4.60869,2.05087 2.235215,0 3.433472,-1.03696 1.221307,-1.06 1.221307,-2.44261 0,-1.31347 -1.152177,-2.35043 -1.152167,-1.03695 -5.346078,-1.95869 -6.866945,-1.54391 -9.793459,-4.10173 -2.9495634,-2.55782 -2.9495634,-6.52129 0,-2.60391 1.4978266,-4.90825 1.5208668,-2.32739 4.5395598,-3.64087 3.041734,-1.33651 8.318682,-1.33651 6.475206,0 9.862589,2.41955 3.410432,2.39652 4.055641,7.65043 l -9.839548,0.57608 q -0.391739,-2.2813 -1.659127,-3.31826 -1.244347,-1.03695 -3.456512,-1.03695 -1.820436,0 -2.742165,0.78348 -0.921738,0.76043 -0.921738,1.86652 0,0.80652 0.760429,1.45173 0.737388,0.66826 3.502602,1.24435 6.843905,1.47478 9.793459,2.99565 2.972604,1.49782 4.309121,3.73303 1.359567,2.23521 1.359567,5.00043 0,3.24912 -1.797386,5.99129 -1.797387,2.74217 -5.02347,4.17086 -3.226082,1.40565 -8.134332,1.40565 -8.618251,0 -11.936504,-3.31825 -3.3182529,-3.31825 -3.7560817,-8.4339 z"
         id="path3" />
      <path
         style="-inkscape-font-specification:'Arial Black, ';fill:#000000;fill-opacity:1;stroke-width:1.33776;paint-order:stroke markers fill"
         d="m -32.367569,357.0596 q 0,-8.27259 4.60869,-12.88128 4.60869,-4.60868 12.835192,-4.60868 8.4339023,0 12.9965025,4.53955 4.5626001,4.51652 4.5626001,12.67389 0,5.92217 -2.0047853,9.72433 -1.9817357,3.77912 -5.7608576,5.89912 -3.7560818,2.09695 -9.3786797,2.09695 -5.714768,0 -9.47085,-1.82042 -3.733032,-1.82044 -6.060427,-5.76087 -2.327385,-3.94042 -2.327385,-9.86259 z m 10.438678,0.0461 q 0,5.11564 1.889565,7.35085 1.912606,2.23522 5.184769,2.23522 3.364343,0 5.2078193,-2.18913 1.8434759,-2.18912 1.8434759,-7.85781 0,-4.76999 -1.9356554,-6.95911 -1.9125968,-2.21218 -5.2078098,-2.21218 -3.156953,0 -5.069559,2.23522 -1.912605,2.23521 -1.912605,7.39694 z"
         id="path2" />
      <path
         style="-inkscape-font-specification:'Arial Black, ';fill:#000000;fill-opacity:1;stroke-width:1.33776;paint-order:stroke markers fill"
         d="m -65.181418,340.14572 h 17.351703 q 5.668687,0 8.479991,2.69608 2.834334,2.69609 2.834334,7.67347 0,5.11565 -3.087813,7.99607 -3.064783,2.88043 -9.37868,2.88043 h -5.714777 v 12.53563 h -10.484758 z m 10.484758,14.40215 h 2.557824 q 3.018693,0 4.239991,-1.03696 1.221307,-1.06 1.221307,-2.69607 0,-1.59 -1.059998,-2.69609 -1.059998,-1.10609 -3.986521,-1.10609 h -2.972603 z"
         id="text1" />
      <path
         style="-inkscape-font-specification:Arial;fill:#000000;fill-opacity:1;stroke-width:0.239804;paint-order:stroke markers fill"
         d="m -64.491585,383.79378 h -0.689833 v -6.05567 h 0.743534 v 2.16038 q 0.4709,-0.5907 1.202039,-0.5907 0.404814,0 0.764191,0.16524 0.3635,0.1611 0.594827,0.45851 0.23545,0.29328 0.367631,0.71048 0.132181,0.4172 0.132181,0.89224 0,1.12769 -0.557644,1.74317 -0.557652,0.61548 -1.33836,0.61548 -0.776577,0 -1.218566,-0.64852 z m -0.0085,-2.22647 q 0,0.78897 0.214802,1.14008 0.351105,0.57417 0.950063,0.57417 0.487426,0 0.842672,-0.42133 0.355245,-0.42547 0.355245,-1.26401 0,-0.85919 -0.34285,-1.26814 -0.33872,-0.40893 -0.822024,-0.40893 -0.487426,0 -0.842662,0.42546 -0.355246,0.42133 -0.355246,1.2227 z m 4.0316,-2.97413 v -0.85507 h 0.743524 v 0.85507 z m 0,5.2006 v -4.38685 h 0.743524 v 4.38685 z m 4.878392,-1.41272 0.768314,0.095 q -0.18175,0.67331 -0.673307,1.04507 -0.491558,0.37177 -1.255749,0.37177 -0.962458,0 -1.528364,-0.59069 -0.561785,-0.59483 -0.561785,-1.66469 0,-1.10704 0.570048,-1.71838 0.570038,-0.61136 1.478795,-0.61136 0.879846,0 1.437498,0.59896 0.557653,0.59896 0.557653,1.68535 0,0.0661 -0.0038,0.19827 h -3.271548 q 0.04132,0.72288 0.408946,1.10703 0.36764,0.38416 0.91702,0.38416 0.408946,0 0.698096,-0.2148 0.289151,-0.21479 0.458515,-0.6857 z m -2.441262,-1.20204 h 2.449525 q -0.04954,-0.55352 -0.280896,-0.83028 -0.355236,-0.42959 -0.921152,-0.42959 -0.512206,0 -0.86332,0.34285 -0.346982,0.34285 -0.384157,0.91702 z m 4.143122,2.61476 v -4.38685 h 0.669176 v 0.62375 q 0.483295,-0.72289 1.396193,-0.72289 0.396551,0 0.727007,0.14458 0.334588,0.14044 0.499821,0.37177 0.165224,0.23132 0.231319,0.54938 0.04131,0.20654 0.04131,0.72289 v 2.69737 h -0.743534 v -2.66846 q 0,-0.45439 -0.08679,-0.67744 -0.0867,-0.22719 -0.309808,-0.35938 -0.218924,-0.13631 -0.516338,-0.13631 -0.475031,0 -0.822014,0.30154 -0.342851,0.30155 -0.342851,1.14422 v 2.39583 z m 7.5675,-0.54113 q -0.413068,0.3511 -0.797225,0.49569 -0.380035,0.14457 -0.817892,0.14457 -0.722876,0 -1.111164,-0.35111 -0.388288,-0.35525 -0.388288,-0.90464 0,-0.32219 0.144575,-0.58656 0.148707,-0.26849 0.384157,-0.42959 0.239581,-0.1611 0.536995,-0.24372 0.218933,-0.0579 0.660922,-0.11153 0.900494,-0.1074 1.325966,-0.25611 0.0038,-0.15283 0.0038,-0.19414 0,-0.45437 -0.210671,-0.64026 -0.285019,-0.25197 -0.846803,-0.25197 -0.5246,0 -0.776576,0.18588 -0.247845,0.18175 -0.367631,0.64853 l -0.727017,-0.0991 q 0.09914,-0.46678 0.326334,-0.7518 0.227187,-0.28915 0.656781,-0.44199 0.429604,-0.15697 0.99551,-0.15697 0.561775,0 0.912889,0.13219 0.351114,0.13218 0.516347,0.33459 0.165223,0.19828 0.231318,0.50394 0.03716,0.19003 0.03716,0.68571 v 0.99137 q 0,1.03682 0.04547,1.31358 0.04954,0.27263 0.190012,0.52461 h -0.776576 q -0.115664,-0.23133 -0.148707,-0.54113 z m -0.06193,-1.66055 q -0.404814,0.16522 -1.214434,0.28088 -0.458514,0.0661 -0.648527,0.14871 -0.190013,0.0826 -0.293282,0.24371 -0.103269,0.15697 -0.103269,0.35112 0,0.29741 0.223064,0.49569 0.227187,0.19826 0.660913,0.19826 0.429604,0 0.764192,-0.18588 0.334587,-0.19001 0.491557,-0.51634 0.119786,-0.25197 0.119786,-0.74353 z m 1.887751,2.20168 v -6.05567 h 0.743533 v 6.05567 z m 4.250523,-5.2006 v -0.85507 h 0.743533 v 0.85507 z m 0,5.2006 v -4.38685 h 0.743533 v 4.38685 z m 1.875346,0 v -4.38685 h 0.669185 v 0.62375 q 0.483295,-0.72289 1.396184,-0.72289 0.396551,0 0.727007,0.14458 0.334598,0.14044 0.499821,0.37177 0.165233,0.23132 0.231318,0.54938 0.04132,0.20654 0.04132,0.72289 v 2.69737 h -0.743525 v -2.66846 q 0,-0.45439 -0.08679,-0.67744 -0.0867,-0.22719 -0.309808,-0.35938 -0.218934,-0.13631 -0.516338,-0.13631 -0.475041,0 -0.822023,0.30154 -0.342851,0.30155 -0.342851,1.14422 v 2.39583 z m 6.328286,-0.66506 0.107401,0.65679 q -0.31394,0.0661 -0.561784,0.0661 -0.404805,0 -0.62787,-0.12805 -0.223055,-0.12805 -0.31393,-0.33459 -0.09086,-0.21067 -0.09086,-0.87984 v -2.52389 h -0.545296 v -0.5783 h 0.545258 v -1.08638 l 0.739402,-0.44611 v 1.53249 h 0.747656 v 0.5783 h -0.747656 v 2.56519 q 0,0.31806 0.03716,0.40895 0.04131,0.0909 0.128049,0.14457 0.09086,0.0537 0.256108,0.0537 0.123917,0 0.326324,-0.0289 z m 3.730054,-0.74766 0.768314,0.095 q -0.18175,0.67331 -0.673307,1.04507 -0.491558,0.37177 -1.25575,0.37177 -0.962457,0 -1.528364,-0.59069 -0.561784,-0.59483 -0.561784,-1.66469 0,-1.10704 0.570048,-1.71838 0.570037,-0.61136 1.478795,-0.61136 0.879846,0 1.437498,0.59896 0.557653,0.59896 0.557653,1.68535 0,0.0661 -0.0038,0.19827 h -3.271548 q 0.04132,0.72288 0.408946,1.10703 0.36764,0.38416 0.91702,0.38416 0.408946,0 0.698096,-0.2148 0.289151,-0.21479 0.458515,-0.6857 z m -2.441262,-1.20204 h 2.449525 q -0.04954,-0.55352 -0.280897,-0.83028 -0.355236,-0.42959 -0.921151,-0.42959 -0.512206,0 -0.86332,0.34285 -0.346983,0.34285 -0.384157,0.91702 z m 4.134859,2.61476 v -4.38685 h 0.669176 v 0.66506 q 0.256107,-0.46678 0.470909,-0.61549 0.218924,-0.14871 0.479163,-0.14871 0.375894,0 0.764182,0.23959 l -0.256098,0.68983 q -0.272634,-0.16109 -0.545258,-0.16109 -0.243713,0 -0.437857,0.1487 -0.194144,0.14458 -0.276766,0.40481 -0.123917,0.39655 -0.123917,0.86746 v 2.29669 z m 2.825419,0 v -4.38685 h 0.669176 v 0.62375 q 0.483304,-0.72289 1.396193,-0.72289 0.396551,0 0.727007,0.14458 0.334588,0.14044 0.499821,0.37177 0.165223,0.23132 0.231318,0.54938 0.04132,0.20654 0.04132,0.72289 v 2.69737 h -0.743534 v -2.66846 q 0,-0.45439 -0.0867,-0.67744 -0.0867,-0.22719 -0.309799,-0.35938 -0.218933,-0.13631 -0.516347,-0.13631 -0.475031,0 -0.822014,0.30154 -0.34285,0.30155 -0.34285,1.14422 v 2.39583 z m 7.567509,-0.54113 q -0.413077,0.3511 -0.797234,0.49569 -0.380025,0.14457 -0.817883,0.14457 -0.722876,0 -1.111173,-0.35111 -0.388289,-0.35525 -0.388289,-0.90464 0,-0.32219 0.144575,-0.58656 0.148707,-0.26849 0.384167,-0.42959 0.239581,-0.1611 0.536995,-0.24372 0.218924,-0.0579 0.660912,-0.11153 0.900504,-0.1074 1.325967,-0.25611 0.0038,-0.15283 0.0038,-0.19414 0,-0.45437 -0.21067,-0.64026 -0.285019,-0.25197 -0.846794,-0.25197 -0.52461,0 -0.776586,0.18588 -0.247844,0.18175 -0.36763,0.64853 l -0.727008,-0.0991 q 0.09914,-0.46678 0.326325,-0.7518 0.227187,-0.28915 0.65679,-0.44199 0.429594,-0.15697 0.995501,-0.15697 0.561784,0 0.912898,0.13219 0.351104,0.13218 0.516337,0.33459 0.165233,0.19828 0.231319,0.50394 0.03716,0.19003 0.03716,0.68571 v 0.99137 q 0,1.03682 0.04547,1.31358 0.04954,0.27263 0.190023,0.52461 h -0.776587 q -0.115654,-0.23133 -0.148706,-0.54113 z m -0.06193,-1.66055 q -0.404814,0.16522 -1.214433,0.28088 -0.458515,0.0661 -0.648528,0.14871 -0.190012,0.0826 -0.293282,0.24371 -0.103269,0.15697 -0.103269,0.35112 0,0.29741 0.223055,0.49569 0.227197,0.19826 0.660922,0.19826 0.429594,0 0.764182,-0.18588 0.334588,-0.19001 0.491558,-0.51634 0.119795,-0.25197 0.119795,-0.74353 z m 4.766861,0.59481 0.731139,0.095 q -0.119786,0.75593 -0.615475,1.18552 -0.491558,0.42547 -1.210302,0.42547 -0.900504,0 -1.449894,-0.58656 -0.545258,-0.5907 -0.545258,-1.68947 0,-0.71049 0.23546,-1.24336 0.23545,-0.53286 0.714613,-0.79722 0.483294,-0.26851 1.04921,-0.26851 0.714613,0 1.168997,0.36351 0.454374,0.35938 0.582432,1.02442 l -0.722885,0.11154 q -0.10326,-0.44199 -0.367631,-0.66506 -0.260239,-0.22305 -0.632001,-0.22305 -0.561785,0 -0.912889,0.40481 -0.351114,0.40067 -0.351114,1.27226 0,0.88397 0.338719,1.28466 0.338719,0.40068 0.883978,0.40068 0.437857,0 0.731139,-0.26849 0.293282,-0.2685 0.371762,-0.82616 z m 1.371404,-3.59373 v -0.85507 h 0.7435336 v 0.85507 z m 0,5.2006 v -4.38685 h 0.7435336 v 4.38685 z m 1.5985903,-2.19343 q 0,-1.21857 0.6774388,-1.80513 0.5659157,-0.48743 1.3796666,-0.48743 0.9046257,0 1.4788046,0.59483 0.5741693,0.5907 0.5741693,1.63577 0,0.8468 -0.2561076,1.33422 -0.2519762,0.48331 -0.7394023,0.7518 -0.4832946,0.2685 -1.057464,0.2685 -0.9211518,0 -1.4911991,-0.59069 -0.5659063,-0.5907 -0.5659063,-1.70187 z m 0.764182,0 q 0,0.84267 0.3676401,1.26401 0.3676306,0.4172 0.9252833,0.4172 0.5535212,0 0.9211519,-0.42133 0.36764,-0.42134 0.36764,-1.28466 0,-0.81375 -0.3717716,-1.23096 -0.3676306,-0.42133 -0.9170203,-0.42133 -0.5576527,0 -0.9252833,0.4172 -0.3676401,0.41721 -0.3676401,1.25987 z m 4.2174802,2.19343 v -4.38685 h 0.6691852 v 0.62375 q 0.4832946,-0.72289 1.3961833,-0.72289 0.3965514,0 0.72700766,0.14458 0.33458784,0.14044 0.49982072,0.37177 0.16523289,0.23132 0.23131848,0.54938 0.04131531,0.20654 0.04131531,0.72289 v 2.69737 h -0.74353379 v -2.66846 q 0,-0.45439 -0.0867905,-0.67744 -0.086696,-0.22719 -0.30979868,-0.35938 -0.2189333,-0.13631 -0.5163468,-0.13631 -0.4750316,0 -0.822014,0.30154 -0.3428509,0.30155 -0.3428509,1.14422 v 2.39583 z m 7.5675091,-0.54113 q -0.4130775,0.3511 -0.7972343,0.49569 -0.3800252,0.14457 -0.8178824,0.14457 -0.7228761,0 -1.1111644,-0.35111 -0.38828832,-0.35525 -0.38828832,-0.90464 0,-0.32219 0.14457522,-0.58656 0.1487068,-0.26849 0.3841568,-0.42959 0.2395815,-0.1611 0.536995,-0.24372 0.2189239,-0.0579 0.6609126,-0.11153 0.9005036,-0.1074 1.3259663,-0.25611 0.00378,-0.15283 0.00378,-0.19414 0,-0.45437 -0.2106703,-0.64026 -0.2850189,-0.25197 -0.8467937,-0.25197 -0.5246099,0 -0.7765766,0.18588 -0.2478446,0.18175 -0.3676401,0.64853 l -0.7270076,-0.0991 q 0.099138,-0.46678 0.3263248,-0.7518 0.2271963,-0.28915 0.6567905,-0.44199 0.4295941,-0.15697 0.9955099,-0.15697 0.5617748,0 0.9128888,0.13219 0.3511139,0.13218 0.5163373,0.33459 0.1652329,0.19828 0.231328,0.50394 0.037155,0.19003 0.037155,0.68571 v 0.99137 q 0,1.03682 0.045475,1.31358 0.049541,0.27263 0.1900126,0.52461 H 4.1482934 q -0.1156639,-0.23133 -0.1487067,-0.54113 z m -0.061926,-1.66055 q -0.404805,0.16522 -1.2144338,0.28088 -0.4585149,0.0661 -0.6485275,0.14871 -0.1900126,0.0826 -0.293282,0.24371 -0.1032694,0.15697 -0.1032694,0.35112 0,0.29741 0.2230649,0.49569 0.227187,0.19826 0.6609126,0.19826 0.4296036,0 0.7641915,-0.18588 0.3345878,-0.19001 0.4915576,-0.51634 0.1197861,-0.25197 0.1197861,-0.74353 z m 1.887741,2.20168 v -6.05567 H 6.569267 v 6.05567 z m 7.0924684,0 v -0.55353 q -0.4172,0.65266 -1.226829,0.65266 -0.5246,0 -0.966589,-0.28916 -0.437857,-0.28915 -0.68157,-0.80548 -0.2395821,-0.52047 -0.2395821,-1.19379 0,-0.65678 0.2189241,-1.18964 0.218933,-0.537 0.656791,-0.82203 0.437857,-0.28502 0.978983,-0.28502 0.396552,0 0.70635,0.16937 0.309808,0.16522 0.503953,0.43372 v -2.17277 h 0.739402 v 6.05567 z m -2.350388,-2.1893 q 0,0.84267 0.355246,1.25988 0.355245,0.4172 0.83854,0.4172 0.487426,0 0.826145,-0.39655 0.342851,-0.40068 0.342851,-1.21857 0,-0.9005 -0.346982,-1.32183 -0.346983,-0.42133 -0.855066,-0.42133 -0.49568,0 -0.830278,0.4048 -0.330456,0.40482 -0.330456,1.2764 z m 7.212264,0.77658 0.768313,0.095 q -0.181749,0.67331 -0.673307,1.04507 -0.491558,0.37177 -1.25574,0.37177 -0.962467,0 -1.528373,-0.59069 -0.561784,-0.59483 -0.561784,-1.66469 0,-1.10704 0.570047,-1.71838 0.570038,-0.61136 1.478805,-0.61136 0.879845,0 1.437489,0.59896 0.557652,0.59896 0.557652,1.68535 0,0.0661 -0.0038,0.19827 h -3.27154 q 0.04132,0.72288 0.408937,1.10703 0.36764,0.38416 0.91703,0.38416 0.408936,0 0.698087,-0.2148 0.28915,-0.21479 0.458515,-0.6857 z m -2.441262,-1.20204 h 2.449525 q -0.04954,-0.55352 -0.280888,-0.83028 -0.355245,-0.42959 -0.921161,-0.42959 -0.512206,0 -0.86332,0.34285 -0.346982,0.34285 -0.384156,0.91702 z m 6.493509,4.29596 v -6.06805 h 0.677439 v 0.57005 q 0.239581,-0.3346 0.541126,-0.49982 0.301545,-0.16937 0.73114,-0.16937 0.561784,0 0.991378,0.28915 0.429594,0.28915 0.648527,0.8179 0.218924,0.5246 0.218924,1.15247 0,0.6733 -0.243713,1.21443 -0.239581,0.537 -0.702228,0.82615 -0.458505,0.28502 -0.966589,0.28502 -0.371762,0 -0.669176,-0.15697 -0.293282,-0.15697 -0.483294,-0.39655 v 2.13559 z m 0.673307,-3.84984 q 0,0.8468 0.342851,1.25161 0.342851,0.40481 0.830277,0.40481 0.495689,0 0.846803,-0.4172 0.355246,-0.42134 0.355246,-1.30119 0,-0.83854 -0.346983,-1.25573 -0.342851,-0.41721 -0.822014,-0.41721 -0.475041,0 -0.842671,0.44612 -0.363509,0.44199 -0.363509,1.28879 z m 3.754844,-0.0248 q 0,-1.21857 0.677438,-1.80513 0.565907,-0.48743 1.379667,-0.48743 0.904626,0 1.478795,0.59483 0.574179,0.5907 0.574179,1.63577 0,0.8468 -0.256108,1.33422 -0.251976,0.48331 -0.739402,0.7518 -0.483295,0.2685 -1.057464,0.2685 -0.921152,0 -1.491199,-0.59069 -0.565906,-0.5907 -0.565906,-1.70187 z m 0.764181,0 q 0,0.84267 0.367641,1.26401 0.36763,0.4172 0.925283,0.4172 0.553512,0 0.921152,-0.42133 0.36763,-0.42134 0.36763,-1.28466 0,-0.81375 -0.371762,-1.23096 -0.36764,-0.42133 -0.91702,-0.42133 -0.557653,0 -0.925283,0.4172 -0.367641,0.41721 -0.367641,1.25987 z m 7.220518,0.78071 0.768313,0.095 q -0.181749,0.67331 -0.673307,1.04507 -0.491558,0.37177 -1.25574,0.37177 -0.962467,0 -1.528373,-0.59069 -0.561775,-0.59483 -0.561775,-1.66469 0,-1.10704 0.570038,-1.71838 0.570038,-0.61136 1.478804,-0.61136 0.879846,0 1.43749,0.59896 0.557652,0.59896 0.557652,1.68534 0,0.0661 -0.0038,0.19828 h -3.27154 q 0.04132,0.72288 0.408937,1.10703 0.36764,0.38416 0.91703,0.38416 0.408936,0 0.698087,-0.2148 0.28916,-0.21479 0.458514,-0.6857 z m -2.441263,-1.20204 h 2.449526 q -0.04954,-0.55352 -0.280888,-0.83028 -0.355245,-0.42959 -0.921161,-0.42959 -0.512206,0 -0.86332,0.34285 -0.346982,0.34285 -0.384157,0.91702 z m 3.845719,1.30531 0.73527,-0.11566 q 0.06193,0.44199 0.342851,0.67744 0.285019,0.23545 0.793093,0.23545 0.512216,0 0.76006,-0.20654 0.247845,-0.21066 0.247845,-0.49156 0,-0.25197 -0.218933,-0.39655 -0.152839,-0.0991 -0.760051,-0.25196 -0.817892,-0.20654 -1.135953,-0.35525 -0.31394,-0.15284 -0.479164,-0.41721 -0.161101,-0.26849 -0.161101,-0.59069 0,-0.29329 0.132181,-0.54112 0.136321,-0.25198 0.36764,-0.41721 0.173486,-0.12805 0.4709,-0.2148 0.301545,-0.0909 0.644396,-0.0909 0.516347,0 0.904635,0.14871 0.39242,0.1487 0.578301,0.40481 0.185881,0.25198 0.256107,0.67744 l -0.727017,0.0991 q -0.04954,-0.33872 -0.28915,-0.52873 -0.23545,-0.19002 -0.669176,-0.19002 -0.512215,0 -0.731139,0.16936 -0.218933,0.16936 -0.218933,0.39655 0,0.14458 0.09086,0.26024 0.09085,0.11979 0.285018,0.19828 0.111523,0.0413 0.656782,0.19001 0.788971,0.21067 1.098779,0.34698 0.31393,0.13218 0.491558,0.38829 0.177618,0.25611 0.177618,0.63613 0,0.37176 -0.218924,0.70223 -0.214802,0.32632 -0.623748,0.50807 -0.408937,0.17763 -0.925283,0.17763 -0.855057,0 -1.305309,-0.35524 -0.44612,-0.35525 -0.570038,-1.05335 z m 4.787518,1.30944 v -4.38684 h 0.743524 v 4.38684 z m -0.03716,-4.9321 0.54939,-1.1566 h 0.974852 l -0.908757,1.1566 z m 4.989925,4.39098 q -0.413077,0.3511 -0.797234,0.49569 -0.380025,0.14457 -0.817882,0.14457 -0.722876,0 -1.111165,-0.35111 -0.388288,-0.35525 -0.388288,-0.90464 0,-0.32219 0.144575,-0.58656 0.148707,-0.26849 0.384157,-0.42959 0.239582,-0.16111 0.536995,-0.24372 0.218924,-0.0579 0.660913,-0.11153 0.900503,-0.1074 1.325966,-0.25611 0.0038,-0.15283 0.0038,-0.19414 0,-0.45438 -0.210661,-0.64026 -0.285029,-0.25197 -0.846803,-0.25197 -0.524601,0 -0.776577,0.18588 -0.247845,0.18175 -0.36764,0.64853 l -0.727008,-0.0991 q 0.09914,-0.46678 0.326325,-0.7518 0.227196,-0.28915 0.656791,-0.44199 0.429594,-0.15697 0.99551,-0.15697 0.561774,0 0.912888,0.13219 0.351114,0.13218 0.516338,0.33459 0.165233,0.19828 0.231328,0.50394 0.03716,0.19003 0.03716,0.68571 v 0.99137 q 0,1.03682 0.04547,1.31358 0.04954,0.27263 0.190013,0.5246 h -0.776577 q -0.115664,-0.23132 -0.148706,-0.54112 z m -0.06192,-1.66056 q -0.404805,0.16523 -1.214434,0.28089 -0.458515,0.0661 -0.648528,0.14871 -0.190012,0.0826 -0.293282,0.24371 -0.103269,0.15697 -0.103269,0.35112 0,0.29741 0.223065,0.49568 0.227187,0.19827 0.660913,0.19827 0.429603,0 0.764191,-0.18588 0.334588,-0.19001 0.491558,-0.51634 0.119786,-0.25197 0.119786,-0.74353 z m 7.25771,0.78897 0.768314,0.095 q -0.18175,0.67331 -0.673308,1.04507 -0.491557,0.37177 -1.255749,0.37177 -0.962457,0 -1.528364,-0.59069 -0.561784,-0.59483 -0.561784,-1.66469 0,-1.10704 0.570038,-1.71838 0.570047,-0.61136 1.478804,-0.61136 0.879846,0 1.437499,0.59896 0.557643,0.59896 0.557643,1.68534 0,0.0661 -0.0038,0.19828 h -3.27154 q 0.04132,0.72288 0.408946,1.10703 0.367631,0.38416 0.917021,0.38416 0.408946,0 0.698096,-0.2148 0.289151,-0.21479 0.458515,-0.6857 z m -2.441262,-1.20204 h 2.449516 q -0.04954,-0.55352 -0.280888,-0.83028 -0.355245,-0.42959 -0.921151,-0.42959 -0.512216,0 -0.86332,0.34285 -0.346983,0.34285 -0.384157,0.91702 z m 3.647423,2.61475 1.602732,-2.28017 -1.482936,-2.10667 h 0.929415 l 0.673307,1.02855 q 0.190013,0.29329 0.305677,0.49156 0.181749,-0.27262 0.334587,-0.48329 l 0.739403,-1.03682 h 0.888109 l -1.515979,2.06537 1.631643,2.32147 h -0.912899 l -0.900494,-1.36315 -0.239591,-0.36763 -1.15247,1.73078 z m 4.725574,1.68121 v -6.06805 h 0.677439 v 0.57005 q 0.239581,-0.3346 0.541126,-0.49982 0.301536,-0.16937 0.731139,-0.16937 0.561775,0 0.991369,0.28915 0.429604,0.28915 0.648528,0.81789 0.218933,0.52461 0.218933,1.15248 0,0.6733 -0.243713,1.21443 -0.239582,0.53699 -0.702228,0.82614 -0.458515,0.28503 -0.966589,0.28503 -0.371772,0 -0.669185,-0.15697 -0.293282,-0.15697 -0.483295,-0.39655 v 2.13559 z m 0.673307,-3.84984 q 0,0.8468 0.342851,1.25161 0.342851,0.40481 0.830277,0.40481 0.495689,0 0.846794,-0.4172 0.355245,-0.42134 0.355245,-1.30119 0,-0.83854 -0.346982,-1.25574 -0.342851,-0.41721 -0.822014,-0.41721 -0.475032,0 -0.842672,0.44613 -0.363499,0.44198 -0.363499,1.28879 z m 7.034627,0.75592 0.768313,0.095 q -0.181749,0.67331 -0.673307,1.04507 -0.491558,0.37177 -1.255749,0.37177 -0.962458,0 -1.528364,-0.59069 -0.561784,-0.59483 -0.561784,-1.66469 0,-1.10704 0.570037,-1.71838 0.570048,-0.61136 1.478805,-0.61136 0.879846,0 1.437499,0.59896 0.557643,0.59896 0.557643,1.68534 0,0.0661 -0.0038,0.19828 h -3.271548 q 0.04132,0.72288 0.408945,1.10703 0.367641,0.38416 0.917021,0.38416 0.408946,0 0.698096,-0.2148 0.289151,-0.21479 0.458515,-0.6857 z m -2.441263,-1.20204 h 2.449526 q -0.04954,-0.55352 -0.280897,-0.83028 -0.355236,-0.42959 -0.921152,-0.42959 -0.512206,0 -0.86332,0.34285 -0.346982,0.34285 -0.384157,0.91702 z m 4.13486,2.61475 v -4.38684 h 0.669185 v 0.66505 q 0.256098,-0.46677 0.4709,-0.61548 0.218933,-0.14871 0.479163,-0.14871 0.375903,0 0.764191,0.23958 l -0.256107,0.68984 q -0.272634,-0.16109 -0.545259,-0.16109 -0.243713,0 -0.437857,0.1487 -0.194144,0.14458 -0.276756,0.40481 -0.123927,0.39655 -0.123927,0.86746 v 2.29668 z m 2.829559,-5.20059 v -0.85507 h 0.743534 v 0.85507 z m 0,5.20059 v -4.38684 h 0.743534 v 4.38684 z m 1.875347,0 v -4.38684 h 0.665044 v 0.61548 q 0.206539,-0.3222 0.54939,-0.51634 0.342851,-0.19828 0.780708,-0.19828 0.487426,0 0.797234,0.20241 0.31393,0.20241 0.441989,0.56592 0.520469,-0.76833 1.354877,-0.76833 0.652659,0 1.003773,0.36351 0.351105,0.35938 0.351105,1.11117 v 3.0113 h -0.739393 v -2.76346 q 0,-0.44612 -0.07441,-0.64026 -0.07025,-0.19828 -0.26024,-0.31807 -0.190012,-0.11979 -0.44611,-0.11979 -0.462647,0 -0.768323,0.30981 -0.305677,0.30567 -0.305677,0.98311 v 2.54866 h -0.743524 v -2.8502 q 0,-0.49569 -0.181759,-0.74354 -0.18175,-0.24784 -0.594818,-0.24784 -0.31394,0 -0.582442,0.16523 -0.264361,0.16522 -0.384157,0.4833 -0.119786,0.31806 -0.119786,0.91702 v 2.27603 z m 10.050077,-1.41271 0.768313,0.095 q -0.181749,0.67331 -0.673307,1.04507 -0.491557,0.37177 -1.255749,0.37177 -0.962458,0 -1.528364,-0.59069 -0.561784,-0.59483 -0.561784,-1.66469 0,-1.10704 0.570038,-1.71838 0.570047,-0.61136 1.478804,-0.61136 0.879846,0 1.437499,0.59896 0.557643,0.59896 0.557643,1.68534 0,0.0661 -0.0038,0.19828 h -3.271548 q 0.04131,0.72288 0.408946,1.10703 0.36764,0.38416 0.91702,0.38416 0.408946,0 0.698096,-0.2148 0.289151,-0.21479 0.458515,-0.6857 z m -2.441262,-1.20204 h 2.449516 q -0.04954,-0.55352 -0.280888,-0.83028 -0.355236,-0.42959 -0.921152,-0.42959 -0.512206,0 -0.863319,0.34285 -0.346983,0.34285 -0.384157,0.91702 z m 4.143122,2.61475 v -4.38684 h 0.669176 v 0.62375 q 0.483304,-0.72289 1.396192,-0.72289 0.396552,0 0.727008,0.14458 0.334588,0.14044 0.499821,0.37177 0.165223,0.23132 0.231318,0.54938 0.04132,0.20654 0.04132,0.72289 v 2.69736 h -0.743534 v -2.66845 q 0,-0.45439 -0.0867,-0.67744 -0.0867,-0.22719 -0.309799,-0.35938 -0.218933,-0.13631 -0.516347,-0.13631 -0.475031,0 -0.822014,0.30154 -0.342851,0.30155 -0.342851,1.14422 v 2.39582 z m 6.328286,-0.66505 0.107401,0.65679 q -0.31394,0.0661 -0.561784,0.0661 -0.404805,0 -0.62787,-0.12805 -0.223056,-0.12805 -0.31393,-0.33459 -0.09086,-0.21067 -0.09086,-0.87985 v -2.52388 h -0.545249 v -0.5783 h 0.545249 v -1.08638 l 0.739402,-0.44612 v 1.5325 h 0.747665 v 0.5783 H 89.95646 v 2.56519 q 0,0.31806 0.03715,0.40895 0.04132,0.0908 0.128049,0.14457 0.09086,0.0537 0.256108,0.0537 0.123918,0 0.326325,-0.0289 z m 3.589608,0.12393 q -0.413068,0.3511 -0.797234,0.49569 -0.380025,0.14457 -0.817882,0.14457 -0.722876,0 -1.111165,-0.35111 -0.388288,-0.35525 -0.388288,-0.90464 0,-0.32219 0.144575,-0.58656 0.148707,-0.26849 0.384157,-0.42959 0.239582,-0.16111 0.536995,-0.24372 0.218924,-0.0579 0.660913,-0.11153 0.900503,-0.1074 1.325966,-0.25611 0.0038,-0.15283 0.0038,-0.19414 0,-0.45438 -0.210661,-0.64026 -0.285029,-0.25197 -0.846803,-0.25197 -0.524601,0 -0.776577,0.18588 -0.247845,0.18175 -0.36764,0.64853 l -0.727008,-0.0991 q 0.09914,-0.46678 0.326325,-0.7518 0.227196,-0.28915 0.656791,-0.44199 0.429594,-0.15697 0.99551,-0.15697 0.561774,0 0.912888,0.13219 0.351114,0.13218 0.516338,0.33459 0.165233,0.19828 0.231328,0.50394 0.03715,0.19003 0.03715,0.68571 v 0.99137 q 0,1.03682 0.04547,1.31358 0.04954,0.27263 0.190013,0.5246 h -0.776577 q -0.115664,-0.23132 -0.148706,-0.54112 z m -0.06193,-1.66056 q -0.404805,0.16523 -1.214434,0.28089 -0.458505,0.0661 -0.648528,0.14871 -0.190012,0.0826 -0.293282,0.24371 -0.103259,0.15697 -0.103259,0.35112 0,0.29741 0.223055,0.49568 0.227187,0.19827 0.660913,0.19827 0.429603,0 0.764191,-0.18588 0.334588,-0.19001 0.491558,-0.51634 0.119786,-0.25197 0.119786,-0.74353 z m 1.887741,2.20168 v -6.05566 h 0.743524 v 6.05566 z m 7.092462,0 v -0.55352 q -0.4172,0.65266 -1.22683,0.65266 -0.5246,0 -0.96659,-0.28916 -0.43786,-0.28915 -0.68157,-0.80548 -0.23958,-0.52047 -0.23958,-1.19379 0,-0.65678 0.21893,-1.18965 0.21893,-0.53699 0.65678,-0.82202 0.43786,-0.28502 0.97899,-0.28502 0.39655,0 0.70636,0.16937 0.3098,0.16522 0.50394,0.43372 v -2.17277 h 0.7394 v 6.05566 z m -2.35039,-2.18929 q 0,0.84267 0.35525,1.25988 0.35524,0.4172 0.83854,0.4172 0.48742,0 0.82614,-0.39655 0.34285,-0.40068 0.34285,-1.21857 0,-0.9005 -0.34698,-1.32183 -0.34698,-0.42133 -0.85506,-0.42133 -0.49568,0 -0.83027,0.4048 -0.33047,0.40482 -0.33047,1.2764 z m 7.21227,0.77658 0.76832,0.095 q -0.18176,0.67331 -0.67332,1.04507 -0.49156,0.37177 -1.25574,0.37177 -0.96246,0 -1.52837,-0.59069 -0.56178,-0.59483 -0.56178,-1.66469 0,-1.10704 0.57004,-1.71838 0.57004,-0.61136 1.47881,-0.61136 0.87984,0 1.43749,0.59896 0.55765,0.59896 0.55765,1.68534 0,0.0661 -0.004,0.19828 h -3.27154 q 0.0413,0.72288 0.40894,1.10703 0.36763,0.38416 0.91702,0.38416 0.40895,0 0.6981,-0.2148 0.28915,-0.21479 0.45851,-0.6857 z m -2.44127,-1.20204 h 2.44953 q -0.0495,-0.55352 -0.28089,-0.83028 -0.35524,-0.42959 -0.92115,-0.42959 -0.51222,0 -0.86333,0.34285 -0.34698,0.34285 -0.38416,0.91702 z m 9.35612,2.07363 q -0.41307,0.3511 -0.79723,0.49569 -0.38002,0.14457 -0.81788,0.14457 -0.72289,0 -1.11118,-0.35111 -0.38828,-0.35525 -0.38828,-0.90464 0,-0.32219 0.14457,-0.58656 0.14871,-0.26849 0.38416,-0.42959 0.23959,-0.16111 0.53699,-0.24372 0.21894,-0.0579 0.66093,-0.11153 0.9005,-0.1074 1.32596,-0.25611 0.004,-0.15283 0.004,-0.19414 0,-0.45438 -0.21067,-0.64026 -0.28502,-0.25197 -0.8468,-0.25197 -0.5246,0 -0.77658,0.18588 -0.24784,0.18175 -0.36763,0.64853 l -0.72701,-0.0991 q 0.0991,-0.46678 0.32633,-0.7518 0.22719,-0.28915 0.65679,-0.44199 0.42959,-0.15697 0.9955,-0.15697 0.56178,0 0.9129,0.13219 0.3511,0.13218 0.51634,0.33459 0.16523,0.19828 0.23131,0.50394 0.0372,0.19003 0.0372,0.68571 v 0.99137 q 0,1.03682 0.0455,1.31358 0.0495,0.27263 0.19001,0.5246 h -0.77658 q -0.11566,-0.23132 -0.14871,-0.54112 z m -0.0619,-1.66056 q -0.40482,0.16523 -1.21443,0.28089 -0.45852,0.0661 -0.64853,0.14871 -0.19001,0.0826 -0.29328,0.24371 -0.10327,0.15697 -0.10327,0.35112 0,0.29741 0.22306,0.49568 0.22719,0.19827 0.66091,0.19827 0.4296,0 0.76419,-0.18588 0.33459,-0.19001 0.49155,-0.51634 0.1198,-0.25197 0.1198,-0.74353 z m 1.896,2.20168 v -4.38684 h 0.66919 v 0.66505 q 0.2561,-0.46677 0.4709,-0.61548 0.21893,-0.14871 0.47916,-0.14871 0.3759,0 0.76419,0.23958 l -0.2561,0.68984 q -0.27264,-0.16109 -0.54526,-0.16109 -0.24372,0 -0.43786,0.1487 -0.19414,0.14458 -0.27676,0.40481 -0.12392,0.39655 -0.12392,0.86746 v 2.29668 z m 2.6891,0.3635 0.72288,0.1074 q 0.0455,0.33459 0.25197,0.48743 0.27677,0.20654 0.75593,0.20654 0.51634,0 0.79723,-0.20654 0.28089,-0.20654 0.38003,-0.5783 0.0579,-0.2272 0.0537,-0.9542 -0.48742,0.57417 -1.21444,0.57417 -0.90463,0 -1.40032,-0.65265 -0.49569,-0.65266 -0.49569,-1.56555 0,-0.62787 0.2272,-1.1566 0.22719,-0.53288 0.65678,-0.82203 0.43373,-0.28915 1.01616,-0.28915 0.77658,0 1.28053,0.62787 v -0.52873 h 0.6857 v 3.79202 q 0,1.02442 -0.21067,1.44988 -0.20653,0.4296 -0.66091,0.67744 -0.45025,0.24785 -1.11117,0.24785 -0.78484,0 -1.26813,-0.35525 -0.4833,-0.3511 -0.46678,-1.0616 z m 0.61549,-2.6354 q 0,0.86332 0.34285,1.25987 0.34285,0.39655 0.85918,0.39655 0.51222,0 0.85919,-0.39242 0.34699,-0.39655 0.34699,-1.23921 0,-0.8055 -0.35937,-1.21445 -0.35525,-0.40893 -0.8592,-0.40893 -0.49569,0 -0.84267,0.4048 -0.34697,0.40069 -0.34697,1.19379 z m 7.22878,0.85919 0.76831,0.095 q -0.18175,0.67331 -0.67331,1.04507 -0.49156,0.37177 -1.25574,0.37177 -0.96246,0 -1.52837,-0.59069 -0.56178,-0.59483 -0.56178,-1.66469 0,-1.10704 0.57004,-1.71838 0.57004,-0.61136 1.47881,-0.61136 0.87984,0 1.43749,0.59896 0.55765,0.59896 0.55765,1.68534 0,0.0661 -0.004,0.19828 h -3.27133 q 0.0413,0.72288 0.40893,1.10703 0.36764,0.38416 0.91703,0.38416 0.40894,0 0.69809,-0.2148 0.28916,-0.21479 0.45851,-0.6857 z m -2.44127,-1.20204 h 2.44953 q -0.0495,-0.55352 -0.28089,-0.83028 -0.35524,-0.42959 -0.92116,-0.42959 -0.51221,0 -0.86332,0.34285 -0.34698,0.34285 -0.38416,0.91702 z m 4.14313,2.61475 v -4.38684 h 0.66918 v 0.62375 q 0.4833,-0.72289 1.39618,-0.72289 0.39656,0 0.72701,0.14458 0.3346,0.14044 0.49982,0.37177 0.16524,0.23132 0.23133,0.54938 0.0413,0.20654 0.0413,0.72289 v 2.69736 h -0.74354 v -2.66845 q 0,-0.45439 -0.0868,-0.67744 -0.0868,-0.22719 -0.30981,-0.35938 -0.21893,-0.13631 -0.51633,-0.13631 -0.47505,0 -0.82203,0.30154 -0.34285,0.30155 -0.34285,1.14422 v 2.39582 z m 6.32828,-0.66505 0.1074,0.65679 q -0.31393,0.0661 -0.56177,0.0661 -0.40482,0 -0.62787,-0.12805 -0.22307,-0.12805 -0.31394,-0.33459 -0.0909,-0.21067 -0.0909,-0.87985 v -2.52388 h -0.54505 v -0.5783 h 0.54526 v -1.08638 l 0.7394,-0.44612 v 1.5325 h 0.74766 v 0.5783 h -0.74766 v 2.56519 q 0,0.31806 0.0372,0.40895 0.0413,0.0908 0.12805,0.14457 0.0908,0.0537 0.2561,0.0537 0.12393,0 0.32633,-0.0289 z m 0.73115,-4.53554 v -0.85507 h 0.74353 v 0.85507 z m 0,5.20059 v -4.38684 h 0.74353 v 4.38684 z m 1.87535,0 v -4.38684 h 0.66917 v 0.62375 q 0.48331,-0.72289 1.3962,-0.72289 0.39655,0 0.727,0.14458 0.33459,0.14044 0.49982,0.37177 0.16523,0.23132 0.23132,0.54938 0.0413,0.20654 0.0413,0.72289 v 2.69736 h -0.74354 v -2.66845 q 0,-0.45439 -0.0867,-0.67744 -0.0867,-0.22719 -0.3098,-0.35938 -0.21893,-0.13631 -0.51635,-0.13631 -0.47503,0 -0.82201,0.30154 -0.34285,0.30155 -0.34285,1.14422 v 2.39582 z m 7.56751,-0.54112 q -0.41308,0.3511 -0.79724,0.49569 -0.38002,0.14457 -0.81788,0.14457 -0.72289,0 -1.11117,-0.35111 -0.38829,-0.35525 -0.38829,-0.90464 0,-0.32219 0.14457,-0.58656 0.14871,-0.26849 0.38417,-0.42959 0.23958,-0.16111 0.53699,-0.24372 0.21893,-0.0579 0.66092,-0.11153 0.9005,-0.1074 1.32596,-0.25611 0.004,-0.15283 0.004,-0.19414 0,-0.45438 -0.21067,-0.64026 -0.28502,-0.25197 -0.8468,-0.25197 -0.5246,0 -0.77658,0.18588 -0.24784,0.18175 -0.36763,0.64853 l -0.727,-0.0991 q 0.0991,-0.46678 0.32632,-0.7518 0.22719,-0.28915 0.65679,-0.44199 0.4296,-0.15697 0.9955,-0.15697 0.56179,0 0.9129,0.13219 0.3511,0.13218 0.51634,0.33459 0.16523,0.19828 0.23132,0.50394 0.0371,0.19003 0.0371,0.68571 v 0.99137 q 0,1.03682 0.0455,1.31358 0.0495,0.27263 0.19001,0.5246 h -0.77658 q -0.11566,-0.23132 -0.1487,-0.54112 z m -0.0619,-1.66056 q -0.40481,0.16523 -1.21443,0.28089 -0.45852,0.0661 -0.64853,0.14871 -0.19001,0.0826 -0.29328,0.24371 -0.10327,0.15697 -0.10327,0.35112 0,0.29741 0.22306,0.49568 0.22719,0.19827 0.66091,0.19827 0.4296,0 0.76419,-0.18588 0.33459,-0.19001 0.49155,-0.51634 0.1198,-0.25197 0.1198,-0.74353 z"
         id="text2"
         aria-label="bienal internacional de poesía experimental de argentina" />
    </g>
  </g>
</svg>
