<?xml version="1.0" encoding="UTF-8" standalone="no"?>
<!-- Created with Inkscape (http://www.inkscape.org/) -->

<svg
   width="158.75mm"
   height="90.845383mm"
   viewBox="0 0 158.75 90.845383"
   version="1.1"
   id="svg8"
   inkscape:version="1.3.2 (1:1.3.2+202311252150+091e20ef0f)"
   sodipodi:docname="logo-hotel_dada.svg"
   xml:space="preserve"
   xmlns:inkscape="http://www.inkscape.org/namespaces/inkscape"
   xmlns:sodipodi="http://sodipodi.sourceforge.net/DTD/sodipodi-0.dtd"
   xmlns="http://www.w3.org/2000/svg"
   xmlns:svg="http://www.w3.org/2000/svg"
   xmlns:rdf="http://www.w3.org/1999/02/22-rdf-syntax-ns#"
   xmlns:cc="http://creativecommons.org/ns#"
   xmlns:dc="http://purl.org/dc/elements/1.1/"><defs
     id="defs2"><clipPath
       clipPathUnits="userSpaceOnUse"
       id="clipPath88"><path
         d="M 0,595.276 H 841.89 V 0 H 0 Z"
         transform="translate(-605.41742,-400.92681)"
         id="path88" /></clipPath><clipPath
       clipPathUnits="userSpaceOnUse"
       id="clipPath86"><path
         d="M 0,595.276 H 841.89 V 0 H 0 Z"
         transform="translate(-128.2012,-265.9649)"
         id="path86" /></clipPath><clipPath
       clipPathUnits="userSpaceOnUse"
       id="clipPath84"><path
         d="M 0,595.276 H 841.89 V 0 H 0 Z"
         transform="translate(-488.17351,-265.9649)"
         id="path84" /></clipPath><clipPath
       clipPathUnits="userSpaceOnUse"
       id="clipPath82"><path
         d="M 0,595.276 H 841.89 V 0 H 0 Z"
         transform="translate(-323.99551,-230.48551)"
         id="path82" /></clipPath><clipPath
       clipPathUnits="userSpaceOnUse"
       id="clipPath80"><path
         d="M 0,595.276 H 841.89 V 0 H 0 Z"
         transform="translate(-325.93601,-405.45401)"
         id="path80" /></clipPath><clipPath
       clipPathUnits="userSpaceOnUse"
       id="clipPath78"><path
         d="M 0,595.276 H 841.89 V 0 H 0 Z"
         transform="translate(-675.87962,-217.8719)"
         id="path78" /></clipPath><clipPath
       clipPathUnits="userSpaceOnUse"
       id="clipPath76"><path
         d="M 0,595.276 H 841.89 V 0 H 0 Z"
         id="path76" /></clipPath><clipPath
       clipPathUnits="userSpaceOnUse"
       id="clipPath74"><path
         d="M 0,595.276 H 841.89 V 0 H 0 Z"
         transform="translate(-485.70991,-444.26501)"
         id="path74" /></clipPath><clipPath
       clipPathUnits="userSpaceOnUse"
       id="clipPath72"><path
         d="M 0,595.276 H 841.89 V 0 H 0 Z"
         transform="translate(-65.255702,-487.60421)"
         id="path72" /></clipPath><clipPath
       clipPathUnits="userSpaceOnUse"
       id="clipPath70"><path
         d="M 0,595.276 H 841.89 V 0 H 0 Z"
         id="path70" /></clipPath><clipPath
       clipPathUnits="userSpaceOnUse"
       id="clipPath68"><path
         d="M 0,595.276 H 841.89 V 0 H 0 Z"
         transform="translate(-764.41494,-110.6182)"
         id="path68" /></clipPath><clipPath
       clipPathUnits="userSpaceOnUse"
       id="clipPath66"><path
         d="M 0,595.276 H 841.89 V 0 H 0 Z"
         transform="translate(-753.30204,-110.0723)"
         id="path66" /></clipPath><clipPath
       clipPathUnits="userSpaceOnUse"
       id="clipPath64"><path
         d="M 0,595.276 H 841.89 V 0 H 0 Z"
         transform="translate(-725.70032,-96.169902)"
         id="path64" /></clipPath><clipPath
       clipPathUnits="userSpaceOnUse"
       id="clipPath62"><path
         d="M 0,595.276 H 841.89 V 0 H 0 Z"
         transform="translate(-708.49392,-107.38381)"
         id="path62" /></clipPath><clipPath
       clipPathUnits="userSpaceOnUse"
       id="clipPath60"><path
         d="M 0,595.276 H 841.89 V 0 H 0 Z"
         transform="translate(-675.64222,-96.169902)"
         id="path60" /></clipPath><clipPath
       clipPathUnits="userSpaceOnUse"
       id="clipPath58"><path
         d="M 0,595.276 H 841.89 V 0 H 0 Z"
         id="path58" /></clipPath><clipPath
       clipPathUnits="userSpaceOnUse"
       id="clipPath56"><path
         d="M 0,595.276 H 841.89 V 0 H 0 Z"
         transform="translate(-651.79031,-96.169902)"
         id="path56" /></clipPath><clipPath
       clipPathUnits="userSpaceOnUse"
       id="clipPath54"><path
         d="M 0,595.276 H 841.89 V 0 H 0 Z"
         transform="translate(-634.76062,-107.38381)"
         id="path54" /></clipPath><clipPath
       clipPathUnits="userSpaceOnUse"
       id="clipPath52"><path
         d="M 0,595.276 H 841.89 V 0 H 0 Z"
         transform="translate(-617.84681,-110.6182)"
         id="path52" /></clipPath><clipPath
       clipPathUnits="userSpaceOnUse"
       id="clipPath50"><path
         d="M 0,595.276 H 841.89 V 0 H 0 Z"
         transform="translate(-585.79211,-96.169902)"
         id="path50" /></clipPath><clipPath
       clipPathUnits="userSpaceOnUse"
       id="clipPath48"><path
         d="M 0,595.276 H 841.89 V 0 H 0 Z"
         transform="translate(-570.64781,-107.38381)"
         id="path48" /></clipPath><clipPath
       clipPathUnits="userSpaceOnUse"
       id="clipPath46"><path
         d="M 0,595.276 H 841.89 V 0 H 0 Z"
         transform="translate(-541.57981,-110.6182)"
         id="path46" /></clipPath><clipPath
       clipPathUnits="userSpaceOnUse"
       id="clipPath44"><path
         d="M 0,595.276 H 841.89 V 0 H 0 Z"
         transform="translate(-529.00462,-124.41901)"
         id="path44" /></clipPath><clipPath
       clipPathUnits="userSpaceOnUse"
       id="clipPath42"><path
         d="M 0,595.276 H 841.89 V 0 H 0 Z"
         transform="translate(-519.36851,-111.20611)"
         id="path42" /></clipPath><clipPath
       clipPathUnits="userSpaceOnUse"
       id="clipPath40"><path
         d="M 0,595.276 H 841.89 V 0 H 0 Z"
         transform="translate(-492.10171,-107.38381)"
         id="path40" /></clipPath><clipPath
       clipPathUnits="userSpaceOnUse"
       id="clipPath38"><path
         d="M 0,595.276 H 841.89 V 0 H 0 Z"
         transform="translate(-470.75421,-100.85251)"
         id="path38" /></clipPath><clipPath
       clipPathUnits="userSpaceOnUse"
       id="clipPath36"><path
         d="M 0,595.276 H 841.89 V 0 H 0 Z"
         transform="translate(-452.57221,-110.6182)"
         id="path36" /></clipPath><clipPath
       clipPathUnits="userSpaceOnUse"
       id="clipPath34"><path
         d="M 0,595.276 H 841.89 V 0 H 0 Z"
         transform="translate(-410.02981,-86.622305)"
         id="path34" /></clipPath><clipPath
       clipPathUnits="userSpaceOnUse"
       id="clipPath32"><path
         d="M 0,595.276 H 841.89 V 0 H 0 Z"
         transform="translate(-382.91241,-100.85251)"
         id="path32" /></clipPath><clipPath
       clipPathUnits="userSpaceOnUse"
       id="clipPath30"><path
         d="M 0,595.276 H 841.89 V 0 H 0 Z"
         transform="translate(-361.02961,-107.38381)"
         id="path30" /></clipPath><clipPath
       clipPathUnits="userSpaceOnUse"
       id="clipPath28"><path
         d="M 0,595.276 H 841.89 V 0 H 0 Z"
         transform="translate(-343.60891,-96.169902)"
         id="path28" /></clipPath><clipPath
       clipPathUnits="userSpaceOnUse"
       id="clipPath26"><path
         d="M 0,595.276 H 841.89 V 0 H 0 Z"
         transform="translate(-329.16161,-95.956505)"
         id="path26" /></clipPath><clipPath
       clipPathUnits="userSpaceOnUse"
       id="clipPath24"><path
         d="M 0,595.276 H 841.89 V 0 H 0 Z"
         transform="translate(-311.80691,-100.85251)"
         id="path24" /></clipPath><clipPath
       clipPathUnits="userSpaceOnUse"
       id="clipPath22"><path
         d="M 0,595.276 H 841.89 V 0 H 0 Z"
         transform="translate(-302.65071,-113.0537)"
         id="path22" /></clipPath><clipPath
       clipPathUnits="userSpaceOnUse"
       id="clipPath20"><path
         d="M 0,595.276 H 841.89 V 0 H 0 Z"
         transform="translate(-260.36211,-107.38381)"
         id="path20" /></clipPath><clipPath
       clipPathUnits="userSpaceOnUse"
       id="clipPath18"><path
         d="M 0,595.276 H 841.89 V 0 H 0 Z"
         transform="translate(-253.79971,-110.0723)"
         id="path18" /></clipPath><clipPath
       clipPathUnits="userSpaceOnUse"
       id="clipPath16"><path
         d="M 0,595.276 H 841.89 V 0 H 0 Z"
         transform="translate(-230.9671,-96.169902)"
         id="path16" /></clipPath><clipPath
       clipPathUnits="userSpaceOnUse"
       id="clipPath14"><path
         d="M 0,595.276 H 841.89 V 0 H 0 Z"
         transform="translate(-218.52331,-110.6182)"
         id="path14" /></clipPath><clipPath
       clipPathUnits="userSpaceOnUse"
       id="clipPath12"><path
         d="M 0,595.276 H 841.89 V 0 H 0 Z"
         transform="translate(-181.73661,-107.38381)"
         id="path12" /></clipPath><clipPath
       clipPathUnits="userSpaceOnUse"
       id="clipPath10"><path
         d="M 0,595.276 H 841.89 V 0 H 0 Z"
         transform="translate(-163.5921,-110.6182)"
         id="path10" /></clipPath><clipPath
       clipPathUnits="userSpaceOnUse"
       id="clipPath8"><path
         d="M 0,595.276 H 841.89 V 0 H 0 Z"
         transform="translate(-127.0878,-107.38381)"
         id="path8-3" /></clipPath><clipPath
       clipPathUnits="userSpaceOnUse"
       id="clipPath6"><path
         d="M 0,595.276 H 841.89 V 0 H 0 Z"
         transform="translate(-118.6884,-111.20611)"
         id="path6-6" /></clipPath><clipPath
       clipPathUnits="userSpaceOnUse"
       id="clipPath4"><path
         d="M 0,595.276 H 841.89 V 0 H 0 Z"
         transform="translate(-94.1683,-110.6182)"
         id="path4-7" /></clipPath><clipPath
       clipPathUnits="userSpaceOnUse"
       id="clipPath2"><path
         d="M 0,595.276 H 841.89 V 0 H 0 Z"
         transform="translate(-72.075502,-110.6182)"
         id="path2-5" /></clipPath></defs><sodipodi:namedview
     id="base"
     pagecolor="#d2d2d2"
     bordercolor="#666666"
     borderopacity="1.0"
     inkscape:pageopacity="0"
     inkscape:pageshadow="2"
     inkscape:zoom="0.39375"
     inkscape:cx="-81.051971"
     inkscape:cy="558.86667"
     inkscape:document-units="mm"
     inkscape:current-layer="layer1"
     showgrid="false"
     inkscape:window-width="1366"
     inkscape:window-height="741"
     inkscape:window-x="0"
     inkscape:window-y="0"
     inkscape:window-maximized="1"
     inkscape:showpageshadow="2"
     inkscape:pagecheckerboard="0"
     inkscape:deskcolor="#d1d1d1" /><metadata
     id="metadata5"><rdf:RDF><cc:Work
         rdf:about=""><dc:format>image/svg+xml</dc:format><dc:type
           rdf:resource="http://purl.org/dc/dcmitype/StillImage" /><dc:title /></cc:Work></rdf:RDF></metadata><g
     inkscape:label="Capa 1"
     inkscape:groupmode="layer"
     id="layer1"
     transform="translate(488.74417,-77.229339)"><path
       id="path1-3"
       d="m -486.79056,162.76881 c -0.30866,0 -0.56948,0.1098 -0.78246,0.32873 -0.21298,0.21915 -0.31946,0.52957 -0.31946,0.93062 0,0.38913 0.10648,0.69162 0.31946,0.90746 0.21298,0.21628 0.4738,0.3241 0.78246,0.3241 0.321,0 0.58204,-0.12038 0.78268,-0.36114 0.20041,-0.24075 0.30072,-0.53398 0.30072,-0.87968 0,-0.35188 -0.10031,-0.6482 -0.30072,-0.88873 -0.20064,-0.24098 -0.46168,-0.36136 -0.78268,-0.36136 m -1.04615,-3.56504 v 3.30577 c 0.28375,-0.37018 0.66958,-0.55537 1.15749,-0.55537 0.53068,0 0.97978,0.18652 1.34708,0.56022 0.36731,0.37348 0.55097,0.86888 0.55097,1.48599 0,0.56815 -0.17109,1.05562 -0.51393,1.46327 -0.34261,0.40722 -0.80097,0.61094 -1.37486,0.61094 -0.47556,0 -0.86448,-0.17594 -1.16675,-0.5276 v 0.40722 h -0.90746 v -6.75044 z"
       style="fill:#000000;fill-opacity:1;fill-rule:nonzero;stroke:none;stroke-width:0.220473"
       clip-path="none" /><path
       id="path3-5"
       d="m -481.9197,162.76881 c -0.321,0 -0.58204,0.12038 -0.78246,0.36136 -0.20063,0.24053 -0.30094,0.53685 -0.30094,0.88873 0,0.3457 0.10031,0.63893 0.30094,0.87968 0.20042,0.24076 0.46146,0.36114 0.78246,0.36114 0.30845,0 0.56948,-0.10782 0.78246,-0.3241 0.21298,-0.21584 0.31946,-0.51833 0.31946,-0.90746 0,-0.40105 -0.10648,-0.71147 -0.31946,-0.93062 -0.21298,-0.21893 -0.47401,-0.32873 -0.78246,-0.32873 m 1.04637,-0.25927 v -0.45351 h 0.90724 v 3.89818 h -0.90724 v -0.40722 c -0.30249,0.35166 -0.69163,0.5276 -1.16675,0.5276 -0.57411,0 -1.03247,-0.20372 -1.37508,-0.61094 -0.34262,-0.40765 -0.51393,-0.89512 -0.51393,-1.46327 0,-0.61711 0.18366,-1.11251 0.55097,-1.48599 0.3673,-0.3737 0.81619,-0.56022 1.3473,-0.56022 0.48747,0 0.87352,0.18519 1.15749,0.55537"
       style="fill:#000000;fill-opacity:1;fill-rule:nonzero;stroke:none;stroke-width:0.220473"
       clip-path="none" /><path
       id="path5-6"
       d="m -476.51368,162.6392 -0.67574,0.44469 c -0.13604,-0.22246 -0.32102,-0.33357 -0.55582,-0.33357 -0.11729,0 -0.20989,0.0339 -0.2778,0.10185 -0.0556,0.0556 -0.0833,0.12347 -0.0833,0.20372 0,0.0928 0.0433,0.16668 0.12965,0.22224 0.0185,0.0124 0.0371,0.0231 0.0556,0.0324 0.0185,0.009 0.0525,0.0264 0.10185,0.0509 0.0494,0.0249 0.0985,0.0496 0.14816,0.0741 l 0.46321,0.2315 c 0.25906,0.12964 0.44117,0.25002 0.54611,0.36114 0.19137,0.19137 0.28706,0.43235 0.28706,0.72227 0,0.34592 -0.1142,0.64201 -0.34262,0.88894 -0.26544,0.29037 -0.62945,0.43522 -1.09266,0.43522 -0.3457,0 -0.62658,-0.0833 -0.84265,-0.25002 -0.2348,-0.17263 -0.40126,-0.41052 -0.50003,-0.71301 l 0.74101,-0.35187 c 0.0615,0.17924 0.13251,0.30249 0.21276,0.37039 0.0988,0.0988 0.23149,0.14816 0.39817,0.14816 0.16051,0 0.28397,-0.0432 0.37062,-0.12964 0.0862,-0.0864 0.12964,-0.18829 0.12964,-0.30557 0,-0.11112 -0.0404,-0.20968 -0.12038,-0.29632 -0.0866,-0.0862 -0.21629,-0.16668 -0.38914,-0.24054 l -0.33335,-0.15763 c -0.25906,-0.12347 -0.43831,-0.23459 -0.53707,-0.33336 -0.1852,-0.17902 -0.2778,-0.39817 -0.2778,-0.65723 0,-0.3274 0.10803,-0.6052 0.32409,-0.83361 0.23459,-0.24693 0.55251,-0.37017 0.95377,-0.37017 0.27802,0 0.51878,0.0677 0.72227,0.20349 0.18519,0.11752 0.33335,0.2778 0.44447,0.48152"
       style="fill:#000000;fill-opacity:1;fill-rule:nonzero;stroke:none;stroke-width:0.220473"
       clip-path="none" /><path
       id="path7-2"
       d="m -474.66184,163.48191 h 1.80568 c -0.0371,-0.21584 -0.12942,-0.392 -0.27758,-0.52803 -0.16072,-0.14794 -0.36444,-0.22202 -0.61137,-0.22202 -0.25928,0 -0.47204,0.0833 -0.63871,0.2498 -0.13581,0.12368 -0.22841,0.29036 -0.27802,0.50025 m 1.94457,1.15748 0.75953,0.42596 c -0.17307,0.30866 -0.39222,0.54633 -0.65767,0.713 -0.30249,0.19755 -0.68501,0.29632 -1.14822,0.29632 -0.54325,0 -0.98155,-0.16667 -1.3149,-0.50003 -0.38274,-0.38275 -0.57389,-0.87969 -0.57389,-1.49106 0,-0.6418 0.20658,-1.17578 0.62019,-1.60174 0.35187,-0.35187 0.7873,-0.52781 1.30564,-0.52781 0.5062,0 0.9229,0.16977 1.25008,0.5093 0.36422,0.37656 0.54655,0.92598 0.54655,1.64803 v 0.11134 h -2.7967 c 0.0247,0.3274 0.13581,0.58954 0.33358,0.78709 0.16668,0.16667 0.39795,0.24979 0.69427,0.24979 0.24076,0 0.44756,-0.0646 0.62063,-0.19423 0.14176,-0.11112 0.26214,-0.25311 0.36091,-0.42596"
       style="fill:#000000;fill-opacity:1;fill-rule:nonzero;stroke:none;stroke-width:0.220473"
       clip-path="none" /><path
       id="path9-9"
       d="m -466.61363,162.76881 c -0.321,0 -0.58182,0.12038 -0.78246,0.36136 -0.20063,0.24053 -0.30094,0.53685 -0.30094,0.88873 0,0.3457 0.10031,0.63893 0.30094,0.87968 0.20064,0.24076 0.46146,0.36114 0.78246,0.36114 0.30867,0 0.56948,-0.10782 0.78246,-0.3241 0.2132,-0.21584 0.31947,-0.51833 0.31947,-0.90746 0,-0.40105 -0.10627,-0.71147 -0.31947,-0.93062 -0.21298,-0.21893 -0.47379,-0.32873 -0.78246,-0.32873 m 1.04637,-0.25927 v -3.30577 h 0.90747 v 6.75044 h -0.90747 v -0.40722 c -0.30249,0.35166 -0.69141,0.5276 -1.16675,0.5276 -0.57389,0 -1.03247,-0.20372 -1.37486,-0.61094 -0.34284,-0.40765 -0.51392,-0.89512 -0.51392,-1.46327 0,-0.61711 0.18343,-1.11251 0.55096,-1.48599 0.36708,-0.3737 0.81619,-0.56022 1.34709,-0.56022 0.48768,0 0.87351,0.18519 1.15748,0.55537"
       style="fill:#000000;fill-opacity:1;fill-rule:nonzero;stroke:none;stroke-width:0.220473"
       clip-path="none" /><path
       id="path11"
       d="m -462.61326,163.48191 h 1.80546 c -0.0371,-0.21584 -0.12942,-0.392 -0.27758,-0.52803 -0.16073,-0.14794 -0.36444,-0.22202 -0.61115,-0.22202 -0.2595,0 -0.47226,0.0833 -0.63893,0.2498 -0.13581,0.12368 -0.22841,0.29036 -0.2778,0.50025 m 1.94457,1.15748 0.75931,0.42596 c -0.17307,0.30866 -0.39222,0.54633 -0.65745,0.713 -0.30249,0.19755 -0.68523,0.29632 -1.14822,0.29632 -0.54347,0 -0.98155,-0.16667 -1.3149,-0.50003 -0.38296,-0.38275 -0.57411,-0.87969 -0.57411,-1.49106 0,-0.6418 0.20658,-1.17578 0.6204,-1.60174 0.35188,-0.35187 0.7871,-0.52781 1.30565,-0.52781 0.50598,0 0.9229,0.16977 1.25008,0.5093 0.364,0.37656 0.54633,0.92598 0.54633,1.64803 v 0.11134 h -2.79648 c 0.0245,0.3274 0.13559,0.58954 0.33336,0.78709 0.16667,0.16667 0.39817,0.24979 0.69448,0.24979 0.24077,0 0.44735,-0.0646 0.62042,-0.19423 0.14198,-0.11112 0.26236,-0.25311 0.36113,-0.42596"
       style="fill:#000000;fill-opacity:1;fill-rule:nonzero;stroke:none;stroke-width:0.220473"
       clip-path="none" /><path
       id="path13"
       d="m -454.50279,162.76881 c -0.321,0 -0.58204,0.12038 -0.78246,0.36136 -0.20063,0.24053 -0.30094,0.53685 -0.30094,0.88873 0,0.3457 0.10031,0.63893 0.30094,0.87968 0.20042,0.24076 0.46146,0.36114 0.78246,0.36114 0.30845,0 0.56948,-0.10782 0.78246,-0.3241 0.21298,-0.21584 0.31946,-0.51833 0.31946,-0.90746 0,-0.40105 -0.10648,-0.71147 -0.31946,-0.93062 -0.21298,-0.21893 -0.47401,-0.32873 -0.78246,-0.32873 m 1.04636,-0.25927 v -0.45351 h 0.90725 v 3.89818 h -0.90725 v -0.40722 c -0.30248,0.35166 -0.69162,0.5276 -1.16674,0.5276 -0.57411,0 -1.03247,-0.20372 -1.37508,-0.61094 -0.34262,-0.40765 -0.51393,-0.89512 -0.51393,-1.46327 0,-0.61711 0.18366,-1.11251 0.55097,-1.48599 0.3673,-0.3737 0.81619,-0.56022 1.3473,-0.56022 0.48747,0 0.87352,0.18519 1.15748,0.55537"
       style="fill:#000000;fill-opacity:1;fill-rule:nonzero;stroke:none;stroke-width:0.220473"
       clip-path="none" /><path
       id="path15"
       d="m -451.75926,165.95427 v -3.8984 h 0.90746 v 0.35188 c 0.11707,-0.13559 0.24385,-0.24362 0.37966,-0.3241 0.14815,-0.0864 0.33357,-0.12964 0.55559,-0.12964 0.26545,0 0.50312,0.0617 0.71301,0.1852 l -0.3704,0.82413 c -0.14815,-0.0926 -0.30249,-0.1389 -0.46299,-0.1389 -0.24054,0 -0.42904,0.071 -0.56485,0.21298 -0.16668,0.17902 -0.25002,0.47842 -0.25002,0.89821 v 2.01864 z"
       style="fill:#000000;fill-opacity:1;fill-rule:nonzero;stroke:none;stroke-width:0.220473"
       clip-path="none" /><path
       id="path17"
       d="m -446.7253,162.88917 h -0.69449 v 3.06502 h -0.90769 v -3.06502 h -0.37943 V 162.056 h 0.37943 v -1.42624 h 0.90769 v 1.42624 h 0.69449 z"
       style="fill:#000000;fill-opacity:1;fill-rule:nonzero;stroke:none;stroke-width:0.220473"
       clip-path="none" /><path
       id="path19"
       d="m -445.27846,163.48191 h 1.80567 c -0.0371,-0.21584 -0.12942,-0.392 -0.27758,-0.52803 -0.16072,-0.14794 -0.36444,-0.22202 -0.61137,-0.22202 -0.25928,0 -0.47203,0.0833 -0.63871,0.2498 -0.13581,0.12368 -0.22841,0.29036 -0.27801,0.50025 m 1.94457,1.15748 0.75953,0.42596 c -0.17308,0.30866 -0.39222,0.54633 -0.65768,0.713 -0.30249,0.19755 -0.68501,0.29632 -1.14822,0.29632 -0.54324,0 -0.98154,-0.16667 -1.3149,-0.50003 -0.38274,-0.38275 -0.57389,-0.87969 -0.57389,-1.49106 0,-0.6418 0.20658,-1.17578 0.62019,-1.60174 0.35188,-0.35187 0.78731,-0.52781 1.30564,-0.52781 0.50621,0 0.9229,0.16977 1.25008,0.5093 0.36422,0.37656 0.54656,0.92598 0.54656,1.64803 v 0.11134 h -2.79671 c 0.0247,0.3274 0.13581,0.58954 0.33358,0.78709 0.16668,0.16667 0.39796,0.24979 0.69427,0.24979 0.24076,0 0.44756,-0.0646 0.62063,-0.19423 0.14177,-0.11112 0.26215,-0.25311 0.36092,-0.42596"
       style="fill:#000000;fill-opacity:1;fill-rule:nonzero;stroke:none;stroke-width:0.220473"
       clip-path="none" /><path
       id="path21"
       d="m -435.95497,162.23185 v 1.01859 c -0.32718,-0.32101 -0.69427,-0.48151 -1.10192,-0.48151 -0.34571,0 -0.63277,0.1142 -0.86095,0.34261 -0.22246,0.22223 -0.33358,0.52164 -0.33358,0.89799 0,0.38913 0.11729,0.70088 0.35209,0.93546 0.22202,0.20989 0.49673,0.31462 0.82391,0.31462 0.45065,0 0.82413,-0.16646 1.12045,-0.49981 v 1.00932 c -0.32718,0.20372 -0.72205,0.30558 -1.18526,0.30558 -0.6235,0 -1.11736,-0.19137 -1.48158,-0.57412 -0.37017,-0.38274 -0.55538,-0.87042 -0.55538,-1.46327 0,-0.61093 0.19733,-1.11405 0.59242,-1.50914 0.38296,-0.38274 0.90438,-0.57411 1.56491,-0.57411 0.37657,0 0.73153,0.0926 1.06489,0.27779"
       style="fill:#000000;fill-opacity:1;fill-rule:nonzero;stroke:none;stroke-width:0.220473"
       clip-path="none" /><path
       id="path23"
       d="m -433.93628,164.92189 c 0.20989,0.22532 0.49099,0.33776 0.84265,0.33776 0.35187,0 0.63275,-0.11244 0.84287,-0.33776 0.20967,-0.22533 0.31461,-0.52627 0.31461,-0.90306 0,-0.41339 -0.11266,-0.72513 -0.33799,-0.93503 -0.22532,-0.20989 -0.4987,-0.31505 -0.81949,-0.31505 -0.32101,0 -0.59418,0.10516 -0.8195,0.31505 -0.22533,0.2099 -0.33799,0.52164 -0.33799,0.93503 0,0.37679 0.10495,0.67773 0.31484,0.90306 m -0.64356,-2.38905 c 0.39817,-0.38583 0.89358,-0.57874 1.48621,-0.57874 0.59263,0 1.08803,0.19291 1.4862,0.57874 0.39818,0.38583 0.59727,0.87814 0.59727,1.47673 0,0.59285 -0.19909,1.08517 -0.59727,1.47717 -0.39817,0.392 -0.89357,0.588 -1.4862,0.588 -0.59263,0 -1.08804,-0.196 -1.48621,-0.588 -0.39817,-0.392 -0.59726,-0.88432 -0.59726,-1.47717 0,-0.59859 0.19909,-1.0909 0.59726,-1.47673"
       style="fill:#000000;fill-opacity:1;fill-rule:nonzero;stroke:none;stroke-width:0.220473"
       clip-path="none" /><path
       id="path25"
       d="m -430.11004,166.00132 v -3.8984 h 0.90747 v 0.35188 c 0.11707,-0.1356 0.24385,-0.24363 0.37966,-0.3241 0.14815,-0.0864 0.33335,-0.12964 0.55536,-0.12964 0.26568,0 0.50335,0.0618 0.71324,0.1852 l -0.3704,0.82413 c -0.14815,-0.0926 -0.30271,-0.1389 -0.46299,-0.1389 -0.24075,0 -0.42926,0.071 -0.56485,0.21297 -0.16668,0.17903 -0.25002,0.47843 -0.25002,0.89821 v 2.01865 z"
       style="fill:#000000;fill-opacity:1;fill-rule:nonzero;stroke:none;stroke-width:0.220473"
       clip-path="none" /><path
       id="path27"
       d="m -426.9248,165.95427 v -3.8984 h 0.90746 v 0.35188 c 0.11708,-0.13559 0.24385,-0.24362 0.37966,-0.3241 0.14816,-0.0864 0.33336,-0.12964 0.55537,-0.12964 0.26567,0 0.50334,0.0617 0.71323,0.1852 l -0.3704,0.82413 c -0.14815,-0.0926 -0.3027,-0.1389 -0.46299,-0.1389 -0.24075,0 -0.42926,0.071 -0.56485,0.21298 -0.16668,0.17902 -0.25002,0.47842 -0.25002,0.89821 v 2.01864 z"
       style="fill:#000000;fill-opacity:1;fill-rule:nonzero;stroke:none;stroke-width:0.220473"
       clip-path="none" /><path
       id="path29"
       d="m -423.08401,163.48191 h 1.80568 c -0.0371,-0.21584 -0.12942,-0.392 -0.27758,-0.52803 -0.16072,-0.14794 -0.36444,-0.22202 -0.61137,-0.22202 -0.25928,0 -0.47203,0.0833 -0.63871,0.2498 -0.13581,0.12368 -0.22841,0.29036 -0.27802,0.50025 m 1.94458,1.15748 0.75953,0.42596 c -0.17308,0.30866 -0.39223,0.54633 -0.65768,0.713 -0.30249,0.19755 -0.68501,0.29632 -1.14822,0.29632 -0.54325,0 -0.98154,-0.16667 -1.3149,-0.50003 -0.38274,-0.38275 -0.57389,-0.87969 -0.57389,-1.49106 0,-0.6418 0.20658,-1.17578 0.62019,-1.60174 0.35188,-0.35187 0.78731,-0.52781 1.30564,-0.52781 0.50621,0 0.9229,0.16977 1.25008,0.5093 0.36422,0.37656 0.54655,0.92598 0.54655,1.64803 v 0.11134 h -2.7967 c 0.0247,0.3274 0.13581,0.58954 0.33358,0.78709 0.16668,0.16667 0.39795,0.24979 0.69427,0.24979 0.24076,0 0.44756,-0.0646 0.62063,-0.19423 0.14177,-0.11112 0.26215,-0.25311 0.36092,-0.42596"
       style="fill:#000000;fill-opacity:1;fill-rule:nonzero;stroke:none;stroke-width:0.220473"
       clip-path="none" /><path
       id="path31"
       d="m -418.25944,164.92189 c 0.20966,0.22532 0.49077,0.33776 0.84242,0.33776 0.3521,0 0.63276,-0.11244 0.84287,-0.33776 0.20967,-0.22533 0.31462,-0.52627 0.31462,-0.90306 0,-0.41339 -0.11245,-0.72513 -0.33777,-0.93503 -0.22532,-0.20989 -0.49871,-0.31505 -0.81972,-0.31505 -0.32101,0 -0.59417,0.10516 -0.81949,0.31505 -0.22533,0.2099 -0.33799,0.52164 -0.33799,0.93503 0,0.37679 0.10517,0.67773 0.31506,0.90306 m -0.64357,-2.38905 c 0.39818,-0.38583 0.89358,-0.57874 1.48599,-0.57874 0.59285,0 1.08825,0.19291 1.48643,0.57874 0.39796,0.38583 0.59704,0.87814 0.59704,1.47673 0,0.59285 -0.19908,1.08517 -0.59704,1.47717 -0.39818,0.392 -0.89358,0.588 -1.48643,0.588 -0.59241,0 -1.08781,-0.196 -1.48599,-0.588 -0.39839,-0.392 -0.59725,-0.88432 -0.59725,-1.47717 0,-0.59859 0.19886,-1.0909 0.59725,-1.47673"
       style="fill:#000000;fill-opacity:1;fill-rule:nonzero;stroke:none;stroke-width:0.220473"
       clip-path="none" /><path
       id="path33"
       d="m -412.28079,168.05926 1.43528,-2.73188 -1.66678,-3.28703 h 1.09267 l 1.11118,2.27793 1.12948,-2.27793 h 1.01881 l -3.10206,6.01891 z"
       style="fill:#000000;fill-opacity:1;fill-rule:nonzero;stroke:none;stroke-width:0.220473"
       clip-path="none" /><path
       id="path35"
       d="m -402.90134,162.76881 c -0.30867,0 -0.56948,0.1098 -0.78246,0.32873 -0.21298,0.21915 -0.31947,0.52957 -0.31947,0.93062 0,0.38913 0.10649,0.69162 0.31947,0.90746 0.21298,0.21628 0.47379,0.3241 0.78246,0.3241 0.321,0 0.58182,-0.12038 0.78245,-0.36114 0.20064,-0.24075 0.30095,-0.53398 0.30095,-0.87968 0,-0.35188 -0.10031,-0.6482 -0.30095,-0.88873 -0.20063,-0.24098 -0.46145,-0.36136 -0.78245,-0.36136 m -1.04637,2.73188 v 2.57403 h -0.90747 v -6.01869 h 0.90747 v 0.42573 c 0.29654,-0.35166 0.68214,-0.52759 1.15748,-0.52759 0.5309,0 0.98001,0.18652 1.34731,0.56022 0.36709,0.37348 0.55097,0.86271 0.55097,1.46746 0,0.62372 -0.19137,1.12839 -0.57412,1.514 -0.38296,0.38582 -0.82104,0.57874 -1.31489,0.57874 -0.463,0 -0.85169,-0.19116 -1.16675,-0.5739"
       style="fill:#000000;fill-opacity:1;fill-rule:nonzero;stroke:none;stroke-width:0.220473"
       clip-path="none" /><path
       id="path37"
       d="m -398.8927,164.92189 c 0.20988,0.22532 0.49099,0.33776 0.84265,0.33776 0.35187,0 0.63275,-0.11244 0.84286,-0.33776 0.20967,-0.22533 0.31462,-0.52627 0.31462,-0.90306 0,-0.41339 -0.11245,-0.72513 -0.33799,-0.93503 -0.22532,-0.20989 -0.49849,-0.31505 -0.81949,-0.31505 -0.32102,0 -0.59418,0.10516 -0.8195,0.31505 -0.22533,0.2099 -0.33799,0.52164 -0.33799,0.93503 0,0.37679 0.10495,0.67773 0.31484,0.90306 m -0.64356,-2.38905 c 0.39839,-0.38583 0.89379,-0.57874 1.48621,-0.57874 0.59285,0 1.08825,0.19291 1.4862,0.57874 0.39818,0.38583 0.59727,0.87814 0.59727,1.47673 0,0.59285 -0.19909,1.08517 -0.59727,1.47717 -0.39795,0.392 -0.89335,0.588 -1.4862,0.588 -0.59242,0 -1.08782,-0.196 -1.48621,-0.588 -0.39817,-0.392 -0.59726,-0.88432 -0.59726,-1.47717 0,-0.59859 0.19909,-1.0909 0.59726,-1.47673"
       style="fill:#000000;fill-opacity:1;fill-rule:nonzero;stroke:none;stroke-width:0.220473"
       clip-path="none" /><path
       id="path39"
       d="m -394.18616,163.48191 h 1.80567 c -0.0371,-0.21584 -0.12941,-0.392 -0.27779,-0.52803 -0.16051,-0.14794 -0.36444,-0.22202 -0.61115,-0.22202 -0.25928,0 -0.47204,0.0833 -0.63893,0.2498 -0.13581,0.12368 -0.22842,0.29036 -0.2778,0.50025 m 1.94457,1.15748 0.75953,0.42596 c -0.17329,0.30866 -0.39244,0.54633 -0.65767,0.713 -0.30249,0.19755 -0.68523,0.29632 -1.14822,0.29632 -0.54325,0 -0.98155,-0.16667 -1.3149,-0.50003 -0.38274,-0.38275 -0.57411,-0.87969 -0.57411,-1.49106 0,-0.6418 0.2068,-1.17578 0.6204,-1.60174 0.35188,-0.35187 0.78731,-0.52781 1.30564,-0.52781 0.50621,0 0.92291,0.16977 1.25009,0.5093 0.364,0.37656 0.54655,0.92598 0.54655,1.64803 v 0.11134 h -2.7967 c 0.0245,0.3274 0.13559,0.58954 0.33335,0.78709 0.16691,0.16667 0.39818,0.24979 0.69449,0.24979 0.24076,0 0.44756,-0.0646 0.62064,-0.19423 0.14176,-0.11112 0.26214,-0.25311 0.36091,-0.42596"
       style="fill:#000000;fill-opacity:1;fill-rule:nonzero;stroke:none;stroke-width:0.220473"
       clip-path="none" /><path
       id="path41"
       d="m -388.17457,162.6392 -0.67597,0.44469 c -0.13603,-0.22246 -0.32101,-0.33357 -0.55581,-0.33357 -0.1173,0 -0.20989,0.0339 -0.2778,0.10185 -0.0556,0.0556 -0.0833,0.12347 -0.0833,0.20372 0,0.0928 0.0433,0.16668 0.12964,0.22224 0.0185,0.0124 0.0371,0.0231 0.0556,0.0324 0.0185,0.009 0.0527,0.0264 0.10186,0.0509 0.0496,0.0249 0.0988,0.0496 0.14838,0.0741 l 0.46299,0.2315 c 0.25905,0.12964 0.44139,0.25002 0.54611,0.36114 0.19137,0.19137 0.28728,0.43235 0.28728,0.72227 0,0.34592 -0.11443,0.64201 -0.34284,0.88894 -0.26544,0.29037 -0.62945,0.43522 -1.09266,0.43522 -0.3457,0 -0.62658,-0.0833 -0.84243,-0.25002 -0.2348,-0.17263 -0.40126,-0.41052 -0.50025,-0.71301 l 0.74101,-0.35187 c 0.0615,0.17924 0.1325,0.30249 0.21275,0.37039 0.0988,0.0988 0.2315,0.14816 0.39818,0.14816 0.16073,0 0.28397,-0.0432 0.37061,-0.12964 0.0862,-0.0864 0.12964,-0.18829 0.12964,-0.30557 0,-0.11112 -0.0403,-0.20968 -0.12037,-0.29632 -0.0867,-0.0862 -0.21629,-0.16668 -0.38914,-0.24054 l -0.33336,-0.15763 c -0.25905,-0.12347 -0.4383,-0.23459 -0.53685,-0.33336 -0.18519,-0.17902 -0.27801,-0.39817 -0.27801,-0.65723 0,-0.3274 0.10803,-0.6052 0.32431,-0.83361 0.23437,-0.24693 0.55229,-0.37017 0.95377,-0.37017 0.27779,0 0.51855,0.0677 0.72205,0.20349 0.18519,0.11752 0.33335,0.2778 0.44469,0.48152"
       style="fill:#000000;fill-opacity:1;fill-rule:nonzero;stroke:none;stroke-width:0.220473"
       clip-path="none" /><path
       id="path43"
       d="m -386.05007,159.72611 0.86029,0.42419 -1.41852,1.35591 -0.5018,-0.29103 z m -1.06003,2.32973 h 0.90747 v 3.89841 h -0.90747 z"
       style="fill:#000000;fill-opacity:1;fill-rule:nonzero;stroke:none;stroke-width:0.220473"
       clip-path="none" /><path
       id="path45"
       d="m -383.27758,162.76881 c -0.321,0 -0.58204,0.12038 -0.78245,0.36136 -0.20064,0.24053 -0.30095,0.53685 -0.30095,0.88873 0,0.3457 0.10031,0.63893 0.30095,0.87968 0.20041,0.24076 0.46145,0.36114 0.78245,0.36114 0.30845,0 0.56948,-0.10782 0.78246,-0.3241 0.21298,-0.21584 0.31947,-0.51833 0.31947,-0.90746 0,-0.40105 -0.10649,-0.71147 -0.31947,-0.93062 -0.21298,-0.21893 -0.47401,-0.32873 -0.78246,-0.32873 m 1.04637,-0.25927 v -0.45351 h 0.90747 v 3.89818 h -0.90747 v -0.40722 c -0.30249,0.35166 -0.69162,0.5276 -1.16675,0.5276 -0.5741,0 -1.03246,-0.20372 -1.37508,-0.61094 -0.34262,-0.40765 -0.51393,-0.89512 -0.51393,-1.46327 0,-0.61711 0.18366,-1.11251 0.55097,-1.48599 0.3673,-0.3737 0.81641,-0.56022 1.34731,-0.56022 0.48768,0 0.87351,0.18519 1.15748,0.55537"
       style="fill:#000000;fill-opacity:1;fill-rule:nonzero;stroke:none;stroke-width:0.220473"
       clip-path="none" /><path
       id="path47"
       d="m -376.86887,163.48191 h 1.80567 c -0.0371,-0.21584 -0.12942,-0.392 -0.27779,-0.52803 -0.16051,-0.14794 -0.36444,-0.22202 -0.61115,-0.22202 -0.25928,0 -0.47204,0.0833 -0.63894,0.2498 -0.13581,0.12368 -0.22841,0.29036 -0.27779,0.50025 m 1.94457,1.15748 0.75953,0.42596 c -0.17329,0.30866 -0.39245,0.54633 -0.65767,0.713 -0.30249,0.19755 -0.68523,0.29632 -1.14822,0.29632 -0.54325,0 -0.98155,-0.16667 -1.3149,-0.50003 -0.38274,-0.38275 -0.57411,-0.87969 -0.57411,-1.49106 0,-0.6418 0.2068,-1.17578 0.6204,-1.60174 0.35188,-0.35187 0.78731,-0.52781 1.30564,-0.52781 0.50621,0 0.9229,0.16977 1.25008,0.5093 0.36401,0.37656 0.54656,0.92598 0.54656,1.64803 v 0.11134 h -2.7967 c 0.0245,0.3274 0.13559,0.58954 0.33335,0.78709 0.16691,0.16667 0.39818,0.24979 0.69449,0.24979 0.24076,0 0.44756,-0.0646 0.62063,-0.19423 0.14177,-0.11112 0.26215,-0.25311 0.36092,-0.42596"
       style="fill:#000000;fill-opacity:1;fill-rule:nonzero;stroke:none;stroke-width:0.220473"
       clip-path="none" /><path
       id="path49"
       d="m -373.52996,165.95427 1.72233,-2.11124 -1.38898,-1.78716 h 1.07414 l 0.86117,1.13896 0.87043,-1.13896 h 1.11118 l -1.43527,1.78716 1.66677,2.11124 h -1.09267 l -1.12044,-1.4538 -1.15748,1.4538 z"
       style="fill:#000000;fill-opacity:1;fill-rule:nonzero;stroke:none;stroke-width:0.220473"
       clip-path="none" /><path
       id="path51"
       d="m -366.46277,162.76881 c -0.30866,0 -0.56948,0.1098 -0.78246,0.32873 -0.21297,0.21915 -0.31946,0.52957 -0.31946,0.93062 0,0.38913 0.10649,0.69162 0.31946,0.90746 0.21298,0.21628 0.4738,0.3241 0.78246,0.3241 0.32101,0 0.58183,-0.12038 0.78246,-0.36114 0.20063,-0.24075 0.30095,-0.53398 0.30095,-0.87968 0,-0.35188 -0.10032,-0.6482 -0.30095,-0.88873 -0.20063,-0.24098 -0.46145,-0.36136 -0.78246,-0.36136 m -1.04636,2.73188 v 2.57403 h -0.90747 v -6.01869 h 0.90747 v 0.42573 c 0.29653,-0.35166 0.68214,-0.52759 1.15748,-0.52759 0.5309,0 0.98,0.18652 1.34731,0.56022 0.36709,0.37348 0.55096,0.86271 0.55096,1.46746 0,0.62372 -0.19137,1.12839 -0.57411,1.514 -0.38296,0.38582 -0.82104,0.57874 -1.3149,0.57874 -0.463,0 -0.85169,-0.19116 -1.16674,-0.5739"
       style="fill:#000000;fill-opacity:1;fill-rule:nonzero;stroke:none;stroke-width:0.220473"
       clip-path="none" /><path
       id="path53"
       d="m -362.73374,163.48191 h 1.80568 c -0.0371,-0.21584 -0.12942,-0.392 -0.2778,-0.52803 -0.1605,-0.14794 -0.36444,-0.22202 -0.61115,-0.22202 -0.25928,0 -0.47203,0.0833 -0.63893,0.2498 -0.13581,0.12368 -0.22841,0.29036 -0.2778,0.50025 m 1.94458,1.15748 0.75952,0.42596 c -0.17328,0.30866 -0.39244,0.54633 -0.65767,0.713 -0.30249,0.19755 -0.68523,0.29632 -1.14822,0.29632 -0.54325,0 -0.98154,-0.16667 -1.3149,-0.50003 -0.38274,-0.38275 -0.57411,-0.87969 -0.57411,-1.49106 0,-0.6418 0.2068,-1.17578 0.62041,-1.60174 0.35188,-0.35187 0.78731,-0.52781 1.30564,-0.52781 0.50621,0 0.9229,0.16977 1.25008,0.5093 0.364,0.37656 0.54655,0.92598 0.54655,1.64803 v 0.11134 h -2.7967 c 0.0245,0.3274 0.13559,0.58954 0.33336,0.78709 0.1669,0.16667 0.39817,0.24979 0.69449,0.24979 0.24076,0 0.44756,-0.0646 0.62063,-0.19423 0.14177,-0.11112 0.26215,-0.25311 0.36092,-0.42596"
       style="fill:#000000;fill-opacity:1;fill-rule:nonzero;stroke:none;stroke-width:0.220473"
       clip-path="none" /><path
       id="path55"
       d="m -358.97915,165.95427 v -3.8984 h 0.90747 v 0.35188 c 0.11729,-0.13559 0.24406,-0.24362 0.37987,-0.3241 0.14816,-0.0864 0.33336,-0.12964 0.55538,-0.12964 0.26566,0 0.50334,0.0617 0.71322,0.1852 l -0.37061,0.82413 c -0.14816,-0.0926 -0.30249,-0.1389 -0.46299,-0.1389 -0.24054,0 -0.42905,0.071 -0.56486,0.21298 -0.16667,0.17902 -0.25001,0.47842 -0.25001,0.89821 v 2.01864 z"
       style="fill:#000000;fill-opacity:1;fill-rule:nonzero;stroke:none;stroke-width:0.220473"
       clip-path="none" /><path
       id="path57"
       d="m -355.79361,162.05585 h 0.90747 v 3.8984 h -0.90747 z m 0.0373,-1.19452 c -0.11134,-0.1109 -0.1669,-0.25002 -0.1669,-0.4167 0,-0.16667 0.0556,-0.30557 0.1669,-0.41669 0.1109,-0.11112 0.2498,-0.16668 0.41648,-0.16668 0.16667,0 0.30557,0.0556 0.41669,0.16668 0.11112,0.11112 0.16668,0.25002 0.16668,0.41669 0,0.16668 -0.0556,0.3058 -0.16668,0.4167 -0.11112,0.11112 -0.25002,0.16668 -0.41669,0.16668 -0.16668,0 -0.30558,-0.0556 -0.41648,-0.16668"
       style="fill:#000000;fill-opacity:1;fill-rule:nonzero;stroke:none;stroke-width:0.220473"
       clip-path="none" /><path
       id="path59"
       d="m -353.72045,165.95427 v -3.8984 h 0.90746 v 0.36113 c 0.25333,-0.30843 0.57434,-0.46299 0.96303,-0.46299 0.45065,0 0.78731,0.19159 1.00955,0.57411 0.26523,-0.38252 0.65127,-0.57411 1.15726,-0.57411 0.5062,0 0.8766,0.20372 1.1114,0.61115 0.1356,0.24076 0.2035,0.56795 0.2035,0.98155 v 2.40756 h -0.90747 v -2.14829 c 0,-0.3393 -0.0277,-0.57102 -0.0833,-0.69449 -0.0864,-0.2284 -0.25928,-0.34261 -0.51834,-0.34261 -0.22223,0 -0.40148,0.0957 -0.53729,0.28705 -0.11729,0.16668 -0.17594,0.463 -0.17594,0.88895 v 2.00939 h -0.90746 v -2.14829 c 0,-0.3393 -0.0277,-0.57102 -0.0833,-0.69449 -0.0864,-0.2284 -0.25928,-0.34261 -0.51833,-0.34261 -0.22224,0 -0.40149,0.0957 -0.5373,0.28705 -0.11729,0.16668 -0.17594,0.463 -0.17594,0.88895 v 2.00939 z"
       style="fill:#000000;fill-opacity:1;fill-rule:nonzero;stroke:none;stroke-width:0.220473"
       clip-path="none" /><path
       id="path61"
       d="m -346.47754,163.48191 h 1.80567 c -0.0371,-0.21584 -0.12941,-0.392 -0.27779,-0.52803 -0.16051,-0.14794 -0.36444,-0.22202 -0.61115,-0.22202 -0.25928,0 -0.47204,0.0833 -0.63893,0.2498 -0.13581,0.12368 -0.22842,0.29036 -0.2778,0.50025 m 1.94457,1.15748 0.75953,0.42596 c -0.17329,0.30866 -0.39244,0.54633 -0.65767,0.713 -0.30249,0.19755 -0.68523,0.29632 -1.14822,0.29632 -0.54325,0 -0.98155,-0.16667 -1.3149,-0.50003 -0.38274,-0.38275 -0.57411,-0.87969 -0.57411,-1.49106 0,-0.6418 0.2068,-1.17578 0.6204,-1.60174 0.35188,-0.35187 0.78731,-0.52781 1.30564,-0.52781 0.50621,0 0.92291,0.16977 1.25009,0.5093 0.364,0.37656 0.54655,0.92598 0.54655,1.64803 v 0.11134 h -2.7967 c 0.0245,0.3274 0.13559,0.58954 0.33335,0.78709 0.16691,0.16667 0.39818,0.24979 0.69449,0.24979 0.24076,0 0.44756,-0.0646 0.62064,-0.19423 0.14176,-0.11112 0.26214,-0.25311 0.36091,-0.42596"
       style="fill:#000000;fill-opacity:1;fill-rule:nonzero;stroke:none;stroke-width:0.220473"
       clip-path="none" /><path
       id="path63"
       d="m -342.68399,165.95427 v -3.8984 h 0.90746 v 0.36113 c 0.27802,-0.30843 0.6299,-0.46299 1.05563,-0.46299 0.5126,0 0.89512,0.17594 1.14822,0.52782 0.1605,0.22841 0.24076,0.58954 0.24076,1.0834 v 2.38904 h -0.90725 v -2.1668 c 0,-0.23459 -0.0185,-0.42596 -0.0556,-0.57411 -0.0371,-0.14816 -0.0959,-0.25134 -0.17616,-0.31021 -0.0802,-0.0584 -0.15256,-0.0955 -0.21738,-0.11112 -0.0648,-0.0152 -0.15301,-0.0231 -0.26413,-0.0231 -0.12941,0 -0.23304,0.011 -0.3102,0.0324 -0.0772,0.0218 -0.1605,0.071 -0.25002,0.14816 -0.0895,0.0774 -0.15588,0.20989 -0.19909,0.39817 -0.0432,0.18829 -0.0648,0.4339 -0.0648,0.73616 v 1.87049 z"
       style="fill:#000000;fill-opacity:1;fill-rule:nonzero;stroke:none;stroke-width:0.220473"
       clip-path="none" /><path
       id="path65"
       d="m -336.59856,162.88917 h -0.69449 v 3.06502 h -0.90747 v -3.06502 h -0.37965 V 162.056 h 0.37965 v -1.42624 h 0.90747 v 1.42624 h 0.69449 z"
       style="fill:#000000;fill-opacity:1;fill-rule:nonzero;stroke:none;stroke-width:0.220473"
       clip-path="none" /><path
       id="path67"
       d="m -334.14847,162.76881 c -0.321,0 -0.58204,0.12038 -0.78245,0.36136 -0.20064,0.24053 -0.30095,0.53685 -0.30095,0.88873 0,0.3457 0.10031,0.63893 0.30095,0.87968 0.20041,0.24076 0.46145,0.36114 0.78245,0.36114 0.30845,0 0.56948,-0.10782 0.78246,-0.3241 0.21298,-0.21584 0.31947,-0.51833 0.31947,-0.90746 0,-0.40105 -0.10649,-0.71147 -0.31947,-0.93062 -0.21298,-0.21893 -0.47401,-0.32873 -0.78246,-0.32873 m 1.04637,-0.25927 v -0.45351 h 0.90747 v 3.89818 h -0.90747 v -0.40722 c -0.30249,0.35166 -0.69162,0.5276 -1.16675,0.5276 -0.5741,0 -1.03246,-0.20372 -1.37508,-0.61094 -0.34262,-0.40765 -0.51393,-0.89512 -0.51393,-1.46327 0,-0.61711 0.18366,-1.11251 0.55097,-1.48599 0.3673,-0.3737 0.81641,-0.56022 1.34731,-0.56022 0.48768,0 0.87351,0.18519 1.15748,0.55537"
       style="fill:#000000;fill-opacity:1;fill-rule:nonzero;stroke:none;stroke-width:0.220473"
       clip-path="none" /><path
       id="path69"
       d="m -331.02876,159.20381 h 0.90746 v 6.75044 h -0.90746 z"
       style="fill:#000000;fill-opacity:1;fill-rule:nonzero;stroke:none;stroke-width:0.220473"
       clip-path="none" /><path
       id="path71"
       d="m -488.29414,79.653609 h 13.83357 v 10.553156 h 8.12884 V 79.653609 h 14.54658 V 112.59711 H -465.191 v -10.41073 h -8.41391 v 10.41073 h -14.68923 z"
       style="fill:#000000;fill-opacity:1;fill-rule:nonzero;stroke:none;stroke-width:0.220473"
       clip-path="none" /><path
       id="path73"
       d="m -395.59538,89.208725 v -7.986411 h -13.26298 v 7.986411 h -3.851 v 8.414125 h 3.851 v 14.9743 h 13.26298 V 98.050569 h 3.42262 V 89.35115 Z"
       style="fill:#000000;fill-opacity:1;fill-rule:nonzero;stroke:none;stroke-width:0.220473"
       clip-path="none" /><path
       id="path75"
       d="m -340.26217,112.59716 h -12.26447 V 77.229339 h 12.26447 z"
       style="fill:#000000;fill-opacity:1;fill-rule:nonzero;stroke:none;stroke-width:0.220473"
       clip-path="none" /><path
       id="path77"
       d="m -353.66811,139.12228 h 5.13416 l -2.56719,-9.26956 z m -18.53913,12.5502 13.69093,-32.94328 h 14.9743 l 13.54784,32.23049 h -14.54636 l -1.85351,-3.42284 h -9.27045 l -2.13903,4.13563 z"
       style="fill:#000000;fill-opacity:1;fill-rule:nonzero;stroke:none;stroke-width:0.220473"
       clip-path="none" /><path
       id="path79"
       d="m -430.82119,97.765504 c -1.89034,0 -3.42262,1.53229 -3.42262,3.422616 0,1.89034 1.53228,3.42285 3.42262,3.42285 1.89033,0 3.42262,-1.53251 3.42262,-3.42285 0,-1.890326 -1.53229,-3.422616 -3.42262,-3.422616 m 16.11546,3.208316 c 0,7.12833 -7.68789,12.479 -16.11546,12.479 -8.42736,0 -15.68731,-5.7786 -15.68731,-12.90671 0,-7.128108 7.25995,-12.05105 15.68731,-12.05105 8.42757,0 16.11546,5.350654 16.11546,12.47876"
       style="fill:#000000;fill-opacity:1;fill-rule:nonzero;stroke:none;stroke-width:0.220473"
       clip-path="none" /><path
       id="path81"
       d="m -431.24902,136.34132 c -1.89034,0 -3.42262,1.53251 -3.42262,3.42262 0,1.89034 1.53228,3.42285 3.42262,3.42285 1.89033,0 3.42262,-1.53251 3.42262,-3.42285 0,-1.89011 -1.53229,-3.42262 -3.42262,-3.42262 m 3.42262,-8.05718 h 12.54998 v 23.38821 h -11.9794 c 0,0 -0.12478,-1.70801 -0.14265,-3.13689 -1.92538,2.13925 -19.29843,10.29079 -19.9658,-8.55678 -0.27757,-7.83935 7.98641,-18.11185 19.53787,-8.98449 z"
       style="fill:#000000;fill-opacity:1;fill-rule:nonzero;stroke:none;stroke-width:0.220473"
       clip-path="none" /><path
       id="path83"
       d="m -395.05222,128.51908 v 12.59958 c 0,0 8.93268,0.85632 8.93268,-6.30993 6.2e-4,-4.95601 -4.55563,-6.28965 -8.93268,-6.28965 m 22.84496,6.68165 c 0,18.18306 -22.81828,16.47175 -36.9367,16.47175 0.28485,-9.41243 0,-32.94328 0,-32.94328 4.13607,0.28529 36.50899,-6.13201 36.9367,16.47153"
       style="fill:#000000;fill-opacity:1;fill-rule:nonzero;stroke:none;stroke-width:0.220473"
       clip-path="none" /><path
       id="path85"
       d="m -474.41636,128.51908 v 12.59958 c 0,0 8.93267,0.85632 8.93267,-6.30993 6.3e-4,-4.95601 -4.55562,-6.28965 -8.93267,-6.28965 m 22.84496,6.68165 c 0,18.18306 -22.81785,16.47175 -36.93649,16.47175 0.28507,-9.41243 0,-32.94328 0,-32.94328 4.13585,0.28529 36.50877,-6.13201 36.93649,16.47153"
       style="fill:#000000;fill-opacity:1;fill-rule:nonzero;stroke:none;stroke-width:0.220473"
       clip-path="none" /><path
       id="path87"
       d="m -369.20312,98.763632 c 0,-1.890337 -1.53251,-3.42262 -3.42262,-3.42262 -1.89033,0 -3.42284,1.532283 -3.42284,3.42262 m -0.009,3.565048 c -0.35673,5.20558 5.58876,5.17891 6.74514,2.55837 4.56335,0.0392 11.32856,0.041 11.32856,0.041 -1.81581,4.88811 -8.50562,8.52459 -15.2834,8.52481 -8.42801,0 -15.68797,-5.77859 -15.68797,-12.90692 0,-7.127897 7.25996,-12.050836 15.68797,-12.050836 8.42714,0 16.1148,5.350658 16.1148,12.478766 0,0.50687 0.0511,0.86712 -0.0249,1.35481 z"
       style="fill:#000000;fill-opacity:1;fill-rule:nonzero;stroke:none;stroke-width:0.220473"
       clip-path="none" /></g></svg>
