<?xml version="1.0" encoding="UTF-8" standalone="no"?>
<!-- Created with Inkscape (http://www.inkscape.org/) -->

<svg
   width="158.75mm"
   height="91.446365mm"
   viewBox="0 0 158.75 91.446366"
   version="1.1"
   id="svg8"
   inkscape:version="1.3.2 (1:1.3.2+202311252150+091e20ef0f)"
   sodipodi:docname="logo-hoteldada_completo.svg"
   xml:space="preserve"
   xmlns:inkscape="http://www.inkscape.org/namespaces/inkscape"
   xmlns:sodipodi="http://sodipodi.sourceforge.net/DTD/sodipodi-0.dtd"
   xmlns="http://www.w3.org/2000/svg"
   xmlns:svg="http://www.w3.org/2000/svg"
   xmlns:rdf="http://www.w3.org/1999/02/22-rdf-syntax-ns#"
   xmlns:cc="http://creativecommons.org/ns#"
   xmlns:dc="http://purl.org/dc/elements/1.1/"><defs
     id="defs2"><clipPath
       clipPathUnits="userSpaceOnUse"
       id="clipPath88"><path
         d="M 0,595.276 H 841.89 V 0 H 0 Z"
         transform="translate(-605.41742,-400.92681)"
         id="path88" /></clipPath><clipPath
       clipPathUnits="userSpaceOnUse"
       id="clipPath86"><path
         d="M 0,595.276 H 841.89 V 0 H 0 Z"
         transform="translate(-128.2012,-265.9649)"
         id="path86" /></clipPath><clipPath
       clipPathUnits="userSpaceOnUse"
       id="clipPath84"><path
         d="M 0,595.276 H 841.89 V 0 H 0 Z"
         transform="translate(-488.17351,-265.9649)"
         id="path84" /></clipPath><clipPath
       clipPathUnits="userSpaceOnUse"
       id="clipPath82"><path
         d="M 0,595.276 H 841.89 V 0 H 0 Z"
         transform="translate(-323.99551,-230.48551)"
         id="path82" /></clipPath><clipPath
       clipPathUnits="userSpaceOnUse"
       id="clipPath80"><path
         d="M 0,595.276 H 841.89 V 0 H 0 Z"
         transform="translate(-325.93601,-405.45401)"
         id="path80" /></clipPath><clipPath
       clipPathUnits="userSpaceOnUse"
       id="clipPath78"><path
         d="M 0,595.276 H 841.89 V 0 H 0 Z"
         transform="translate(-675.87962,-217.8719)"
         id="path78" /></clipPath><clipPath
       clipPathUnits="userSpaceOnUse"
       id="clipPath76"><path
         d="M 0,595.276 H 841.89 V 0 H 0 Z"
         id="path76" /></clipPath><clipPath
       clipPathUnits="userSpaceOnUse"
       id="clipPath74"><path
         d="M 0,595.276 H 841.89 V 0 H 0 Z"
         transform="translate(-485.70991,-444.26501)"
         id="path74" /></clipPath><clipPath
       clipPathUnits="userSpaceOnUse"
       id="clipPath72"><path
         d="M 0,595.276 H 841.89 V 0 H 0 Z"
         transform="translate(-65.255702,-487.60421)"
         id="path72" /></clipPath><clipPath
       clipPathUnits="userSpaceOnUse"
       id="clipPath70"><path
         d="M 0,595.276 H 841.89 V 0 H 0 Z"
         id="path70" /></clipPath><clipPath
       clipPathUnits="userSpaceOnUse"
       id="clipPath68"><path
         d="M 0,595.276 H 841.89 V 0 H 0 Z"
         transform="translate(-764.41494,-110.6182)"
         id="path68" /></clipPath><clipPath
       clipPathUnits="userSpaceOnUse"
       id="clipPath66"><path
         d="M 0,595.276 H 841.89 V 0 H 0 Z"
         transform="translate(-753.30204,-110.0723)"
         id="path66" /></clipPath><clipPath
       clipPathUnits="userSpaceOnUse"
       id="clipPath64"><path
         d="M 0,595.276 H 841.89 V 0 H 0 Z"
         transform="translate(-725.70032,-96.169902)"
         id="path64" /></clipPath><clipPath
       clipPathUnits="userSpaceOnUse"
       id="clipPath62"><path
         d="M 0,595.276 H 841.89 V 0 H 0 Z"
         transform="translate(-708.49392,-107.38381)"
         id="path62" /></clipPath><clipPath
       clipPathUnits="userSpaceOnUse"
       id="clipPath60"><path
         d="M 0,595.276 H 841.89 V 0 H 0 Z"
         transform="translate(-675.64222,-96.169902)"
         id="path60" /></clipPath><clipPath
       clipPathUnits="userSpaceOnUse"
       id="clipPath58"><path
         d="M 0,595.276 H 841.89 V 0 H 0 Z"
         id="path58" /></clipPath><clipPath
       clipPathUnits="userSpaceOnUse"
       id="clipPath56"><path
         d="M 0,595.276 H 841.89 V 0 H 0 Z"
         transform="translate(-651.79031,-96.169902)"
         id="path56" /></clipPath><clipPath
       clipPathUnits="userSpaceOnUse"
       id="clipPath54"><path
         d="M 0,595.276 H 841.89 V 0 H 0 Z"
         transform="translate(-634.76062,-107.38381)"
         id="path54" /></clipPath><clipPath
       clipPathUnits="userSpaceOnUse"
       id="clipPath52"><path
         d="M 0,595.276 H 841.89 V 0 H 0 Z"
         transform="translate(-617.84681,-110.6182)"
         id="path52" /></clipPath><clipPath
       clipPathUnits="userSpaceOnUse"
       id="clipPath50"><path
         d="M 0,595.276 H 841.89 V 0 H 0 Z"
         transform="translate(-585.79211,-96.169902)"
         id="path50" /></clipPath><clipPath
       clipPathUnits="userSpaceOnUse"
       id="clipPath48"><path
         d="M 0,595.276 H 841.89 V 0 H 0 Z"
         transform="translate(-570.64781,-107.38381)"
         id="path48" /></clipPath><clipPath
       clipPathUnits="userSpaceOnUse"
       id="clipPath46"><path
         d="M 0,595.276 H 841.89 V 0 H 0 Z"
         transform="translate(-541.57981,-110.6182)"
         id="path46" /></clipPath><clipPath
       clipPathUnits="userSpaceOnUse"
       id="clipPath44"><path
         d="M 0,595.276 H 841.89 V 0 H 0 Z"
         transform="translate(-529.00462,-124.41901)"
         id="path44" /></clipPath><clipPath
       clipPathUnits="userSpaceOnUse"
       id="clipPath42"><path
         d="M 0,595.276 H 841.89 V 0 H 0 Z"
         transform="translate(-519.36851,-111.20611)"
         id="path42" /></clipPath><clipPath
       clipPathUnits="userSpaceOnUse"
       id="clipPath40"><path
         d="M 0,595.276 H 841.89 V 0 H 0 Z"
         transform="translate(-492.10171,-107.38381)"
         id="path40" /></clipPath><clipPath
       clipPathUnits="userSpaceOnUse"
       id="clipPath38"><path
         d="M 0,595.276 H 841.89 V 0 H 0 Z"
         transform="translate(-470.75421,-100.85251)"
         id="path38" /></clipPath><clipPath
       clipPathUnits="userSpaceOnUse"
       id="clipPath36"><path
         d="M 0,595.276 H 841.89 V 0 H 0 Z"
         transform="translate(-452.57221,-110.6182)"
         id="path36" /></clipPath><clipPath
       clipPathUnits="userSpaceOnUse"
       id="clipPath34"><path
         d="M 0,595.276 H 841.89 V 0 H 0 Z"
         transform="translate(-410.02981,-86.622305)"
         id="path34" /></clipPath><clipPath
       clipPathUnits="userSpaceOnUse"
       id="clipPath32"><path
         d="M 0,595.276 H 841.89 V 0 H 0 Z"
         transform="translate(-382.91241,-100.85251)"
         id="path32" /></clipPath><clipPath
       clipPathUnits="userSpaceOnUse"
       id="clipPath30"><path
         d="M 0,595.276 H 841.89 V 0 H 0 Z"
         transform="translate(-361.02961,-107.38381)"
         id="path30" /></clipPath><clipPath
       clipPathUnits="userSpaceOnUse"
       id="clipPath28"><path
         d="M 0,595.276 H 841.89 V 0 H 0 Z"
         transform="translate(-343.60891,-96.169902)"
         id="path28" /></clipPath><clipPath
       clipPathUnits="userSpaceOnUse"
       id="clipPath26"><path
         d="M 0,595.276 H 841.89 V 0 H 0 Z"
         transform="translate(-329.16161,-95.956505)"
         id="path26" /></clipPath><clipPath
       clipPathUnits="userSpaceOnUse"
       id="clipPath24"><path
         d="M 0,595.276 H 841.89 V 0 H 0 Z"
         transform="translate(-311.80691,-100.85251)"
         id="path24" /></clipPath><clipPath
       clipPathUnits="userSpaceOnUse"
       id="clipPath22"><path
         d="M 0,595.276 H 841.89 V 0 H 0 Z"
         transform="translate(-302.65071,-113.0537)"
         id="path22" /></clipPath><clipPath
       clipPathUnits="userSpaceOnUse"
       id="clipPath20"><path
         d="M 0,595.276 H 841.89 V 0 H 0 Z"
         transform="translate(-260.36211,-107.38381)"
         id="path20" /></clipPath><clipPath
       clipPathUnits="userSpaceOnUse"
       id="clipPath18"><path
         d="M 0,595.276 H 841.89 V 0 H 0 Z"
         transform="translate(-253.79971,-110.0723)"
         id="path18" /></clipPath><clipPath
       clipPathUnits="userSpaceOnUse"
       id="clipPath16"><path
         d="M 0,595.276 H 841.89 V 0 H 0 Z"
         transform="translate(-230.9671,-96.169902)"
         id="path16" /></clipPath><clipPath
       clipPathUnits="userSpaceOnUse"
       id="clipPath14"><path
         d="M 0,595.276 H 841.89 V 0 H 0 Z"
         transform="translate(-218.52331,-110.6182)"
         id="path14" /></clipPath><clipPath
       clipPathUnits="userSpaceOnUse"
       id="clipPath12"><path
         d="M 0,595.276 H 841.89 V 0 H 0 Z"
         transform="translate(-181.73661,-107.38381)"
         id="path12" /></clipPath><clipPath
       clipPathUnits="userSpaceOnUse"
       id="clipPath10"><path
         d="M 0,595.276 H 841.89 V 0 H 0 Z"
         transform="translate(-163.5921,-110.6182)"
         id="path10" /></clipPath><clipPath
       clipPathUnits="userSpaceOnUse"
       id="clipPath8"><path
         d="M 0,595.276 H 841.89 V 0 H 0 Z"
         transform="translate(-127.0878,-107.38381)"
         id="path8-3" /></clipPath><clipPath
       clipPathUnits="userSpaceOnUse"
       id="clipPath6"><path
         d="M 0,595.276 H 841.89 V 0 H 0 Z"
         transform="translate(-118.6884,-111.20611)"
         id="path6-6" /></clipPath><clipPath
       clipPathUnits="userSpaceOnUse"
       id="clipPath4"><path
         d="M 0,595.276 H 841.89 V 0 H 0 Z"
         transform="translate(-94.1683,-110.6182)"
         id="path4-7" /></clipPath><clipPath
       clipPathUnits="userSpaceOnUse"
       id="clipPath2"><path
         d="M 0,595.276 H 841.89 V 0 H 0 Z"
         transform="translate(-72.075502,-110.6182)"
         id="path2-5" /></clipPath></defs><sodipodi:namedview
     id="base"
     pagecolor="#d2d2d2"
     bordercolor="#666666"
     borderopacity="1.0"
     inkscape:pageopacity="0"
     inkscape:pageshadow="2"
     inkscape:zoom="0.39375"
     inkscape:cx="-81.051971"
     inkscape:cy="558.86667"
     inkscape:document-units="mm"
     inkscape:current-layer="layer1"
     showgrid="false"
     inkscape:window-width="1366"
     inkscape:window-height="741"
     inkscape:window-x="0"
     inkscape:window-y="0"
     inkscape:window-maximized="1"
     inkscape:showpageshadow="2"
     inkscape:pagecheckerboard="0"
     inkscape:deskcolor="#d1d1d1" /><metadata
     id="metadata5"><rdf:RDF><cc:Work
         rdf:about=""><dc:format>image/svg+xml</dc:format><dc:type
           rdf:resource="http://purl.org/dc/dcmitype/StillImage" /><dc:title /></cc:Work></rdf:RDF></metadata><g
     inkscape:label="Capa 1"
     inkscape:groupmode="layer"
     id="layer1"
     transform="translate(684.53584,-197.61475)"><g
       id="g114"
       transform="matrix(0.69021739,0,0,0.69021739,-802.23038,141.09838)"
       style="stroke-width:1.44882"><path
         style="-inkscape-font-specification:'Futura LT Book, ';stroke-width:3.68536;paint-order:markers stroke fill"
         d="m 397.6606,204.13313 q -0.13105,-0.31123 -0.40953,-0.54057 -0.27847,-0.24571 -0.63885,-0.24571 -0.344,0 -0.65524,0.24571 -0.29486,0.22934 -0.29486,0.6061 0,0.26209 0.14743,0.45866 0.16381,0.18019 0.40953,0.34401 0.24571,0.14742 0.55694,0.27847 0.32763,0.11467 0.67162,0.26209 0.344,0.14743 0.65524,0.32763 0.32762,0.18018 0.57333,0.44227 0.24572,0.24572 0.39314,0.6061 0.16382,0.34401 0.16382,0.83543 0,0.54057 -0.21295,1.01562 -0.19658,0.45866 -0.55696,0.78628 -0.36038,0.32762 -0.83542,0.50781 -0.45868,0.19658 -0.99924,0.19658 -0.98286,0 -1.70362,-0.50782 -0.70438,-0.52419 -1.01561,-1.44152 l 1.16304,-0.49143 q 0.24572,0.54057 0.57333,0.88457 0.344,0.34401 0.99924,0.34401 0.52418,0 0.88457,-0.32763 0.36038,-0.32761 0.36038,-0.8518 0,-0.42591 -0.26209,-0.68801 -0.24571,-0.26209 -0.63887,-0.45866 -0.39313,-0.19657 -0.83542,-0.36038 -0.44228,-0.1802 -0.83542,-0.42591 -0.39315,-0.26209 -0.65524,-0.63885 -0.24572,-0.37677 -0.24572,-0.98286 0,-0.49142 0.18019,-0.88456 0.18019,-0.40953 0.49143,-0.688 0.32762,-0.29487 0.73714,-0.44229 0.40953,-0.16382 0.88457,-0.16382 0.67162,0 1.22857,0.40953 0.55696,0.40953 0.81905,1.01562 z"
         id="path114" /><path
         style="-inkscape-font-specification:'Futura LT Book, ';stroke-width:3.68536;paint-order:markers stroke fill"
         d="m 391.74632,210.04665 h -1.31048 v -1.06476 h -0.0328 q -1.01562,1.27772 -2.65371,1.27772 -0.85181,0 -1.53981,-0.32763 -0.67162,-0.344 -1.16304,-0.90095 -0.47505,-0.55695 -0.73715,-1.27771 -0.24571,-0.73715 -0.24571,-1.53981 0,-0.81904 0.24571,-1.55619 0.2621,-0.75352 0.73715,-1.31047 0.47504,-0.55696 1.16304,-0.88457 0.688,-0.32763 1.55619,-0.32763 0.78629,0 1.47428,0.34401 0.688,0.344 1.16305,0.96647 h 0.0328 v -1.09751 h 1.31048 z m -3.83314,-6.6998 q -0.57333,0 -1.032,0.22933 -0.45866,0.22933 -0.78628,0.62248 -0.32762,0.37675 -0.50781,0.88457 -0.18019,0.49142 -0.18019,1.032 0,0.57333 0.16381,1.09752 0.16381,0.52419 0.47504,0.93371 0.32762,0.40953 0.78629,0.65524 0.47505,0.24572 1.09752,0.24572 0.63886,0 1.1139,-0.22934 0.47505,-0.24572 0.80267,-0.63886 0.32762,-0.40952 0.49143,-0.93371 0.16381,-0.52419 0.16381,-1.1139 0,-0.57333 -0.18019,-1.08115 -0.18019,-0.50781 -0.50781,-0.88456 -0.32762,-0.37677 -0.81905,-0.58972 -0.47505,-0.22933 -1.08114,-0.22933 z"
         id="path113" /><path
         style="-inkscape-font-specification:'Futura LT Book, ';stroke-width:3.68536;paint-order:markers stroke fill"
         d="m 380.60653,208.98189 h -0.0328 q -0.47504,0.62248 -1.17942,0.95009 -0.688,0.32763 -1.47429,0.32763 -0.85181,0 -1.53981,-0.32763 -0.67162,-0.344 -1.16304,-0.90095 -0.47505,-0.55695 -0.73714,-1.27771 -0.24572,-0.73715 -0.24572,-1.53981 0,-0.81904 0.24572,-1.55619 0.26209,-0.75352 0.73714,-1.31047 0.47504,-0.55696 1.16304,-0.88457 0.688,-0.32763 1.55619,-0.32763 0.78629,0 1.47429,0.34401 0.688,0.344 1.16304,0.96647 h 0.0328 v -6.91275 h 1.31048 v 13.51427 h -1.31048 z m -2.52266,-5.63504 q -0.57333,0 -1.032,0.22933 -0.45866,0.22933 -0.78628,0.62248 -0.32762,0.37675 -0.50781,0.88457 -0.18019,0.49142 -0.18019,1.032 0,0.57333 0.16381,1.09752 0.16381,0.52419 0.47504,0.93371 0.32762,0.40953 0.78629,0.65524 0.47505,0.24572 1.09752,0.24572 0.63886,0 1.1139,-0.22934 0.47505,-0.24572 0.80267,-0.63886 0.32762,-0.40952 0.49143,-0.93371 0.16381,-0.52419 0.16381,-1.1139 0,-0.57333 -0.18019,-1.08115 -0.18019,-0.50781 -0.50781,-0.88456 -0.32762,-0.37677 -0.81905,-0.58972 -0.47504,-0.22933 -1.08114,-0.22933 z"
         id="path112" /><path
         style="-inkscape-font-specification:'Futura LT Book, ';stroke-width:3.68536;paint-order:markers stroke fill"
         d="M 371.77647,210.04665 H 370.466 v -7.69903 h 1.31047 z"
         id="path111" /><path
         style="-inkscape-font-specification:'Futura LT Book, ';stroke-width:3.68536;paint-order:markers stroke fill"
         d="m 371.12124,198.51448 q 0.37676,0 0.65523,0.27847 0.27848,0.27848 0.27848,0.65523 0,0.39315 -0.27848,0.67163 -0.27847,0.26209 -0.65523,0.26209 -0.37676,0 -0.65524,-0.26209 -0.27848,-0.27848 -0.27848,-0.67163 0,-0.37675 0.27848,-0.65523 0.27848,-0.27847 0.65524,-0.27847 z"
         id="path110" /><path
         style="-inkscape-font-specification:'Futura LT Book, ';stroke-width:3.68536;paint-order:markers stroke fill"
         d="m 366.10791,208.98189 h -0.0328 q -0.47505,0.62248 -1.17943,0.95009 -0.688,0.32763 -1.47428,0.32763 -0.85181,0 -1.53981,-0.32763 -0.67162,-0.344 -1.16305,-0.90095 -0.47505,-0.55695 -0.73714,-1.27771 -0.24572,-0.73715 -0.24572,-1.53981 0,-0.81904 0.24572,-1.55619 0.26209,-0.75352 0.73714,-1.31047 0.47505,-0.55696 1.16305,-0.88457 0.688,-0.32763 1.55619,-0.32763 0.78628,0 1.47428,0.34401 0.688,0.344 1.16305,0.96647 h 0.0328 v -6.91275 h 1.31047 v 13.51427 h -1.31047 z m -2.52266,-5.63504 q -0.57334,0 -1.032,0.22933 -0.45867,0.22933 -0.78629,0.62248 -0.32762,0.37675 -0.50781,0.88457 -0.18019,0.49142 -0.18019,1.032 0,0.57333 0.16381,1.09752 0.16381,0.52419 0.47505,0.93371 0.32762,0.40953 0.78628,0.65524 0.47505,0.24572 1.09753,0.24572 0.63885,0 1.1139,-0.22934 0.47505,-0.24572 0.80267,-0.63886 0.32761,-0.40952 0.49142,-0.93371 0.16381,-0.52419 0.16381,-1.1139 0,-0.57333 -0.18019,-1.08115 -0.18019,-0.50781 -0.50781,-0.88456 -0.32761,-0.37677 -0.81904,-0.58972 -0.47505,-0.22933 -1.08114,-0.22933 z"
         id="path109" /><path
         style="-inkscape-font-specification:'Futura LT Book, ';stroke-width:3.68536;paint-order:markers stroke fill"
         d="m 352.6748,203.28132 h 0.0328 q 0.40952,-0.55695 0.93371,-0.8518 0.54057,-0.29487 1.26133,-0.29487 0.80267,0 1.31048,0.27848 0.50781,0.2621 0.80266,0.72076 0.29486,0.45867 0.39315,1.06477 0.11466,0.60609 0.11466,1.27771 v 4.57028 h -1.31047 v -4.34095 q 0,-0.45866 -0.0491,-0.88457 -0.0328,-0.44228 -0.19657,-0.75352 -0.14743,-0.32762 -0.47505,-0.52419 -0.32762,-0.19657 -0.90095,-0.19657 -0.67162,0 -1.06476,0.29486 -0.37676,0.27847 -0.57333,0.72075 -0.18019,0.44229 -0.22934,0.98287 -0.0491,0.54056 -0.0491,1.04838 v 3.65294 h -1.31047 v -7.69903 h 1.31047 z"
         id="path108" /><path
         style="-inkscape-font-specification:'Futura LT Book, ';stroke-width:3.68536;paint-order:markers stroke fill"
         d="m 348.56243,210.04662 h -1.31047 v -1.06476 h -0.0328 q -1.01562,1.27772 -2.65371,1.27772 -0.85181,0 -1.53981,-0.32762 -0.67162,-0.344 -1.16305,-0.90096 -0.47504,-0.55695 -0.73714,-1.2777 -0.24571,-0.73715 -0.24571,-1.53982 0,-0.81904 0.24571,-1.55618 0.2621,-0.75353 0.73714,-1.31048 0.47505,-0.55695 1.16305,-0.88457 0.688,-0.32762 1.55619,-0.32762 0.78628,0 1.47428,0.344 0.688,0.344 1.16305,0.96648 h 0.0328 v -1.09752 h 1.31048 z m -3.83314,-6.6998 q -0.57333,0 -1.032,0.22934 -0.45866,0.22932 -0.78628,0.62247 -0.32762,0.37676 -0.50781,0.88457 -0.18019,0.49143 -0.18019,1.032 0,0.57333 0.16381,1.09752 0.16381,0.52419 0.47505,0.93372 0.32762,0.40952 0.78628,0.65524 0.47505,0.24571 1.09752,0.24571 0.63886,0 1.11391,-0.22934 0.47505,-0.24571 0.80266,-0.63885 0.32762,-0.40953 0.49143,-0.93372 0.16381,-0.52419 0.16381,-1.1139 0,-0.57333 -0.18019,-1.08114 -0.18019,-0.50781 -0.50781,-0.88457 -0.32762,-0.37676 -0.81904,-0.58971 -0.47505,-0.22934 -1.08115,-0.22934 z"
         id="path107" /><path
         style="-inkscape-font-specification:'Futura LT Book, ';stroke-width:3.68536;paint-order:markers stroke fill"
         d="m 332.95064,203.44512 h 0.0328 q 0.47504,-0.63886 1.16304,-0.96648 0.688,-0.344 1.49067,-0.344 0.85181,0 1.52342,0.344 0.688,0.32762 1.16305,0.90095 0.47505,0.55695 0.73714,1.2941 0.2621,0.73714 0.2621,1.5398 0,0.81905 -0.2621,1.55619 -0.24571,0.73714 -0.72076,1.2941 -0.47505,0.55695 -1.16305,0.88457 -0.68799,0.31124 -1.55618,0.31124 -0.78629,0 -1.47429,-0.32762 -0.688,-0.344 -1.16304,-0.96648 h -0.0328 v 5.40571 h -1.31047 v -12.0236 h 1.31047 z m 2.44076,-0.0983 q -0.57333,0 -1.032,0.22934 -0.45867,0.22932 -0.78629,0.62247 -0.32761,0.37676 -0.5078,0.88457 -0.18019,0.49143 -0.18019,1.032 0,0.57333 0.16381,1.09752 0.1638,0.52419 0.47504,0.93372 0.32762,0.40952 0.78629,0.65524 0.47504,0.24571 1.09752,0.24571 0.63886,0 1.1139,-0.22934 0.47505,-0.24571 0.80267,-0.63885 0.32762,-0.40953 0.49143,-0.93372 0.16381,-0.52419 0.16381,-1.1139 0,-0.57333 -0.18019,-1.08114 -0.18019,-0.50781 -0.50781,-0.88457 -0.32762,-0.37676 -0.81905,-0.58971 -0.47505,-0.22934 -1.08114,-0.22934 z"
         id="path106" /><path
         style="-inkscape-font-specification:'Futura LT Book, ';stroke-width:3.68536;paint-order:markers stroke fill"
         d="m 322.41696,202.3476 h 1.60533 l 2.01485,2.62095 2.01486,-2.62095 h 1.63809 l -2.81752,3.6038 3.19428,4.09523 h -1.58895 l -2.44076,-3.12875 -2.45714,3.12875 h -1.63809 l 3.27619,-4.09523 z"
         id="path105" /><path
         style="-inkscape-font-specification:'Futura LT Book, ';stroke-width:3.68536;paint-order:markers stroke fill"
         d="m 319.61507,205.36169 q -0.0655,-0.40953 -0.27847,-0.76991 -0.19657,-0.37676 -0.49143,-0.65524 -0.29486,-0.27847 -0.688,-0.4259 -0.37676,-0.16381 -0.80267,-0.16381 -0.4259,0 -0.81904,0.16381 -0.39314,0.14743 -0.72076,0.4259 -0.31124,0.27848 -0.52419,0.65524 -0.21296,0.36038 -0.27848,0.76991 z m -4.66856,1.1139 q 0,0.54057 0.18019,1.01562 0.19657,0.45866 0.52419,0.80266 0.32762,0.344 0.78628,0.55695 0.47505,0.19658 1.032,0.19658 0.83543,0 1.39238,-0.44229 0.57333,-0.45866 0.95009,-1.14667 l 1.11391,0.63886 q -0.55695,1.032 -1.47429,1.60534 -0.90095,0.55695 -2.08037,0.55695 -0.86819,0 -1.57257,-0.31124 -0.688,-0.31124 -1.17943,-0.83543 -0.49143,-0.54057 -0.75352,-1.26134 -0.2621,-0.72075 -0.2621,-1.55618 0,-0.85181 0.24571,-1.60533 0.24572,-0.7699 0.72077,-1.32685 0.47504,-0.57334 1.16304,-0.90096 0.70438,-0.32762 1.60533,-0.32762 0.93372,0 1.6381,0.36039 0.70438,0.344 1.16304,0.95009 0.47505,0.60609 0.688,1.39238 0.21295,0.78629 0.16381,1.63809 z"
         id="path104" /><path
         style="-inkscape-font-specification:'Futura LT Book, ';stroke-width:3.68536;paint-order:markers stroke fill"
         d="m 305.06734,204.13312 q -0.13105,-0.31124 -0.40952,-0.54058 -0.27848,-0.24571 -0.63886,-0.24571 -0.344,0 -0.65524,0.24571 -0.29485,0.22934 -0.29485,0.6061 0,0.26209 0.14743,0.45867 0.16381,0.18019 0.40952,0.344 0.24571,0.14743 0.55695,0.27848 0.32762,0.11466 0.67162,0.26209 0.344,0.14742 0.65524,0.32762 0.32762,0.18019 0.57333,0.44228 0.24571,0.24571 0.39314,0.6061 0.16381,0.344 0.16381,0.83543 0,0.54056 -0.21295,1.01561 -0.19657,0.45867 -0.55695,0.78628 -0.36038,0.32763 -0.83543,0.50782 -0.45867,0.19657 -0.99924,0.19657 -0.98285,0 -1.70361,-0.50781 -0.70438,-0.52419 -1.01562,-1.44152 l 1.16304,-0.49144 q 0.24572,0.54058 0.57334,0.88458 0.344,0.344 0.99923,0.344 0.52419,0 0.88457,-0.32763 0.36039,-0.32761 0.36039,-0.8518 0,-0.4259 -0.2621,-0.688 -0.24571,-0.26209 -0.63886,-0.45867 -0.39314,-0.19657 -0.83542,-0.36037 -0.44229,-0.1802 -0.83543,-0.42591 -0.39314,-0.26209 -0.65524,-0.63886 -0.24571,-0.37676 -0.24571,-0.98285 0,-0.49143 0.18019,-0.88457 0.18019,-0.40953 0.49143,-0.688 0.32761,-0.29486 0.73714,-0.44229 0.40952,-0.16381 0.88457,-0.16381 0.67162,0 1.22857,0.40952 0.55695,0.40953 0.81904,1.01562 z"
         id="path103" /><path
         style="-inkscape-font-specification:'Futura LT Book, ';stroke-width:3.68536;paint-order:markers stroke fill"
         d="m 299.15308,210.04663 h -1.31048 v -1.06476 h -0.0328 q -1.01562,1.27772 -2.65371,1.27772 -0.85181,0 -1.53981,-0.32762 -0.67162,-0.344 -1.16305,-0.90096 -0.47504,-0.55695 -0.73714,-1.2777 -0.24571,-0.73715 -0.24571,-1.53982 0,-0.81904 0.24571,-1.55618 0.2621,-0.75353 0.73714,-1.31048 0.47505,-0.55695 1.16305,-0.88457 0.688,-0.32762 1.55619,-0.32762 0.78628,0 1.47428,0.344 0.688,0.344 1.16305,0.96648 h 0.0328 v -1.09752 h 1.31048 z m -3.83314,-6.6998 q -0.57334,0 -1.032,0.22934 -0.45867,0.22932 -0.78629,0.62247 -0.32762,0.37676 -0.50781,0.88457 -0.18019,0.49143 -0.18019,1.032 0,0.57333 0.16381,1.09752 0.16381,0.52419 0.47505,0.93372 0.32762,0.40952 0.78629,0.65524 0.47504,0.24571 1.09752,0.24571 0.63885,0 1.1139,-0.22934 0.47505,-0.24571 0.80267,-0.63885 0.32762,-0.40953 0.49143,-0.93372 0.1638,-0.52419 0.1638,-1.1139 0,-0.57333 -0.18019,-1.08114 -0.18019,-0.50781 -0.5078,-0.88457 -0.32762,-0.37676 -0.81905,-0.58971 -0.47505,-0.22934 -1.08114,-0.22934 z"
         id="path102" /><path
         style="-inkscape-font-specification:'Futura LT Book, ';stroke-width:3.68536;paint-order:markers stroke fill"
         d="m 289.66776,204.64092 h -0.0328 q -0.45867,-0.57333 -1.032,-0.9337 -0.57333,-0.36039 -1.35962,-0.36039 -0.58971,0 -1.09752,0.22934 -0.49143,0.22932 -0.85181,0.62247 -0.36038,0.39314 -0.57333,0.91733 -0.19657,0.50782 -0.19657,1.08114 0,0.57333 0.18019,1.09752 0.19657,0.50782 0.54057,0.90096 0.344,0.39314 0.83542,0.62247 0.49143,0.22934 1.09753,0.22934 0.83542,0 1.42514,-0.344 0.60609,-0.36038 1.08114,-0.98286 h 0.0328 v 1.75276 q -0.57333,0.37676 -1.16304,0.57333 -0.58972,0.21296 -1.27772,0.21296 -0.86819,0 -1.62171,-0.31124 -0.75352,-0.31124 -1.31047,-0.85181 -0.54058,-0.54057 -0.85181,-1.27772 -0.31124,-0.75352 -0.31124,-1.62171 0,-0.8518 0.32762,-1.58895 0.32762,-0.75352 0.88457,-1.29409 0.55695,-0.55695 1.29409,-0.86819 0.75353,-0.31124 1.60533,-0.31124 0.62248,0 1.22857,0.19657 0.62248,0.19658 1.14667,0.57333 z"
         id="path101" /><path
         style="-inkscape-font-specification:'Futura LT Book, ';stroke-width:3.68536;paint-order:markers stroke fill"
         d="m 280.83769,210.04663 h -1.31047 v -7.69903 h 1.31047 z"
         id="path100" /><path
         style="-inkscape-font-specification:'Futura LT Book, ';stroke-width:3.68536;paint-order:markers stroke fill"
         d="m 280.18246,198.51446 q 0.37676,0 0.65523,0.27848 0.27848,0.27847 0.27848,0.65523 0,0.39315 -0.27848,0.67162 -0.27847,0.26209 -0.65523,0.26209 -0.37677,0 -0.65524,-0.26209 -0.27848,-0.27847 -0.27848,-0.67162 0,-0.37676 0.27848,-0.65523 0.27847,-0.27848 0.65524,-0.27848 z"
         id="path99" /><path
         style="-inkscape-font-specification:'Futura LT Book, ';stroke-width:3.68536;paint-order:markers stroke fill"
         d="m 276.34856,210.04663 h -1.31048 v -6.48685 h -0.80266 v -1.21218 h 0.80266 v -2.76838 h 1.31048 v 2.76838 h 1.376 v 1.21218 h -1.376 z"
         id="path98" /><path
         style="-inkscape-font-specification:'Futura LT Book, ';stroke-width:3.68536;paint-order:markers stroke fill"
         d="m 271.41716,205.36169 q -0.0655,-0.40953 -0.27848,-0.76991 -0.19657,-0.37676 -0.49142,-0.65524 -0.29486,-0.27847 -0.688,-0.4259 -0.37676,-0.16381 -0.80267,-0.16381 -0.4259,0 -0.81904,0.16381 -0.39315,0.14743 -0.72077,0.4259 -0.31123,0.27848 -0.52419,0.65524 -0.21295,0.36038 -0.27847,0.76991 z m -4.66856,1.1139 q 0,0.54057 0.18018,1.01562 0.19658,0.45866 0.5242,0.80266 0.32761,0.344 0.78628,0.55695 0.47505,0.19658 1.032,0.19658 0.83543,0 1.39238,-0.44229 0.57333,-0.45866 0.95009,-1.14667 l 1.11391,0.63886 q -0.55696,1.032 -1.47429,1.60534 -0.90095,0.55695 -2.08038,0.55695 -0.86819,0 -1.57257,-0.31124 -0.688,-0.31124 -1.17942,-0.83543 -0.49143,-0.54057 -0.75353,-1.26134 -0.26209,-0.72075 -0.26209,-1.55618 0,-0.85181 0.24571,-1.60533 0.24572,-0.7699 0.72076,-1.32685 0.47505,-0.57334 1.16305,-0.90096 0.70438,-0.32762 1.60533,-0.32762 0.93371,0 1.63809,0.36039 0.70438,0.344 1.16305,0.95009 0.47505,0.60609 0.688,1.39238 0.21295,0.78629 0.16381,1.63809 z"
         id="path97" /><path
         style="-inkscape-font-specification:'Futura LT Book, ';stroke-width:3.68536;paint-order:markers stroke fill"
         d="m 271.43356,198.4817 -2.50629,2.52266 -0.81904,-0.45867 1.94933,-2.68647 z"
         id="path96" /><path
         style="-inkscape-font-specification:'Futura LT Book, ';stroke-width:3.68536;paint-order:markers stroke fill"
         d="m 259.86789,203.34683 q -0.6061,0 -1.11391,0.22934 -0.50781,0.22932 -0.86819,0.62247 -0.36038,0.37676 -0.55695,0.90095 -0.19657,0.50781 -0.19657,1.09752 0,0.58972 0.19657,1.11391 0.19657,0.5078 0.55695,0.90095 0.36038,0.39314 0.86819,0.62248 0.50781,0.21295 1.11391,0.21295 0.60609,0 1.1139,-0.21295 0.50781,-0.22934 0.86819,-0.62248 0.36038,-0.39315 0.55695,-0.90095 0.19657,-0.52419 0.19657,-1.11391 0,-0.58971 -0.19657,-1.09752 -0.19657,-0.52419 -0.55695,-0.90095 -0.36038,-0.39315 -0.86819,-0.62247 -0.50781,-0.22934 -1.1139,-0.22934 z m 0,6.91276 q -0.83543,0 -1.57258,-0.31124 -0.73714,-0.31124 -1.29409,-0.85181 -0.54057,-0.55695 -0.86819,-1.29409 -0.31124,-0.73715 -0.31124,-1.58896 0,-0.8518 0.31124,-1.58894 0.31124,-0.73714 0.85181,-1.2941 0.55695,-0.55695 1.29409,-0.86819 0.73715,-0.32762 1.58896,-0.32762 0.8518,0 1.58894,0.32762 0.73715,0.31124 1.27772,0.86819 0.55695,0.55696 0.86819,1.2941 0.31123,0.73714 0.31123,1.58894 0,0.85181 -0.32761,1.58896 -0.31124,0.73714 -0.86819,1.29409 -0.54057,0.54057 -1.27772,0.85181 -0.73714,0.31124 -1.57256,0.31124 z"
         id="path95" /><path
         style="-inkscape-font-specification:'Futura LT Book, ';stroke-width:3.68536;paint-order:markers stroke fill"
         d="m 247.92543,203.44513 h 0.0328 q 0.47505,-0.63886 1.16305,-0.96648 0.688,-0.344 1.49066,-0.344 0.85181,0 1.52343,0.344 0.688,0.32762 1.16305,0.90095 0.47504,0.55695 0.73714,1.2941 0.26209,0.73714 0.26209,1.5398 0,0.81905 -0.26209,1.55619 -0.24572,0.73714 -0.72076,1.2941 -0.47505,0.55695 -1.16305,0.88457 -0.688,0.31124 -1.55619,0.31124 -0.78628,0 -1.47428,-0.32762 -0.688,-0.344 -1.16305,-0.96648 h -0.0328 v 5.40571 h -1.31048 v -12.0236 h 1.31048 z m 2.44076,-0.0983 q -0.57334,0 -1.032,0.22934 -0.45867,0.22932 -0.78629,0.62247 -0.32762,0.37676 -0.50781,0.88457 -0.18019,0.49143 -0.18019,1.032 0,0.57333 0.16381,1.09752 0.16381,0.52419 0.47505,0.93372 0.32762,0.40952 0.78629,0.65524 0.47504,0.24571 1.09752,0.24571 0.63885,0 1.1139,-0.22934 0.47505,-0.24571 0.80267,-0.63885 0.32762,-0.40953 0.49143,-0.93372 0.1638,-0.52419 0.1638,-1.1139 0,-0.57333 -0.18019,-1.08114 -0.18019,-0.50781 -0.5078,-0.88457 -0.32762,-0.37676 -0.81905,-0.58971 -0.47505,-0.22934 -1.08114,-0.22934 z"
         id="path94" /><path
         style="-inkscape-font-specification:'Futura LT Book, ';stroke-width:3.68536;paint-order:markers stroke fill"
         d="m 237.70225,205.3617 q -0.0655,-0.40953 -0.27848,-0.76991 -0.19657,-0.37676 -0.49143,-0.65524 -0.29485,-0.27847 -0.688,-0.4259 -0.37676,-0.16381 -0.80266,-0.16381 -0.42591,0 -0.81905,0.16381 -0.39314,0.14743 -0.72076,0.4259 -0.31124,0.27848 -0.52419,0.65524 -0.21295,0.36038 -0.27848,0.76991 z m -4.66857,1.1139 q 0,0.54057 0.18019,1.01562 0.19657,0.45866 0.52419,0.80266 0.32762,0.344 0.78629,0.55695 0.47504,0.19658 1.03199,0.19658 0.83543,0 1.39238,-0.44229 0.57334,-0.45866 0.9501,-1.14667 l 1.1139,0.63886 q -0.55695,1.032 -1.47428,1.60534 -0.90095,0.55695 -2.08038,0.55695 -0.86819,0 -1.57257,-0.31124 -0.688,-0.31124 -1.17943,-0.83543 -0.49143,-0.54057 -0.75352,-1.26134 -0.2621,-0.72075 -0.2621,-1.55618 0,-0.85181 0.24572,-1.60533 0.24571,-0.7699 0.72076,-1.32685 0.47505,-0.57334 1.16305,-0.90096 0.70438,-0.32762 1.60533,-0.32762 0.93371,0 1.63809,0.36039 0.70438,0.344 1.16305,0.95009 0.47504,0.60609 0.688,1.39238 0.21295,0.78629 0.16381,1.63809 z"
         id="path93" /><path
         style="-inkscape-font-specification:'Futura LT Book, ';stroke-width:3.68536;paint-order:markers stroke fill"
         d="m 228.26608,208.98188 h -0.0328 q -0.47505,0.62248 -1.17943,0.9501 -0.688,0.32762 -1.47428,0.32762 -0.85181,0 -1.53981,-0.32762 -0.67162,-0.344 -1.16305,-0.90096 -0.47505,-0.55695 -0.73714,-1.2777 -0.24571,-0.73715 -0.24571,-1.53982 0,-0.81904 0.24571,-1.55618 0.26209,-0.75353 0.73714,-1.31048 0.47505,-0.55695 1.16305,-0.88457 0.688,-0.32762 1.55619,-0.32762 0.78628,0 1.47428,0.344 0.688,0.344 1.16305,0.96648 h 0.0328 v -6.91275 h 1.31047 v 13.51426 h -1.31047 z m -2.52266,-5.63504 q -0.57334,0 -1.032,0.22934 -0.45867,0.22932 -0.78629,0.62247 -0.32762,0.37676 -0.50781,0.88457 -0.18019,0.49143 -0.18019,1.032 0,0.57333 0.16381,1.09752 0.16381,0.52419 0.47505,0.93372 0.32762,0.40952 0.78628,0.65524 0.47505,0.24571 1.09753,0.24571 0.63885,0 1.1139,-0.22934 0.47505,-0.24571 0.80267,-0.63885 0.32761,-0.40953 0.49142,-0.93372 0.16381,-0.52419 0.16381,-1.1139 0,-0.57333 -0.18019,-1.08114 -0.18019,-0.50781 -0.50781,-0.88457 -0.32762,-0.37676 -0.81904,-0.58971 -0.47505,-0.22934 -1.08114,-0.22934 z"
         id="path92" /><path
         style="-inkscape-font-specification:'Futura LT Book, ';stroke-width:3.68536;paint-order:markers stroke fill"
         d="m 210.90082,203.34684 q -0.60609,0 -1.1139,0.22934 -0.50781,0.22932 -0.86819,0.62247 -0.36038,0.37676 -0.55695,0.90095 -0.19657,0.50781 -0.19657,1.09752 0,0.58972 0.19657,1.11391 0.19657,0.5078 0.55695,0.90095 0.36038,0.39314 0.86819,0.62248 0.50781,0.21295 1.1139,0.21295 0.6061,0 1.1139,-0.21295 0.50781,-0.22934 0.86819,-0.62248 0.36039,-0.39315 0.55695,-0.90095 0.19658,-0.52419 0.19658,-1.11391 0,-0.58971 -0.19658,-1.09752 -0.19656,-0.52419 -0.55695,-0.90095 -0.36038,-0.39315 -0.86819,-0.62247 -0.5078,-0.22934 -1.1139,-0.22934 z m 0,6.91276 q -0.83542,0 -1.57257,-0.31124 -0.73714,-0.31124 -1.29409,-0.85181 -0.54057,-0.55695 -0.86819,-1.29409 -0.31124,-0.73715 -0.31124,-1.58896 0,-0.8518 0.31124,-1.58894 0.31124,-0.73714 0.85181,-1.2941 0.55695,-0.55695 1.29409,-0.86819 0.73714,-0.32762 1.58895,-0.32762 0.85181,0 1.58895,0.32762 0.73714,0.31124 1.27772,0.86819 0.55695,0.55696 0.86819,1.2941 0.31124,0.73714 0.31124,1.58894 0,0.85181 -0.32763,1.58896 -0.31124,0.73714 -0.86819,1.29409 -0.54056,0.54057 -1.2777,0.85181 -0.73715,0.31124 -1.57258,0.31124 z"
         id="path91" /><path
         style="-inkscape-font-specification:'Futura LT Book, ';stroke-width:3.68536;paint-order:markers stroke fill"
         d="m 202.92256,203.18303 h 0.0328 q 0.344,-0.45867 0.70439,-0.75352 0.36038,-0.29486 0.99923,-0.29486 0.32763,0 0.6061,0.0983 0.29485,0.0983 0.57333,0.2621 l -0.62248,1.1958 q -0.19656,-0.13105 -0.36037,-0.22934 -0.16382,-0.11466 -0.42591,-0.11466 -0.54057,0 -0.85181,0.31124 -0.29485,0.29486 -0.44228,0.73714 -0.14743,0.44229 -0.1802,0.93371 -0.0328,0.49143 -0.0328,0.86819 v 3.84952 h -1.31047 v -7.69903 h 1.31047 z"
         id="path90" /><path
         style="-inkscape-font-specification:'Futura LT Book, ';stroke-width:3.68536;paint-order:markers stroke fill"
         d="m 198.74468,210.04664 h -1.31048 v -6.48685 h -0.80267 v -1.21218 h 0.80267 v -2.76838 h 1.31048 v 2.76838 h 1.37599 v 1.21218 h -1.37599 z"
         id="path89" /><path
         style="-inkscape-font-specification:'Futura LT Book, ';stroke-width:3.68536;paint-order:markers stroke fill"
         d="m 189.6525,203.28132 h 0.0328 q 0.40953,-0.55696 0.93371,-0.85181 0.54057,-0.29486 1.26133,-0.29486 0.80267,0 1.31048,0.27847 0.50781,0.2621 0.80267,0.72077 0.29485,0.45866 0.39314,1.06476 0.11466,0.60609 0.11466,1.27771 v 4.57028 h -1.31047 v -4.34094 q 0,-0.45867 -0.0492,-0.88458 -0.0328,-0.44228 -0.19657,-0.75352 -0.14743,-0.32762 -0.47505,-0.52419 -0.32761,-0.19657 -0.90095,-0.19657 -0.67162,0 -1.06476,0.29486 -0.37676,0.27848 -0.57333,0.72076 -0.18019,0.44228 -0.22933,0.98286 -0.0492,0.54057 -0.0492,1.04838 v 3.65294 h -1.31047 v -7.69903 h 1.31047 z"
         id="path87-3" /><path
         style="-inkscape-font-specification:'Futura LT Book, ';stroke-width:3.68536;paint-order:markers stroke fill"
         d="m 184.78662,205.3617 q -0.0655,-0.40953 -0.27848,-0.76991 -0.19657,-0.37676 -0.49142,-0.65524 -0.29486,-0.27847 -0.688,-0.4259 -0.37677,-0.16381 -0.80267,-0.16381 -0.4259,0 -0.81904,0.16381 -0.39315,0.14743 -0.72077,0.4259 -0.31123,0.27848 -0.52419,0.65524 -0.21295,0.36038 -0.27847,0.76991 z m -4.66857,1.1139 q 0,0.54057 0.18019,1.01562 0.19658,0.45866 0.52419,0.80266 0.32763,0.344 0.78629,0.55695 0.47504,0.19658 1.03199,0.19658 0.83543,0 1.39238,-0.44229 0.57334,-0.45866 0.9501,-1.14667 l 1.11391,0.63886 q -0.55695,1.032 -1.47429,1.60534 -0.90095,0.55695 -2.08037,0.55695 -0.86819,0 -1.57258,-0.31124 -0.68799,-0.31124 -1.17942,-0.83543 -0.49143,-0.54057 -0.75353,-1.26134 -0.26209,-0.72075 -0.26209,-1.55618 0,-0.85181 0.24572,-1.60533 0.24571,-0.7699 0.72075,-1.32685 0.47505,-0.57334 1.16305,-0.90096 0.70438,-0.32762 1.60533,-0.32762 0.93371,0 1.6381,0.36039 0.70438,0.344 1.16304,0.95009 0.47505,0.60609 0.688,1.39238 0.21295,0.78629 0.1638,1.63809 z"
         id="path85-6" /><path
         style="-inkscape-font-specification:'Futura LT Book, ';stroke-width:3.68536;paint-order:markers stroke fill"
         d="m 177.00492,204.64093 h -0.0328 q -0.45866,-0.57333 -1.032,-0.9337 -0.57333,-0.36039 -1.35962,-0.36039 -0.58971,0 -1.09751,0.22934 -0.49143,0.22932 -0.85182,0.62247 -0.36038,0.39314 -0.57333,0.91733 -0.19657,0.50782 -0.19657,1.08114 0,0.57333 0.18019,1.09752 0.19657,0.50782 0.54057,0.90096 0.344,0.39314 0.83543,0.62247 0.49143,0.22934 1.09752,0.22934 0.83543,0 1.42514,-0.344 0.6061,-0.36038 1.08114,-0.98286 h 0.0328 v 1.75276 q -0.57333,0.37676 -1.16304,0.57333 -0.58972,0.21296 -1.27772,0.21296 -0.86819,0 -1.62171,-0.31124 -0.75352,-0.31124 -1.31047,-0.85181 -0.54057,-0.54057 -0.85181,-1.27772 -0.31124,-0.75352 -0.31124,-1.62171 0,-0.8518 0.32762,-1.58895 0.32762,-0.75352 0.88457,-1.29409 0.55696,-0.55695 1.2941,-0.86819 0.75351,-0.31124 1.60533,-0.31124 0.62248,0 1.22857,0.19657 0.62247,0.19658 1.14666,0.57333 z"
         id="text28" /><path
         id="path29-7"
         d="m 172.34766,85.376276 h 19.93944 v 15.211104 h 11.71674 V 85.376276 h 20.96715 v 47.484104 h -19.32293 v -15.00582 h -12.12764 v 15.00582 h -21.17276 z"
         style="fill:#000000;fill-opacity:1;fill-rule:nonzero;stroke:none;stroke-width:0.511111"
         clip-path="none" /><path
         id="path31-5"
         d="M 305.9618,99.148824 V 87.637376 h -19.117 v 11.511448 h -5.55076 v 12.127956 h 5.55076 v 21.58366 h 19.117 v -20.96716 h 4.9333 V 99.354118 Z"
         style="fill:#000000;fill-opacity:1;fill-rule:nonzero;stroke:none;stroke-width:0.511111"
         clip-path="none" /><path
         id="path33-3"
         d="M 385.71798,132.86045 H 368.04022 V 81.881982 h 17.67776 z"
         style="fill:#000000;fill-opacity:1;fill-rule:nonzero;stroke:none;stroke-width:0.511111"
         clip-path="none" /><path
         id="path35-5"
         d="m 366.39493,171.09323 h 7.40026 l -3.70029,-13.36097 z m -26.72193,18.0896 19.73383,-47.48378 h 21.58366 l 19.52758,46.45638 h -20.96683 l -2.67162,-4.93361 h -13.36224 l -3.08315,5.96101 z"
         style="fill:#000000;fill-opacity:1;fill-rule:nonzero;stroke:none;stroke-width:0.511111"
         clip-path="none" /><path
         id="path37-6"
         d="m 255.18802,111.4824 c -2.7247,0 -4.9333,2.20861 -4.9333,4.93329 0,2.7247 2.2086,4.93362 4.9333,4.93362 2.72469,0 4.93329,-2.20892 4.93329,-4.93362 0,-2.72468 -2.2086,-4.93329 -4.93329,-4.93329 m 23.22851,4.62441 c 0,10.27463 -11.08117,17.98696 -23.22851,17.98696 -12.14703,0 -22.61138,-8.32915 -22.61138,-18.60347 0,-10.2743 10.46435,-17.370136 22.61138,-17.370136 12.14734,0 23.22851,7.712326 23.22851,17.986646"
         style="fill:#000000;fill-opacity:1;fill-rule:nonzero;stroke:none;stroke-width:0.511111"
         clip-path="none" /><path
         id="path39-2"
         d="m 254.57135,167.08481 c -2.72469,0 -4.9333,2.20893 -4.9333,4.93329 0,2.7247 2.20861,4.93363 4.9333,4.93363 2.72469,0 4.9333,-2.20893 4.9333,-4.93363 0,-2.72436 -2.20861,-4.93329 -4.9333,-4.93329 m 4.9333,-11.61346 h 18.08929 v 33.71129 h -17.26687 c 0,0 -0.17986,-2.46188 -0.2056,-4.52144 -2.77522,3.08346 -27.81638,14.83294 -28.77832,-12.33357 -0.40008,-11.29949 11.51145,-26.10606 28.1615,-12.95007 z"
         style="fill:#000000;fill-opacity:1;fill-rule:nonzero;stroke:none;stroke-width:0.511111"
         clip-path="none" /><path
         id="path41-9"
         d="m 306.7447,155.80998 v 18.16079 c 0,0 12.87538,1.23428 12.87538,-9.09501 9e-4,-7.1435 -6.56639,-9.06578 -12.87538,-9.06578 m 32.92827,9.6308 c 0,26.2087 -32.88982,23.74205 -53.23983,23.74205 0.41058,-13.56689 0,-47.48378 0,-47.48378 5.96165,0.41121 52.62333,-8.83856 53.23983,23.74173"
         style="fill:#000000;fill-opacity:1;fill-rule:nonzero;stroke:none;stroke-width:0.511111"
         clip-path="none" /><path
         id="path43-1"
         d="m 192.35081,155.80998 v 18.16079 c 0,0 12.87538,1.23428 12.87538,-9.09501 9e-4,-7.1435 -6.56639,-9.06578 -12.87538,-9.06578 m 32.92827,9.6308 c 0,26.2087 -32.88918,23.74205 -53.23951,23.74205 0.41089,-13.56689 0,-47.48378 0,-47.48378 5.96133,0.41121 52.62301,-8.83856 53.23951,23.74173"
         style="fill:#000000;fill-opacity:1;fill-rule:nonzero;stroke:none;stroke-width:0.511111"
         clip-path="none" /><path
         id="path45-2"
         d="m 344.00308,112.92108 c 0,-2.72469 -2.20893,-4.9333 -4.9333,-4.9333 -2.72469,0 -4.93362,2.20861 -4.93362,4.9333 m -0.0133,5.13859 c -0.51418,7.50322 8.05553,7.46478 9.72232,3.68758 6.57751,0.0566 16.32876,0.0591 16.32876,0.0591 -2.61729,7.04561 -12.25984,12.28716 -22.0292,12.28748 -12.14797,0 -22.61232,-8.32915 -22.61232,-18.60378 0,-10.274 10.46435,-17.369822 22.61232,-17.369822 12.14671,0 23.22756,7.712322 23.22756,17.986642 0,0.73058 0.0737,1.24985 -0.0359,1.95279 z"
         style="fill:#000000;fill-opacity:1;fill-rule:nonzero;stroke:none;stroke-width:0.511111"
         clip-path="none" /></g></g></svg>
