<?xml version="1.0" encoding="UTF-8" standalone="no"?>
<!-- Created with Inkscape (http://www.inkscape.org/) -->

<svg
   width="223.88414mm"
   height="48.65984mm"
   viewBox="0 0 223.88414 48.659838"
   version="1.1"
   id="svg8"
   inkscape:version="1.3.2 (1:1.3.2+202311252150+091e20ef0f)"
   sodipodi:docname="opciones_iniciales-logo_posverso_3.svg"
   xml:space="preserve"
   xmlns:inkscape="http://www.inkscape.org/namespaces/inkscape"
   xmlns:sodipodi="http://sodipodi.sourceforge.net/DTD/sodipodi-0.dtd"
   xmlns="http://www.w3.org/2000/svg"
   xmlns:svg="http://www.w3.org/2000/svg"
   xmlns:rdf="http://www.w3.org/1999/02/22-rdf-syntax-ns#"
   xmlns:cc="http://creativecommons.org/ns#"
   xmlns:dc="http://purl.org/dc/elements/1.1/"><defs
     id="defs2"><rect
       x="-1071.5719"
       y="1632.1438"
       width="354.96924"
       height="177.65308"
       id="rect76" /></defs><sodipodi:namedview
     id="base"
     pagecolor="#ffffff"
     bordercolor="#666666"
     borderopacity="1.0"
     inkscape:pageopacity="0"
     inkscape:pageshadow="2"
     inkscape:zoom="0.39375"
     inkscape:cx="-81.051971"
     inkscape:cy="558.86667"
     inkscape:document-units="mm"
     inkscape:current-layer="layer1"
     showgrid="false"
     inkscape:window-width="1366"
     inkscape:window-height="741"
     inkscape:window-x="0"
     inkscape:window-y="0"
     inkscape:window-maximized="1"
     inkscape:showpageshadow="2"
     inkscape:pagecheckerboard="0"
     inkscape:deskcolor="#d1d1d1"
     showguides="true"><inkscape:page
       x="0"
       y="0"
       width="223.88414"
       height="48.65984"
       id="page1"
       margin="0"
       bleed="0"
       inkscape:export-filename="opciones_iniciales-logo_posverso_2.pdf"
       inkscape:export-xdpi="96"
       inkscape:export-ydpi="96" /><sodipodi:guide
       position="222.37142,47.706652"
       orientation="1,0"
       id="guide2"
       inkscape:locked="false" /></sodipodi:namedview><metadata
     id="metadata5"><rdf:RDF><cc:Work
         rdf:about=""><dc:format>image/svg+xml</dc:format><dc:type
           rdf:resource="http://purl.org/dc/dcmitype/StillImage" /></cc:Work></rdf:RDF></metadata><g
     inkscape:label="Capa 1"
     inkscape:groupmode="layer"
     id="layer1"
     transform="translate(-42.047188,-354.75664)"><path
       style="-inkscape-font-specification:'Arial Black, ';fill:#000000;fill-opacity:1;stroke-width:1.41497;paint-order:stroke markers fill"
       d="m 227.11506,355.36602 h 11.55303 l 8.04326,25.71403 7.92138,-25.71403 h 11.2118 l -13.25917,35.73153 h -11.96739 z"
       id="path6" /><path
       style="-inkscape-font-specification:'Arial Black, ';fill:#000000;fill-opacity:1;stroke-width:1.41497;paint-order:stroke markers fill"
       d="M 224.36612,355.36602 H 194.7767 v 7.6289 h 18.52385 v 5.67903 h -17.1833 v 7.28767 h 17.1833 v 7.04394 h -19.06006 v 8.09199 h 30.12563 z"
       id="path5" /><path
       style="-inkscape-font-specification:'Arial Black, ';fill:#000000;fill-opacity:1;stroke-width:1.41497;paint-order:stroke markers fill"
       d="m 188.71482,391.09755 v -35.73153 h -18.40198 q -5.11843,0 -7.82389,0.87745 -2.70545,0.87744 -4.36285,3.26604 -1.6574,2.36423 -1.6574,5.77652 0,2.97357 1.26742,5.14281 1.26742,2.14486 3.48541,3.48541 1.41366,0.85307 3.87539,1.41366 -1.97426,0.65808 -2.87608,1.31617 -0.60933,0.43872 -1.75489,1.87675 -1.16992,1.43804 -1.5599,2.21799 l -5.33779,10.35873 h 12.47922 l 5.89839,-10.91932 q 1.12118,-2.12049 1.99862,-2.7542 1.1943,-0.8287 2.70546,-0.8287 h 0.97494 v 14.50222 z m -11.08993,-21.25368 h -4.65534 q -0.75558,0 -2.92482,-0.48747 -1.0968,-0.21936 -1.77926,-1.12118 -0.70683,-0.90182 -0.70683,-2.07174 0,-1.73052 1.09681,-2.65671 1.0968,-0.9262 4.11911,-0.9262 h 4.85033 z"
       id="path4" /><path
       style="-inkscape-font-specification:'Arial Black, ';fill:#000000;fill-opacity:1;stroke-width:1.41497;paint-order:stroke markers fill"
       d="m 117.79998,379.27641 10.50498,-0.65808 q 0.34122,2.55921 1.38928,3.89976 1.70615,2.16924 4.8747,2.16924 2.36423,0 3.63165,-1.09681 1.2918,-1.12118 1.2918,-2.58359 0,-1.38929 -1.21868,-2.4861 -1.21867,-1.0968 -5.65465,-2.07174 -7.2633,-1.63303 -10.35873,-4.33848 -3.11981,-2.70546 -3.11981,-6.8977 0,-2.7542 1.58428,-5.19155 1.60865,-2.46172 4.80158,-3.85101 3.2173,-1.41366 8.79883,-1.41366 6.84895,0 10.43185,2.55921 3.60728,2.53484 4.28973,8.092 l -10.40748,0.60934 q -0.41435,-2.41298 -1.75489,-3.50979 -1.31617,-1.0968 -3.65602,-1.0968 -1.92551,0 -2.90044,0.8287 -0.97494,0.80432 -0.97494,1.97425 0,0.85307 0.80432,1.53553 0.77995,0.70683 3.70477,1.31617 7.23893,1.5599 10.35873,3.16855 3.14418,1.58428 4.55784,3.9485 1.43804,2.36423 1.43804,5.28905 0,3.43666 -1.90113,6.33711 -1.90113,2.90044 -5.31342,4.4116 -3.41229,1.48678 -8.60384,1.48678 -9.11569,0 -12.62547,-3.50978 -3.50978,-3.50978 -3.97288,-8.9207 z"
       id="path3" /><path
       style="-inkscape-font-specification:'Arial Black, ';fill:#000000;fill-opacity:1;stroke-width:1.41497;paint-order:stroke markers fill"
       d="m 76.755031,373.25611 q 0,-8.75008 4.874697,-13.62478 4.874697,-4.87469 13.576032,-4.87469 8.9207,0 13.74665,4.80157 4.82595,4.77721 4.82595,13.40542 0,6.26399 -2.1205,10.28561 -2.09612,3.99725 -6.09337,6.23961 -3.97288,2.21799 -9.920007,2.21799 -6.044625,0 -10.017503,-1.9255 -3.948505,-1.92551 -6.410227,-6.09338 -2.461722,-4.16786 -2.461722,-10.43185 z m 11.041189,0.0488 q 0,5.41091 1.998626,7.77514 2.023,2.36423 5.484035,2.36423 3.558529,0 5.508409,-2.31548 1.94988,-2.31548 1.94988,-8.31136 0,-5.04531 -2.04738,-7.36079 -2.022995,-2.33986 -5.508403,-2.33986 -3.339168,0 -5.362167,2.36423 -2.023,2.36423 -2.023,7.82389 z"
       id="path2" /><path
       style="-inkscape-font-specification:'Arial Black, ';fill:#000000;fill-opacity:1;stroke-width:1.41497;paint-order:stroke markers fill"
       d="m 42.047187,355.36597 h 18.353235 q 5.995878,0 8.969443,2.8517 2.997939,2.8517 2.997939,8.11637 0,5.41092 -3.266047,8.4576 -3.241674,3.04669 -9.920009,3.04669 H 53.137123 V 391.0975 H 42.047187 Z m 11.089936,15.23343 h 2.705457 q 3.192927,0 4.484722,-1.09681 1.291795,-1.12118 1.291795,-2.85169 0,-1.68177 -1.121181,-2.8517 -1.12118,-1.16993 -4.216613,-1.16993 h -3.14418 z"
       id="text1" /><path
       style="-inkscape-font-specification:Arial;fill:#000000;fill-opacity:1;stroke-width:0.253645;paint-order:stroke markers fill"
       d="M 42.776839,401.53336 H 42.04719 v -6.40519 h 0.786448 v 2.28507 q 0.498084,-0.62479 1.271424,-0.62479 0.428178,0 0.808294,0.17477 0.384486,0.1704 0.629159,0.48498 0.249041,0.31021 0.388854,0.75149 0.139813,0.44128 0.139813,0.94374 0,1.19278 -0.589836,1.84378 -0.589836,0.65101 -1.415606,0.65101 -0.821401,0 -1.288901,-0.68596 z m -0.0087,-2.35498 q 0,0.83451 0.227196,1.20589 0.371378,0.60731 1.004906,0.60731 0.51556,0 0.891307,-0.44565 0.375748,-0.45003 0.375748,-1.33697 0,-0.90878 -0.36264,-1.34133 -0.358271,-0.43254 -0.869462,-0.43254 -0.51556,0 -0.891308,0.45002 -0.375747,0.44565 -0.375747,1.29327 z m 4.264296,-3.14579 v -0.90442 h 0.786448 v 0.90442 z m 0,5.50077 v -4.64005 h 0.786448 v 4.64005 z m 5.159972,-1.49426 0.812663,0.1005 q -0.192243,0.71217 -0.712172,1.10539 -0.51993,0.39323 -1.328224,0.39323 -1.018013,0 -1.616587,-0.62479 -0.594205,-0.62916 -0.594205,-1.76077 0,-1.17094 0.602943,-1.81757 0.602944,-0.64664 1.564158,-0.64664 0.93063,0 1.520466,0.63353 0.589836,0.63353 0.589836,1.78262 0,0.0699 -0.0044,0.20972 h -3.460371 q 0.04369,0.7646 0.432546,1.17093 0.388855,0.40633 0.969953,0.40633 0.432546,0 0.738387,-0.2272 0.305841,-0.22719 0.484976,-0.72528 z m -2.582171,-1.27142 h 2.590909 q -0.05243,-0.58547 -0.297102,-0.8782 -0.375748,-0.45439 -0.974322,-0.45439 -0.541775,0 -0.913153,0.36264 -0.367009,0.36264 -0.406332,0.96995 z m 4.382263,2.76568 v -4.64005 h 0.707803 v 0.65975 q 0.511191,-0.76461 1.476775,-0.76461 0.419439,0 0.768971,0.15292 0.353902,0.14855 0.528668,0.39323 0.174766,0.24467 0.244673,0.58109 0.04369,0.21846 0.04369,0.76461 v 2.85306 h -0.786448 v -2.82248 q 0,-0.48061 -0.09175,-0.71654 -0.09175,-0.2403 -0.327687,-0.38012 -0.231565,-0.14418 -0.546144,-0.14418 -0.502453,0 -0.869462,0.31895 -0.36264,0.31895 -0.36264,1.21026 v 2.53411 z m 8.004293,-0.57236 q -0.436916,0.37137 -0.843247,0.5243 -0.401962,0.15292 -0.865093,0.15292 -0.764602,0 -1.175303,-0.37138 -0.4107,-0.37575 -0.4107,-0.95685 0,-0.34079 0.15292,-0.62042 0.15729,-0.28399 0.406332,-0.45439 0.253411,-0.1704 0.56799,-0.25778 0.231565,-0.0612 0.699065,-0.11797 0.952476,-0.1136 1.402499,-0.27089 0.0044,-0.16165 0.0044,-0.20535 0,-0.4806 -0.222827,-0.67721 -0.301472,-0.26652 -0.895677,-0.26652 -0.554883,0 -0.821401,0.19661 -0.26215,0.19224 -0.388855,0.68596 l -0.768972,-0.10486 q 0.10486,-0.49372 0.345164,-0.79519 0.240303,-0.30584 0.694696,-0.4675 0.454392,-0.16603 1.052966,-0.16603 0.594205,0 0.965583,0.13982 0.371379,0.13981 0.546145,0.3539 0.174766,0.20972 0.244672,0.53303 0.03932,0.20099 0.03932,0.72528 v 1.0486 q 0,1.09666 0.04806,1.38939 0.05243,0.28837 0.200981,0.55489 h -0.821401 q -0.122337,-0.24468 -0.15729,-0.57236 z m -0.06554,-1.7564 q -0.428178,0.17476 -1.284532,0.2971 -0.484976,0.0699 -0.685958,0.15729 -0.200981,0.0874 -0.31021,0.25778 -0.109228,0.16603 -0.109228,0.37138 0,0.31458 0.235934,0.5243 0.240303,0.20971 0.699065,0.20971 0.454392,0 0.808294,-0.19661 0.353901,-0.20098 0.519929,-0.54614 0.126706,-0.26652 0.126706,-0.78645 z m 1.996705,2.32876 v -6.40519 h 0.786448 v 6.40519 z m 4.49586,-5.50077 v -0.90442 h 0.786448 v 0.90442 z m 0,5.50077 v -4.64005 h 0.786448 v 4.64005 z m 1.983597,0 v -4.64005 h 0.707803 v 0.65975 q 0.511191,-0.76461 1.476775,-0.76461 0.419439,0 0.768971,0.15292 0.353902,0.14855 0.528668,0.39323 0.174766,0.24467 0.244673,0.58109 0.04369,0.21846 0.04369,0.76461 v 2.85306 h -0.786448 v -2.82248 q 0,-0.48061 -0.09175,-0.71654 -0.09175,-0.2403 -0.327687,-0.38012 -0.231565,-0.14418 -0.546144,-0.14418 -0.502453,0 -0.869462,0.31895 -0.36264,0.31895 -0.36264,1.21026 v 2.53411 z m 6.693545,-0.70344 0.113598,0.6947 q -0.332056,0.0699 -0.594205,0.0699 -0.428177,0 -0.664111,-0.13544 -0.235935,-0.13544 -0.332056,-0.3539 -0.09612,-0.22283 -0.09612,-0.93063 v -2.66956 H 74.9513 v -0.61168 h 0.576728 v -1.14909 l 0.782079,-0.47186 v 1.62095 h 0.790817 v 0.61168 h -0.790817 v 2.71325 q 0,0.33642 0.03932,0.43255 0.04369,0.0961 0.135443,0.15292 0.09612,0.0568 0.270888,0.0568 0.131075,0 0.345163,-0.0306 z m 3.945348,-0.79082 0.812663,0.1005 q -0.192243,0.71217 -0.712173,1.10539 -0.519929,0.39323 -1.328223,0.39323 -1.018013,0 -1.616587,-0.62479 -0.594206,-0.62916 -0.594206,-1.76077 0,-1.17094 0.602944,-1.81757 0.602943,-0.64664 1.564158,-0.64664 0.93063,0 1.520466,0.63353 0.589836,0.63353 0.589836,1.78262 0,0.0699 -0.0044,0.20972 h -3.460372 q 0.04369,0.7646 0.432547,1.17093 0.388855,0.40633 0.969952,0.40633 0.432547,0 0.738388,-0.2272 0.30584,-0.22719 0.484976,-0.72528 z m -2.582171,-1.27142 h 2.590909 q -0.05243,-0.58547 -0.297102,-0.8782 -0.375748,-0.45439 -0.974322,-0.45439 -0.541775,0 -0.913154,0.36264 -0.367009,0.36264 -0.406331,0.96995 z m 4.373524,2.76568 v -4.64005 h 0.707803 v 0.70344 q 0.270887,-0.49372 0.498084,-0.65101 0.231565,-0.15729 0.506822,-0.15729 0.397593,0 0.808293,0.25341 l -0.270887,0.72965 q -0.288365,-0.17039 -0.576729,-0.17039 -0.25778,0 -0.46313,0.15729 -0.205351,0.15292 -0.292734,0.42817 -0.131074,0.41944 -0.131074,0.91753 v 2.42925 z m 2.988501,0 v -4.64005 h 0.707803 v 0.65975 q 0.511191,-0.76461 1.476775,-0.76461 0.419439,0 0.768971,0.15292 0.353902,0.14855 0.528668,0.39323 0.174766,0.24467 0.244673,0.58109 0.04369,0.21846 0.04369,0.76461 v 2.85306 h -0.786448 v -2.82248 q 0,-0.48061 -0.09175,-0.71654 -0.09175,-0.2403 -0.327687,-0.38012 -0.231565,-0.14418 -0.546144,-0.14418 -0.502453,0 -0.869462,0.31895 -0.36264,0.31895 -0.36264,1.21026 v 2.53411 z m 8.004296,-0.57236 q -0.436916,0.37137 -0.843247,0.5243 -0.401963,0.15292 -0.865093,0.15292 -0.764602,0 -1.175303,-0.37138 -0.410701,-0.37575 -0.410701,-0.95685 0,-0.34079 0.152921,-0.62042 0.157289,-0.28399 0.406331,-0.45439 0.253411,-0.1704 0.567991,-0.25778 0.231565,-0.0612 0.699064,-0.11797 0.952476,-0.1136 1.402499,-0.27089 0.0044,-0.16165 0.0044,-0.20535 0,-0.4806 -0.222827,-0.67721 -0.301472,-0.26652 -0.895677,-0.26652 -0.554883,0 -0.821402,0.19661 -0.262149,0.19224 -0.388854,0.68596 l -0.768972,-0.10486 q 0.10486,-0.49372 0.345164,-0.79519 0.240303,-0.30584 0.694695,-0.4675 0.454392,-0.16603 1.052967,-0.16603 0.594205,0 0.965583,0.13982 0.371378,0.13981 0.546145,0.3539 0.174766,0.20972 0.244672,0.53303 0.03932,0.20099 0.03932,0.72528 v 1.0486 q 0,1.09666 0.04806,1.38939 0.05243,0.28837 0.200982,0.55489 h -0.821402 q -0.122336,-0.24468 -0.157289,-0.57236 z m -0.06554,-1.7564 q -0.428177,0.17476 -1.284531,0.2971 -0.484977,0.0699 -0.685958,0.15729 -0.200981,0.0874 -0.31021,0.25778 -0.109229,0.16603 -0.109229,0.37138 0,0.31458 0.235935,0.5243 0.240303,0.20971 0.699065,0.20971 0.454392,0 0.808293,-0.19661 0.353902,-0.20098 0.51993,-0.54614 0.126705,-0.26652 0.126705,-0.78645 z m 5.042005,0.62915 0.77334,0.10049 q -0.126705,0.79956 -0.651004,1.25395 -0.519929,0.45003 -1.280162,0.45003 -0.952476,0 -1.533574,-0.62042 -0.576729,-0.62479 -0.576729,-1.78699 0,-0.75149 0.249042,-1.31512 0.249042,-0.56362 0.755864,-0.84324 0.511191,-0.284 1.109766,-0.284 0.755864,0 1.236471,0.38449 0.480607,0.38012 0.616051,1.08355 l -0.764603,0.11797 q -0.109228,-0.4675 -0.388854,-0.70344 -0.275257,-0.23593 -0.668481,-0.23593 -0.594205,0 -0.965584,0.42818 -0.371378,0.4238 -0.371378,1.34569 0,0.935 0.358271,1.35881 0.358271,0.42381 0.934999,0.42381 0.463131,0 0.773341,-0.28399 0.31021,-0.284 0.393224,-0.87384 z m 1.450558,-3.80116 v -0.90442 h 0.78645 v 0.90442 z m 0,5.50077 v -4.64005 h 0.78645 v 4.64005 z m 1.69086,-2.32003 q 0,-1.2889 0.71654,-1.90932 0.59858,-0.51556 1.4593,-0.51556 0.95684,0 1.56416,0.62916 0.60731,0.62479 0.60731,1.73019 0,0.89567 -0.27089,1.41123 -0.26652,0.5112 -0.78208,0.79519 -0.51119,0.284 -1.1185,0.284 -0.97432,0 -1.57727,-0.62479 -0.59857,-0.62479 -0.59857,-1.8001 z m 0.80829,0 q 0,0.89131 0.38886,1.33697 0.38885,0.44128 0.97869,0.44128 0.58547,0 0.97432,-0.44565 0.38886,-0.44566 0.38886,-1.35881 0,-0.86072 -0.39323,-1.30201 -0.38885,-0.44565 -0.96995,-0.44565 -0.58984,0 -0.97869,0.44128 -0.38886,0.44129 -0.38886,1.33259 z m 4.46091,2.32003 v -4.64005 h 0.70781 v 0.65975 q 0.51119,-0.76461 1.47677,-0.76461 0.41944,0 0.76897,0.15292 0.3539,0.14855 0.52867,0.39323 0.17477,0.24467 0.24467,0.58109 0.0437,0.21846 0.0437,0.76461 v 2.85306 h -0.78645 v -2.82248 q 0,-0.48061 -0.0918,-0.71654 -0.0917,-0.2403 -0.32768,-0.38012 -0.23157,-0.14418 -0.54615,-0.14418 -0.50245,0 -0.86946,0.31895 -0.36264,0.31895 -0.36264,1.21026 v 2.53411 z m 8.0043,-0.57236 q -0.43692,0.37137 -0.84325,0.5243 -0.40196,0.15292 -0.86509,0.15292 -0.7646,0 -1.1753,-0.37138 -0.4107,-0.37575 -0.4107,-0.95685 0,-0.34079 0.15292,-0.62042 0.15729,-0.28399 0.40633,-0.45439 0.25341,-0.1704 0.56799,-0.25778 0.23156,-0.0612 0.69906,-0.11797 0.95248,-0.1136 1.4025,-0.27089 0.004,-0.16165 0.004,-0.20535 0,-0.4806 -0.22283,-0.67721 -0.30147,-0.26652 -0.89567,-0.26652 -0.55489,0 -0.8214,0.19661 -0.26215,0.19224 -0.38886,0.68596 l -0.76897,-0.10486 q 0.10486,-0.49372 0.34516,-0.79519 0.24031,-0.30584 0.6947,-0.4675 0.45439,-0.16603 1.05297,-0.16603 0.5942,0 0.96558,0.13982 0.37138,0.13981 0.54614,0.3539 0.17477,0.20972 0.24468,0.53303 0.0393,0.20099 0.0393,0.72528 v 1.0486 q 0,1.09666 0.0481,1.38939 0.0524,0.28837 0.20098,0.55489 h -0.8214 q -0.12234,-0.24468 -0.15729,-0.57236 z m -0.0655,-1.7564 q -0.42817,0.17476 -1.28453,0.2971 -0.48498,0.0699 -0.68596,0.15729 -0.20098,0.0874 -0.31021,0.25778 -0.10923,0.16603 -0.10923,0.37138 0,0.31458 0.23594,0.5243 0.2403,0.20971 0.69906,0.20971 0.4544,0 0.8083,-0.19661 0.3539,-0.20098 0.51993,-0.54614 0.1267,-0.26652 0.1267,-0.78645 z m 1.9967,2.32876 v -6.40519 h 0.78645 v 6.40519 z m 7.50184,0 v -0.58547 q -0.44128,0.69033 -1.29764,0.69033 -0.55488,0 -1.02238,-0.30585 -0.46313,-0.30584 -0.72091,-0.85198 -0.25341,-0.55051 -0.25341,-1.26269 0,-0.69469 0.23156,-1.25831 0.23157,-0.56799 0.6947,-0.86947 0.46313,-0.30147 1.03549,-0.30147 0.41944,0 0.74712,0.17914 0.32769,0.17476 0.53304,0.45876 v -2.29818 h 0.78208 v 6.40519 z m -2.48605,-2.31566 q 0,0.89131 0.37575,1.3326 0.37575,0.44128 0.88694,0.44128 0.51556,0 0.87383,-0.41944 0.36264,-0.42381 0.36264,-1.2889 0,-0.95248 -0.36701,-1.39813 -0.36701,-0.44565 -0.90442,-0.44565 -0.52429,0 -0.8782,0.42817 -0.34953,0.42818 -0.34953,1.35007 z m 7.62855,0.8214 0.81266,0.1005 q -0.19224,0.71217 -0.71217,1.10539 -0.51993,0.39323 -1.32822,0.39323 -1.01802,0 -1.61659,-0.62479 -0.59421,-0.62916 -0.59421,-1.76077 0,-1.17094 0.60295,-1.81757 0.60294,-0.64664 1.56416,-0.64664 0.93063,0 1.52046,0.63353 0.58984,0.63353 0.58984,1.78262 0,0.0699 -0.004,0.20972 h -3.46037 q 0.0437,0.7646 0.43254,1.17093 0.38886,0.40633 0.96996,0.40633 0.43254,0 0.73838,-0.2272 0.30584,-0.22719 0.48498,-0.72528 z m -2.58217,-1.27142 h 2.59091 q -0.0524,-0.58547 -0.2971,-0.8782 -0.37575,-0.45439 -0.97433,-0.45439 -0.54177,0 -0.91315,0.36264 -0.36701,0.36264 -0.40633,0.96995 z m 6.86831,4.54392 v -6.41829 h 0.71654 v 0.60295 q 0.25341,-0.35391 0.57236,-0.52867 0.31895,-0.17914 0.77334,-0.17914 0.59421,0 1.0486,0.30584 0.45439,0.30584 0.68596,0.8651 0.23156,0.55488 0.23156,1.21899 0,0.71217 -0.25778,1.28453 -0.25341,0.56799 -0.74276,0.87383 -0.48497,0.30148 -1.02238,0.30148 -0.39322,0 -0.7078,-0.16603 -0.31021,-0.16603 -0.51119,-0.41944 v 2.25885 z m 0.71217,-4.07205 q 0,0.89568 0.36264,1.32385 0.36264,0.42818 0.8782,0.42818 0.5243,0 0.89568,-0.44128 0.37575,-0.44566 0.37575,-1.37629 0,-0.88694 -0.36701,-1.32822 -0.36264,-0.44129 -0.86946,-0.44129 -0.50246,0 -0.89131,0.47187 -0.38449,0.4675 -0.38449,1.36318 z m 3.97157,-0.0262 q 0,-1.2889 0.71654,-1.90932 0.59857,-0.51556 1.4593,-0.51556 0.95684,0 1.56415,0.62916 0.60732,0.62479 0.60732,1.73019 0,0.89567 -0.27089,1.41123 -0.26652,0.5112 -0.78208,0.79519 -0.51119,0.284 -1.1185,0.284 -0.97432,0 -1.57727,-0.62479 -0.59857,-0.62479 -0.59857,-1.8001 z m 0.80829,0 q 0,0.89131 0.38886,1.33697 0.38885,0.44128 0.97869,0.44128 0.58546,0 0.97432,-0.44565 0.38885,-0.44566 0.38885,-1.35881 0,-0.86072 -0.39322,-1.30201 -0.38886,-0.44565 -0.96995,-0.44565 -0.58984,0 -0.97869,0.44128 -0.38886,0.44129 -0.38886,1.33259 z m 7.63728,0.82577 0.81266,0.1005 q -0.19224,0.71217 -0.71217,1.10539 -0.51993,0.39323 -1.32822,0.39323 -1.01802,0 -1.61659,-0.62479 -0.5942,-0.62916 -0.5942,-1.76077 0,-1.17094 0.60294,-1.81757 0.60294,-0.64664 1.56416,-0.64664 0.93063,0 1.52046,0.63353 0.58984,0.63353 0.58984,1.78262 0,0.0699 -0.004,0.20972 h -3.46037 q 0.0437,0.7646 0.43254,1.17093 0.38886,0.40633 0.96996,0.40633 0.43254,0 0.73838,-0.2272 0.30585,-0.22719 0.48498,-0.72528 z m -2.58217,-1.27142 h 2.59091 q -0.0524,-0.58547 -0.2971,-0.8782 -0.37575,-0.45439 -0.97433,-0.45439 -0.54177,0 -0.91315,0.36264 -0.36701,0.36264 -0.40633,0.96995 z m 4.06769,1.38065 0.77771,-0.12233 q 0.0655,0.4675 0.36264,0.71654 0.30147,0.24904 0.83887,0.24904 0.54178,0 0.80393,-0.21846 0.26215,-0.22282 0.26215,-0.51993 0,-0.26652 -0.23157,-0.41944 -0.16166,-0.10486 -0.80392,-0.26651 -0.8651,-0.21846 -1.20152,-0.37575 -0.33206,-0.16166 -0.50682,-0.44129 -0.1704,-0.28399 -0.1704,-0.62479 0,-0.31021 0.13981,-0.57235 0.14419,-0.26652 0.38886,-0.44129 0.1835,-0.13544 0.49808,-0.2272 0.31895,-0.0961 0.68159,-0.0961 0.54615,0 0.95685,0.15729 0.41507,0.15729 0.61168,0.42818 0.19661,0.26652 0.27089,0.71654 l -0.76898,0.10486 q -0.0524,-0.35827 -0.30584,-0.55925 -0.24904,-0.20098 -0.7078,-0.20098 -0.54178,0 -0.77334,0.17913 -0.23157,0.17914 -0.23157,0.41944 0,0.15292 0.0961,0.27526 0.0961,0.1267 0.30147,0.20972 0.11796,0.0437 0.69469,0.20098 0.83451,0.22283 1.1622,0.36701 0.33205,0.13981 0.51993,0.4107 0.18787,0.27089 0.18787,0.67285 0,0.39322 -0.23156,0.74276 -0.2272,0.34516 -0.65975,0.5374 -0.43254,0.18788 -0.97869,0.18788 -0.90441,0 -1.38065,-0.37575 -0.47187,-0.37575 -0.60294,-1.11414 z m 5.06385,1.38503 v -4.64005 h 0.78644 v 4.64005 z m -0.0393,-5.21678 0.5811,-1.22336 h 1.03112 l -0.96121,1.22336 z m 5.27794,4.64442 q -0.43692,0.37137 -0.84325,0.5243 -0.40196,0.15292 -0.86509,0.15292 -0.7646,0 -1.1753,-0.37138 -0.4107,-0.37575 -0.4107,-0.95685 0,-0.34079 0.15292,-0.62042 0.15729,-0.28399 0.40633,-0.45439 0.25341,-0.1704 0.56799,-0.25778 0.23156,-0.0612 0.69906,-0.11797 0.95248,-0.1136 1.4025,-0.27089 0.004,-0.16165 0.004,-0.20535 0,-0.4806 -0.22282,-0.67721 -0.30148,-0.26652 -0.89568,-0.26652 -0.55488,0 -0.8214,0.19661 -0.26215,0.19224 -0.38886,0.68596 l -0.76897,-0.10486 q 0.10486,-0.49372 0.34516,-0.79519 0.24031,-0.30584 0.6947,-0.4675 0.45439,-0.16603 1.05297,-0.16603 0.5942,0 0.96558,0.13982 0.37138,0.13981 0.54614,0.3539 0.17477,0.20972 0.24468,0.53303 0.0393,0.20099 0.0393,0.72528 v 1.0486 q 0,1.09666 0.0481,1.38939 0.0524,0.28837 0.20098,0.55489 h -0.8214 q -0.12234,-0.24468 -0.15729,-0.57236 z m -0.0655,-1.7564 q -0.42817,0.17476 -1.28453,0.2971 -0.48498,0.0699 -0.68596,0.15729 -0.20098,0.0874 -0.31021,0.25778 -0.10923,0.16603 -0.10923,0.37138 0,0.31458 0.23594,0.5243 0.2403,0.20971 0.69906,0.20971 0.4544,0 0.8083,-0.19661 0.3539,-0.20098 0.51993,-0.54614 0.1267,-0.26652 0.1267,-0.78645 z m 7.67662,0.8345 0.81266,0.1005 q -0.19224,0.71217 -0.71217,1.10539 -0.51993,0.39323 -1.32823,0.39323 -1.01801,0 -1.61658,-0.62479 -0.59421,-0.62916 -0.59421,-1.76077 0,-1.17094 0.60294,-1.81757 0.60295,-0.64664 1.56416,-0.64664 0.93063,0 1.52047,0.63353 0.58983,0.63353 0.58983,1.78262 0,0.0699 -0.004,0.20972 h -3.46037 q 0.0437,0.7646 0.43255,1.17093 0.38885,0.40633 0.96995,0.40633 0.43255,0 0.73839,-0.2272 0.30584,-0.22719 0.48498,-0.72528 z m -2.58217,-1.27142 h 2.5909 q -0.0524,-0.58547 -0.2971,-0.8782 -0.37575,-0.45439 -0.97432,-0.45439 -0.54178,0 -0.91315,0.36264 -0.36701,0.36264 -0.40633,0.96995 z m 3.85795,2.76568 1.69524,-2.41178 -1.56853,-2.22827 h 0.98306 l 0.71217,1.08792 q 0.20098,0.31021 0.32332,0.51993 0.19224,-0.28836 0.3539,-0.51119 l 0.78208,-1.09666 h 0.93937 l -1.60348,2.18458 1.72582,2.45547 h -0.96559 l -0.95247,-1.44183 -0.25342,-0.38885 -1.21899,1.83068 z m 4.99833,1.77824 v -6.41829 h 0.71654 v 0.60295 q 0.25341,-0.35391 0.57236,-0.52867 0.31894,-0.17914 0.77334,-0.17914 0.5942,0 1.04859,0.30584 0.4544,0.30584 0.68596,0.8651 0.23157,0.55488 0.23157,1.21899 0,0.71217 -0.25778,1.28453 -0.25341,0.56799 -0.74276,0.87383 -0.48498,0.30148 -1.02238,0.30148 -0.39323,0 -0.70781,-0.16603 -0.31021,-0.16603 -0.51119,-0.41944 v 2.25885 z m 0.71217,-4.07205 q 0,0.89568 0.36264,1.32385 0.36264,0.42818 0.8782,0.42818 0.5243,0 0.89567,-0.44128 0.37575,-0.44566 0.37575,-1.37629 0,-0.88694 -0.36701,-1.32822 -0.36264,-0.44129 -0.86946,-0.44129 -0.50245,0 -0.89131,0.47187 -0.38448,0.4675 -0.38448,1.36318 z m 7.44066,0.79955 0.81266,0.1005 q -0.19224,0.71217 -0.71217,1.10539 -0.51993,0.39323 -1.32823,0.39323 -1.01801,0 -1.61658,-0.62479 -0.59421,-0.62916 -0.59421,-1.76077 0,-1.17094 0.60294,-1.81757 0.60295,-0.64664 1.56416,-0.64664 0.93063,0 1.52047,0.63353 0.58983,0.63353 0.58983,1.78262 0,0.0699 -0.004,0.20972 h -3.46038 q 0.0437,0.7646 0.43255,1.17093 0.38886,0.40633 0.96995,0.40633 0.43255,0 0.73839,-0.2272 0.30584,-0.22719 0.48498,-0.72528 z m -2.58217,-1.27142 h 2.59091 q -0.0524,-0.58547 -0.29711,-0.8782 -0.37574,-0.45439 -0.97432,-0.45439 -0.54177,0 -0.91315,0.36264 -0.36701,0.36264 -0.40633,0.96995 z m 4.37352,2.76568 v -4.64005 h 0.70781 v 0.70344 q 0.27088,-0.49372 0.49808,-0.65101 0.23157,-0.15729 0.50682,-0.15729 0.3976,0 0.8083,0.25341 l -0.27089,0.72965 q -0.28837,-0.17039 -0.57673,-0.17039 -0.25778,0 -0.46313,0.15729 -0.20535,0.15292 -0.29273,0.42817 -0.13108,0.41944 -0.13108,0.91753 v 2.42925 z m 2.99288,-5.50077 v -0.90442 h 0.78645 v 0.90442 z m 0,5.50077 v -4.64005 h 0.78645 v 4.64005 z m 1.98359,0 v -4.64005 h 0.70343 v 0.65101 q 0.21846,-0.3408 0.5811,-0.54615 0.36264,-0.20972 0.82577,-0.20972 0.51556,0 0.84325,0.21409 0.33205,0.21409 0.4675,0.59858 0.55051,-0.81267 1.43308,-0.81267 0.69033,0 1.06171,0.38449 0.37137,0.38012 0.37137,1.1753 v 3.18512 h -0.78207 v -2.92297 q 0,-0.47187 -0.0787,-0.67722 -0.0743,-0.20972 -0.27526,-0.33642 -0.20098,-0.12671 -0.47186,-0.12671 -0.48935,0 -0.81267,0.32769 -0.32332,0.32332 -0.32332,1.03986 v 2.69577 h -0.78644 v -3.01472 q 0,-0.5243 -0.19225,-0.78645 -0.19224,-0.26215 -0.62915,-0.26215 -0.33206,0 -0.61606,0.17477 -0.27962,0.17476 -0.40633,0.51119 -0.1267,0.33642 -0.1267,0.96995 v 2.40741 z m 10.63016,-1.49426 0.81266,0.1005 q -0.19224,0.71217 -0.71217,1.10539 -0.51993,0.39323 -1.32823,0.39323 -1.01801,0 -1.61658,-0.62479 -0.59421,-0.62916 -0.59421,-1.76077 0,-1.17094 0.60294,-1.81757 0.60295,-0.64664 1.56416,-0.64664 0.93063,0 1.52047,0.63353 0.58983,0.63353 0.58983,1.78262 0,0.0699 -0.004,0.20972 h -3.46038 q 0.0437,0.7646 0.43255,1.17093 0.38886,0.40633 0.96995,0.40633 0.43255,0 0.73839,-0.2272 0.30584,-0.22719 0.48498,-0.72528 z m -2.58217,-1.27142 h 2.5909 q -0.0524,-0.58547 -0.2971,-0.8782 -0.37574,-0.45439 -0.97432,-0.45439 -0.54177,0 -0.91315,0.36264 -0.36701,0.36264 -0.40633,0.96995 z m 4.38226,2.76568 v -4.64005 h 0.7078 v 0.65975 q 0.5112,-0.76461 1.47678,-0.76461 0.41944,0 0.76897,0.15292 0.3539,0.14855 0.52867,0.39323 0.17476,0.24467 0.24467,0.58109 0.0437,0.21846 0.0437,0.76461 v 2.85306 h -0.78645 v -2.82248 q 0,-0.48061 -0.0917,-0.71654 -0.0917,-0.2403 -0.32768,-0.38012 -0.23157,-0.14418 -0.54615,-0.14418 -0.50245,0 -0.86946,0.31895 -0.36264,0.31895 -0.36264,1.21026 v 2.53411 z m 6.69355,-0.70344 0.1136,0.6947 q -0.33206,0.0699 -0.59421,0.0699 -0.42817,0 -0.66411,-0.13544 -0.23593,-0.13544 -0.33205,-0.3539 -0.0961,-0.22283 -0.0961,-0.93063 v -2.66956 h -0.57672 v -0.61168 h 0.57672 v -1.14909 l 0.78208,-0.47186 v 1.62095 h 0.79082 v 0.61168 h -0.79082 v 2.71325 q 0,0.33642 0.0393,0.43255 0.0437,0.0961 0.13544,0.15292 0.0961,0.0568 0.27089,0.0568 0.13107,0 0.34516,-0.0306 z m 3.7968,0.13108 q -0.43691,0.37137 -0.84325,0.5243 -0.40196,0.15292 -0.86509,0.15292 -0.7646,0 -1.1753,-0.37138 -0.4107,-0.37575 -0.4107,-0.95685 0,-0.34079 0.15292,-0.62042 0.15729,-0.28399 0.40633,-0.45439 0.25341,-0.1704 0.56799,-0.25778 0.23156,-0.0612 0.69906,-0.11797 0.95248,-0.1136 1.4025,-0.27089 0.004,-0.16165 0.004,-0.20535 0,-0.4806 -0.22282,-0.67721 -0.30148,-0.26652 -0.89568,-0.26652 -0.55488,0 -0.8214,0.19661 -0.26215,0.19224 -0.38886,0.68596 l -0.76897,-0.10486 q 0.10486,-0.49372 0.34516,-0.79519 0.24031,-0.30584 0.6947,-0.4675 0.45439,-0.16603 1.05297,-0.16603 0.5942,0 0.96558,0.13982 0.37138,0.13981 0.54614,0.3539 0.17477,0.20972 0.24468,0.53303 0.0393,0.20099 0.0393,0.72528 v 1.0486 q 0,1.09666 0.0481,1.38939 0.0524,0.28837 0.20098,0.55489 h -0.8214 q -0.12234,-0.24468 -0.15729,-0.57236 z m -0.0655,-1.7564 q -0.42817,0.17476 -1.28453,0.2971 -0.48497,0.0699 -0.68596,0.15729 -0.20098,0.0874 -0.31021,0.25778 -0.10922,0.16603 -0.10922,0.37138 0,0.31458 0.23593,0.5243 0.2403,0.20971 0.69906,0.20971 0.4544,0 0.8083,-0.19661 0.3539,-0.20098 0.51993,-0.54614 0.1267,-0.26652 0.1267,-0.78645 z m 1.9967,2.32876 v -6.40519 h 0.78644 v 6.40519 z m 7.50183,0 v -0.58547 q -0.44128,0.69033 -1.29764,0.69033 -0.55488,0 -1.02238,-0.30585 -0.46313,-0.30584 -0.72091,-0.85198 -0.25341,-0.55051 -0.25341,-1.26269 0,-0.69469 0.23157,-1.25831 0.23156,-0.56799 0.69469,-0.86947 0.46313,-0.30147 1.03549,-0.30147 0.41944,0 0.74713,0.17914 0.32768,0.17476 0.53303,0.45876 v -2.29818 H 220.89 v 6.40519 z m -2.48605,-2.31566 q 0,0.89131 0.37575,1.3326 0.37575,0.44128 0.88694,0.44128 0.51556,0 0.87383,-0.41944 0.36264,-0.42381 0.36264,-1.2889 0,-0.95248 -0.36701,-1.39813 -0.36701,-0.44565 -0.90441,-0.44565 -0.5243,0 -0.8782,0.42817 -0.34954,0.42818 -0.34954,1.35007 z m 7.62855,0.8214 0.81267,0.1005 q -0.19225,0.71217 -0.71218,1.10539 -0.51993,0.39323 -1.32822,0.39323 -1.01801,0 -1.61659,-0.62479 -0.5942,-0.62916 -0.5942,-1.76077 0,-1.17094 0.60294,-1.81757 0.60294,-0.64664 1.56416,-0.64664 0.93063,0 1.52046,0.63353 0.58984,0.63353 0.58984,1.78262 0,0.0699 -0.004,0.20972 h -3.46037 q 0.0437,0.7646 0.43255,1.17093 0.38885,0.40633 0.96995,0.40633 0.43255,0 0.73839,-0.2272 0.30584,-0.22719 0.48497,-0.72528 z m -2.58217,-1.27142 h 2.59091 q -0.0524,-0.58547 -0.2971,-0.8782 -0.37575,-0.45439 -0.97432,-0.45439 -0.54178,0 -0.91316,0.36264 -0.36701,0.36264 -0.40633,0.96995 z m 9.89615,2.19332 q -0.43692,0.37137 -0.84325,0.5243 -0.40196,0.15292 -0.86509,0.15292 -0.76461,0 -1.17531,-0.37138 -0.4107,-0.37575 -0.4107,-0.95685 0,-0.34079 0.15292,-0.62042 0.15729,-0.28399 0.40633,-0.45439 0.25342,-0.1704 0.56799,-0.25778 0.23157,-0.0612 0.69907,-0.11797 0.95248,-0.1136 1.4025,-0.27089 0.004,-0.16165 0.004,-0.20535 0,-0.4806 -0.22283,-0.67721 -0.30147,-0.26652 -0.89568,-0.26652 -0.55488,0 -0.8214,0.19661 -0.26215,0.19224 -0.38885,0.68596 l -0.76897,-0.10486 q 0.10486,-0.49372 0.34516,-0.79519 0.2403,-0.30584 0.6947,-0.4675 0.45439,-0.16603 1.05296,-0.16603 0.59421,0 0.96559,0.13982 0.37137,0.13981 0.54614,0.3539 0.17477,0.20972 0.24467,0.53303 0.0393,0.20099 0.0393,0.72528 v 1.0486 q 0,1.09666 0.0481,1.38939 0.0524,0.28837 0.20098,0.55489 h -0.8214 q -0.12234,-0.24468 -0.15729,-0.57236 z m -0.0655,-1.7564 q -0.42818,0.17476 -1.28453,0.2971 -0.48498,0.0699 -0.68596,0.15729 -0.20098,0.0874 -0.31021,0.25778 -0.10923,0.16603 -0.10923,0.37138 0,0.31458 0.23594,0.5243 0.2403,0.20971 0.69906,0.20971 0.45439,0 0.80829,-0.19661 0.35391,-0.20098 0.51993,-0.54614 0.12671,-0.26652 0.12671,-0.78645 z m 2.00544,2.32876 v -4.64005 h 0.70781 v 0.70344 q 0.27088,-0.49372 0.49808,-0.65101 0.23157,-0.15729 0.50682,-0.15729 0.3976,0 0.8083,0.25341 l -0.27089,0.72965 q -0.28837,-0.17039 -0.57673,-0.17039 -0.25778,0 -0.46313,0.15729 -0.20535,0.15292 -0.29273,0.42817 -0.13108,0.41944 -0.13108,0.91753 v 2.42925 z m 2.84431,0.38448 0.7646,0.1136 q 0.0481,0.3539 0.26652,0.51556 0.29274,0.21846 0.79956,0.21846 0.54614,0 0.84324,-0.21846 0.29711,-0.21846 0.40197,-0.61168 0.0612,-0.24031 0.0568,-1.00928 -0.51556,0.60732 -1.28454,0.60732 -0.95684,0 -1.48114,-0.69033 -0.5243,-0.69033 -0.5243,-1.65591 0,-0.66411 0.24031,-1.22336 0.2403,-0.56363 0.69469,-0.86947 0.45876,-0.30584 1.07481,-0.30584 0.8214,0 1.35444,0.66411 v -0.55925 h 0.72528 v 4.01089 q 0,1.08355 -0.22283,1.53357 -0.21845,0.45439 -0.69906,0.71654 -0.47624,0.26215 -1.1753,0.26215 -0.83014,0 -1.34133,-0.37575 -0.51119,-0.37137 -0.49372,-1.12287 z m 0.65101,-2.78752 q 0,0.91315 0.36264,1.33259 0.36264,0.41944 0.90878,0.41944 0.54178,0 0.90878,-0.41507 0.36701,-0.41944 0.36701,-1.31074 0,-0.85199 -0.38011,-1.28454 -0.37575,-0.43254 -0.90879,-0.43254 -0.5243,0 -0.89131,0.42817 -0.367,0.42381 -0.367,1.26269 z m 7.64602,0.90878 0.81266,0.1005 q -0.19224,0.71217 -0.71217,1.10539 -0.51993,0.39323 -1.32822,0.39323 -1.01802,0 -1.61659,-0.62479 -0.5942,-0.62916 -0.5942,-1.76077 0,-1.17094 0.60294,-1.81757 0.60294,-0.64664 1.56416,-0.64664 0.93063,0 1.52046,0.63353 0.58984,0.63353 0.58984,1.78262 0,0.0699 -0.004,0.20972 h -3.46037 q 0.0437,0.7646 0.43254,1.17093 0.38886,0.40633 0.96996,0.40633 0.43254,0 0.73838,-0.2272 0.30585,-0.22719 0.48498,-0.72528 z m -2.58217,-1.27142 h 2.59091 q -0.0524,-0.58547 -0.2971,-0.8782 -0.37575,-0.45439 -0.97433,-0.45439 -0.54177,0 -0.91315,0.36264 -0.36701,0.36264 -0.40633,0.96995 z m 4.38227,2.76568 v -4.64005 h 0.7078 v 0.65975 q 0.51119,-0.76461 1.47677,-0.76461 0.41944,0 0.76897,0.15292 0.35391,0.14855 0.52867,0.39323 0.17477,0.24467 0.24468,0.58109 0.0437,0.21846 0.0437,0.76461 v 2.85306 h -0.78645 v -2.82248 q 0,-0.48061 -0.0918,-0.71654 -0.0918,-0.2403 -0.32769,-0.38012 -0.23157,-0.14418 -0.54614,-0.14418 -0.50246,0 -0.86947,0.31895 -0.36264,0.31895 -0.36264,1.21026 v 2.53411 z m 6.69354,-0.70344 0.1136,0.6947 q -0.33205,0.0699 -0.5942,0.0699 -0.42818,0 -0.66411,-0.13544 -0.23594,-0.13544 -0.33206,-0.3539 -0.0961,-0.22283 -0.0961,-0.93063 v -2.66956 h -0.57673 v -0.61168 h 0.57673 v -1.14909 l 0.78208,-0.47186 v 1.62095 h 0.79081 v 0.61168 h -0.79081 v 2.71325 q 0,0.33642 0.0393,0.43255 0.0437,0.0961 0.13544,0.15292 0.0961,0.0568 0.27089,0.0568 0.13108,0 0.34516,-0.0306 z m 0.77335,-4.79733 v -0.90442 h 0.78645 v 0.90442 z m 0,5.50077 v -4.64005 h 0.78645 v 4.64005 z m 1.98359,0 v -4.64005 h 0.7078 v 0.65975 q 0.5112,-0.76461 1.47678,-0.76461 0.41944,0 0.76897,0.15292 0.3539,0.14855 0.52867,0.39323 0.17476,0.24467 0.24467,0.58109 0.0437,0.21846 0.0437,0.76461 v 2.85306 h -0.78645 v -2.82248 q 0,-0.48061 -0.0917,-0.71654 -0.0917,-0.2403 -0.32768,-0.38012 -0.23157,-0.14418 -0.54615,-0.14418 -0.50245,0 -0.86946,0.31895 -0.36264,0.31895 -0.36264,1.21026 v 2.53411 z m 8.0043,-0.57236 q -0.43692,0.37137 -0.84325,0.5243 -0.40196,0.15292 -0.86509,0.15292 -0.76461,0 -1.17531,-0.37138 -0.4107,-0.37575 -0.4107,-0.95685 0,-0.34079 0.15292,-0.62042 0.15729,-0.28399 0.40634,-0.45439 0.25341,-0.1704 0.56799,-0.25778 0.23156,-0.0612 0.69906,-0.11797 0.95248,-0.1136 1.4025,-0.27089 0.004,-0.16165 0.004,-0.20535 0,-0.4806 -0.22283,-0.67721 -0.30147,-0.26652 -0.89568,-0.26652 -0.55488,0 -0.8214,0.19661 -0.26215,0.19224 -0.38885,0.68596 l -0.76897,-0.10486 q 0.10486,-0.49372 0.34516,-0.79519 0.2403,-0.30584 0.6947,-0.4675 0.45439,-0.16603 1.05296,-0.16603 0.59421,0 0.96559,0.13982 0.37137,0.13981 0.54614,0.3539 0.17477,0.20972 0.24467,0.53303 0.0393,0.20099 0.0393,0.72528 v 1.0486 q 0,1.09666 0.0481,1.38939 0.0524,0.28837 0.20098,0.55489 h -0.8214 q -0.12234,-0.24468 -0.15729,-0.57236 z m -0.0655,-1.7564 q -0.42818,0.17476 -1.28453,0.2971 -0.48498,0.0699 -0.68596,0.15729 -0.20098,0.0874 -0.31021,0.25778 -0.10923,0.16603 -0.10923,0.37138 0,0.31458 0.23594,0.5243 0.2403,0.20971 0.69906,0.20971 0.45439,0 0.80829,-0.19661 0.35391,-0.20098 0.51993,-0.54614 0.12671,-0.26652 0.12671,-0.78645 z"
       id="text2"
       aria-label="bienal internacional de poesía experimental de argentina" /></g></svg>
