<?xml version="1.0" encoding="UTF-8" standalone="no"?>
<!-- Created with Inkscape (http://www.inkscape.org/) -->

<svg
   width="158.75mm"
   height="26.21056mm"
   viewBox="0 0 158.75 26.21056"
   version="1.1"
   id="svg8"
   inkscape:version="1.3.2 (1:1.3.2+202311252150+091e20ef0f)"
   sodipodi:docname="logo-posverso.svg"
   xmlns:inkscape="http://www.inkscape.org/namespaces/inkscape"
   xmlns:sodipodi="http://sodipodi.sourceforge.net/DTD/sodipodi-0.dtd"
   xmlns="http://www.w3.org/2000/svg"
   xmlns:svg="http://www.w3.org/2000/svg"
   xmlns:rdf="http://www.w3.org/1999/02/22-rdf-syntax-ns#"
   xmlns:cc="http://creativecommons.org/ns#"
   xmlns:dc="http://purl.org/dc/elements/1.1/">
  <defs
     id="defs2" />
  <sodipodi:namedview
     id="base"
     pagecolor="#ffffff"
     bordercolor="#666666"
     borderopacity="1.0"
     inkscape:pageopacity="0"
     inkscape:pageshadow="2"
     inkscape:zoom="0.39375"
     inkscape:cx="-81.051971"
     inkscape:cy="558.86667"
     inkscape:document-units="mm"
     inkscape:current-layer="layer1"
     showgrid="false"
     inkscape:window-width="1366"
     inkscape:window-height="741"
     inkscape:window-x="0"
     inkscape:window-y="0"
     inkscape:window-maximized="1"
     inkscape:showpageshadow="2"
     inkscape:pagecheckerboard="0"
     inkscape:deskcolor="#d1d1d1"
     showguides="false">
    <sodipodi:guide
       position="-274.57026,-290.30586"
       orientation="0,-1"
       id="guide239"
       inkscape:locked="false" />
    <sodipodi:guide
       position="-490.30226,-365.34609"
       orientation="0,-1"
       id="guide314"
       inkscape:locked="false" />
    <sodipodi:guide
       position="53.294537,568.14757"
       orientation="0,-1"
       id="guide450"
       inkscape:locked="false" />
    <sodipodi:guide
       position="277.87784,383.56423"
       orientation="0,-1"
       id="guide451"
       inkscape:locked="false" />
    <sodipodi:guide
       position="622.46124,588.14757"
       orientation="1,0"
       id="guide452"
       inkscape:locked="false" />
    <sodipodi:guide
       position="807.04454,363.56423"
       orientation="1,0"
       id="guide453"
       inkscape:locked="false" />
    <sodipodi:guide
       position="1171.6277,588.14757"
       orientation="1,0"
       id="guide454"
       inkscape:locked="false" />
    <sodipodi:guide
       position="1356.2111,383.56422"
       orientation="1,0"
       id="guide455"
       inkscape:locked="false" />
    <sodipodi:guide
       position="2269.9613,568.14757"
       orientation="1,0"
       id="guide456"
       inkscape:locked="false" />
    <sodipodi:guide
       position="2454.5445,383.56422"
       orientation="1,0"
       id="guide457"
       inkscape:locked="false" />
    <sodipodi:guide
       position="73.294537,568.14757"
       orientation="1,0"
       id="guide459"
       inkscape:locked="false" />
    <sodipodi:guide
       position="257.87784,363.56423"
       orientation="1,0"
       id="guide460"
       inkscape:locked="false" />
    <sodipodi:guide
       position="401.35934,482.53823"
       orientation="0,-1"
       id="guide538"
       inkscape:locked="false" />
    <sodipodi:guide
       position="387.97354,396.92891"
       orientation="0,-1"
       id="guide539"
       inkscape:locked="false" />
    <sodipodi:guide
       position="3298.2945,363.56423"
       orientation="1,0"
       id="guide566"
       inkscape:locked="false" />
    <sodipodi:guide
       position="3093.7112,588.14757"
       orientation="1,0"
       id="guide567"
       inkscape:locked="false" />
    <inkscape:page
       x="0"
       y="0"
       width="158.75"
       height="26.210562"
       id="page1"
       margin="0"
       bleed="0"
       inkscape:export-filename="opciones_iniciales-logo_posverso_2.pdf"
       inkscape:export-xdpi="96"
       inkscape:export-ydpi="96" />
    <sodipodi:guide
       position="33.294537,343.56423"
       orientation="1,0"
       id="guide1"
       inkscape:locked="false" />
    <sodipodi:guide
       position="156.10924,154.5021"
       orientation="1,0"
       id="guide6"
       inkscape:locked="false" />
    <sodipodi:guide
       position="91.036537,104.73964"
       orientation="1,0"
       id="guide9"
       inkscape:locked="false" />
    <sodipodi:guide
       position="144.15634,99.503976"
       orientation="1,0"
       id="guide10"
       inkscape:locked="false" />
    <sodipodi:guide
       position="235.44954,98.672476"
       orientation="1,0"
       id="guide12"
       inkscape:locked="false" />
    <sodipodi:guide
       position="288.50704,136.09732"
       orientation="1,0"
       id="guide18"
       inkscape:locked="false" />
    <sodipodi:guide
       position="272.59544,94.351956"
       orientation="0,-1"
       id="guide21"
       inkscape:locked="false" />
    <sodipodi:guide
       position="375.23094,7.2069064"
       orientation="1,0"
       id="guide27"
       inkscape:locked="false" />
    <sodipodi:guide
       position="100.40893,82.279946"
       orientation="1,0"
       id="guide80"
       inkscape:locked="false" />
  </sodipodi:namedview>
  <metadata
     id="metadata5">
    <rdf:RDF>
      <cc:Work
         rdf:about="">
        <dc:format>image/svg+xml</dc:format>
        <dc:type
           rdf:resource="http://purl.org/dc/dcmitype/StillImage" />
      </cc:Work>
    </rdf:RDF>
  </metadata>
  <g
     inkscape:label="Capa 1"
     inkscape:groupmode="layer"
     id="layer1"
     transform="translate(33.294447,-343.56425)">
    <path
       style="-inkscape-font-specification:'Arial Black, ';fill:#000000;fill-opacity:1;stroke-width:1.00371;paint-order:stroke markers fill"
       d="m 97.982918,343.99651 h 8.195102 l 5.70547,18.24018 5.619,-18.24018 h 7.95306 l -9.40535,25.34607 h -8.48903 z"
       id="path6" />
    <path
       style="-inkscape-font-specification:'Arial Black, ';fill:#000000;fill-opacity:1;stroke-width:1.00371;paint-order:stroke markers fill"
       d="M 96.032964,343.99651 H 75.043793 v 5.41154 h 13.139842 v 4.02841 H 75.994709 v 5.16948 h 12.188926 v 4.9966 h -13.5202 v 5.74004 h 21.369529 z"
       id="path5" />
    <path
       style="-inkscape-font-specification:'Arial Black, ';fill:#000000;fill-opacity:1;stroke-width:1.00371;paint-order:stroke markers fill"
       d="m 70.743816,369.34258 v -25.34607 h -13.05339 q -3.630744,0 -5.549853,0.62242 -1.919104,0.6224 -3.094777,2.31675 -1.175671,1.67707 -1.175671,4.09756 0,2.10929 0.899041,3.64804 0.899041,1.52145 2.472365,2.47237 1.002777,0.60512 2.748997,1.00277 -1.400436,0.46681 -2.040139,0.93363 -0.432227,0.3112 -1.244825,1.33126 -0.829881,1.02007 -1.106511,1.57332 l -3.786347,7.34795 h 8.8521 l 4.184006,-7.7456 q 0.795305,-1.50416 1.417714,-1.95368 0.847175,-0.58784 1.91911,-0.58784 h 0.69157 v 10.28712 z m -7.86661,-15.07625 h -3.30225 q -0.535968,0 -2.074713,-0.34578 -0.778012,-0.15561 -1.262113,-0.79531 -0.501387,-0.6397 -0.501387,-1.46958 0,-1.22754 0.778019,-1.88452 0.778011,-0.657 2.921879,-0.657 h 3.440565 z"
       id="path4" />
    <path
       style="-inkscape-font-specification:'Arial Black, ';fill:#000000;fill-opacity:1;stroke-width:1.00371;paint-order:stroke markers fill"
       d="m 20.440579,360.95727 7.451678,-0.46679 q 0.242044,1.81536 0.985481,2.76627 1.210253,1.53876 3.457856,1.53876 1.677058,0 2.5761,-0.77803 0.916334,-0.7953 0.916334,-1.83266 0,-0.9855 -0.864467,-1.76351 -0.86446,-0.77801 -4.011109,-1.46958 -5.152203,-1.15839 -7.347937,-3.07749 -2.213028,-1.9191 -2.213028,-4.89287 0,-1.95368 1.123804,-3.68261 1.141092,-1.74621 3.405988,-2.7317 2.282182,-1.00278 6.241425,-1.00278 4.858283,0 7.399803,1.81537 2.558813,1.79808 3.042907,5.74004 l -7.382516,0.43224 q -0.293919,-1.71165 -1.244826,-2.48967 -0.933622,-0.778 -2.593388,-0.778 -1.365855,0 -2.057418,0.58783 -0.691571,0.57055 -0.691571,1.40043 0,0.60511 0.570542,1.08922 0.553254,0.5014 2.627968,0.93362 5.134914,1.10651 7.347935,2.2476 2.230316,1.12381 3.233091,2.80086 1.02007,1.67706 1.02007,3.75177 0,2.43779 -1.348561,4.49521 -1.348561,2.05742 -3.76906,3.12936 -2.420498,1.05465 -6.103109,1.05465 -6.466189,0 -8.955841,-2.48966 -2.489652,-2.48964 -2.818151,-6.32788 z"
       id="path3" />
    <path
       style="-inkscape-font-specification:'Arial Black, ';fill:#000000;fill-opacity:1;stroke-width:1.00371;paint-order:stroke markers fill"
       d="m -8.6745397,356.68679 q 0,-6.20684 3.4578546,-9.66469 3.4578546,-3.45785 9.6301183,-3.45785 6.3278728,0 9.7511468,3.40598 3.423274,3.3887 3.423274,9.5091 0,4.44335 -1.50417,7.29606 -1.486878,2.83544 -4.322316,4.42606 -2.8181503,1.57333 -7.0367301,1.57333 -4.28773391,0 -7.105885,-1.36585 -2.8008573,-1.36586 -4.5470785,-4.32233 -1.7462141,-2.95646 -1.7462141,-7.39981 z m 7.83203679,0.0346 q 0,3.83822 1.4177225,5.51528 1.43500931,1.67706 3.89008111,1.67706 2.5242331,0 3.9073749,-1.64248 1.3831419,-1.64249 1.3831419,-5.89564 0,-3.57887 -1.4523033,-5.22136 -1.4350022,-1.65977 -3.9073678,-1.65977 -2.3686308,0 -3.80364003,1.67706 -1.43500928,1.67706 -1.43500928,5.54985 z"
       id="path2" />
    <path
       style="-inkscape-font-specification:'Arial Black, ';fill:#000000;fill-opacity:1;stroke-width:1.00371;paint-order:stroke markers fill"
       d="m -33.294447,343.99648 h 13.018812 q 4.25316,0 6.362453,2.02284 2.126574,2.02285 2.126574,5.75732 0,3.83823 -2.316758,5.99938 -2.299475,2.16115 -7.036729,2.16115 h -4.287742 v 9.40537 h -7.86661 z m 7.86661,10.80578 h 1.919111 q 2.264895,0 3.181222,-0.77801 0.916336,-0.79531 0.916336,-2.02284 0,-1.19295 -0.795307,-2.02284 -0.795305,-0.82989 -2.991047,-0.82989 h -2.230315 z"
       id="text1" />
  </g>
</svg>
