<?xml version="1.0" encoding="UTF-8" standalone="no"?>
<!-- Created with Inkscape (http://www.inkscape.org/) -->

<svg
   width="124.30302mm"
   height="111.8654mm"
   viewBox="0 0 124.30302 111.8654"
   version="1.1"
   id="svg8"
   inkscape:version="1.3.2 (1:1.3.2+202311252150+091e20ef0f)"
   sodipodi:docname="logo-posverso_completo.svg"
   xmlns:inkscape="http://www.inkscape.org/namespaces/inkscape"
   xmlns:sodipodi="http://sodipodi.sourceforge.net/DTD/sodipodi-0.dtd"
   xmlns="http://www.w3.org/2000/svg"
   xmlns:svg="http://www.w3.org/2000/svg"
   xmlns:rdf="http://www.w3.org/1999/02/22-rdf-syntax-ns#"
   xmlns:cc="http://creativecommons.org/ns#"
   xmlns:dc="http://purl.org/dc/elements/1.1/">
  <defs
     id="defs2" />
  <sodipodi:namedview
     id="base"
     pagecolor="#ffffff"
     bordercolor="#666666"
     borderopacity="1.0"
     inkscape:pageopacity="0"
     inkscape:pageshadow="2"
     inkscape:zoom="0.39375"
     inkscape:cx="-81.051971"
     inkscape:cy="558.86667"
     inkscape:document-units="mm"
     inkscape:current-layer="g3"
     showgrid="false"
     inkscape:window-width="1366"
     inkscape:window-height="741"
     inkscape:window-x="0"
     inkscape:window-y="0"
     inkscape:window-maximized="1"
     inkscape:showpageshadow="2"
     inkscape:pagecheckerboard="0"
     inkscape:deskcolor="#d1d1d1"
     showguides="false">
    <sodipodi:guide
       position="-268.73819,-368.57694"
       orientation="0,-1"
       id="guide239"
       inkscape:locked="false" />
    <sodipodi:guide
       position="-484.47019,-443.61717"
       orientation="0,-1"
       id="guide314"
       inkscape:locked="false" />
    <sodipodi:guide
       position="59.126584,489.87647"
       orientation="0,-1"
       id="guide450"
       inkscape:locked="false" />
    <sodipodi:guide
       position="283.70989,305.29314"
       orientation="0,-1"
       id="guide451"
       inkscape:locked="false" />
    <sodipodi:guide
       position="628.29328,509.87647"
       orientation="1,0"
       id="guide452"
       inkscape:locked="false" />
    <sodipodi:guide
       position="812.87658,285.29314"
       orientation="1,0"
       id="guide453"
       inkscape:locked="false" />
    <sodipodi:guide
       position="1177.4597,509.87647"
       orientation="1,0"
       id="guide454"
       inkscape:locked="false" />
    <sodipodi:guide
       position="1362.0431,305.29313"
       orientation="1,0"
       id="guide455"
       inkscape:locked="false" />
    <sodipodi:guide
       position="2275.7933,489.87647"
       orientation="1,0"
       id="guide456"
       inkscape:locked="false" />
    <sodipodi:guide
       position="2460.3765,305.29313"
       orientation="1,0"
       id="guide457"
       inkscape:locked="false" />
    <sodipodi:guide
       position="79.126583,489.87647"
       orientation="1,0"
       id="guide459"
       inkscape:locked="false" />
    <sodipodi:guide
       position="263.70989,285.29314"
       orientation="1,0"
       id="guide460"
       inkscape:locked="false" />
    <sodipodi:guide
       position="407.19138,404.26713"
       orientation="0,-1"
       id="guide538"
       inkscape:locked="false" />
    <sodipodi:guide
       position="393.80558,318.65782"
       orientation="0,-1"
       id="guide539"
       inkscape:locked="false" />
    <sodipodi:guide
       position="3304.1265,285.29314"
       orientation="1,0"
       id="guide566"
       inkscape:locked="false" />
    <sodipodi:guide
       position="3099.5432,509.87647"
       orientation="1,0"
       id="guide567"
       inkscape:locked="false" />
    <inkscape:page
       x="0"
       y="0"
       width="124.30302"
       height="111.8654"
       id="page1"
       margin="0"
       bleed="0"
       inkscape:export-filename="logo-posverso_compartir.png"
       inkscape:export-xdpi="96"
       inkscape:export-ydpi="96" />
    <sodipodi:guide
       position="39.126585,265.29314"
       orientation="1,0"
       id="guide1"
       inkscape:locked="false" />
    <sodipodi:guide
       position="161.94129,76.231016"
       orientation="1,0"
       id="guide6"
       inkscape:locked="false" />
    <sodipodi:guide
       position="96.868583,26.468547"
       orientation="1,0"
       id="guide9"
       inkscape:locked="false" />
    <sodipodi:guide
       position="149.98839,21.232888"
       orientation="1,0"
       id="guide10"
       inkscape:locked="false" />
    <sodipodi:guide
       position="241.28159,20.401388"
       orientation="1,0"
       id="guide12"
       inkscape:locked="false" />
    <sodipodi:guide
       position="294.33909,57.826236"
       orientation="1,0"
       id="guide18"
       inkscape:locked="false" />
    <sodipodi:guide
       position="278.42749,16.080868"
       orientation="0,-1"
       id="guide21"
       inkscape:locked="false" />
    <sodipodi:guide
       position="381.06299,-71.06418"
       orientation="1,0"
       id="guide27"
       inkscape:locked="false" />
    <sodipodi:guide
       position="106.24099,4.0088573"
       orientation="1,0"
       id="guide80"
       inkscape:locked="false" />
  </sodipodi:namedview>
  <metadata
     id="metadata5">
    <rdf:RDF>
      <cc:Work
         rdf:about="">
        <dc:format>image/svg+xml</dc:format>
        <dc:type
           rdf:resource="http://purl.org/dc/dcmitype/StillImage" />
      </cc:Work>
    </rdf:RDF>
  </metadata>
  <g
     inkscape:label="Capa 1"
     inkscape:groupmode="layer"
     id="layer1"
     transform="translate(39.126495,-308.20824)">
    <g
       id="g3"
       transform="translate(-0.23268138,-1.0729066)">
      <g
         id="g78"
         transform="matrix(2.2334073,0,0,2.2334073,-236.21234,-944.18158)">
        <path
           style="font-weight:900;font-stretch:extra-condensed;font-size:21.6237px;line-height:75%;font-family:'Archivo ExtraCondensed';-inkscape-font-specification:'Archivo ExtraCondensed,  Heavy Extra-Condensed';letter-spacing:0px;word-spacing:0px;baseline-shift:baseline;stroke-width:0.557232;paint-order:stroke markers fill"
           d="m 93.146058,597.14417 -2.57322,-14.87711 h 4.194997 l 0.864948,7.58992 q 0.04325,0.3676 0.08649,0.90819 0.04325,0.5406 0.08649,1.08119 0.04325,0.54059 0.06487,0.95144 h 0.194613 q 0.04325,-0.41085 0.06487,-0.92982 0.04325,-0.54059 0.08649,-1.08118 0.04325,-0.5406 0.08649,-0.92982 l 0.864948,-7.58992 h 4.086886 l -2.573227,14.87711 z m 8.973822,0 v -14.87711 h 8.60623 v 3.41654 h -4.62747 v 2.20562 h 3.84902 v 3.41655 h -3.84902 v 2.42185 h 4.73559 v 3.41655 z m 10.05499,0 v -14.87711 h 5.44917 q 1.66502,0 2.59484,0.60546 0.92982,0.60547 1.29742,1.6434 0.38923,1.03794 0.38923,2.31374 0,1.16768 -0.23786,2.20562 -0.23786,1.01631 -0.97307,1.77314 l 1.6434,6.33575 h -4.08688 l -1.03793,-4.99508 h -1.05956 v 4.99508 z m 3.97876,-8.13052 h 0.92982 q 0.51896,0 0.69195,-0.54059 0.17299,-0.56221 0.17299,-1.25417 0,-0.47572 -0.0865,-0.84333 -0.0649,-0.38922 -0.25949,-0.62708 -0.17299,-0.23787 -0.51896,-0.23787 h -0.92982 z m 11.5254,8.39 q -0.97307,0 -1.83802,-0.19461 -0.84332,-0.19462 -1.51366,-0.69196 -0.64871,-0.51897 -1.01631,-1.42717 -0.3676,-0.90819 -0.3676,-2.35698 0,-0.0433 0,-0.19461 0,-0.17299 0.0216,-0.25949 h 3.78415 q 0,0.10812 0,0.23786 0,0.10812 0,0.21624 0,0.56222 0.10812,0.84332 0.10811,0.28111 0.2811,0.38923 0.17299,0.0865 0.41085,0.0865 0.15137,0 0.25949,-0.0432 0.10812,-0.0433 0.19461,-0.12974 0.0865,-0.0865 0.12974,-0.21624 0.0649,-0.12974 0.0865,-0.30273 0.0433,-0.17299 0.0433,-0.36761 0,-0.41085 -0.23786,-0.69195 -0.21624,-0.28111 -0.58384,-0.49735 -0.34598,-0.21624 -0.80008,-0.41085 -0.4541,-0.21624 -0.95144,-0.4541 -0.49735,-0.23786 -0.95145,-0.56221 -0.45409,-0.34598 -0.8217,-0.84333 -0.3676,-0.49734 -0.58384,-1.1893 -0.21623,-0.69196 -0.21623,-1.6434 0,-1.29742 0.3676,-2.184 0.3676,-0.90819 1.01631,-1.44878 0.67034,-0.56222 1.47041,-0.8217 0.8217,-0.25949 1.7299,-0.25949 0.88657,0 1.66502,0.21624 0.77846,0.21624 1.3623,0.69196 0.60546,0.47572 0.92982,1.2758 0.34598,0.80007 0.34598,1.96775 v 0.62709 h -3.71928 v -0.25948 q 0,-0.36761 -0.0433,-0.60547 -0.0433,-0.25948 -0.15136,-0.38923 -0.10812,-0.12974 -0.36761,-0.12974 -0.23786,0 -0.3676,0.10812 -0.12974,0.10812 -0.17299,0.30273 -0.0433,0.17299 -0.0433,0.43248 0,0.45409 0.21624,0.77845 0.21624,0.32436 0.58384,0.56222 0.3676,0.21623 0.8217,0.43247 0.47572,0.19461 0.95144,0.43247 0.47573,0.23786 0.92982,0.56222 0.47572,0.32436 0.84333,0.80008 0.3676,0.47572 0.58384,1.14605 0.21623,0.67034 0.21623,1.60016 0,1.62177 -0.56221,2.70296 -0.54059,1.08118 -1.57853,1.62178 -1.01632,0.54059 -2.4651,0.54059 z m 10.96317,0 q -1.83801,0 -3.02731,-0.77845 -1.16768,-0.77846 -1.77315,-2.46511 -0.58384,-1.70827 -0.58384,-4.45448 0,-2.74621 0.58384,-4.43286 0.60547,-1.70827 1.77315,-2.48672 1.1893,-0.77845 3.02731,-0.77845 1.81639,0 3.0057,0.77845 1.21093,0.77845 1.77314,2.48672 0.58384,1.68665 0.58384,4.43286 0,2.74621 -0.58384,4.45448 -0.56221,1.68665 -1.77314,2.46511 -1.18931,0.77845 -3.0057,0.77845 z m 0,-3.39492 q 0.4541,0 0.71359,-0.19461 0.25948,-0.19462 0.38922,-0.5406 0.15137,-0.3676 0.19462,-0.86495 0.0432,-0.51896 0.0432,-1.16767 v -3.07057 q 0,-0.64871 -0.0432,-1.14606 -0.0433,-0.49734 -0.19462,-0.86494 -0.12974,-0.36761 -0.38922,-0.56222 -0.25949,-0.19461 -0.71359,-0.19461 -0.45409,0 -0.7352,0.19461 -0.25949,0.19461 -0.38923,0.56222 -0.12974,0.3676 -0.17299,0.86494 -0.0432,0.49735 -0.0432,1.14606 v 3.07057 q 0,0.64871 0.0432,1.16767 0.0433,0.49735 0.17299,0.86495 0.12974,0.34598 0.38923,0.5406 0.28111,0.19461 0.7352,0.19461 z"
           id="text65"
           aria-label="VERSO" />
        <path
           style="font-weight:800;font-stretch:expanded;font-size:20.3348px;line-height:75%;font-family:'Archivo Expanded';-inkscape-font-specification:'Archivo Expanded,  Ultra-Bold Expanded';letter-spacing:0px;word-spacing:0px;baseline-shift:baseline;stroke-width:0.524015;paint-order:stroke markers fill"
           d="M -9.8227876,590.0293 V 576.03895 H 0.95465675 q 1.38276645,0 2.39950645,0.61005 1.0370749,0.61004 1.6064493,1.68779 0.5897092,1.05741 0.5897092,2.46051 0,1.4031 -0.5897092,2.50118 -0.5897092,1.07774 -1.6267841,1.68779 -1.0370748,0.58971 -2.41984125,0.58971 H -5.6948231 v 4.45332 z m 4.1279645,-7.52388 h 5.47006141 q 0.91506603,0 1.38276649,-0.42703 0.4880352,-0.44737 0.4880352,-1.26076 0,-0.54904 -0.2236828,-0.91506 -0.2236828,-0.38637 -0.63037885,-0.58971 -0.40669602,-0.20335 -1.01674004,-0.20335 H -5.6948231 Z m 21.5782621,7.76789 q -2.806203,0 -4.880353,-0.85406 -2.0538145,-0.87439 -3.1722285,-2.48084 -1.118414,-1.62679 -1.118414,-3.90428 0,-2.2775 1.118414,-3.88395 1.118414,-1.62679 3.1722285,-2.48085 2.07415,-0.87439 4.880353,-0.87439 2.846872,0 4.900687,0.87439 2.053814,0.85406 3.172228,2.48085 1.118415,1.60645 1.118415,3.88395 0,2.27749 -1.118415,3.90428 -1.118414,1.60645 -3.172228,2.48084 -2.053815,0.85406 -4.900687,0.85406 z m 0,-3.07055 q 1.098079,0 1.99281,-0.26435 0.915066,-0.26436 1.56578,-0.77273 0.650713,-0.50837 0.996405,-1.24042 0.366026,-0.75239 0.366026,-1.66745 v -0.48804 q 0,-0.89473 -0.366026,-1.62678 -0.345692,-0.73205 -0.996405,-1.24042 -0.650714,-0.50837 -1.56578,-0.77273 -0.894731,-0.26435 -1.99281,-0.26435 -1.09808,0 -1.992811,0.26435 -0.894731,0.26436 -1.56578,0.77273 -0.650713,0.50837 -0.996405,1.24042 -0.345691,0.73205 -0.345691,1.62678 v 0.48804 q 0,0.91506 0.345691,1.66745 0.345692,0.73205 0.996405,1.24042 0.671049,0.50837 1.56578,0.77273 0.894731,0.26435 1.992811,0.26435 z m 19.138092,3.07055 q -1.708123,0 -3.192564,-0.20334 -1.48444,-0.20335 -2.602854,-0.71172 -1.118414,-0.50837 -1.748793,-1.42344 -0.630379,-0.91506 -0.630379,-2.31816 0,-0.0407 0,-0.10168 0,-0.061 0.02033,-0.12201 h 4.06696 q -0.02033,0.0813 -0.04067,0.16268 0,0.0813 0,0.18301 0,0.63038 0.4677,0.99641 0.488035,0.34569 1.342097,0.48803 0.854061,0.14235 2.013145,0.14235 0.4677,0 0.955736,-0.0203 0.50837,-0.0407 0.97607,-0.10167 0.467701,-0.0813 0.833727,-0.22368 0.386361,-0.14235 0.589709,-0.3457 0.223683,-0.22368 0.223683,-0.54903 0,-0.42704 -0.4677,-0.67105 -0.447366,-0.26436 -1.260758,-0.4067 -0.793057,-0.16268 -1.789463,-0.28469 -0.97607,-0.12201 -2.03348,-0.28468 -1.057409,-0.18302 -2.053814,-0.4677 -0.996406,-0.30503 -1.789463,-0.79306 -0.793057,-0.48804 -1.260758,-1.26076 -0.4677,-0.77272 -0.4677,-1.8708 0,-1.11841 0.54904,-1.91147 0.569374,-0.81339 1.586114,-1.3421 1.01674,-0.5287 2.399507,-0.77272 1.382766,-0.26435 3.00955,-0.26435 1.667454,0 3.009551,0.26435 1.362431,0.26435 2.318167,0.79306 0.97607,0.50837 1.48444,1.30142 0.528705,0.77273 0.528705,1.83014 v 0.28468 H 38.05141 v -0.16268 q 0,-0.42703 -0.366026,-0.75238 -0.366026,-0.3457 -1.077744,-0.52871 -0.691384,-0.20335 -1.687789,-0.20335 -1.199753,0 -1.972476,0.16268 -0.772722,0.14235 -1.138748,0.4067 -0.366027,0.24402 -0.366027,0.56937 0,0.4067 0.467701,0.65072 0.4677,0.22368 1.260757,0.36602 0.793057,0.14235 1.769128,0.26435 0.996405,0.12201 2.053815,0.28469 1.077744,0.16268 2.053815,0.44737 0.996405,0.28468 1.789462,0.77272 0.793057,0.4677 1.260758,1.22009 0.4677,0.73205 0.4677,1.8098 0,1.68778 -0.97607,2.72486 -0.976071,1.03707 -2.684194,1.50477 -1.687788,0.4677 -3.883947,0.4677 z"
           id="text64"
           transform="rotate(-9.7980681)"
           aria-label="POS" />
      </g>
      <text
         xml:space="preserve"
         style="font-weight:300;font-stretch:expanded;font-size:7.93692px;line-height:110%;font-family:'Archivo Expanded';-inkscape-font-specification:'Archivo Expanded,  Light Expanded';text-align:center;text-decoration:none;text-decoration-line:none;text-decoration-color:#000000;letter-spacing:0.661409px;word-spacing:0px;text-anchor:middle;fill:#ffffff;stroke:#c81111;stroke-width:0.0826761;-inkscape-stroke:none;paint-order:stroke markers fill"
         x="26.700251"
         y="402.19946"
         id="text1"><tspan
           sodipodi:role="line"
           style="font-style:normal;font-variant:normal;font-weight:normal;font-stretch:normal;font-family:Archivo;-inkscape-font-specification:Archivo;letter-spacing:0.661409px;fill:#000000;fill-opacity:1;stroke-width:0.0826761"
           x="26.700253"
           y="402.19946"
           id="tspan2">BIENAL INTERNACIONAL</tspan><tspan
           sodipodi:role="line"
           style="font-style:normal;font-variant:normal;font-weight:normal;font-stretch:normal;font-family:Archivo;-inkscape-font-specification:Archivo;letter-spacing:0.661409px;fill:#000000;fill-opacity:1;stroke-width:0.0826761"
           x="26.700249"
           y="410.93008"
           id="tspan6">de Poesía Experimental </tspan><tspan
           sodipodi:role="line"
           style="font-style:normal;font-variant:normal;font-weight:normal;font-stretch:normal;font-family:Archivo;-inkscape-font-specification:Archivo;letter-spacing:0.661409px;fill:#000000;fill-opacity:1;stroke-width:0.0826761"
           x="27.030956"
           y="419.66068"
           id="tspan3">de Argentina</tspan></text>
    </g>
  </g>
</svg>
