<?xml version="1.0" encoding="UTF-8" standalone="no"?>
<!-- Created with Inkscape (http://www.inkscape.org/) -->

<svg
   width="158.74998mm"
   height="158.75mm"
   viewBox="0 0 158.74998 158.75001"
   version="1.1"
   id="svg8"
   inkscape:version="1.3.2 (1:1.3.2+202311252150+091e20ef0f)"
   sodipodi:docname="logo-posverso_compartir.svg"
   xmlns:inkscape="http://www.inkscape.org/namespaces/inkscape"
   xmlns:sodipodi="http://sodipodi.sourceforge.net/DTD/sodipodi-0.dtd"
   xmlns="http://www.w3.org/2000/svg"
   xmlns:svg="http://www.w3.org/2000/svg"
   xmlns:rdf="http://www.w3.org/1999/02/22-rdf-syntax-ns#"
   xmlns:cc="http://creativecommons.org/ns#"
   xmlns:dc="http://purl.org/dc/elements/1.1/">
  <defs
     id="defs2" />
  <sodipodi:namedview
     id="base"
     pagecolor="#ffffff"
     bordercolor="#666666"
     borderopacity="1.0"
     inkscape:pageopacity="0"
     inkscape:pageshadow="2"
     inkscape:zoom="0.39375"
     inkscape:cx="-81.051971"
     inkscape:cy="558.86667"
     inkscape:document-units="mm"
     inkscape:current-layer="g3"
     showgrid="false"
     inkscape:window-width="1366"
     inkscape:window-height="741"
     inkscape:window-x="0"
     inkscape:window-y="0"
     inkscape:window-maximized="1"
     inkscape:showpageshadow="2"
     inkscape:pagecheckerboard="0"
     inkscape:deskcolor="#d1d1d1"
     showguides="false">
    <sodipodi:guide
       position="-251.51472,-347.11942"
       orientation="0,-1"
       id="guide239"
       inkscape:locked="false" />
    <sodipodi:guide
       position="-467.24673,-422.15965"
       orientation="0,-1"
       id="guide314"
       inkscape:locked="false" />
    <sodipodi:guide
       position="76.35007,511.33402"
       orientation="0,-1"
       id="guide450"
       inkscape:locked="false" />
    <sodipodi:guide
       position="300.93338,326.75068"
       orientation="0,-1"
       id="guide451"
       inkscape:locked="false" />
    <sodipodi:guide
       position="645.51678,531.33402"
       orientation="1,0"
       id="guide452"
       inkscape:locked="false" />
    <sodipodi:guide
       position="830.10009,306.75068"
       orientation="1,0"
       id="guide453"
       inkscape:locked="false" />
    <sodipodi:guide
       position="1194.6832,531.33402"
       orientation="1,0"
       id="guide454"
       inkscape:locked="false" />
    <sodipodi:guide
       position="1379.2667,326.75067"
       orientation="1,0"
       id="guide455"
       inkscape:locked="false" />
    <sodipodi:guide
       position="2293.0169,511.33402"
       orientation="1,0"
       id="guide456"
       inkscape:locked="false" />
    <sodipodi:guide
       position="2477.6001,326.75067"
       orientation="1,0"
       id="guide457"
       inkscape:locked="false" />
    <sodipodi:guide
       position="96.35007,511.33402"
       orientation="1,0"
       id="guide459"
       inkscape:locked="false" />
    <sodipodi:guide
       position="280.93338,306.75068"
       orientation="1,0"
       id="guide460"
       inkscape:locked="false" />
    <sodipodi:guide
       position="424.41488,425.72468"
       orientation="0,-1"
       id="guide538"
       inkscape:locked="false" />
    <sodipodi:guide
       position="411.02908,340.11536"
       orientation="0,-1"
       id="guide539"
       inkscape:locked="false" />
    <sodipodi:guide
       position="3321.3501,306.75068"
       orientation="1,0"
       id="guide566"
       inkscape:locked="false" />
    <sodipodi:guide
       position="3116.7668,531.33402"
       orientation="1,0"
       id="guide567"
       inkscape:locked="false" />
    <inkscape:page
       x="0"
       y="0"
       width="158.74998"
       height="158.75002"
       id="page1"
       margin="0"
       bleed="0"
       inkscape:export-filename="./logo-posverso_compartir.png"
       inkscape:export-xdpi="96"
       inkscape:export-ydpi="96" />
    <sodipodi:guide
       position="56.35007,286.75068"
       orientation="1,0"
       id="guide1"
       inkscape:locked="false" />
    <sodipodi:guide
       position="179.16478,97.688549"
       orientation="1,0"
       id="guide6"
       inkscape:locked="false" />
    <sodipodi:guide
       position="114.09207,47.926084"
       orientation="1,0"
       id="guide9"
       inkscape:locked="false" />
    <sodipodi:guide
       position="167.21188,42.690424"
       orientation="1,0"
       id="guide10"
       inkscape:locked="false" />
    <sodipodi:guide
       position="258.50508,41.858924"
       orientation="1,0"
       id="guide12"
       inkscape:locked="false" />
    <sodipodi:guide
       position="311.56258,79.283769"
       orientation="1,0"
       id="guide18"
       inkscape:locked="false" />
    <sodipodi:guide
       position="295.65098,37.538404"
       orientation="0,-1"
       id="guide21"
       inkscape:locked="false" />
    <sodipodi:guide
       position="398.28648,-49.606647"
       orientation="1,0"
       id="guide27"
       inkscape:locked="false" />
    <sodipodi:guide
       position="123.46447,25.466393"
       orientation="1,0"
       id="guide80"
       inkscape:locked="false" />
  </sodipodi:namedview>
  <metadata
     id="metadata5">
    <rdf:RDF>
      <cc:Work
         rdf:about="">
        <dc:format>image/svg+xml</dc:format>
        <dc:type
           rdf:resource="http://purl.org/dc/dcmitype/StillImage" />
      </cc:Work>
    </rdf:RDF>
  </metadata>
  <g
     inkscape:label="Capa 1"
     inkscape:groupmode="layer"
     id="layer1"
     transform="translate(56.349979,-286.75069)">
    <rect
       style="fill:#ffffff;stroke:#c81111;stroke-width:0.0476899;-inkscape-stroke:none;paint-order:stroke markers fill"
       id="rect1"
       width="158.7023"
       height="158.70232"
       x="-56.326134"
       y="286.77454" />
    <g
       id="g3"
       transform="translate(-0.23268138,-1.0729066)">
      <g
         id="g1"
         transform="translate(-1.2719273,0.31350628)">
        <path
           style="-inkscape-font-specification:'Arial Black, ';fill:#000000;fill-opacity:1;stroke-width:0.829112;paint-order:stroke markers fill"
           d="m 67.378257,350.97001 h 6.769578 l 4.713011,15.06732 4.641591,-15.06732 h 6.569635 l -7.769316,20.93715 h -7.012378 z"
           id="path6" />
        <path
           style="-inkscape-font-specification:'Arial Black, ';fill:#000000;fill-opacity:1;stroke-width:0.829112;paint-order:stroke markers fill"
           d="M 65.767492,350.97001 H 48.429358 v 4.47021 h 10.854184 v 3.32767 H 49.214863 v 4.27026 h 10.068679 v 4.12745 h -11.16838 v 4.74156 h 17.65233 z"
           id="path5" />
        <path
           style="-inkscape-font-specification:'Arial Black, ';fill:#000000;fill-opacity:1;stroke-width:0.829112;paint-order:stroke markers fill"
           d="M 44.877355,371.90716 V 350.97001 H 34.09458 q -2.999182,0 -4.584466,0.51415 -1.585278,0.51414 -2.556443,1.91375 -0.971166,1.38535 -0.971166,3.3848 0,1.74238 0.742655,3.01347 0.742653,1.2568 2.042301,2.0423 0.828344,0.49987 2.270812,0.82834 -1.156832,0.38561 -1.685259,0.77122 -0.357042,0.25707 -1.028291,1.0997 -0.685523,0.84263 -0.914035,1.29964 l -3.127716,6.06978 h 7.312288 l 3.456205,-6.39825 q 0.656963,-1.24252 1.171105,-1.61385 0.69981,-0.48558 1.585285,-0.48558 h 0.571273 v 8.49768 z m -6.498227,-12.45375 h -2.72783 q -0.442738,0 -1.71382,-0.28563 -0.642677,-0.12854 -1.04257,-0.65697 -0.414172,-0.52843 -0.414172,-1.21395 0,-1.01401 0.642684,-1.55672 0.642677,-0.54272 2.413621,-0.54272 h 2.842087 z"
           id="path4" />
        <path
           style="-inkscape-font-specification:'Arial Black, ';fill:#000000;fill-opacity:1;stroke-width:0.829112;paint-order:stroke markers fill"
           d="m 3.3242886,364.98047 6.1554691,-0.3856 q 0.199941,1.49958 0.8140583,2.2851 0.999731,1.27107 2.856366,1.27107 1.385338,0 2.127992,-0.64268 0.756939,-0.65697 0.756939,-1.51388 0,-0.81406 -0.714094,-1.45674 -0.714089,-0.64268 -3.313383,-1.21395 -4.2559834,-0.95689 -6.0697737,-2.54216 -1.8280754,-1.58529 -1.8280754,-4.04177 0,-1.61383 0.9283205,-3.04202 0.942601,-1.44246 2.8135214,-2.25652 1.8851999,-0.82835 5.1557382,-0.82835 4.013192,0 6.112618,1.49958 2.113712,1.48532 2.513598,4.74158 l -6.098338,0.35704 q -0.242791,-1.41391 -1.028291,-2.05659 -0.771219,-0.64268 -2.142271,-0.64268 -1.128266,0 -1.699534,0.48559 -0.571272,0.4713 -0.571272,1.15683 0,0.49985 0.471296,0.89975 0.457017,0.41417 2.170837,0.77122 4.241704,0.91404 6.069773,1.85664 1.842355,0.92832 2.670699,2.31365 0.84263,1.38533 0.84263,3.09915 0,2.01374 -1.113981,3.71328 -1.11398,1.69953 -3.113437,2.585 -1.999456,0.87119 -5.041482,0.87119 -5.3414043,0 -7.397986,-2.05658 -2.0565804,-2.05658 -2.3279374,-5.22715 z"
           id="path3" />
        <path
           style="-inkscape-font-specification:'Arial Black, ';fill:#000000;fill-opacity:1;stroke-width:0.829112;paint-order:stroke markers fill"
           d="m -20.726298,361.45284 q 0,-5.12718 2.856365,-7.98354 2.856364,-2.85637 7.9549744,-2.85637 5.2271485,0 8.054949,2.81352 2.82780059,2.79925 2.82780059,7.85501 0,3.67043 -1.24252251,6.02692 -1.22823728,2.34222 -3.57045508,3.65615 -2.3279373,1.29965 -5.812699,1.29965 -3.5418914,0 -5.8698294,-1.12826 -2.313655,-1.12828 -3.756119,-3.57046 -1.442464,-2.44219 -1.442464,-6.11262 z m 6.469666,0.0286 q 0,3.17056 1.171109,4.55589 1.185391,1.38534 3.2134105,1.38534 2.0851448,0 3.227691,-1.35676 1.1425463,-1.35678 1.1425463,-4.87011 0,-2.95634 -1.1996764,-4.3131 -1.1853888,-1.37107 -3.2276886,-1.37107 -1.9566098,0 -3.1420008,1.38535 -1.185391,1.38533 -1.185391,4.58446 z"
           id="path2" />
        <path
           style="-inkscape-font-specification:'Arial Black, ';fill:#000000;fill-opacity:1;stroke-width:0.829112;paint-order:stroke markers fill"
           d="m -41.063607,350.96998 h 10.75421 q 3.513327,0 5.255709,1.67097 1.756664,1.67098 1.756664,4.75586 0,3.17055 -1.913763,4.95578 -1.899483,1.78523 -5.812702,1.78523 h -3.541891 v 7.76931 h -6.498227 z m 6.498227,8.92614 h 1.585281 q 1.870919,0 2.627856,-0.64269 0.756937,-0.65695 0.756937,-1.67096 0,-0.98545 -0.656965,-1.67098 -0.656963,-0.68553 -2.470755,-0.68553 h -1.842354 z"
           id="text1" />
        <path
           style="-inkscape-font-specification:Arial;fill:#000000;fill-opacity:1;stroke-width:0.148625;paint-order:stroke markers fill"
           d="m -40.636063,378.0221 h -0.427544 v -3.75317 h 0.460827 v 1.33896 q 0.291853,-0.3661 0.744997,-0.3661 0.250895,0 0.473629,0.10242 0.225289,0.0998 0.368655,0.28417 0.145933,0.18177 0.227856,0.44034 0.08192,0.25858 0.08192,0.55299 0,0.69892 -0.345616,1.08038 -0.345621,0.38147 -0.829486,0.38147 -0.481306,0 -0.755241,-0.40195 z m -0.0053,-1.37993 q 0,0.489 0.13313,0.7066 0.217607,0.35586 0.588829,0.35586 0.302095,0 0.522269,-0.26113 0.220174,-0.26369 0.220174,-0.7834 0,-0.53251 -0.212492,-0.78597 -0.209937,-0.25345 -0.509473,-0.25345 -0.302095,0 -0.522263,0.2637 -0.220174,0.26113 -0.220174,0.75779 z m 2.498692,-1.84329 v -0.52995 h 0.460826 v 0.52995 z m 0,3.22322 v -2.71887 h 0.460826 v 2.71887 z m 3.023526,-0.87557 0.476186,0.0589 q -0.11264,0.41731 -0.417302,0.64772 -0.304657,0.23042 -0.778283,0.23042 -0.596512,0 -0.947251,-0.3661 -0.34818,-0.36867 -0.34818,-1.03174 0,-0.68612 0.3533,-1.06502 0.3533,-0.3789 0.91653,-0.3789 0.545309,0 0.890929,0.37122 0.345617,0.37122 0.345617,1.04454 0,0.041 -0.0026,0.12288 h -2.027594 q 0.0256,0.44803 0.253454,0.68612 0.227853,0.23809 0.568351,0.23809 0.253454,0 0.432663,-0.13313 0.17921,-0.13312 0.284176,-0.42498 z m -1.513042,-0.745 h 1.518162 q -0.03073,-0.34306 -0.174089,-0.51459 -0.220173,-0.26626 -0.57091,-0.26626 -0.317458,0 -0.535069,0.2125 -0.215052,0.21249 -0.238094,0.56835 z m 2.567819,1.62057 v -2.71887 h 0.414742 v 0.38658 q 0.299537,-0.44802 0.865328,-0.44802 0.245773,0 0.450583,0.0896 0.207372,0.087 0.309778,0.23042 0.102409,0.14336 0.143367,0.3405 0.0256,0.12801 0.0256,0.44802 v 1.67178 h -0.460825 v -1.65386 q 0,-0.28162 -0.05377,-0.41986 -0.05376,-0.14081 -0.19201,-0.22273 -0.135688,-0.0845 -0.320017,-0.0845 -0.294416,0 -0.509468,0.1869 -0.212491,0.18688 -0.212491,0.70915 v 1.48489 z m 4.690174,-0.33538 q -0.256015,0.2176 -0.494107,0.30721 -0.235533,0.0896 -0.506908,0.0896 -0.448024,0 -0.688677,-0.21762 -0.240652,-0.22018 -0.240652,-0.56068 0,-0.19968 0.0896,-0.36353 0.09217,-0.16641 0.238094,-0.26626 0.148488,-0.0998 0.332818,-0.15104 0.135688,-0.0359 0.409622,-0.0691 0.55811,-0.0666 0.821805,-0.15874 0.0026,-0.0948 0.0026,-0.12032 0,-0.28162 -0.130567,-0.39682 -0.176649,-0.15618 -0.524828,-0.15618 -0.325137,0 -0.481306,0.11521 -0.153609,0.11258 -0.227852,0.40194 l -0.450585,-0.0614 q 0.06144,-0.28931 0.202251,-0.46596 0.140807,-0.1792 0.407062,-0.27393 0.266254,-0.0973 0.616993,-0.0973 0.348179,0 0.56579,0.082 0.217613,0.082 0.320018,0.20738 0.102409,0.12288 0.143367,0.31233 0.02304,0.11772 0.02304,0.42499 v 0.61443 q 0,0.64259 0.02816,0.81412 0.03073,0.16897 0.117767,0.32515 h -0.481307 q -0.07168,-0.14338 -0.09217,-0.33539 z m -0.0384,-1.02918 q -0.250894,0.10242 -0.75268,0.1741 -0.284176,0.041 -0.401942,0.0921 -0.117767,0.0513 -0.18177,0.15105 -0.064,0.0973 -0.064,0.21762 0,0.18432 0.138246,0.30722 0.140808,0.12288 0.409623,0.12288 0.266255,0 0.473625,-0.11521 0.207372,-0.11772 0.304657,-0.32002 0.07424,-0.15616 0.07424,-0.46082 z m 1.169984,1.36456 v -3.75317 h 0.460825 v 3.75317 z m 2.634382,-3.22322 v -0.52995 h 0.460825 v 0.52995 z m 0,3.22322 v -2.71887 h 0.460825 v 2.71887 z m 1.162303,0 v -2.71887 h 0.414742 v 0.38658 q 0.299537,-0.44802 0.865327,-0.44802 0.245773,0 0.450584,0.0896 0.20737,0.087 0.309776,0.23042 0.10241,0.14336 0.143368,0.3405 0.0256,0.12801 0.0256,0.44802 v 1.67178 h -0.460825 v -1.65386 q 0,-0.28162 -0.05376,-0.41986 -0.05376,-0.14081 -0.19201,-0.22273 -0.135687,-0.0845 -0.320017,-0.0845 -0.294416,0 -0.509467,0.1869 -0.212492,0.18688 -0.212492,0.70915 v 1.48489 z m 3.92213,-0.41219 0.06657,0.40707 q -0.19457,0.041 -0.348179,0.041 -0.250893,0 -0.38914,-0.0794 -0.138247,-0.0793 -0.194571,-0.20737 -0.05633,-0.13057 -0.05633,-0.54531 v -1.56425 h -0.33798 v -0.35842 h 0.337938 v -0.67331 l 0.458265,-0.27649 v 0.9498 h 0.463385 v 0.35842 h -0.463343 v 1.58985 q 0,0.19713 0.02304,0.25346 0.0256,0.0563 0.07937,0.0896 0.05633,0.0333 0.158729,0.0333 0.0768,0 0.202251,-0.0179 z m 2.311805,-0.46338 0.476186,0.0589 q -0.112652,0.41731 -0.417302,0.64772 -0.304657,0.23042 -0.778283,0.23042 -0.596512,0 -0.947251,-0.3661 -0.348179,-0.36867 -0.348179,-1.03174 0,-0.68612 0.353299,-1.06502 0.353299,-0.3789 0.916531,-0.3789 0.545309,0 0.890928,0.37122 0.345618,0.37122 0.345618,1.04454 0,0.041 -0.0026,0.12288 h -2.02763 q 0.0256,0.44803 0.253455,0.68612 0.227852,0.23809 0.56835,0.23809 0.253454,0 0.432664,-0.13313 0.179209,-0.13312 0.284175,-0.42498 z m -1.513041,-0.745 h 1.518161 q -0.03073,-0.34306 -0.174089,-0.51459 -0.220171,-0.26626 -0.57091,-0.26626 -0.317458,0 -0.53507,0.2125 -0.215052,0.21249 -0.238092,0.56835 z m 2.562698,1.62057 v -2.71887 h 0.414743 v 0.41218 q 0.158728,-0.2893 0.291856,-0.38146 0.135687,-0.0921 0.296975,-0.0921 0.232972,0 0.473626,0.14848 l -0.158728,0.42755 q -0.168971,-0.0999 -0.33794,-0.0999 -0.151047,0 -0.271373,0.0921 -0.120327,0.0896 -0.171531,0.2509 -0.0768,0.24577 -0.0768,0.53763 v 1.42344 z m 1.751133,0 v -2.71887 h 0.414743 v 0.38658 q 0.299536,-0.44802 0.865327,-0.44802 0.245773,0 0.450585,0.0896 0.20737,0.087 0.309776,0.23042 0.10241,0.14336 0.143369,0.3405 0.0256,0.12801 0.0256,0.44802 v 1.67178 h -0.460825 v -1.65386 q 0,-0.28162 -0.05376,-0.41986 -0.05377,-0.14081 -0.192011,-0.22273 -0.135687,-0.0845 -0.320017,-0.0845 -0.294416,0 -0.509467,0.1869 -0.212492,0.18688 -0.212492,0.70915 v 1.48489 z m 4.690176,-0.33538 q -0.256014,0.2176 -0.494106,0.30721 -0.235533,0.0896 -0.506908,0.0896 -0.448024,0 -0.688677,-0.21762 -0.240654,-0.22018 -0.240654,-0.56068 0,-0.19968 0.08961,-0.36353 0.09217,-0.16641 0.238093,-0.26626 0.148488,-0.0998 0.332819,-0.15104 0.135687,-0.0359 0.409621,-0.0691 0.558111,-0.0666 0.821805,-0.15874 0.0026,-0.0948 0.0026,-0.12032 0,-0.28162 -0.130567,-0.39682 -0.17665,-0.15618 -0.524829,-0.15618 -0.325137,0 -0.481305,0.11521 -0.153609,0.11258 -0.227853,0.40194 l -0.450585,-0.0614 q 0.06144,-0.28931 0.202252,-0.46596 0.140808,-0.1792 0.407062,-0.27393 0.266253,-0.0973 0.616994,-0.0973 0.348177,0 0.56579,0.082 0.217612,0.082 0.320017,0.20738 0.10241,0.12288 0.143367,0.31233 0.02304,0.11772 0.02304,0.42499 v 0.61443 q 0,0.64259 0.02816,0.81412 0.03073,0.16897 0.117767,0.32515 h -0.481306 q -0.07168,-0.14338 -0.09217,-0.33539 z m -0.0384,-1.02918 q -0.250893,0.10242 -0.75268,0.1741 -0.284176,0.041 -0.401941,0.0921 -0.117767,0.0513 -0.18177,0.15105 -0.06401,0.0973 -0.06401,0.21762 0,0.18432 0.138249,0.30722 0.140807,0.12288 0.409622,0.12288 0.266254,0 0.473625,-0.11521 0.207371,-0.11772 0.304656,-0.32002 0.07424,-0.15616 0.07424,-0.46082 z m 2.9543991,0.36866 0.4531437,0.0589 q -0.074241,0.46851 -0.3814595,0.73476 -0.3046565,0.2637 -0.7501204,0.2637 -0.5581107,0 -0.8986088,-0.36354 -0.3379379,-0.3661 -0.3379379,-1.0471 0,-0.44034 0.1459271,-0.7706 0.1459284,-0.33026 0.4429039,-0.49411 0.2995367,-0.16641 0.6502757,-0.16641 0.4429039,0 0.7245186,0.22529 0.2816159,0.22274 0.3609799,0.63492 l -0.448025,0.0691 q -0.063998,-0.27394 -0.2278512,-0.41219 -0.1612892,-0.13825 -0.3917016,-0.13825 -0.348179,0 -0.5657905,0.25089 -0.2176115,0.24834 -0.2176115,0.78853 0,0.54786 0.2099317,0.7962 0.2099304,0.24833 0.5478685,0.24833 0.271375,0 0.4531449,-0.1664 0.18177,-0.16642 0.2304124,-0.51203 z m 0.8499652,-2.22732 v -0.52995 h 0.4608259 v 0.52995 z m 0,3.22322 v -2.71887 h 0.4608259 v 2.71887 z m 0.9907713,-1.35944 q 0,-0.75524 0.4198621,-1.11879 0.3507426,-0.30208 0.8550875,-0.30208 0.560667,0 0.9165306,0.36865 0.3558577,0.3661 0.3558577,1.01382 0,0.52482 -0.1587305,0.82692 -0.1561682,0.29955 -0.4582647,0.46594 -0.2995354,0.16642 -0.6553931,0.16642 -0.5709104,0 -0.924213,-0.3661 -0.3507366,-0.3661 -0.3507366,-1.05478 z m 0.4736232,0 q 0,0.52226 0.227856,0.78341 0.2278489,0.25856 0.5734704,0.25856 0.3430604,0 0.5709091,-0.26113 0.227856,-0.26113 0.227856,-0.7962 0,-0.50435 -0.2304159,-0.76292 -0.22785,-0.26114 -0.5683492,-0.26114 -0.3456215,0 -0.5734704,0.25858 -0.227856,0.25857 -0.227856,0.78084 z m 2.6139035,1.35944 v -2.71887 h 0.4147458 v 0.38658 q 0.2995355,-0.44802 0.8653236,-0.44802 0.2457744,0 0.4505837,0.0896 0.20737056,0.087 0.30977884,0.23042 0.10240948,0.14336 0.14336609,0.3405 0.0256113,0.12801 0.0256113,0.44802 v 1.67178 H -1.1281783 v -1.65386 q 0,-0.28162 -0.053792,-0.41986 -0.053732,-0.14081 -0.1920061,-0.22273 -0.1356899,-0.0845 -0.3200209,-0.0845 -0.2944132,0 -0.509466,0.1869 -0.2124915,0.18688 -0.2124915,0.70915 v 1.48489 z m 4.6901776,-0.33538 q -0.2560165,0.2176 -0.4941087,0.30721 -0.2355316,0.0896 -0.50690661,0.0896 -0.4480226,0 -0.6886747,-0.21762 -0.2406533,-0.22018 -0.2406533,-0.56068 0,-0.19968 0.0896098,-0.36353 0.0921673,-0.16641 0.23809217,-0.26626 0.14848716,-0.0998 0.33281703,-0.15104 0.1356851,-0.0359 0.40962,-0.0691 0.55811251,-0.0666 0.82180521,-0.15874 0.00239,-0.0948 0.00239,-0.12032 0,-0.28162 -0.1305687,-0.39682 -0.1766477,-0.15618 -0.524825,-0.15618 -0.32514201,0 -0.48130541,0.11521 -0.1536082,0.11258 -0.22785478,0.40194 l -0.45058376,-0.0614 q 0.0614409,-0.28931 0.20224945,-0.46596 0.14081093,-0.1792 0.40706359,-0.27393 0.2662539,-0.0973 0.61699711,-0.0973 0.3481754,0 0.5657881,0.082 0.2176127,0.082 0.320015,0.20738 0.1024094,0.12288 0.143372,0.31233 0.02303,0.11772 0.02303,0.42499 v 0.61443 q 0,0.64259 0.028181,0.81412 0.030703,0.16897 0.1177668,0.32515 H 1.9054698 q -0.071683,-0.14338 -0.092167,-0.33539 z m -0.038375,-1.02918 q -0.2508895,0.10242 -0.7526809,0.1741 -0.28417711,0.041 -0.40194261,0.0921 -0.1177667,0.0513 -0.18176992,0.15105 -0.0639985,0.0973 -0.0639985,0.21762 0,0.18432 0.13825092,0.30722 0.140805,0.12288 0.4096188,0.12288 0.26626041,0 0.47362981,-0.11521 0.2073705,-0.11772 0.3046577,-0.32002 0.074241,-0.15616 0.074241,-0.46082 z m 1.1699801,1.36456 v -3.75317 h 0.4608677 v 3.75317 z m 4.395758,0 v -0.34307 q -0.2585717,0.40451 -0.7603614,0.40451 -0.3251361,0 -0.599071,-0.17922 -0.2713749,-0.1792 -0.4224232,-0.49922 -0.1484872,-0.32257 -0.1484872,-0.73988 0,-0.40706 0.1356851,-0.73732 0.1356898,-0.33281 0.4070636,-0.50946 0.2713749,-0.17665 0.6067532,-0.17665 0.2457744,0 0.4377805,0.10493 0.1920121,0.10242 0.3123388,0.26881 v -1.34664 h 0.4582647 v 3.75318 z m -1.4567196,-1.35688 q 0,0.52227 0.2201738,0.78085 0.2201738,0.25856 0.5197094,0.25856 0.3020954,0 0.512027,-0.24576 0.2124916,-0.24835 0.2124916,-0.75524 0,-0.55812 -0.2150527,-0.81925 -0.2150515,-0.26114 -0.5299514,-0.26114 -0.3072118,0 -0.5145871,0.25089 -0.2048106,0.25091 -0.2048106,0.79109 z m 4.4700046,0.48131 0.476184,0.0589 q -0.112639,0.41731 -0.417301,0.64772 -0.304656,0.23042 -0.7782813,0.23042 -0.5965151,0 -0.9472517,-0.3661 -0.3481815,-0.36867 -0.3481815,-1.03174 0,-0.68612 0.3533025,-1.06502 0.3532978,-0.3789 0.9165307,-0.3789 0.5453103,0 0.8909253,0.37122 0.345621,0.37122 0.345621,1.04454 0,0.041 -0.0024,0.12288 H 8.8156343 q 0.025611,0.44803 0.2534506,0.68612 0.2278548,0.23809 0.5683538,0.23809 0.253451,0 0.4326603,-0.13313 0.179209,-0.13312 0.284178,-0.42498 z m -1.5130406,-0.745 h 1.5181616 q -0.0307,-0.34306 -0.174088,-0.51459 -0.2201733,-0.26626 -0.5709153,-0.26626 -0.3174535,0 -0.5350673,0.2125 -0.2150516,0.21249 -0.238091,0.56835 z m 4.0245356,2.66253 v -3.76083 h 0.419862 v 0.3533 q 0.148488,-0.20738 0.335379,-0.30978 0.186891,-0.10493 0.453143,-0.10493 0.348182,0 0.614436,0.17921 0.266252,0.17921 0.401942,0.50691 0.135685,0.32514 0.135685,0.71427 0,0.41731 -0.151048,0.75268 -0.148487,0.33282 -0.435225,0.51203 -0.284173,0.17666 -0.599071,0.17666 -0.230412,0 -0.414741,-0.0973 -0.18177,-0.0973 -0.299536,-0.24577 v 1.32358 z m 0.417301,-2.38603 q 0,0.52482 0.212492,0.77571 0.212491,0.25089 0.514587,0.25089 0.307217,0 0.52483,-0.25856 0.220174,-0.26115 0.220174,-0.80645 0,-0.51971 -0.215053,-0.77829 -0.21249,-0.25857 -0.509466,-0.25857 -0.29442,0 -0.522269,0.2765 -0.225295,0.27393 -0.225295,0.79877 z m 2.32717,-0.0154 q 0,-0.75524 0.419862,-1.11878 0.350737,-0.30209 0.855088,-0.30209 0.560667,0 0.916525,0.36866 0.355863,0.36609 0.355863,1.01381 0,0.52482 -0.15873,0.82693 -0.15617,0.29954 -0.458265,0.46594 -0.299535,0.16642 -0.655393,0.16642 -0.570911,0 -0.924213,-0.3661 -0.350737,-0.3661 -0.350737,-1.05479 z m 0.473624,0 q 0,0.52227 0.227856,0.78341 0.227848,0.25856 0.57347,0.25856 0.343054,0 0.570909,-0.26113 0.22785,-0.26113 0.22785,-0.7962 0,-0.50435 -0.23041,-0.76292 -0.227856,-0.26114 -0.568349,-0.26114 -0.345622,0 -0.57347,0.25858 -0.227856,0.25858 -0.227856,0.78084 z m 4.475119,0.48387 0.476184,0.0589 q -0.112639,0.41731 -0.417301,0.64771 -0.304656,0.23042 -0.778281,0.23042 -0.596515,0 -0.947252,-0.3661 -0.348175,-0.36867 -0.348175,-1.03174 0,-0.68612 0.353296,-1.06502 0.353298,-0.3789 0.916531,-0.3789 0.54531,0 0.890925,0.37122 0.345621,0.37123 0.345621,1.04454 0,0.041 -0.0024,0.12288 h -2.027628 q 0.02561,0.44803 0.25345,0.68612 0.227855,0.23809 0.568354,0.23809 0.253451,0 0.43266,-0.13312 0.179215,-0.13313 0.284178,-0.42499 z m -1.51304,-0.745 h 1.518161 q -0.0307,-0.34306 -0.174088,-0.51459 -0.220173,-0.26625 -0.570915,-0.26625 -0.317454,0 -0.535067,0.21249 -0.215052,0.21249 -0.238091,0.56835 z m 2.383492,0.809 0.455705,-0.0717 q 0.03838,0.27393 0.212491,0.41985 0.176648,0.14593 0.491542,0.14593 0.31746,0 0.471068,-0.12801 0.153609,-0.13055 0.153609,-0.30465 0,-0.15617 -0.135691,-0.24577 -0.09472,-0.0614 -0.471062,-0.15617 -0.506912,-0.12801 -0.704039,-0.22017 -0.194573,-0.0948 -0.296975,-0.25858 -0.09985,-0.16641 -0.09985,-0.3661 0,-0.18176 0.08193,-0.33537 0.0845,-0.15617 0.227856,-0.25858 0.107524,-0.0793 0.291853,-0.13313 0.186891,-0.0563 0.399383,-0.0563 0.320021,0 0.560673,0.0921 0.243213,0.0921 0.358419,0.25089 0.115209,0.15617 0.158729,0.41986 l -0.45059,0.0614 q -0.0307,-0.20993 -0.179209,-0.3277 -0.145926,-0.11771 -0.41474,-0.11771 -0.317459,0 -0.453144,0.10493 -0.13569,0.10493 -0.13569,0.24577 0,0.0896 0.05631,0.16128 0.05631,0.0742 0.176648,0.1229 0.06911,0.0256 0.407059,0.11772 0.488987,0.13056 0.681,0.21504 0.194566,0.082 0.304657,0.24065 0.110082,0.15874 0.110082,0.39427 0,0.23041 -0.135684,0.43523 -0.13313,0.20225 -0.386586,0.31489 -0.25345,0.11007 -0.57347,0.11007 -0.529945,0 -0.809002,-0.22018 -0.276495,-0.22018 -0.353297,-0.65284 z m 2.967199,0.81156 v -2.71886 h 0.46082 v 2.71886 z m -0.02303,-3.0568 0.340499,-0.71683 h 0.604192 l -0.563228,0.71683 z m 3.092646,2.72143 q -0.256016,0.21761 -0.494108,0.30722 -0.235531,0.0896 -0.506905,0.0896 -0.448024,0 -0.688676,-0.21762 -0.240653,-0.22017 -0.240653,-0.56068 0,-0.19968 0.08961,-0.36353 0.09217,-0.1664 0.238092,-0.26626 0.148487,-0.0998 0.332818,-0.15105 0.135684,-0.0358 0.409619,-0.0691 0.558113,-0.0666 0.821804,-0.15873 0.0024,-0.0948 0.0024,-0.12032 0,-0.28162 -0.130563,-0.39682 -0.176654,-0.15617 -0.524831,-0.15617 -0.325134,0 -0.481304,0.11521 -0.153609,0.11258 -0.227856,0.40194 l -0.450583,-0.0614 q 0.06144,-0.2893 0.202249,-0.46595 0.140811,-0.17921 0.407065,-0.27394 0.266252,-0.0973 0.616995,-0.0973 0.348176,0 0.565788,0.082 0.217613,0.0819 0.320015,0.20736 0.10241,0.12289 0.143372,0.31234 0.02303,0.11772 0.02303,0.42499 v 0.61443 q 0,0.64259 0.02818,0.81413 0.0307,0.16896 0.117767,0.32513 h -0.481306 q -0.07168,-0.14337 -0.09217,-0.33538 z m -0.03838,-1.02917 q -0.250889,0.10242 -0.752679,0.17409 -0.284178,0.041 -0.401944,0.0921 -0.117766,0.0513 -0.18177,0.15105 -0.06401,0.0973 -0.06401,0.21762 0,0.18432 0.138251,0.30722 0.140806,0.12288 0.40962,0.12288 0.266259,0 0.473629,-0.11521 0.20737,-0.11772 0.304657,-0.32002 0.07424,-0.15616 0.07424,-0.46082 z m 4.498171,0.48898 0.476185,0.0589 q -0.11264,0.41731 -0.417301,0.64771 -0.304658,0.23042 -0.778287,0.23042 -0.59651,0 -0.947247,-0.3661 -0.348181,-0.36867 -0.348181,-1.03174 0,-0.68612 0.353296,-1.06502 0.353304,-0.3789 0.916532,-0.3789 0.545309,0 0.89093,0.37122 0.345615,0.37123 0.345615,1.04454 0,0.041 -0.0024,0.12288 h -2.027615 q 0.02561,0.44803 0.253456,0.68612 0.22785,0.23809 0.568349,0.23809 0.253456,0 0.432665,-0.13312 0.179209,-0.13313 0.284177,-0.42499 z m -1.513042,-0.745 h 1.518157 q -0.0307,-0.34306 -0.174087,-0.51459 -0.220173,-0.26625 -0.57091,-0.26625 -0.317459,0 -0.535067,0.21249 -0.215052,0.21249 -0.238093,0.56835 z m 2.260594,1.62056 0.993339,-1.41319 -0.919092,-1.30567 h 0.576031 l 0.417301,0.63747 q 0.117767,0.18177 0.189452,0.30466 0.11264,-0.16896 0.207371,-0.29954 l 0.458265,-0.64259 h 0.550431 l -0.939571,1.28006 1.011257,1.4388 h -0.565795 l -0.558106,-0.84484 -0.148493,-0.22786 -0.714277,1.0727 z m 2.928808,1.04198 v -3.76084 h 0.419863 v 0.3533 q 0.148487,-0.20738 0.335378,-0.30978 0.186885,-0.10493 0.453143,-0.10493 0.348177,0 0.61443,0.17921 0.266258,0.17921 0.401944,0.50691 0.135689,0.32514 0.135689,0.71427 0,0.41731 -0.151048,0.75269 -0.148487,0.33281 -0.435225,0.51202 -0.284178,0.17666 -0.599071,0.17666 -0.230416,0 -0.414747,-0.0973 -0.18177,-0.0973 -0.299536,-0.24578 v 1.32359 z m 0.417301,-2.38604 q 0,0.52482 0.212492,0.77571 0.212492,0.25089 0.514588,0.25089 0.307217,0 0.524825,-0.25856 0.220172,-0.26114 0.220172,-0.80645 0,-0.51971 -0.215051,-0.77828 -0.212492,-0.25858 -0.509467,-0.25858 -0.294414,0 -0.52227,0.2765 -0.225289,0.27393 -0.225289,0.79877 z m 4.35991,0.4685 0.476183,0.0589 q -0.11264,0.41731 -0.417301,0.64771 -0.304657,0.23042 -0.778286,0.23042 -0.59651,0 -0.947246,-0.3661 -0.348182,-0.36867 -0.348182,-1.03174 0,-0.68612 0.353297,-1.06502 0.353302,-0.3789 0.91653,-0.3789 0.54531,0 0.890931,0.37122 0.345615,0.37123 0.345615,1.04454 0,0.041 -0.0024,0.12288 h -2.027635 q 0.02561,0.44803 0.253456,0.68612 0.227856,0.23809 0.568349,0.23809 0.253455,0 0.432665,-0.13312 0.179209,-0.13313 0.284177,-0.42499 z m -1.513042,-0.745 h 1.518163 q -0.0307,-0.34306 -0.174094,-0.51459 -0.220168,-0.26625 -0.57091,-0.26625 -0.317454,0 -0.535067,0.21249 -0.215053,0.21249 -0.238092,0.56835 z m 2.562696,1.62056 v -2.71886 h 0.414746 v 0.41218 q 0.158725,-0.2893 0.291853,-0.38146 0.135691,-0.0921 0.296976,-0.0921 0.232976,0 0.473629,0.14848 l -0.15873,0.42756 q -0.168973,-0.0999 -0.33794,-0.0999 -0.151047,0 -0.271374,0.0922 -0.120326,0.0896 -0.171527,0.25089 -0.07681,0.24577 -0.07681,0.53763 v 1.42343 z m 1.753699,-3.22321 v -0.52995 h 0.460827 v 0.52995 z m 0,3.22321 v -2.71886 h 0.460827 v 2.71886 z m 1.162299,0 v -2.71886 h 0.412183 v 0.38147 q 0.128008,-0.19971 0.3405,-0.32003 0.212491,-0.12288 0.483866,-0.12288 0.302096,0 0.494108,0.12544 0.194567,0.12545 0.273936,0.35074 0.322575,-0.47618 0.839723,-0.47618 0.404503,0 0.622116,0.22529 0.217608,0.22273 0.217608,0.68867 v 1.86634 h -0.45826 v -1.71273 q 0,-0.27649 -0.04612,-0.39681 -0.04354,-0.1229 -0.161291,-0.19714 -0.117767,-0.0742 -0.27649,-0.0742 -0.286738,0 -0.47619,0.192 -0.189451,0.18945 -0.189451,0.60932 v 1.5796 h -0.460849 v -1.76649 q 0,-0.30722 -0.112651,-0.46083 -0.11264,-0.1536 -0.368655,-0.1536 -0.194574,0 -0.360986,0.10242 -0.163845,0.10242 -0.238091,0.29954 -0.07424,0.19712 -0.07424,0.56835 v 1.41063 z m 6.228823,-0.87556 0.476183,0.0589 q -0.11264,0.41731 -0.417301,0.64771 -0.304657,0.23042 -0.778286,0.23042 -0.59651,0 -0.947246,-0.3661 -0.348182,-0.36867 -0.348182,-1.03174 0,-0.68612 0.353297,-1.06502 0.353303,-0.3789 0.916531,-0.3789 0.54531,0 0.89093,0.37122 0.345615,0.37123 0.345615,1.04454 0,0.041 -0.0024,0.12288 H 49.03544 q 0.02561,0.44803 0.253456,0.68612 0.227856,0.23809 0.568349,0.23809 0.253456,0 0.432666,-0.13312 0.179208,-0.13313 0.284177,-0.42499 z m -1.513042,-0.745 h 1.518157 q -0.0307,-0.34306 -0.174088,-0.51459 -0.220168,-0.26625 -0.57091,-0.26625 -0.317454,0 -0.535067,0.21249 -0.215052,0.21249 -0.238092,0.56835 z m 2.567818,1.62056 v -2.71886 h 0.414739 v 0.38658 q 0.299542,-0.44802 0.865331,-0.44802 0.245773,0 0.450583,0.0896 0.20737,0.087 0.309779,0.23042 0.102397,0.14337 0.143366,0.3405 0.02561,0.12801 0.02561,0.44803 v 1.67176 h -0.460827 v -1.65385 q 0,-0.28162 -0.05373,-0.41986 -0.05373,-0.1408 -0.192007,-0.22273 -0.13569,-0.0845 -0.32002,-0.0845 -0.294414,0 -0.509467,0.18689 -0.212491,0.18688 -0.212491,0.70916 v 1.48487 z m 3.922133,-0.41218 0.06657,0.40707 q -0.194573,0.041 -0.348183,0.041 -0.250888,0 -0.389139,-0.0794 -0.138245,-0.0794 -0.194567,-0.20737 -0.05631,-0.13057 -0.05631,-0.54531 v -1.56425 h -0.337933 v -0.35842 h 0.337933 v -0.67331 l 0.458265,-0.27649 v 0.9498 h 0.463387 v 0.35842 h -0.463387 v 1.58985 q 0,0.19712 0.02303,0.25346 0.02561,0.0563 0.07937,0.0896 0.05631,0.0334 0.158731,0.0334 0.0768,0 0.202248,-0.0179 z m 2.224763,0.0768 q -0.25601,0.2176 -0.494109,0.30721 -0.235531,0.0896 -0.506906,0.0896 -0.448022,0 -0.688676,-0.21762 -0.240652,-0.22018 -0.240652,-0.56068 0,-0.19968 0.08961,-0.36353 0.09217,-0.16641 0.238092,-0.26626 0.148487,-0.0998 0.332817,-0.15105 0.135685,-0.0359 0.40962,-0.0691 0.558112,-0.0666 0.821805,-0.15872 0.0024,-0.0948 0.0024,-0.12033 0,-0.28161 -0.130563,-0.39681 -0.176654,-0.15618 -0.52483,-0.15618 -0.325136,0 -0.481305,0.11521 -0.153609,0.11258 -0.227855,0.40194 l -0.450584,-0.0614 q 0.06144,-0.2893 0.20225,-0.46595 0.140811,-0.17921 0.407063,-0.27393 0.266254,-0.0973 0.616995,-0.0973 0.348177,0 0.56579,0.082 0.217612,0.0819 0.320015,0.20737 0.102409,0.12289 0.143372,0.31234 0.02303,0.11772 0.02303,0.42498 v 0.61444 q 0,0.64259 0.02818,0.81412 0.0307,0.16897 0.117766,0.32513 h -0.481305 q -0.07168,-0.14336 -0.09217,-0.33537 z m -0.03837,-1.02918 q -0.25089,0.10242 -0.75268,0.17409 -0.284172,0.041 -0.401943,0.0922 -0.117767,0.0513 -0.18177,0.15105 -0.064,0.0973 -0.064,0.21762 0,0.18432 0.138245,0.30721 0.140805,0.12289 0.409618,0.12289 0.266259,0 0.47363,-0.11521 0.20737,-0.11772 0.304656,-0.32002 0.07424,-0.15617 0.07424,-0.46082 z m 1.16998,1.36455 v -3.75317 h 0.46082 v 3.75317 z m 4.395752,0 v -0.34306 q -0.258572,0.40451 -0.760361,0.40451 -0.325137,0 -0.599071,-0.17922 -0.271375,-0.17921 -0.422424,-0.49922 -0.148487,-0.32258 -0.148487,-0.73989 0,-0.40705 0.13569,-0.73731 0.135685,-0.33282 0.407059,-0.50947 0.271375,-0.17665 0.606753,-0.17665 0.245774,0 0.437786,0.10493 0.192007,0.10243 0.312333,0.26882 v -1.34664 h 0.458265 v 3.75316 z m -1.45672,-1.35688 q 0,0.52228 0.220174,0.78086 0.220174,0.25856 0.519709,0.25856 0.302096,0 0.512027,-0.24576 0.212492,-0.24835 0.212492,-0.75524 0,-0.55812 -0.215053,-0.81926 -0.215051,-0.26113 -0.529945,-0.26113 -0.307218,0 -0.514588,0.25089 -0.204816,0.2509 -0.204816,0.79108 z m 4.470008,0.48131 0.476182,0.0589 q -0.112699,0.41731 -0.417298,0.64772 -0.304659,0.23042 -0.778285,0.23042 -0.59651,0 -0.947252,-0.3661 -0.348176,-0.36867 -0.348176,-1.03175 0,-0.68611 0.353297,-1.06501 0.353298,-0.3789 0.916531,-0.3789 0.545309,0 0.890925,0.37121 0.345616,0.37123 0.345616,1.04455 0,0.041 -0.0024,0.12288 h -2.027625 q 0.02561,0.44802 0.253456,0.68612 0.22785,0.23809 0.568349,0.23809 0.253456,0 0.432664,-0.13313 0.179208,-0.13312 0.284175,-0.42498 z m -1.513045,-0.745 h 1.51816 q -0.03071,-0.34305 -0.17408,-0.51459 -0.220176,-0.26625 -0.570914,-0.26625 -0.317461,0 -0.535074,0.21249 -0.215051,0.2125 -0.238092,0.56835 z m 5.798719,1.2852 q -0.256018,0.2176 -0.494109,0.30721 -0.235533,0.0896 -0.506908,0.0896 -0.448025,0 -0.688674,-0.21762 -0.24066,-0.22018 -0.24066,-0.56068 0,-0.19968 0.08963,-0.36353 0.09214,-0.16641 0.238091,-0.26626 0.148493,-0.0998 0.332816,-0.15105 0.135694,-0.0359 0.409626,-0.0691 0.558119,-0.0666 0.82181,-0.15872 0.0024,-0.0948 0.0024,-0.12033 0,-0.28161 -0.130567,-0.39681 -0.17665,-0.15618 -0.524835,-0.15618 -0.325131,0 -0.481309,0.11521 -0.153608,0.11258 -0.227849,0.40194 l -0.450582,-0.0614 q 0.06143,-0.2893 0.202249,-0.46595 0.140809,-0.17921 0.407069,-0.27393 0.266248,-0.0973 0.61699,-0.0973 0.348185,0 0.565792,0.082 0.217607,0.0819 0.320016,0.20737 0.102422,0.12289 0.143366,0.31234 0.02307,0.11772 0.02307,0.42498 v 0.61444 q 0,0.64259 0.0282,0.81412 0.03071,0.16897 0.117719,0.32513 h -0.481309 q -0.07171,-0.14336 -0.09214,-0.33537 z m -0.03836,-1.02918 q -0.250902,0.10242 -0.752683,0.17409 -0.284175,0.041 -0.401942,0.0922 -0.117719,0.0513 -0.181765,0.15105 -0.06406,0.0973 -0.06406,0.21762 0,0.18432 0.138251,0.30721 0.140808,0.12289 0.409614,0.12289 0.26626,0 0.473624,-0.11521 0.207377,-0.11772 0.304659,-0.32002 0.07422,-0.15617 0.07422,-0.46082 z m 1.175098,1.36455 v -2.71887 h 0.414753 v 0.41219 q 0.158723,-0.2893 0.291847,-0.38146 0.135694,-0.0921 0.296975,-0.0921 0.232976,0 0.473636,0.14848 l -0.158735,0.42755 q -0.168978,-0.0999 -0.337943,-0.0999 -0.151051,0 -0.271375,0.0921 -0.120324,0.0896 -0.171523,0.25089 -0.07685,0.24578 -0.07685,0.53764 v 1.42343 z m 1.666649,0.22529 0.448025,0.0666 q 0.0282,0.20736 0.156166,0.3021 0.171535,0.12801 0.468509,0.12801 0.320016,0 0.494097,-0.12801 0.174092,-0.12801 0.235545,-0.35843 0.03585,-0.14081 0.03322,-0.59139 -0.302089,0.35586 -0.752684,0.35586 -0.560664,0 -0.867881,-0.4045 -0.307216,-0.4045 -0.307216,-0.97029 0,-0.38914 0.140808,-0.71684 0.140809,-0.33026 0.407057,-0.50947 0.268817,-0.17921 0.62979,-0.17921 0.481309,0 0.793652,0.38915 v -0.32771 h 0.424984 v 2.35021 q 0,0.63492 -0.130567,0.89861 -0.128009,0.26626 -0.409626,0.41987 -0.279059,0.15361 -0.688673,0.15361 -0.486424,0 -0.785968,-0.22018 -0.299532,-0.21761 -0.28929,-0.65796 z m 0.381457,-1.63336 q 0,0.53506 0.212492,0.78084 0.212491,0.24577 0.532507,0.24577 0.317459,0 0.532508,-0.24322 0.215049,-0.24577 0.215049,-0.76803 0,-0.49923 -0.222722,-0.75269 -0.220176,-0.25345 -0.532519,-0.25345 -0.307217,0 -0.522266,0.25089 -0.215049,0.24833 -0.215049,0.73989 z m 4.480238,0.5325 0.476194,0.0589 q -0.112699,0.41731 -0.417311,0.64772 -0.304647,0.23042 -0.778271,0.23042 -0.596518,0 -0.947261,-0.3661 -0.348173,-0.36867 -0.348173,-1.03175 0,-0.68611 0.3533,-1.06501 0.353301,-0.3789 0.916535,-0.3789 0.545307,0 0.890923,0.37121 0.345615,0.37123 0.345615,1.04455 0,0.041 -0.0024,0.12288 h -2.027633 q 0.02557,0.44802 0.25346,0.68612 0.227849,0.23809 0.568349,0.23809 0.253448,0 0.432656,-0.13313 0.179219,-0.13312 0.284186,-0.42498 z m -1.51304,-0.745 h 1.518205 q -0.03071,-0.34305 -0.174092,-0.51459 -0.220165,-0.26625 -0.570907,-0.26625 -0.317459,0 -0.535065,0.21249 -0.215062,0.2125 -0.238103,0.56835 z m 2.567825,1.62057 v -2.71887 h 0.414741 v 0.38659 q 0.299532,-0.44803 0.865324,-0.44803 0.245776,0 0.450583,0.0896 0.207376,0.087 0.309786,0.23042 0.102421,0.14336 0.143366,0.3405 0.02557,0.128 0.02557,0.44802 v 1.67176 h -0.460825 v -1.65384 q 0,-0.28162 -0.05378,-0.41986 -0.05378,-0.14081 -0.192019,-0.22273 -0.135682,-0.0845 -0.320016,-0.0845 -0.294417,0 -0.509466,0.18689 -0.212492,0.18688 -0.212492,0.70916 v 1.48487 z m 3.922131,-0.41218 0.06657,0.40706 q -0.194576,0.041 -0.348185,0.041 -0.25089,0 -0.389129,-0.0794 -0.138251,-0.0794 -0.194577,-0.20738 -0.05629,-0.13056 -0.05629,-0.5453 v -1.56425 h -0.337943 v -0.35842 h 0.337943 v -0.67332 l 0.458267,-0.27649 v 0.94981 h 0.463382 v 0.35842 h -0.463382 v 1.58985 q 0,0.19712 0.02307,0.25346 0.02557,0.0563 0.07935,0.0896 0.05629,0.0333 0.158736,0.0333 0.07685,0 0.202249,-0.0179 z m 0.453153,-2.81104 v -0.52995 h 0.460824 v 0.52995 z m 0,3.22322 v -2.71887 h 0.460824 v 2.71887 z m 1.162297,0 v -2.71887 h 0.414741 v 0.38659 q 0.299544,-0.44803 0.865324,-0.44803 0.245776,0 0.450583,0.0896 0.207376,0.087 0.309786,0.23042 0.102421,0.14336 0.143366,0.3405 0.02558,0.128 0.02558,0.44802 v 1.67176 h -0.460825 v -1.65384 q 0,-0.28162 -0.05378,-0.41986 -0.05378,-0.14081 -0.192007,-0.22273 -0.135682,-0.0845 -0.320016,-0.0845 -0.294417,0 -0.509466,0.18689 -0.212492,0.18688 -0.212492,0.70916 v 1.48487 z m 4.690173,-0.33537 q -0.256018,0.2176 -0.494109,0.30721 -0.235533,0.0896 -0.506896,0.0896 -0.448037,0 -0.688686,-0.21762 -0.240648,-0.22018 -0.240648,-0.56068 0,-0.19968 0.08963,-0.36353 0.09214,-0.16641 0.238103,-0.26626 0.148481,-0.0998 0.332816,-0.15105 0.135682,-0.0359 0.409614,-0.0691 0.558119,-0.0666 0.821809,-0.15872 0.0024,-0.0948 0.0024,-0.12033 0,-0.28161 -0.130567,-0.39681 -0.17665,-0.15618 -0.524835,-0.15618 -0.325131,0 -0.481297,0.11521 -0.153608,0.11258 -0.227861,0.40194 l -0.450582,-0.0614 q 0.06143,-0.2893 0.202249,-0.46595 0.140809,-0.17921 0.407069,-0.27393 0.266248,-0.0973 0.61699,-0.0973 0.348185,0 0.565792,0.082 0.217607,0.0819 0.320016,0.20737 0.102421,0.12289 0.143366,0.31234 0.02307,0.11772 0.02307,0.42498 v 0.61444 q 0,0.64259 0.0282,0.81412 0.03071,0.16897 0.117718,0.32513 h -0.481309 q -0.07171,-0.14336 -0.09214,-0.33537 z m -0.03836,-1.02918 q -0.250902,0.10242 -0.752683,0.17409 -0.284175,0.041 -0.401942,0.0922 -0.117719,0.0513 -0.181765,0.15105 -0.06406,0.0973 -0.06406,0.21762 0,0.18432 0.138251,0.30721 0.140808,0.12289 0.409626,0.12289 0.266248,0 0.473624,-0.11521 0.207377,-0.11772 0.304647,-0.32002 0.07422,-0.15617 0.07422,-0.46082 z"
           id="text2"
           aria-label="bienal internacional de poesía experimental de argentina" />
      </g>
    </g>
  </g>
</svg>
