<?xml version="1.0" encoding="UTF-8" standalone="no"?>
<!-- Created with Inkscape (http://www.inkscape.org/) -->

<svg
   width="13.58344mm"
   height="11.428527mm"
   viewBox="0 0 13.58344 11.428527"
   version="1.1"
   id="svg8"
   inkscape:version="1.3.2 (1:1.3.2+202311252150+091e20ef0f)"
   sodipodi:docname="icono-hoteldada.svg"
   xml:space="preserve"
   xmlns:inkscape="http://www.inkscape.org/namespaces/inkscape"
   xmlns:sodipodi="http://sodipodi.sourceforge.net/DTD/sodipodi-0.dtd"
   xmlns="http://www.w3.org/2000/svg"
   xmlns:svg="http://www.w3.org/2000/svg"
   xmlns:rdf="http://www.w3.org/1999/02/22-rdf-syntax-ns#"
   xmlns:cc="http://creativecommons.org/ns#"
   xmlns:dc="http://purl.org/dc/elements/1.1/"><defs
     id="defs2"><clipPath
       clipPathUnits="userSpaceOnUse"
       id="clipPath88"><path
         d="M 0,595.276 H 841.89 V 0 H 0 Z"
         transform="translate(-605.41742,-400.92681)"
         id="path88" /></clipPath><clipPath
       clipPathUnits="userSpaceOnUse"
       id="clipPath86"><path
         d="M 0,595.276 H 841.89 V 0 H 0 Z"
         transform="translate(-128.2012,-265.9649)"
         id="path86" /></clipPath><clipPath
       clipPathUnits="userSpaceOnUse"
       id="clipPath84"><path
         d="M 0,595.276 H 841.89 V 0 H 0 Z"
         transform="translate(-488.17351,-265.9649)"
         id="path84" /></clipPath><clipPath
       clipPathUnits="userSpaceOnUse"
       id="clipPath82"><path
         d="M 0,595.276 H 841.89 V 0 H 0 Z"
         transform="translate(-323.99551,-230.48551)"
         id="path82" /></clipPath><clipPath
       clipPathUnits="userSpaceOnUse"
       id="clipPath80"><path
         d="M 0,595.276 H 841.89 V 0 H 0 Z"
         transform="translate(-325.93601,-405.45401)"
         id="path80" /></clipPath><clipPath
       clipPathUnits="userSpaceOnUse"
       id="clipPath78"><path
         d="M 0,595.276 H 841.89 V 0 H 0 Z"
         transform="translate(-675.87962,-217.8719)"
         id="path78" /></clipPath><clipPath
       clipPathUnits="userSpaceOnUse"
       id="clipPath76"><path
         d="M 0,595.276 H 841.89 V 0 H 0 Z"
         id="path76" /></clipPath><clipPath
       clipPathUnits="userSpaceOnUse"
       id="clipPath74"><path
         d="M 0,595.276 H 841.89 V 0 H 0 Z"
         transform="translate(-485.70991,-444.26501)"
         id="path74" /></clipPath><clipPath
       clipPathUnits="userSpaceOnUse"
       id="clipPath72"><path
         d="M 0,595.276 H 841.89 V 0 H 0 Z"
         transform="translate(-65.255702,-487.60421)"
         id="path72" /></clipPath><clipPath
       clipPathUnits="userSpaceOnUse"
       id="clipPath70"><path
         d="M 0,595.276 H 841.89 V 0 H 0 Z"
         id="path70" /></clipPath><clipPath
       clipPathUnits="userSpaceOnUse"
       id="clipPath68"><path
         d="M 0,595.276 H 841.89 V 0 H 0 Z"
         transform="translate(-764.41494,-110.6182)"
         id="path68" /></clipPath><clipPath
       clipPathUnits="userSpaceOnUse"
       id="clipPath66"><path
         d="M 0,595.276 H 841.89 V 0 H 0 Z"
         transform="translate(-753.30204,-110.0723)"
         id="path66" /></clipPath><clipPath
       clipPathUnits="userSpaceOnUse"
       id="clipPath64"><path
         d="M 0,595.276 H 841.89 V 0 H 0 Z"
         transform="translate(-725.70032,-96.169902)"
         id="path64" /></clipPath><clipPath
       clipPathUnits="userSpaceOnUse"
       id="clipPath62"><path
         d="M 0,595.276 H 841.89 V 0 H 0 Z"
         transform="translate(-708.49392,-107.38381)"
         id="path62" /></clipPath><clipPath
       clipPathUnits="userSpaceOnUse"
       id="clipPath60"><path
         d="M 0,595.276 H 841.89 V 0 H 0 Z"
         transform="translate(-675.64222,-96.169902)"
         id="path60" /></clipPath><clipPath
       clipPathUnits="userSpaceOnUse"
       id="clipPath58"><path
         d="M 0,595.276 H 841.89 V 0 H 0 Z"
         id="path58" /></clipPath><clipPath
       clipPathUnits="userSpaceOnUse"
       id="clipPath56"><path
         d="M 0,595.276 H 841.89 V 0 H 0 Z"
         transform="translate(-651.79031,-96.169902)"
         id="path56" /></clipPath><clipPath
       clipPathUnits="userSpaceOnUse"
       id="clipPath54"><path
         d="M 0,595.276 H 841.89 V 0 H 0 Z"
         transform="translate(-634.76062,-107.38381)"
         id="path54" /></clipPath><clipPath
       clipPathUnits="userSpaceOnUse"
       id="clipPath52"><path
         d="M 0,595.276 H 841.89 V 0 H 0 Z"
         transform="translate(-617.84681,-110.6182)"
         id="path52" /></clipPath><clipPath
       clipPathUnits="userSpaceOnUse"
       id="clipPath50"><path
         d="M 0,595.276 H 841.89 V 0 H 0 Z"
         transform="translate(-585.79211,-96.169902)"
         id="path50" /></clipPath><clipPath
       clipPathUnits="userSpaceOnUse"
       id="clipPath48"><path
         d="M 0,595.276 H 841.89 V 0 H 0 Z"
         transform="translate(-570.64781,-107.38381)"
         id="path48" /></clipPath><clipPath
       clipPathUnits="userSpaceOnUse"
       id="clipPath46"><path
         d="M 0,595.276 H 841.89 V 0 H 0 Z"
         transform="translate(-541.57981,-110.6182)"
         id="path46" /></clipPath><clipPath
       clipPathUnits="userSpaceOnUse"
       id="clipPath44"><path
         d="M 0,595.276 H 841.89 V 0 H 0 Z"
         transform="translate(-529.00462,-124.41901)"
         id="path44" /></clipPath><clipPath
       clipPathUnits="userSpaceOnUse"
       id="clipPath42"><path
         d="M 0,595.276 H 841.89 V 0 H 0 Z"
         transform="translate(-519.36851,-111.20611)"
         id="path42" /></clipPath><clipPath
       clipPathUnits="userSpaceOnUse"
       id="clipPath40"><path
         d="M 0,595.276 H 841.89 V 0 H 0 Z"
         transform="translate(-492.10171,-107.38381)"
         id="path40" /></clipPath><clipPath
       clipPathUnits="userSpaceOnUse"
       id="clipPath38"><path
         d="M 0,595.276 H 841.89 V 0 H 0 Z"
         transform="translate(-470.75421,-100.85251)"
         id="path38" /></clipPath><clipPath
       clipPathUnits="userSpaceOnUse"
       id="clipPath36"><path
         d="M 0,595.276 H 841.89 V 0 H 0 Z"
         transform="translate(-452.57221,-110.6182)"
         id="path36" /></clipPath><clipPath
       clipPathUnits="userSpaceOnUse"
       id="clipPath34"><path
         d="M 0,595.276 H 841.89 V 0 H 0 Z"
         transform="translate(-410.02981,-86.622305)"
         id="path34" /></clipPath><clipPath
       clipPathUnits="userSpaceOnUse"
       id="clipPath32"><path
         d="M 0,595.276 H 841.89 V 0 H 0 Z"
         transform="translate(-382.91241,-100.85251)"
         id="path32" /></clipPath><clipPath
       clipPathUnits="userSpaceOnUse"
       id="clipPath30"><path
         d="M 0,595.276 H 841.89 V 0 H 0 Z"
         transform="translate(-361.02961,-107.38381)"
         id="path30" /></clipPath><clipPath
       clipPathUnits="userSpaceOnUse"
       id="clipPath28"><path
         d="M 0,595.276 H 841.89 V 0 H 0 Z"
         transform="translate(-343.60891,-96.169902)"
         id="path28" /></clipPath><clipPath
       clipPathUnits="userSpaceOnUse"
       id="clipPath26"><path
         d="M 0,595.276 H 841.89 V 0 H 0 Z"
         transform="translate(-329.16161,-95.956505)"
         id="path26" /></clipPath><clipPath
       clipPathUnits="userSpaceOnUse"
       id="clipPath24"><path
         d="M 0,595.276 H 841.89 V 0 H 0 Z"
         transform="translate(-311.80691,-100.85251)"
         id="path24" /></clipPath><clipPath
       clipPathUnits="userSpaceOnUse"
       id="clipPath22"><path
         d="M 0,595.276 H 841.89 V 0 H 0 Z"
         transform="translate(-302.65071,-113.0537)"
         id="path22" /></clipPath><clipPath
       clipPathUnits="userSpaceOnUse"
       id="clipPath20"><path
         d="M 0,595.276 H 841.89 V 0 H 0 Z"
         transform="translate(-260.36211,-107.38381)"
         id="path20" /></clipPath><clipPath
       clipPathUnits="userSpaceOnUse"
       id="clipPath18"><path
         d="M 0,595.276 H 841.89 V 0 H 0 Z"
         transform="translate(-253.79971,-110.0723)"
         id="path18" /></clipPath><clipPath
       clipPathUnits="userSpaceOnUse"
       id="clipPath16"><path
         d="M 0,595.276 H 841.89 V 0 H 0 Z"
         transform="translate(-230.9671,-96.169902)"
         id="path16" /></clipPath><clipPath
       clipPathUnits="userSpaceOnUse"
       id="clipPath14"><path
         d="M 0,595.276 H 841.89 V 0 H 0 Z"
         transform="translate(-218.52331,-110.6182)"
         id="path14" /></clipPath><clipPath
       clipPathUnits="userSpaceOnUse"
       id="clipPath12"><path
         d="M 0,595.276 H 841.89 V 0 H 0 Z"
         transform="translate(-181.73661,-107.38381)"
         id="path12" /></clipPath><clipPath
       clipPathUnits="userSpaceOnUse"
       id="clipPath10"><path
         d="M 0,595.276 H 841.89 V 0 H 0 Z"
         transform="translate(-163.5921,-110.6182)"
         id="path10" /></clipPath><clipPath
       clipPathUnits="userSpaceOnUse"
       id="clipPath8"><path
         d="M 0,595.276 H 841.89 V 0 H 0 Z"
         transform="translate(-127.0878,-107.38381)"
         id="path8-3" /></clipPath><clipPath
       clipPathUnits="userSpaceOnUse"
       id="clipPath6"><path
         d="M 0,595.276 H 841.89 V 0 H 0 Z"
         transform="translate(-118.6884,-111.20611)"
         id="path6-6" /></clipPath><clipPath
       clipPathUnits="userSpaceOnUse"
       id="clipPath4"><path
         d="M 0,595.276 H 841.89 V 0 H 0 Z"
         transform="translate(-94.1683,-110.6182)"
         id="path4-7" /></clipPath><clipPath
       clipPathUnits="userSpaceOnUse"
       id="clipPath2"><path
         d="M 0,595.276 H 841.89 V 0 H 0 Z"
         transform="translate(-72.075502,-110.6182)"
         id="path2-5" /></clipPath></defs><sodipodi:namedview
     id="base"
     pagecolor="#d2d2d2"
     bordercolor="#666666"
     borderopacity="1.0"
     inkscape:pageopacity="0"
     inkscape:pageshadow="2"
     inkscape:zoom="0.39375"
     inkscape:cx="-81.051971"
     inkscape:cy="558.86667"
     inkscape:document-units="mm"
     inkscape:current-layer="layer1"
     showgrid="false"
     inkscape:window-width="1366"
     inkscape:window-height="741"
     inkscape:window-x="0"
     inkscape:window-y="0"
     inkscape:window-maximized="1"
     inkscape:showpageshadow="2"
     inkscape:pagecheckerboard="0"
     inkscape:deskcolor="#d1d1d1" /><metadata
     id="metadata5"><rdf:RDF><cc:Work
         rdf:about=""><dc:format>image/svg+xml</dc:format><dc:type
           rdf:resource="http://purl.org/dc/dcmitype/StillImage" /></cc:Work></rdf:RDF></metadata><g
     inkscape:label="Capa 1"
     inkscape:groupmode="layer"
     id="layer1"
     transform="translate(519.01597,-46.217391)"><path
       id="rect1"
       style="fill:#ffffff;stroke:#000000;stroke-width:1.0769;stroke-linecap:round;stroke-linejoin:round"
       d="m -518.47752,46.755841 h 12.50654 v 8.431509 h -4.74124 l -1.40797,1.920151 -1.6161,-1.920151 h -4.74123 z"
       sodipodi:nodetypes="cccccccc" /><path
       id="path71"
       d="m -517.00774,48.793988 h 0.83176 v 0.63452 h 0.48875 v -0.63452 h 0.87463 v 1.980766 h -0.80604 v -0.625957 h -0.5059 v 0.625957 h -0.8832 z"
       style="fill:#000000;fill-opacity:1;fill-rule:nonzero;stroke:none;stroke-width:0.113188"
       clip-path="none" /><path
       id="path73"
       d="m -511.43412,49.368499 v -0.480191 h -0.79745 v 0.480191 h -0.23155 v 0.50591 h 0.23155 v 0.900347 h 0.79745 v -0.874629 h 0.20579 v -0.523063 z"
       style="fill:#000000;fill-opacity:1;fill-rule:nonzero;stroke:none;stroke-width:0.113188"
       clip-path="none" /><path
       id="path75"
       d="m -508.10714,50.774757 h -0.73742 v -2.126532 h 0.73742 z"
       style="fill:#000000;fill-opacity:1;fill-rule:nonzero;stroke:none;stroke-width:0.113188"
       clip-path="none" /><path
       id="path77"
       d="m -508.91319,52.369611 h 0.30869 l -0.15436,-0.557343 z m -1.1147,0.754595 0.82319,-1.980752 h 0.90035 l 0.81458,1.937896 h -0.87462 l -0.11144,-0.205803 h -0.5574 l -0.12861,0.248659 z"
       style="fill:#000000;fill-opacity:1;fill-rule:nonzero;stroke:none;stroke-width:0.113188"
       clip-path="none" /><path
       id="path79"
       d="m -513.55211,49.882987 c -0.11366,0 -0.2058,0.09213 -0.2058,0.205788 0,0.113659 0.0921,0.205803 0.2058,0.205803 0.11365,0 0.20578,-0.09214 0.20578,-0.205803 0,-0.113658 -0.0921,-0.205788 -0.20578,-0.205788 m 0.96896,0.192904 c 0,0.428598 -0.46225,0.750313 -0.96896,0.750313 -0.50671,0 -0.94322,-0.347445 -0.94322,-0.77603 0,-0.428587 0.43651,-0.724584 0.94322,-0.724584 0.50671,0 0.96896,0.321714 0.96896,0.750301"
       style="fill:#000000;fill-opacity:1;fill-rule:nonzero;stroke:none;stroke-width:0.113188"
       clip-path="none" /><path
       id="path81"
       d="m -513.57784,52.202402 c -0.11365,0 -0.20579,0.09214 -0.20579,0.205789 0,0.11366 0.0921,0.205804 0.20579,0.205804 0.11366,0 0.20579,-0.09214 0.20579,-0.205804 0,-0.113645 -0.0921,-0.205789 -0.20579,-0.205789 m 0.20579,-0.484447 h 0.75459 v 1.406243 h -0.72028 c 0,0 -0.007,-0.102695 -0.009,-0.188608 -0.11576,0.128624 -1.16034,0.618745 -1.20047,-0.514487 -0.0167,-0.47135 0.4802,-1.088996 1.17474,-0.540203 z"
       style="fill:#000000;fill-opacity:1;fill-rule:nonzero;stroke:none;stroke-width:0.113188"
       clip-path="none" /><path
       id="path83"
       d="m -511.40147,51.732081 v 0.757564 c 0,0 0.5371,0.05149 0.5371,-0.379391 3e-5,-0.297986 -0.27391,-0.378173 -0.5371,-0.378173 m 1.37358,0.401742 c 0,1.093278 -1.37197,0.990383 -2.22085,0.990383 0.0171,-0.565933 0,-1.980752 0,-1.980752 0.24869,0.01715 2.19514,-0.368695 2.22085,0.990369"
       style="fill:#000000;fill-opacity:1;fill-rule:nonzero;stroke:none;stroke-width:0.113188"
       clip-path="none" /><path
       id="path85"
       d="m -516.17333,51.732081 v 0.757564 c 0,0 0.53709,0.05149 0.53709,-0.379391 4e-5,-0.297986 -0.27391,-0.378173 -0.53709,-0.378173 m 1.37358,0.401742 c 0,1.093278 -1.37194,0.990383 -2.22084,0.990383 0.0171,-0.565933 0,-1.980752 0,-1.980752 0.24867,0.01715 2.19513,-0.368695 2.22084,0.990369"
       style="fill:#000000;fill-opacity:1;fill-rule:nonzero;stroke:none;stroke-width:0.113188"
       clip-path="none" /><path
       id="path87"
       d="m -509.84726,49.943 c 0,-0.113659 -0.0921,-0.205789 -0.20579,-0.205789 -0.11365,0 -0.20579,0.09213 -0.20579,0.205789 m -4.5e-4,0.214352 c -0.0214,0.312993 0.33603,0.311388 0.40557,0.153826 0.27437,0.0024 0.68113,0.0024 0.68113,0.0024 -0.10918,0.293903 -0.51141,0.51255 -0.91893,0.512564 -0.50674,0 -0.94326,-0.347445 -0.94326,-0.776044 0,-0.428573 0.43652,-0.724571 0.94326,-0.724571 0.50669,0 0.96892,0.321715 0.96892,0.750301 0,0.03048 0.003,0.05214 -0.002,0.08146 z"
       style="fill:#000000;fill-opacity:1;fill-rule:nonzero;stroke:none;stroke-width:0.113188"
       clip-path="none" /><path
       id="rect2"
       style="fill:none;stroke:#000000;stroke-width:0.051339;stroke-linecap:round;stroke-linejoin:round;stroke-opacity:1;opacity:0"
       d="m -512.13758,57.753509 h 0.82293 l -0.82293,0.822928 z"
       sodipodi:nodetypes="cccc" /></g></svg>
