<?xml version="1.0" encoding="UTF-8" standalone="no"?>
<!-- Created with Inkscape (http://www.inkscape.org/) -->

<svg
   width="158.74998mm"
   height="158.75mm"
   viewBox="0 0 158.74998 158.75001"
   version="1.1"
   id="svg8"
   inkscape:version="1.3.2 (1:1.3.2+202311252150+091e20ef0f)"
   sodipodi:docname="vigo2-compartir.svg"
   xmlns:inkscape="http://www.inkscape.org/namespaces/inkscape"
   xmlns:sodipodi="http://sodipodi.sourceforge.net/DTD/sodipodi-0.dtd"
   xmlns="http://www.w3.org/2000/svg"
   xmlns:svg="http://www.w3.org/2000/svg"
   xmlns:rdf="http://www.w3.org/1999/02/22-rdf-syntax-ns#"
   xmlns:cc="http://creativecommons.org/ns#"
   xmlns:dc="http://purl.org/dc/elements/1.1/">
  <defs
     id="defs2">
    <clipPath
       clipPathUnits="userSpaceOnUse"
       id="clipPath4-8">
      <path
         d="M 33,599.929 H 784.127 V 33 H 33 Z"
         transform="translate(-526.53832,-519.05732)"
         id="path4-1" />
    </clipPath>
    <clipPath
       clipPathUnits="userSpaceOnUse"
       id="clipPath6-2">
      <path
         d="M 33,599.929 H 784.127 V 33 H 33 Z"
         transform="translate(-583.66921,-530.47331)"
         id="path6-9" />
    </clipPath>
    <clipPath
       clipPathUnits="userSpaceOnUse"
       id="clipPath4-8-6">
      <path
         d="M 33,599.929 H 784.127 V 33 H 33 Z"
         transform="translate(-526.53832,-519.05732)"
         id="path4-1-7" />
    </clipPath>
    <clipPath
       clipPathUnits="userSpaceOnUse"
       id="clipPath6-2-5">
      <path
         d="M 33,599.929 H 784.127 V 33 H 33 Z"
         transform="translate(-583.66921,-530.47331)"
         id="path6-9-3" />
    </clipPath>
  </defs>
  <sodipodi:namedview
     id="base"
     pagecolor="#ffffff"
     bordercolor="#666666"
     borderopacity="1.0"
     inkscape:pageopacity="0"
     inkscape:pageshadow="2"
     inkscape:zoom="0.39375"
     inkscape:cx="-81.051971"
     inkscape:cy="558.86667"
     inkscape:document-units="mm"
     inkscape:current-layer="g378"
     showgrid="false"
     inkscape:window-width="1366"
     inkscape:window-height="741"
     inkscape:window-x="0"
     inkscape:window-y="0"
     inkscape:window-maximized="1"
     inkscape:showpageshadow="2"
     inkscape:pagecheckerboard="0"
     inkscape:deskcolor="#d1d1d1"
     showguides="false">
    <sodipodi:guide
       position="-251.51472,-347.11942"
       orientation="0,-1"
       id="guide239"
       inkscape:locked="false" />
    <sodipodi:guide
       position="-467.24673,-422.15965"
       orientation="0,-1"
       id="guide314"
       inkscape:locked="false" />
    <sodipodi:guide
       position="76.35007,511.33402"
       orientation="0,-1"
       id="guide450"
       inkscape:locked="false" />
    <sodipodi:guide
       position="300.93338,326.75068"
       orientation="0,-1"
       id="guide451"
       inkscape:locked="false" />
    <sodipodi:guide
       position="645.51678,531.33402"
       orientation="1,0"
       id="guide452"
       inkscape:locked="false" />
    <sodipodi:guide
       position="830.10009,306.75068"
       orientation="1,0"
       id="guide453"
       inkscape:locked="false" />
    <sodipodi:guide
       position="1194.6832,531.33402"
       orientation="1,0"
       id="guide454"
       inkscape:locked="false" />
    <sodipodi:guide
       position="1379.2667,326.75067"
       orientation="1,0"
       id="guide455"
       inkscape:locked="false" />
    <sodipodi:guide
       position="2293.0169,511.33402"
       orientation="1,0"
       id="guide456"
       inkscape:locked="false" />
    <sodipodi:guide
       position="2477.6001,326.75067"
       orientation="1,0"
       id="guide457"
       inkscape:locked="false" />
    <sodipodi:guide
       position="96.35007,511.33402"
       orientation="1,0"
       id="guide459"
       inkscape:locked="false" />
    <sodipodi:guide
       position="280.93338,306.75068"
       orientation="1,0"
       id="guide460"
       inkscape:locked="false" />
    <sodipodi:guide
       position="424.41488,425.72468"
       orientation="0,-1"
       id="guide538"
       inkscape:locked="false" />
    <sodipodi:guide
       position="411.02908,340.11536"
       orientation="0,-1"
       id="guide539"
       inkscape:locked="false" />
    <sodipodi:guide
       position="3321.3501,306.75068"
       orientation="1,0"
       id="guide566"
       inkscape:locked="false" />
    <sodipodi:guide
       position="3116.7668,531.33402"
       orientation="1,0"
       id="guide567"
       inkscape:locked="false" />
    <inkscape:page
       x="0"
       y="0"
       width="158.74998"
       height="158.75002"
       id="page1"
       margin="0"
       bleed="0"
       inkscape:export-filename="vigo2-compartir.png"
       inkscape:export-xdpi="96"
       inkscape:export-ydpi="96" />
    <sodipodi:guide
       position="56.35007,286.75068"
       orientation="1,0"
       id="guide1"
       inkscape:locked="false" />
    <sodipodi:guide
       position="179.16478,97.688549"
       orientation="1,0"
       id="guide6"
       inkscape:locked="false" />
    <sodipodi:guide
       position="114.09207,47.926084"
       orientation="1,0"
       id="guide9"
       inkscape:locked="false" />
    <sodipodi:guide
       position="167.21188,42.690424"
       orientation="1,0"
       id="guide10"
       inkscape:locked="false" />
    <sodipodi:guide
       position="258.50508,41.858924"
       orientation="1,0"
       id="guide12"
       inkscape:locked="false" />
    <sodipodi:guide
       position="311.56258,79.283769"
       orientation="1,0"
       id="guide18"
       inkscape:locked="false" />
    <sodipodi:guide
       position="295.65098,37.538404"
       orientation="0,-1"
       id="guide21"
       inkscape:locked="false" />
    <sodipodi:guide
       position="398.28648,-49.606647"
       orientation="1,0"
       id="guide27"
       inkscape:locked="false" />
    <sodipodi:guide
       position="123.46447,25.466393"
       orientation="1,0"
       id="guide80"
       inkscape:locked="false" />
  </sodipodi:namedview>
  <metadata
     id="metadata5">
    <rdf:RDF>
      <cc:Work
         rdf:about="">
        <dc:format>image/svg+xml</dc:format>
        <dc:type
           rdf:resource="http://purl.org/dc/dcmitype/StillImage" />
      </cc:Work>
    </rdf:RDF>
  </metadata>
  <g
     inkscape:label="Capa 1"
     inkscape:groupmode="layer"
     id="layer1"
     transform="translate(56.349979,-286.75069)">
    <rect
       style="fill:#ffffff;stroke:#c81111;stroke-width:0.0476899;-inkscape-stroke:none;paint-order:stroke markers fill"
       id="rect1"
       width="158.7023"
       height="158.70232"
       x="-56.326134"
       y="286.77454" />
    <g
       id="g3"
       transform="translate(-0.23268138,-1.0729066)">
      <rect
         style="fill:#008e00;fill-opacity:1;stroke-width:0.299474;-inkscape-stroke:none;paint-order:fill markers stroke"
         id="rect2"
         width="158.75"
         height="158.75"
         x="-56.117298"
         y="287.82361"
         ry="0" />
      <g
         id="g378"
         transform="matrix(0.57307215,0,0,0.57307215,288.15764,244.54314)"
         style="stroke-width:0.461693">
        <g
           id="g9"
           transform="translate(4.0000002,-14)"
           style="stroke-width:0.461693">
          <path
             id="path1-3"
             d="m -520.81688,125.666 -21.16133,58.204 h -13.68134 l -21.28133,-58.204 h 16.92133 l 11.04134,36.00133 h 0.2 l 11.2,-36.00133 z"
             style="fill:#000000;fill-opacity:1;fill-rule:nonzero;stroke:none;stroke-width:0.615589" />
          <path
             id="path2-9"
             d="m -516.08703,125.66575 h 15.80133 v 58.204 h -15.80133 z"
             style="fill:#000000;fill-opacity:1;fill-rule:nonzero;stroke:none;stroke-width:0.615589" />
          <path
             id="path3-0"
             d="m 0,0 c -2.27,0.62 -4.356,1.55 -6.256,2.79 -1.9,1.24 -3.54,2.735 -4.92,4.486 -1.38,1.749 -2.455,3.825 -3.225,6.225 -0.77,2.4 -1.155,5.01 -1.155,7.83 0,2.52 0.315,4.916 0.945,7.186 0.63,2.27 1.57,4.34 2.82,6.21 1.25,1.87 2.76,3.486 4.53,4.846 1.77,1.36 3.85,2.419 6.241,3.18 2.39,0.76 4.975,1.14 7.755,1.14 2.16,0 4.331,-0.3 6.511,-0.9 2.18,-0.6 4.28,-1.515 6.3,-2.745 2.02,-1.231 3.75,-2.706 5.191,-4.425 l -8.281,-6.991 c -2.84,2.72 -6.09,4.08 -9.751,4.08 -1.06,0 -2.085,-0.16 -3.075,-0.48 -0.99,-0.32 -1.91,-0.805 -2.76,-1.455 -0.85,-0.65 -1.59,-1.43 -2.22,-2.34 -0.631,-0.91 -1.125,-1.991 -1.485,-3.241 -0.36,-1.25 -0.54,-2.605 -0.54,-4.065 0,-1.56 0.239,-3.035 0.72,-4.425 0.479,-1.39 1.155,-2.62 2.025,-3.69 0.87,-1.07 1.985,-1.915 3.345,-2.535 1.36,-0.62 2.86,-0.93 4.5,-0.93 2.28,0 4.46,0.48 6.54,1.44 v 4.02 h -7.44 v 9.42 H 24.706 V 4.321 C 22.687,2.8 20.086,1.545 16.906,0.555 13.726,-0.435 10.496,-0.93 7.215,-0.93 4.675,-0.93 2.27,-0.62 0,0"
             style="fill:#000000;fill-opacity:1;fill-rule:nonzero;stroke:none;stroke-width:0.461693"
             transform="matrix(1.3333333,0,0,-1.3333333,-472.37861,183.34933)"
             clip-path="url(#clipPath4-8-6)" />
          <path
             id="path5-8"
             d="m 0,0 c 1.61,1.03 2.85,2.42 3.72,4.17 0.87,1.75 1.305,3.695 1.305,5.836 0,2.139 -0.435,4.085 -1.305,5.835 -0.87,1.75 -2.11,3.14 -3.72,4.17 -1.61,1.03 -3.425,1.545 -5.445,1.545 -2.02,0 -3.831,-0.51 -5.431,-1.53 -1.6,-1.02 -2.845,-2.41 -3.735,-4.17 -0.89,-1.761 -1.335,-3.711 -1.335,-5.85 0,-2.141 0.445,-4.086 1.335,-5.836 0.89,-1.75 2.14,-3.14 3.75,-4.17 1.61,-1.03 3.416,-1.546 5.416,-1.546 2.02,0 3.835,0.516 5.445,1.546 m -14.626,-10.786 c -2.82,1.1 -5.22,2.63 -7.201,4.59 -1.98,1.961 -3.525,4.331 -4.635,7.111 -1.11,2.78 -1.665,5.81 -1.665,9.091 0,3.28 0.555,6.314 1.665,9.105 1.11,2.79 2.655,5.165 4.635,7.125 1.981,1.961 4.381,3.491 7.201,4.591 2.821,1.099 5.891,1.65 9.211,1.65 3.28,0 6.32,-0.545 9.12,-1.635 2.8,-1.09 5.19,-2.61 7.171,-4.561 1.98,-1.95 3.53,-4.325 4.65,-7.125 1.12,-2.8 1.68,-5.85 1.68,-9.15 0,-3.301 -0.56,-6.346 -1.68,-9.136 -1.12,-2.79 -2.67,-5.161 -4.65,-7.111 -1.981,-1.95 -4.371,-3.47 -7.171,-4.56 -2.8,-1.09 -5.84,-1.635 -9.12,-1.635 -3.32,0 -6.39,0.55 -9.211,1.65"
             style="fill:#000000;fill-opacity:1;fill-rule:nonzero;stroke:none;stroke-width:0.461693"
             transform="matrix(1.3333333,0,0,-1.3333333,-396.20408,168.128)"
             clip-path="url(#clipPath6-2-5)" />
        </g>
        <text
           xml:space="preserve"
           style="font-weight:bold;font-size:12.1745px;line-height:100%;font-family:Arial;-inkscape-font-specification:'Arial Bold';text-decoration:none;text-decoration-line:none;text-decoration-color:#000000;letter-spacing:0px;word-spacing:0px;fill:#000000;fill-opacity:1;stroke-width:0.615589;-inkscape-stroke:none;paint-order:fill markers stroke"
           x="-555.19073"
           y="197.29932"
           id="text376-4"><tspan
             sodipodi:role="line"
             id="tspan376-7"
             style="font-style:normal;font-variant:normal;font-weight:500;font-stretch:normal;font-family:'ITC American Typewriter Std';-inkscape-font-specification:'ITC American Typewriter Std Medium';letter-spacing:0px;fill:#000000;fill-opacity:1;stroke-width:0.615589"
             x="-555.19073"
             y="197.29932">VOLUMEN 2</tspan><tspan
             sodipodi:role="line"
             style="font-style:normal;font-variant:normal;font-weight:500;font-stretch:normal;font-family:'ITC American Typewriter Std';-inkscape-font-specification:'ITC American Typewriter Std Medium';letter-spacing:0px;fill:#000000;fill-opacity:1;stroke-width:0.615589"
             x="-555.19073"
             y="210.48131"
             id="tspan377">POESIA VISUAL PORTUGUESA</tspan><tspan
             sodipodi:role="line"
             style="font-style:normal;font-variant:normal;font-weight:500;font-stretch:normal;font-family:'ITC American Typewriter Std';-inkscape-font-specification:'ITC American Typewriter Std Medium';letter-spacing:0px;fill:#000000;fill-opacity:1;stroke-width:0.615589"
             x="-555.19073"
             y="223.6633"
             id="tspan378">FERNANDO AGUIAR</tspan></text>
      </g>
    </g>
  </g>
</svg>
